<svg width="12" height="12" viewBox="0 0 12 12" fill="none" xmlns="http://www.w3.org/2000/svg">
<g clip-path="url(#clip0_68652_343754)">
<path d="M1.15862 11.658C1.73852 11.658 2.14444 11.368 2.55037 11.1361C2.89831 10.9621 3.24625 10.7302 3.65218 10.5562C5.50785 9.57037 7.36352 8.52655 9.21919 7.48274C9.79908 7.19279 10.5529 6.90284 10.9589 6.38093C11.0749 6.20696 11.2488 5.97501 11.1908 5.68506C11.0169 5.04717 10.205 4.81521 9.6831 4.52526C8.40733 3.82939 7.07357 3.07552 5.79779 2.37965C5.33388 2.0897 4.638 1.56779 4.0581 1.97372C3.82614 2.0897 3.71017 2.20568 3.65218 2.37965C3.59419 2.6116 3.65218 2.90155 3.65218 3.13351V4.98918C3.65218 5.51109 3.59419 5.91702 3.94212 6.14897C4.0581 6.20696 4.29006 6.26495 4.46403 6.20696C5.04393 5.97501 4.86996 4.93119 4.86996 4.11934V3.48145C5.85578 4.00336 6.84161 4.52526 7.82743 4.98918C8.17537 5.16315 8.75527 5.33712 8.87125 5.80104C8.98723 6.32294 7.88542 6.72887 7.53748 6.90284L3.5362 9.16444C3.24625 9.33841 2.49238 9.9183 2.02846 9.74434C1.8545 9.68635 1.73852 9.51238 1.73852 9.3964C1.68053 9.16444 1.68053 8.8165 1.68053 8.52655V6.67088V3.53944C1.68053 3.07552 1.62254 2.49563 1.79651 2.20568C2.20243 1.62578 3.13027 2.66959 3.42022 1.74176C3.47821 1.5098 3.36223 1.27784 3.24625 1.16186C3.01429 0.813924 1.97047 0.292017 1.56455 0.176038C1.44857 0.118048 1.15862 0.0600586 0.98465 0.0600586C-0.00117493 0.234028 0.230784 1.79975 0.230784 2.95954V8.70052C0.230784 9.57037 0.114804 10.7302 0.462743 11.2521C0.636712 11.542 0.810681 11.542 1.15862 11.658ZM4.17408 7.88867C5.04393 7.88867 5.10192 6.78686 4.29006 6.61289C3.82614 6.5549 3.47821 7.01882 3.59419 7.42475C3.71017 7.7147 3.88413 7.77269 4.17408 7.88867Z" fill="#00AECD"/>
</g>
<defs>
<clipPath id="clip0_68652_343754">
<rect width="11.25" height="11.7187" fill="white"/>
</clipPath>
</defs>
</svg>
