<svg width="81" height="80" viewBox="0 0 81 80" fill="none" xmlns="http://www.w3.org/2000/svg">
<path d="M18.6234 4.61084H30.6641C31.1234 4.61084 31.4188 5.09678 31.2078 5.50459C30.8764 6.14608 30.4083 6.70705 29.8365 7.14791C29.2647 7.58878 28.6031 7.89882 27.8984 8.05615L22.3156 9.30303C20.3656 9.73897 18.9188 11.3843 18.7375 13.3733L17.2063 30.1249C17.1614 30.6136 17.0168 31.0878 16.7814 31.5184C16.546 31.9489 16.2247 32.3266 15.8375 32.628C15.475 32.9108 14.9453 32.6515 14.9453 32.1921V8.28896C14.9453 6.25771 16.5906 4.61084 18.6234 4.61084Z" fill="#E1EAF8"/>
<path d="M62.1445 48.4531C54.1227 48.4531 47.6211 54.9562 47.6211 62.9766C47.6211 70.9984 54.1242 77.5 62.1445 77.5C70.1664 77.5 76.668 70.9969 76.668 62.9766C76.668 54.9547 70.1664 48.4531 62.1445 48.4531ZM70.2086 69.4938C70.4135 69.699 70.5285 69.9772 70.5285 70.2672C70.5285 70.5572 70.4135 70.8354 70.2086 71.0406C69.9945 71.2547 69.7148 71.3609 69.4352 71.3609C69.1555 71.3609 68.8758 71.2547 68.6617 71.0406L62.1445 64.5234L55.6273 71.0406C55.4133 71.2547 55.1336 71.3609 54.8539 71.3609C54.5742 71.3609 54.2945 71.2547 54.0805 71.0406C53.8756 70.8354 53.7605 70.5572 53.7605 70.2672C53.7605 69.9772 53.8756 69.699 54.0805 69.4938L60.5977 62.9766L54.0805 56.4594C53.6539 56.0328 53.6539 55.3391 54.0805 54.9125C54.507 54.4859 55.2008 54.4859 55.6273 54.9125L62.1445 61.4297L68.6617 54.9125C69.0883 54.4859 69.782 54.4859 70.2086 54.9125C70.6352 55.3391 70.6352 56.0328 70.2086 56.4594L63.6914 62.9766L70.2086 69.4938Z" fill="#FD4E4E"/>
<path d="M60.4102 14.8359L48.3133 2.77656C47.7805 2.24531 47.0742 1.95312 46.3227 1.95312H14.3945C12.9852 1.95312 11.8398 3.1 11.8398 4.50781V33.9625C11.8398 34.7047 12.2367 35.4016 12.8773 35.7781L20.8414 40.4812C21.5023 40.8719 22.3242 40.8719 22.9867 40.4812L30.9258 35.7938C31.2445 35.6063 31.6398 35.6063 31.9586 35.7938L39.8977 40.4812C40.2289 40.6766 40.5992 40.775 40.9695 40.775C41.3398 40.775 41.7117 40.6781 42.0414 40.4812L49.9805 35.7938C50.2992 35.6063 50.6945 35.6063 51.0133 35.7938L58.8039 40.3937C59.1711 40.6109 59.6102 40.6141 59.9805 40.4031C60.3508 40.1922 60.5711 39.8109 60.5711 39.3859V15.2234C60.5711 15.0781 60.5133 14.9391 60.4102 14.8359ZM59.4773 39.3844C59.4773 39.3953 59.4773 39.4297 59.4383 39.4516C59.3992 39.4734 59.3695 39.4562 59.3602 39.4516L51.5695 34.8516C50.9086 34.4609 50.0867 34.4609 49.4242 34.8516L41.4852 39.5391C41.3286 39.6311 41.1503 39.6797 40.9687 39.6797C40.7872 39.6797 40.6089 39.6311 40.4523 39.5391L32.5133 34.8516C32.182 34.6562 31.8117 34.5578 31.4414 34.5578C31.0711 34.5578 30.6992 34.6547 30.3695 34.8516L22.4305 39.5391C22.274 39.6311 22.0957 39.6797 21.9141 39.6797C21.7325 39.6797 21.5542 39.6311 21.3977 39.5391L13.4336 34.8359C13.2817 34.7458 13.1557 34.6178 13.0681 34.4645C12.9804 34.3111 12.9341 34.1376 12.9336 33.9609V4.50781C12.9336 3.70156 13.5898 3.04688 14.3945 3.04688H46.3227C46.782 3.04688 47.2164 3.225 47.5414 3.55L49.943 5.94375V10.3328C49.943 12.2234 51.0164 13.8625 52.5867 14.6766H49.8914C48.743 14.6766 47.8102 13.7422 47.8102 12.5953V6.52188C47.8102 6.22031 47.5648 5.975 47.2633 5.975C46.9617 5.975 46.7164 6.22031 46.7164 6.52188V12.5938C46.7164 14.3453 48.1414 15.7687 49.8914 15.7687H59.4789L59.4773 39.3844Z" fill="#9A9A9A"/>
<path d="M59.5336 43.0846L51.568 38.3814C50.907 37.9908 50.0852 37.9908 49.4227 38.3814L41.4836 43.0689C41.3271 43.161 41.1488 43.2096 40.9672 43.2096C40.7856 43.2096 40.6073 43.161 40.4508 43.0689L32.5117 38.3814C31.8508 37.9908 31.0289 37.9908 30.3664 38.3814L22.4273 43.0689C22.2708 43.161 22.0925 43.2096 21.9109 43.2096C21.7293 43.2096 21.5511 43.161 21.3945 43.0689L13.607 38.4689C13.2398 38.2518 12.8008 38.2486 12.4305 38.4596C12.0602 38.6705 11.8398 39.0518 11.8398 39.4768V68.1471C11.8398 69.5564 12.9867 70.7018 14.3945 70.7018H46.6398C46.9414 70.7018 47.1867 70.4564 47.1867 70.1549C47.1867 69.8533 46.9414 69.608 46.6398 69.608H14.3945C13.5883 69.608 12.9336 68.9518 12.9336 68.1471V39.4783C12.9336 39.4674 12.9336 39.433 12.9727 39.4111C13.0117 39.3893 13.0414 39.4064 13.0508 39.4111L20.8398 44.0111C21.5008 44.4018 22.3227 44.4018 22.9852 44.0111L30.9242 39.3236C31.243 39.1361 31.6383 39.1361 31.957 39.3236L39.8961 44.0111C40.557 44.4018 41.3789 44.4018 42.0414 44.0111L49.9805 39.3236C50.2992 39.1361 50.6945 39.1361 51.0133 39.3236L58.9789 44.0268C59.1308 44.1169 59.2568 44.2449 59.3444 44.3982C59.4321 44.5516 59.4784 44.7251 59.4789 44.9018V46.3189C59.4789 46.6205 59.7242 46.8658 60.0258 46.8658C60.3273 46.8658 60.5727 46.6205 60.5727 46.3189V44.9018C60.5711 44.158 60.1742 43.4611 59.5336 43.0846ZM50.668 20.2721H21.3602C21.0586 20.2721 20.8133 20.5174 20.8133 20.8189C20.8133 21.1205 21.0586 21.3658 21.3602 21.3658H50.668C50.9695 21.3658 51.2148 21.1205 51.2148 20.8189C51.2148 20.5174 50.9695 20.2721 50.668 20.2721ZM50.668 27.5236H21.3602C21.0586 27.5236 20.8133 27.7689 20.8133 28.0705C20.8133 28.3721 21.0586 28.6174 21.3602 28.6174H50.668C50.9695 28.6174 51.2148 28.3721 51.2148 28.0705C51.2148 27.7689 50.9695 27.5236 50.668 27.5236ZM24.9133 14.1143H43.6477C43.9492 14.1143 44.1945 13.8689 44.1945 13.5674C44.1945 13.2658 43.9492 13.0205 43.6477 13.0205H24.9133C24.6117 13.0205 24.3664 13.2658 24.3664 13.5674C24.3664 13.8689 24.6117 14.1143 24.9133 14.1143Z" fill="#9A9A9A"/>
<path d="M46.7 55.9249C46.7 55.6233 46.4547 55.378 46.1531 55.378H21.3594C21.0578 55.378 20.8125 55.6233 20.8125 55.9249C20.8125 56.2265 21.0578 56.4718 21.3594 56.4718H46.1531C46.4547 56.4718 46.7 56.2265 46.7 55.9249ZM21.3594 62.6296C21.0578 62.6296 20.8125 62.8749 20.8125 63.1765C20.8125 63.478 21.0578 63.7233 21.3594 63.7233H44.6734C44.975 63.7233 45.2203 63.478 45.2203 63.1765C45.2203 62.8749 44.975 62.6296 44.6734 62.6296H21.3594ZM50.6672 48.1265H21.3594C21.0578 48.1265 20.8125 48.3718 20.8125 48.6733C20.8125 48.9749 21.0578 49.2202 21.3594 49.2202H50.6672C50.9688 49.2202 51.2141 48.9749 51.2141 48.6733C51.2141 48.3718 50.9688 48.1265 50.6672 48.1265Z" fill="#9A9A9A"/>
</svg>
