<svg width="80" height="80" viewBox="0 0 80 80" fill="none" xmlns="http://www.w3.org/2000/svg">
<rect opacity="0.1" x="24.1992" y="11.4785" width="31.4618" height="21.3703" rx="2.66798" fill="#9A9A9A"/>
<g opacity="0.3">
<path fill-rule="evenodd" clip-rule="evenodd" d="M38.7473 15.6719C39.5875 15.5989 40.4324 15.5989 41.2726 15.6719L41.6755 15.7071C41.8627 15.7235 42.039 15.8024 42.176 15.9312C42.313 16.0599 42.4027 16.2309 42.4308 16.4168C42.5518 17.2216 42.5518 18.0399 42.4308 18.8447C42.4199 18.9153 42.4011 18.9823 42.3742 19.0458C42.3566 19.0877 42.3022 19.0941 42.2712 19.0605L41.0917 17.7628C41.0656 17.7341 41.0318 17.7136 40.9943 17.7038C40.9567 17.694 40.9172 17.6953 40.8804 17.7076L40.2051 17.9328L39.2257 16.8309C39.2076 16.8105 39.1855 16.794 39.1608 16.7825C39.1361 16.771 39.1093 16.7646 39.082 16.7638C39.0548 16.763 39.0276 16.7678 39.0023 16.7778C38.9769 16.7879 38.9539 16.8031 38.9346 16.8223L37.6236 18.1334C37.6147 18.1425 37.6033 18.1489 37.5908 18.1517C37.5784 18.1545 37.5654 18.1535 37.5534 18.149C37.5415 18.1445 37.5311 18.1366 37.5235 18.1263C37.516 18.116 37.5117 18.1037 37.511 18.091C37.4795 17.5316 37.5056 16.9705 37.5889 16.4165C37.6169 16.2307 37.7067 16.0596 37.8436 15.9309C37.9806 15.8022 38.157 15.7233 38.3442 15.7069L38.7473 15.6719ZM40.5434 16.8303C40.5434 16.7242 40.5856 16.6224 40.6607 16.5474C40.7357 16.4723 40.8375 16.4302 40.9436 16.4302C41.0498 16.4302 41.1516 16.4723 41.2266 16.5474C41.3017 16.6224 41.3438 16.7242 41.3438 16.8303C41.3438 16.9365 41.3017 17.0383 41.2266 17.1133C41.1516 17.1884 41.0498 17.2305 40.9436 17.2305C40.8375 17.2305 40.7357 17.1884 40.6607 17.1133C40.5856 17.0383 40.5434 16.9365 40.5434 16.8303Z" fill="#9A9A9A"/>
<path d="M37.5974 18.7244C37.5902 18.7317 37.5848 18.7405 37.5815 18.7503C37.5783 18.76 37.5774 18.7703 37.5787 18.7804L37.5881 18.8445C37.6161 19.0304 37.7058 19.2014 37.8428 19.3301C37.9798 19.4589 38.1561 19.5378 38.3434 19.5542L38.7463 19.5891C39.5867 19.6622 40.4314 19.6622 41.2718 19.5891L41.6746 19.5542C41.7852 19.5448 41.8927 19.5133 41.9908 19.4616C42.0273 19.4426 42.0335 19.3944 42.0057 19.3639L40.9119 18.1607C40.9032 18.151 40.8919 18.1441 40.8793 18.1408C40.8667 18.1375 40.8535 18.1379 40.8412 18.142L40.2056 18.3538C40.1685 18.3662 40.1285 18.3675 40.0907 18.3574C40.0528 18.3473 40.0188 18.3263 39.9927 18.297L39.1136 17.308C39.1076 17.3012 39.1002 17.2957 39.092 17.2919C39.0837 17.288 39.0748 17.2859 39.0657 17.2857C39.0566 17.2854 39.0475 17.287 39.0391 17.2904C39.0306 17.2938 39.0229 17.2989 39.0165 17.3053L37.5974 18.7244Z" fill="#9A9A9A"/>
</g>
<rect opacity="0.2" x="28.7285" y="22.832" width="22.5616" height="1.7355" rx="0.867752" fill="#9A9A9A"/>
<rect opacity="0.2" x="28.7285" y="26.5674" width="22.5616" height="0.867752" rx="0.433876" fill="#9A9A9A"/>
<rect opacity="0.2" x="32.416" y="29.4351" width="15.1857" height="0.867752" rx="0.433876" fill="#9A9A9A"/>
<path d="M58.9973 69.0953C58.6957 69.0953 58.4504 69.3406 58.4504 69.6422V70.0953C58.4504 73.8766 55.3738 76.9531 51.5926 76.9531H28.4066C24.6254 76.9531 21.5488 73.8766 21.5488 70.0953V18.3359C21.5488 18.0344 21.3035 17.7891 21.002 17.7891C20.7004 17.7891 20.4551 18.0344 20.4551 18.3359V70.0953C20.4551 74.4797 24.0223 78.0469 28.4066 78.0469H51.5941C55.9785 78.0469 59.5457 74.4797 59.5457 70.0953V69.6422C59.5452 69.497 59.4872 69.358 59.3844 69.2555C59.2816 69.153 59.1424 69.0954 58.9973 69.0953ZM51.5941 1.95312H28.4066C24.0223 1.95312 20.4551 5.52031 20.4551 9.90469V14.6234C20.4551 14.925 20.7004 15.1703 21.002 15.1703C21.3035 15.1703 21.5488 14.925 21.5488 14.6234V9.90469C21.5488 6.12344 24.6254 3.04688 28.4066 3.04688H51.5941C55.3754 3.04688 58.452 6.12344 58.452 9.90469V40.2609C58.452 40.5625 58.6973 40.8078 58.9988 40.8078C59.3004 40.8078 59.5457 40.5625 59.5457 40.2609V9.90469C59.5441 5.52031 55.977 1.95312 51.5941 1.95312Z" fill="#9A9A9A"/>
<path d="M44.3449 8.70771C45.4699 8.70771 46.3855 7.79209 46.3855 6.66709C46.3855 5.54209 45.4699 4.62646 44.3449 4.62646H35.6543C34.5293 4.62646 33.6137 5.54209 33.6137 6.66709C33.6137 7.79209 34.5293 8.70771 35.6543 8.70771H44.3449ZM45.2918 6.66709C45.2918 7.18896 44.8668 7.61396 44.3449 7.61396H42.1371C42.7574 7.17334 43.198 6.4999 43.3355 5.72178H44.3449C44.8668 5.72021 45.2918 6.14521 45.2918 6.66709ZM30.5449 73.7718C30.5449 74.0733 30.7902 74.3187 31.0918 74.3187H48.909C49.2105 74.3187 49.4559 74.0733 49.4559 73.7718C49.4559 73.4702 49.2105 73.2249 48.909 73.2249H31.0918C30.7887 73.2249 30.5449 73.4702 30.5449 73.7718Z" fill="#9A9A9A"/>
<path d="M66.4482 45.3672C66.5192 45.3278 66.5825 45.2712 66.6326 45.2005L68.9428 41.8493C69.0221 41.7298 69.0513 41.584 69.0241 41.4432C68.9969 41.3024 68.9155 41.1779 68.7975 41.0966C68.6794 41.0152 68.5341 40.9835 68.3929 41.0082C68.2516 41.0329 68.1257 41.1122 68.0423 41.2288L65.7327 44.5779C65.6504 44.6973 65.619 44.8445 65.6452 44.9871C65.6715 45.1297 65.7533 45.2561 65.8727 45.3383C65.9564 45.3964 66.0546 45.4298 66.1563 45.435C66.258 45.4401 66.3591 45.4166 66.4482 45.3672ZM76.3266 56.0952C76.5028 55.9973 76.6189 55.8041 76.6082 55.5884C76.6007 55.4437 76.536 55.3079 76.4285 55.2108C76.3209 55.1138 76.1793 55.0633 76.0345 55.0706L71.9701 55.2798C71.8254 55.2873 71.6896 55.352 71.5925 55.4595C71.4954 55.5671 71.445 55.7087 71.4523 55.8534C71.4598 55.9981 71.5244 56.134 71.632 56.2311C71.7395 56.3281 71.8812 56.3786 72.0259 56.3713L76.0889 56.1628C76.1762 56.159 76.2569 56.1339 76.3266 56.0952ZM35.4855 59.6346C35.6508 59.5428 35.7642 59.3672 35.7672 59.1636C35.7683 59.0917 35.7552 59.0204 35.7288 58.9536C35.7023 58.8868 35.6629 58.8259 35.6128 58.7744C35.5628 58.7228 35.5031 58.6816 35.4371 58.6532C35.3711 58.6247 35.3002 58.6095 35.2283 58.6085L31.1606 58.5479C31.0163 58.5469 30.8774 58.603 30.7743 58.704C30.6711 58.8049 30.612 58.9425 30.6099 59.0869C30.6077 59.2312 30.6627 59.3705 30.7629 59.4745C30.863 59.5784 31.0002 59.6386 31.1445 59.6418L35.2122 59.7024C35.3102 59.7052 35.4049 59.6794 35.4855 59.6346ZM38.8415 47.4128C38.9097 47.3751 38.9691 47.3232 39.0156 47.2607C39.0621 47.1981 39.0947 47.1263 39.1111 47.0501C39.1276 46.9739 39.1275 46.8951 39.1109 46.8189C39.0944 46.7428 39.0617 46.671 39.015 46.6086L36.5842 43.3456C36.403 43.1031 36.0602 43.0522 35.8198 43.234C35.5773 43.4152 35.5278 43.7573 35.7082 43.9984L38.139 47.2614C38.218 47.3672 38.3327 47.4409 38.4619 47.4687C38.591 47.4965 38.7259 47.4767 38.8415 47.4128Z" fill="#0166FF"/>
<mask id="path-10-inside-1_81946_385719" fill="white">
<path d="M7.61932 72.1673C7.38258 72.1673 7.24053 72.0245 7.19318 71.7864C7.00379 70.9768 6.625 70.2149 6.00947 69.5959C5.39394 68.9768 4.68371 68.5959 3.87879 68.4054C3.64205 68.4054 3.5 68.2149 3.5 68.0245C3.5 67.834 3.64205 67.6435 3.87879 67.5959C4.68371 67.453 5.44129 67.0245 6.05682 66.4054C6.67235 65.7864 7.05114 65.0721 7.24053 64.2149C7.28788 63.9768 7.47727 63.834 7.66667 63.834C7.85606 63.834 8.04545 63.9768 8.0928 64.2149C8.2822 65.0245 8.66098 65.7864 9.27652 66.4054C9.89205 67.0245 10.6023 67.4054 11.4545 67.5959C11.6913 67.6435 11.8333 67.834 11.8333 68.0245C11.8333 68.2149 11.6913 68.4054 11.4545 68.453C9.79735 68.7864 8.47159 70.1197 8.14015 71.7864C7.99811 72.0245 7.85606 72.1673 7.61932 72.1673ZM4.87311 68.0245C5.48864 68.2626 6.05682 68.6435 6.5303 69.1197C7.00379 69.5959 7.38258 70.1673 7.61932 70.7864C8.14015 69.5006 9.13447 68.5006 10.3655 67.9768C9.75 67.7387 9.18182 67.3578 8.70833 66.8816C8.23485 66.4054 7.85606 65.834 7.61932 65.2149C7.38258 65.834 7.00379 66.4054 6.5303 66.8816C6.05682 67.4054 5.48864 67.7864 4.87311 68.0245Z"/>
</mask>
<path d="M7.61932 72.1673C7.38258 72.1673 7.24053 72.0245 7.19318 71.7864C7.00379 70.9768 6.625 70.2149 6.00947 69.5959C5.39394 68.9768 4.68371 68.5959 3.87879 68.4054C3.64205 68.4054 3.5 68.2149 3.5 68.0245C3.5 67.834 3.64205 67.6435 3.87879 67.5959C4.68371 67.453 5.44129 67.0245 6.05682 66.4054C6.67235 65.7864 7.05114 65.0721 7.24053 64.2149C7.28788 63.9768 7.47727 63.834 7.66667 63.834C7.85606 63.834 8.04545 63.9768 8.0928 64.2149C8.2822 65.0245 8.66098 65.7864 9.27652 66.4054C9.89205 67.0245 10.6023 67.4054 11.4545 67.5959C11.6913 67.6435 11.8333 67.834 11.8333 68.0245C11.8333 68.2149 11.6913 68.4054 11.4545 68.453C9.79735 68.7864 8.47159 70.1197 8.14015 71.7864C7.99811 72.0245 7.85606 72.1673 7.61932 72.1673ZM4.87311 68.0245C5.48864 68.2626 6.05682 68.6435 6.5303 69.1197C7.00379 69.5959 7.38258 70.1673 7.61932 70.7864C8.14015 69.5006 9.13447 68.5006 10.3655 67.9768C9.75 67.7387 9.18182 67.3578 8.70833 66.8816C8.23485 66.4054 7.85606 65.834 7.61932 65.2149C7.38258 65.834 7.00379 66.4054 6.5303 66.8816C6.05682 67.4054 5.48864 67.7864 4.87311 68.0245Z" fill="#9A9A9A"/>
<path d="M7.19318 71.7864L11.9757 70.8353L11.9598 70.7551L11.9412 70.6755L7.19318 71.7864ZM3.87879 68.4054L5.00167 63.6603L4.44788 63.5292H3.87879V68.4054ZM3.87879 67.5959L3.02668 62.7947L2.97184 62.8045L2.91724 62.8154L3.87879 67.5959ZM7.24053 64.2149L12.0019 65.267L12.013 65.2166L12.0231 65.166L7.24053 64.2149ZM8.0928 64.2149L3.31026 65.166L3.3262 65.2462L3.34482 65.3258L8.0928 64.2149ZM11.4545 67.5959L10.391 72.3547L10.4419 72.366L10.493 72.3763L11.4545 67.5959ZM11.4545 68.453L12.4161 73.2335L11.4545 68.453ZM8.14015 71.7864L12.3277 74.2846L12.7586 73.5623L12.9227 72.7374L8.14015 71.7864ZM4.87311 68.0245L3.11395 63.4766L-8.64318 68.0245L3.11395 72.5723L4.87311 68.0245ZM7.61932 70.7864L3.06482 72.5281L7.48874 84.0961L12.1388 72.6172L7.61932 70.7864ZM10.3655 67.9768L12.2747 72.4637L23.3255 67.7617L12.1247 63.429L10.3655 67.9768ZM7.61932 65.2149L12.1738 63.4732L7.61932 51.5638L3.06482 63.4732L7.61932 65.2149ZM6.5303 66.8816L3.07251 63.4435L2.99071 63.5257L2.91293 63.6118L6.5303 66.8816ZM7.61932 72.1673V67.2911C8.54139 67.2911 9.684 67.5993 10.6404 68.481C11.5321 69.3031 11.8599 70.253 11.9757 70.8353L7.19318 71.7864L2.41064 72.7374C2.57378 73.5578 2.99632 74.6982 4.03006 75.6513C5.1285 76.6639 6.4605 77.0435 7.61932 77.0435V72.1673ZM7.19318 71.7864L11.9412 70.6755C11.5767 69.1178 10.8097 67.5078 9.46727 66.1577L6.00947 69.5959L2.55167 73.034C2.50298 72.9851 2.46982 72.9356 2.45129 72.9006C2.4343 72.8685 2.43729 72.8634 2.4452 72.8972L7.19318 71.7864ZM6.00947 69.5959L9.46727 66.1577C8.18666 64.8698 6.65801 64.0522 5.00167 63.6603L3.87879 68.4054L2.7559 73.1506C2.75676 73.1508 2.71523 73.1402 2.65493 73.1069C2.59351 73.0729 2.55783 73.0402 2.55167 73.034L6.00947 69.5959ZM3.87879 68.4054V63.5292C6.75072 63.5292 8.37619 65.9572 8.37619 68.0245H3.5H-1.37619C-1.37619 70.4727 0.533374 73.2816 3.87879 73.2816V68.4054ZM3.5 68.0245H8.37619C8.37619 70.2672 6.76994 71.9882 4.84034 72.3763L3.87879 67.5959L2.91724 62.8154C0.514148 63.2988 -1.37619 65.4008 -1.37619 68.0245H3.5ZM3.87879 67.5959L4.73089 72.397C6.66689 72.0534 8.30124 71.0639 9.51461 69.8436L6.05682 66.4054L2.59902 62.9673C2.59913 62.9671 2.60472 62.9615 2.61744 62.9518C2.63015 62.9422 2.65181 62.9271 2.68391 62.9094C2.74737 62.8744 2.86136 62.8241 3.02668 62.7947L3.87879 67.5959ZM6.05682 66.4054L9.51461 69.8436C10.8128 68.538 11.6226 66.9836 12.0019 65.267L7.24053 64.2149L2.47919 63.1629C2.47213 63.1948 2.47702 63.1585 2.51414 63.0895C2.53118 63.0578 2.5499 63.0289 2.56795 63.0047C2.58579 62.9808 2.59791 62.9684 2.59902 62.9673L6.05682 66.4054ZM7.24053 64.2149L12.0231 65.166C11.6462 67.0611 9.95188 68.7102 7.66667 68.7102V63.834V58.9578C5.00266 58.9578 2.92954 60.8926 2.45799 63.2639L7.24053 64.2149ZM7.66667 63.834V68.7102C5.38144 68.7102 3.68712 67.0611 3.31026 65.166L8.0928 64.2149L12.8753 63.2639C12.4038 60.8926 10.3307 58.9578 7.66667 58.9578V63.834ZM8.0928 64.2149L3.34482 65.3258C3.70926 66.8835 4.47629 68.4935 5.81872 69.8436L9.27652 66.4054L12.7343 62.9673C12.783 63.0162 12.8162 63.0657 12.8347 63.1007C12.8517 63.1328 12.8487 63.1379 12.8408 63.1041L8.0928 64.2149ZM9.27652 66.4054L5.81872 69.8436C7.11738 71.1496 8.6696 71.97 10.391 72.3547L11.4545 67.5959L12.5181 62.8371C12.4927 62.8314 12.5343 62.8384 12.6072 62.8781C12.6407 62.8963 12.6709 62.9161 12.6958 62.935C12.7205 62.9536 12.7332 62.9662 12.7343 62.9673L9.27652 66.4054ZM11.4545 67.5959L10.493 72.3763C8.5634 71.9882 6.95714 70.2672 6.95714 68.0245H11.8333H16.7095C16.7095 65.4008 14.8192 63.2988 12.4161 62.8154L11.4545 67.5959ZM11.8333 68.0245H6.95714C6.95714 65.7817 8.5634 64.0607 10.493 63.6726L11.4545 68.453L12.4161 73.2335C14.8192 72.7501 16.7095 70.6481 16.7095 68.0245H11.8333ZM11.4545 68.453L10.493 63.6726C6.89252 64.3968 4.07032 67.2514 3.35761 70.8353L8.14015 71.7864L12.9227 72.7374C12.894 72.8819 12.828 72.9875 12.758 73.0578C12.688 73.1282 12.5761 73.2013 12.4161 73.2335L11.4545 68.453ZM8.14015 71.7864L3.95257 69.2881C3.98516 69.2335 4.27805 68.7254 4.89201 68.2403C5.65522 67.6372 6.62176 67.2911 7.61932 67.2911V72.1673V77.0435C8.85362 77.0435 10.0095 76.626 10.9385 75.892C11.7182 75.2759 12.1531 74.5774 12.3277 74.2846L8.14015 71.7864ZM4.87311 68.0245L3.11395 72.5723C3.07762 72.5582 3.06092 72.5472 3.0595 72.5462C3.05806 72.5453 3.0638 72.5491 3.07251 72.5578L6.5303 69.1197L9.9881 65.6815C9.06597 64.7542 7.92842 63.978 6.63226 63.4766L4.87311 68.0245ZM6.5303 69.1197L3.07251 72.5578C3.07642 72.5618 3.07979 72.5656 3.08244 72.5688C3.08509 72.5721 3.08625 72.5739 3.08607 72.5736C3.08589 72.5733 3.08373 72.57 3.08017 72.5631C3.0766 72.5562 3.07114 72.5447 3.06482 72.5281L7.61932 70.7864L12.1738 69.0446C11.6786 67.7497 10.9104 66.6091 9.9881 65.6815L6.5303 69.1197ZM7.61932 70.7864L12.1388 72.6172C12.1763 72.5244 12.2337 72.4812 12.2747 72.4637L10.3655 67.9768L8.45637 63.4899C6.03525 64.5201 4.10397 66.4769 3.09987 68.9556L7.61932 70.7864ZM10.3655 67.9768L12.1247 63.429C12.161 63.4431 12.1777 63.4541 12.1791 63.4551C12.1806 63.456 12.1748 63.4522 12.1661 63.4435L8.70833 66.8816L5.25054 70.3198C6.17266 71.2471 7.31021 72.0233 8.60638 72.5247L10.3655 67.9768ZM8.70833 66.8816L12.1661 63.4435C12.1622 63.4395 12.1588 63.4357 12.1562 63.4325C12.1535 63.4292 12.1524 63.4274 12.1526 63.4277C12.1527 63.428 12.1549 63.4313 12.1585 63.4382C12.162 63.4451 12.1675 63.4566 12.1738 63.4732L7.61932 65.2149L3.06482 66.9567C3.56003 68.2516 4.32826 69.3922 5.25054 70.3198L8.70833 66.8816ZM7.61932 65.2149L3.06482 63.4732C3.07114 63.4566 3.0766 63.4451 3.08017 63.4382C3.08373 63.4313 3.08589 63.428 3.08607 63.4277C3.08625 63.4274 3.08509 63.4292 3.08244 63.4325C3.07979 63.4357 3.07642 63.4395 3.07251 63.4435L6.5303 66.8816L9.9881 70.3198C10.9104 69.3922 11.6786 68.2516 12.1738 66.9567L7.61932 65.2149ZM6.5303 66.8816L2.91293 63.6118C2.93356 63.5889 2.96273 63.5623 3.00001 63.5368C3.0369 63.5116 3.07575 63.4914 3.11395 63.4766L4.87311 68.0245L6.63226 72.5723C7.94579 72.0642 9.15406 71.2507 10.1477 70.1514L6.5303 66.8816Z" fill="#9A9A9A" mask="url(#path-10-inside-1_81946_385719)"/>
<rect x="41" y="43" width="23.9336" height="23.9336" rx="5.84316" fill="#0166FF"/>
<path d="M52.982 46.4272L51.7736 51.7039L52.9832 54.3163L52.9824 54.3222L52.9843 54.3192L52.9853 54.3231L52.9862 54.3153L54.194 51.7032L52.9859 46.4271L52.9855 46.4105L52.9837 46.4184L52.9816 46.4106L52.982 46.4272Z" fill="white"/>
<path d="M52.936 63.5005L54.1444 58.2248L52.9347 55.6124L52.9356 55.6056L52.9337 55.6095L52.9327 55.6056L52.9318 55.6125L51.724 58.2246L52.9321 63.5006L52.9324 63.5172L52.9342 63.5093L52.9363 63.5171L52.936 63.5005Z" fill="white"/>
<path d="M60.2716 50.5158L55.1497 52.2648L53.566 54.6663L53.5581 54.6703L53.5638 54.6701L53.5602 54.6736L53.5681 54.6696L56.4233 54.323L60.2737 50.5191L60.2877 50.5101L60.28 50.5127L60.2855 50.5068L60.2716 50.5158Z" fill="white"/>
<path d="M45.6505 59.4102L50.7686 57.6626L52.3511 55.2629L52.3607 55.2579L52.3542 55.2586L52.358 55.2538L52.3485 55.2588L49.4955 55.6052L45.6478 59.4061L45.6306 59.4173L45.6399 59.4136L45.6324 59.4219L45.6505 59.4102Z" fill="white"/>
<path d="M45.6676 50.4899L50.7826 52.2589L52.3569 54.6666L52.3656 54.6712L52.3599 54.6709L52.3626 54.6739L52.3555 54.6704L49.5018 54.3126L45.6654 50.4932L45.6515 50.4841L45.6591 50.4868L45.6537 50.4809L45.6676 50.4899Z" fill="white"/>
<path d="M60.2524 59.4407L55.136 57.672L53.5622 55.2635L53.5552 55.26L53.5595 55.2605L53.5565 55.2562L53.5652 55.2607L56.4189 55.6186L60.2545 59.4375L60.2684 59.4465L60.2608 59.4439L60.2663 59.4498L60.2524 59.4407Z" fill="white"/>
<path d="M73.8757 13.5835L73.5365 13.5271C73.5283 13.5763 73.5309 13.6268 73.5442 13.6749C73.5575 13.723 73.5811 13.7677 73.6134 13.8057C73.6456 13.8438 73.6858 13.8744 73.7311 13.8954C73.7764 13.9164 73.8257 13.9272 73.8757 13.9272V13.5835ZM68.834 13.5835V13.2397C68.7428 13.2397 68.6554 13.2759 68.5909 13.3404C68.5265 13.4049 68.4902 13.4923 68.4902 13.5835H68.834ZM69.7507 18.5105H74.9573V17.823H69.7507V18.5105ZM75.5073 13.2397H73.8757V13.9272H75.5073V13.2397ZM74.2148 13.6398L74.5842 11.4238L73.9059 11.3106L73.5365 13.5271L74.2148 13.6398ZM73.7932 10.4897H73.6951V11.1772H73.7927L73.7932 10.4897ZM72.2646 11.2551L71.1119 12.9844L71.6839 13.3658L72.8366 11.6365L72.2646 11.2551ZM70.6352 13.2397H68.834V13.9272H70.6352V13.2397ZM68.4902 13.5835V17.2501H69.1777V13.5835H68.4902ZM76.1934 17.4976L76.7434 14.7476L76.0697 14.6124L75.5197 17.3624L76.1934 17.4976ZM71.1119 12.9844C71.0596 13.0629 70.9887 13.1268 70.9056 13.1714C70.8224 13.2159 70.7296 13.2392 70.6352 13.2393V13.9268C71.0569 13.9268 71.4502 13.7164 71.6839 13.3658L71.1119 12.9844ZM74.5842 11.4238C74.6033 11.3089 74.5972 11.1908 74.5662 11.0786C74.5353 10.9663 74.4802 10.8621 74.405 10.7733C74.3297 10.6844 74.236 10.6131 74.1303 10.5641C74.0246 10.5151 73.9096 10.4897 73.7932 10.4897L73.7927 11.1772C73.8093 11.1773 73.8262 11.1809 73.8412 11.1879C73.8563 11.1949 73.8696 11.2051 73.8804 11.2178C73.8911 11.2305 73.8989 11.2454 73.9033 11.2614C73.9078 11.2774 73.9086 11.2942 73.9059 11.3106L74.5842 11.4238ZM75.5073 13.9268C75.8694 13.9268 76.1398 14.2577 76.0692 14.612L76.7434 14.7472C76.7799 14.5643 76.7754 14.3752 76.7301 14.1944C76.6849 14.0135 76.6001 13.8449 76.4819 13.7008C76.3637 13.5566 76.2149 13.4405 76.0464 13.3608C75.8779 13.2811 75.6938 13.2397 75.5073 13.2397V13.9268ZM74.9573 18.5105C75.2487 18.5106 75.5311 18.4093 75.7564 18.2246C75.9818 18.0399 76.1362 17.7829 76.1934 17.4972L75.5197 17.362C75.4937 17.4919 75.4235 17.6089 75.3209 17.6929C75.2184 17.7769 75.0899 17.8232 74.9573 17.823V18.5105ZM73.6951 10.4897C73.4121 10.4897 73.1336 10.5592 72.8841 10.6927C72.6346 10.8262 72.422 11.0192 72.2651 11.2547L72.8366 11.6365C72.9308 11.4951 73.0585 11.3788 73.2082 11.2987C73.358 11.2186 73.5252 11.1772 73.6951 11.1772V10.4897ZM69.7507 17.823C69.4344 17.823 69.1777 17.5664 69.1777 17.2501H68.4902C68.4902 17.5844 68.623 17.905 68.8594 18.1414C69.0958 18.3778 69.4164 18.5105 69.7507 18.5105V17.823Z" fill="#9A9A9A"/>
<path d="M70.666 13.5835V18.1668" stroke="#9A9A9A" stroke-width="0.6875"/>
<path d="M9.8584 10.5996C10.0102 10.5997 10.1594 10.6402 10.291 10.7158C10.4226 10.7915 10.532 10.9002 10.6084 11.0312L11.5674 12.6777L13.4316 13.082L13.541 13.1133C13.6474 13.1515 13.7457 13.2108 13.8301 13.2871C13.9426 13.389 14.0264 13.5187 14.0732 13.6631C14.1201 13.8074 14.1289 13.9618 14.0977 14.1104C14.0664 14.2588 13.9965 14.3966 13.8955 14.5098L12.625 15.9307L12.8174 17.8271L12.8213 17.9414C12.8179 18.0545 12.7926 18.1666 12.7461 18.2705C12.6841 18.409 12.5867 18.5289 12.4639 18.6182C12.3409 18.7075 12.196 18.7631 12.0449 18.7793C11.8939 18.7954 11.7415 18.7712 11.6025 18.71L9.85742 17.9404L8.11328 18.709L8.11426 18.71C7.97521 18.7713 7.82201 18.7954 7.6709 18.7793C7.51987 18.7632 7.37584 18.7074 7.25293 18.6182C7.13003 18.5289 7.03179 18.4092 6.96973 18.2705C6.90767 18.1318 6.88308 17.9783 6.89844 17.8271L7.09082 15.9307L5.82129 14.5107C5.71998 14.3975 5.65051 14.259 5.61914 14.1104C5.58778 13.9617 5.5957 13.8076 5.64258 13.6631C5.68944 13.5187 5.77321 13.389 5.88574 13.2871C5.99846 13.1852 6.13664 13.1142 6.28516 13.082L8.14844 12.6777L9.10742 11.0312C9.18381 10.9002 9.29332 10.7915 9.4248 10.7158C9.55651 10.6401 9.7065 10.5996 9.8584 10.5996Z" stroke="#9A9A9A" stroke-width="0.8"/>
</svg>
