<svg width="80" height="80" viewBox="0 0 80 80" fill="none" xmlns="http://www.w3.org/2000/svg">
<path d="M58.9953 69.0953C58.6937 69.0953 58.4484 69.3406 58.4484 69.6422V70.0953C58.4484 73.8766 55.3719 76.9531 51.5906 76.9531H28.4047C24.6234 76.9531 21.5469 73.8766 21.5469 70.0953V18.3359C21.5469 18.0344 21.3016 17.7891 21 17.7891C20.6984 17.7891 20.4531 18.0344 20.4531 18.3359V70.0953C20.4531 74.4797 24.0203 78.0469 28.4047 78.0469H51.5922C55.9766 78.0469 59.5437 74.4797 59.5437 70.0953V69.6422C59.5433 69.497 59.4853 69.358 59.3825 69.2555C59.2797 69.153 59.1405 69.0954 58.9953 69.0953ZM51.5922 1.95312H28.4047C24.0203 1.95312 20.4531 5.52031 20.4531 9.90469V14.6234C20.4531 14.925 20.6984 15.1703 21 15.1703C21.3016 15.1703 21.5469 14.925 21.5469 14.6234V9.90469C21.5469 6.12344 24.6234 3.04688 28.4047 3.04688H51.5922C55.3734 3.04688 58.45 6.12344 58.45 9.90469V40.2609C58.45 40.5625 58.6953 40.8078 58.9969 40.8078C59.2984 40.8078 59.5437 40.5625 59.5437 40.2609V9.90469C59.5422 5.52031 55.975 1.95312 51.5922 1.95312Z" fill="#9A9A9A"/>
<path d="M44.343 8.7082C45.468 8.7082 46.3836 7.79258 46.3836 6.66758C46.3836 5.54258 45.468 4.62695 44.343 4.62695H35.6523C34.5273 4.62695 33.6117 5.54258 33.6117 6.66758C33.6117 7.79258 34.5273 8.7082 35.6523 8.7082H44.343ZM45.2898 6.66758C45.2898 7.18945 44.8648 7.61445 44.343 7.61445H42.1352C42.7555 7.17383 43.1961 6.50039 43.3336 5.72227H44.343C44.8648 5.7207 45.2898 6.1457 45.2898 6.66758ZM30.543 73.7723C30.543 74.0738 30.7883 74.3191 31.0898 74.3191H48.907C49.2086 74.3191 49.4539 74.0738 49.4539 73.7723C49.4539 73.4707 49.2086 73.2254 48.907 73.2254H31.0898C30.7867 73.2254 30.543 73.4707 30.543 73.7723Z" fill="#9A9A9A"/>
<rect x="24.5" y="12" width="31" height="17" rx="2" fill="#E1EAF8"/>
<rect x="24.5" y="31" width="31" height="2" rx="1" fill="#E1EAF8"/>
<rect x="24.5" y="35" width="16" height="2" rx="1" fill="#E1EAF8"/>
<circle cx="53" cy="55" r="12" fill="#0166FF"/>
<path d="M66.4482 45.3672C66.5192 45.3278 66.5825 45.2712 66.6326 45.2005L68.9428 41.8493C69.0221 41.7298 69.0513 41.584 69.0241 41.4432C68.9969 41.3024 68.9155 41.1779 68.7975 41.0966C68.6794 41.0152 68.5341 40.9835 68.3929 41.0082C68.2516 41.0329 68.1257 41.1122 68.0423 41.2288L65.7327 44.5779C65.6504 44.6973 65.619 44.8445 65.6452 44.9871C65.6715 45.1297 65.7533 45.2561 65.8727 45.3383C65.9564 45.3964 66.0546 45.4298 66.1563 45.435C66.258 45.4401 66.3591 45.4166 66.4482 45.3672ZM76.3266 56.0952C76.5028 55.9973 76.6189 55.8041 76.6082 55.5884C76.6007 55.4437 76.536 55.3079 76.4285 55.2108C76.3209 55.1138 76.1793 55.0633 76.0345 55.0706L71.9701 55.2798C71.8254 55.2873 71.6896 55.352 71.5925 55.4595C71.4954 55.5671 71.445 55.7087 71.4523 55.8534C71.4598 55.9981 71.5244 56.134 71.632 56.2311C71.7395 56.3281 71.8812 56.3786 72.0259 56.3713L76.0889 56.1628C76.1762 56.159 76.2569 56.1339 76.3266 56.0952ZM35.4855 59.6346C35.6508 59.5428 35.7642 59.3672 35.7672 59.1636C35.7683 59.0917 35.7552 59.0204 35.7288 58.9536C35.7023 58.8868 35.6629 58.8259 35.6128 58.7744C35.5628 58.7228 35.5031 58.6816 35.4371 58.6532C35.3711 58.6247 35.3002 58.6095 35.2283 58.6085L31.1606 58.5479C31.0163 58.5469 30.8774 58.603 30.7743 58.704C30.6711 58.8049 30.612 58.9425 30.6099 59.0869C30.6077 59.2312 30.6627 59.3705 30.7629 59.4745C30.863 59.5784 31.0002 59.6386 31.1445 59.6418L35.2122 59.7024C35.3102 59.7052 35.4049 59.6794 35.4855 59.6346ZM38.8415 47.4128C38.9097 47.3751 38.9691 47.3232 39.0156 47.2607C39.0621 47.1981 39.0947 47.1263 39.1111 47.0501C39.1276 46.9739 39.1275 46.8951 39.1109 46.8189C39.0944 46.7428 39.0617 46.671 39.015 46.6086L36.5842 43.3456C36.403 43.1031 36.0602 43.0522 35.8198 43.234C35.5773 43.4152 35.5278 43.7573 35.7082 43.9984L38.139 47.2614C38.218 47.3672 38.3327 47.4409 38.4619 47.4687C38.591 47.4965 38.7259 47.4767 38.8415 47.4128Z" fill="#0166FF"/>
<mask id="path-9-inside-1_67091_354601" fill="white">
<path d="M69 13C67.3333 13 66 11.6667 66 10C66 8.33333 67.3333 7 69 7C70.6667 7 72 8.33333 72 10C72 11.6667 70.6111 13 69 13ZM69 7.88889C67.8333 7.88889 66.8333 8.83333 66.8333 10.0556C66.8333 11.2222 67.7778 12.2222 69 12.2222C70.1667 12.2222 71.1667 11.2778 71.1667 10.0556C71.1667 8.83333 70.1667 7.88889 69 7.88889Z"/>
</mask>
<path d="M69 13C67.3333 13 66 11.6667 66 10C66 8.33333 67.3333 7 69 7C70.6667 7 72 8.33333 72 10C72 11.6667 70.6111 13 69 13ZM69 7.88889C67.8333 7.88889 66.8333 8.83333 66.8333 10.0556C66.8333 11.2222 67.7778 12.2222 69 12.2222C70.1667 12.2222 71.1667 11.2778 71.1667 10.0556C71.1667 8.83333 70.1667 7.88889 69 7.88889Z" fill="#9A9A9A"/>
<path d="M69 13V8.12381C70.0264 8.12381 70.8762 8.97363 70.8762 10H66H61.1238C61.1238 14.3597 64.6403 17.8762 69 17.8762V13ZM66 10H70.8762C70.8762 11.0264 70.0264 11.8762 69 11.8762V7V2.12381C64.6403 2.12381 61.1238 5.64029 61.1238 10H66ZM69 7V11.8762C67.9736 11.8762 67.1238 11.0264 67.1238 10H72H76.8762C76.8762 5.64028 73.3597 2.12381 69 2.12381V7ZM72 10H67.1238C67.1238 8.91524 67.9768 8.12381 69 8.12381V13V17.8762C73.2454 17.8762 76.8762 14.4181 76.8762 10H72ZM69 7.88889V3.0127C65.222 3.0127 61.9571 6.05929 61.9571 10.0556H66.8333H71.7095C71.7095 11.6074 70.4447 12.7651 69 12.7651V7.88889ZM66.8333 10.0556H61.9571C61.9571 13.8335 65.0037 17.0984 69 17.0984V12.2222V7.34603C70.5518 7.34603 71.7095 8.61091 71.7095 10.0556H66.8333ZM69 12.2222V17.0984C72.778 17.0984 76.0429 14.0518 76.0429 10.0556H71.1667H66.2905C66.2905 8.50372 67.5554 7.34603 69 7.34603V12.2222ZM71.1667 10.0556H76.0429C76.0429 6.05928 72.778 3.0127 69 3.0127V7.88889V12.7651C67.5553 12.7651 66.2905 11.6074 66.2905 10.0556H71.1667Z" fill="#9A9A9A" mask="url(#path-9-inside-1_67091_354601)"/>
<mask id="path-11-inside-2_67091_354601" fill="white">
<path d="M10.6193 68.1673C10.3826 68.1673 10.2405 68.0245 10.1932 67.7864C10.0038 66.9768 9.625 66.2149 9.00947 65.5959C8.39394 64.9768 7.68371 64.5959 6.87879 64.4054C6.64205 64.4054 6.5 64.2149 6.5 64.0245C6.5 63.834 6.64205 63.6435 6.87879 63.5959C7.68371 63.453 8.44129 63.0245 9.05682 62.4054C9.67235 61.7864 10.0511 61.0721 10.2405 60.2149C10.2879 59.9768 10.4773 59.834 10.6667 59.834C10.8561 59.834 11.0455 59.9768 11.0928 60.2149C11.2822 61.0245 11.661 61.7864 12.2765 62.4054C12.892 63.0245 13.6023 63.4054 14.4545 63.5959C14.6913 63.6435 14.8333 63.834 14.8333 64.0245C14.8333 64.2149 14.6913 64.4054 14.4545 64.453C12.7973 64.7864 11.4716 66.1197 11.1402 67.7864C10.9981 68.0245 10.8561 68.1673 10.6193 68.1673ZM7.87311 64.0245C8.48864 64.2626 9.05682 64.6435 9.5303 65.1197C10.0038 65.5959 10.3826 66.1673 10.6193 66.7864C11.1402 65.5006 12.1345 64.5006 13.3655 63.9768C12.75 63.7387 12.1818 63.3578 11.7083 62.8816C11.2348 62.4054 10.8561 61.834 10.6193 61.2149C10.3826 61.834 10.0038 62.4054 9.5303 62.8816C9.05682 63.4054 8.48864 63.7864 7.87311 64.0245Z"/>
</mask>
<path d="M10.6193 68.1673C10.3826 68.1673 10.2405 68.0245 10.1932 67.7864C10.0038 66.9768 9.625 66.2149 9.00947 65.5959C8.39394 64.9768 7.68371 64.5959 6.87879 64.4054C6.64205 64.4054 6.5 64.2149 6.5 64.0245C6.5 63.834 6.64205 63.6435 6.87879 63.5959C7.68371 63.453 8.44129 63.0245 9.05682 62.4054C9.67235 61.7864 10.0511 61.0721 10.2405 60.2149C10.2879 59.9768 10.4773 59.834 10.6667 59.834C10.8561 59.834 11.0455 59.9768 11.0928 60.2149C11.2822 61.0245 11.661 61.7864 12.2765 62.4054C12.892 63.0245 13.6023 63.4054 14.4545 63.5959C14.6913 63.6435 14.8333 63.834 14.8333 64.0245C14.8333 64.2149 14.6913 64.4054 14.4545 64.453C12.7973 64.7864 11.4716 66.1197 11.1402 67.7864C10.9981 68.0245 10.8561 68.1673 10.6193 68.1673ZM7.87311 64.0245C8.48864 64.2626 9.05682 64.6435 9.5303 65.1197C10.0038 65.5959 10.3826 66.1673 10.6193 66.7864C11.1402 65.5006 12.1345 64.5006 13.3655 63.9768C12.75 63.7387 12.1818 63.3578 11.7083 62.8816C11.2348 62.4054 10.8561 61.834 10.6193 61.2149C10.3826 61.834 10.0038 62.4054 9.5303 62.8816C9.05682 63.4054 8.48864 63.7864 7.87311 64.0245Z" fill="#9A9A9A"/>
<path d="M10.1932 67.7864L14.9757 66.8353L14.9598 66.7551L14.9412 66.6755L10.1932 67.7864ZM6.87879 64.4054L8.00167 59.6603L7.44788 59.5292H6.87879V64.4054ZM6.87879 63.5959L6.02668 58.7947L5.97184 58.8045L5.91724 58.8154L6.87879 63.5959ZM10.2405 60.2149L15.0019 61.267L15.013 61.2166L15.0231 61.166L10.2405 60.2149ZM11.0928 60.2149L6.31026 61.166L6.3262 61.2462L6.34482 61.3258L11.0928 60.2149ZM14.4545 63.5959L13.391 68.3547L13.4419 68.366L13.493 68.3763L14.4545 63.5959ZM14.4545 64.453L15.4161 69.2335L14.4545 64.453ZM11.1402 67.7864L15.3277 70.2846L15.7586 69.5623L15.9227 68.7374L11.1402 67.7864ZM7.87311 64.0245L6.11395 59.4766L-5.64318 64.0245L6.11395 68.5723L7.87311 64.0245ZM10.6193 66.7864L6.06482 68.5281L10.4887 80.0961L15.1388 68.6172L10.6193 66.7864ZM13.3655 63.9768L15.2747 68.4637L26.3255 63.7617L15.1247 59.429L13.3655 63.9768ZM10.6193 61.2149L15.1738 59.4732L10.6193 47.5638L6.06482 59.4732L10.6193 61.2149ZM9.5303 62.8816L6.07251 59.4435L5.99071 59.5257L5.91293 59.6118L9.5303 62.8816ZM10.6193 68.1673V63.2911C11.5414 63.2911 12.684 63.5993 13.6404 64.481C14.5321 65.3031 14.8599 66.253 14.9757 66.8353L10.1932 67.7864L5.41064 68.7374C5.57378 69.5578 5.99632 70.6982 7.03006 71.6513C8.1285 72.6639 9.4605 73.0435 10.6193 73.0435V68.1673ZM10.1932 67.7864L14.9412 66.6755C14.5767 65.1178 13.8097 63.5078 12.4673 62.1577L9.00947 65.5959L5.55167 69.034C5.50298 68.9851 5.46982 68.9356 5.45129 68.9006C5.4343 68.8685 5.43729 68.8634 5.4452 68.8972L10.1932 67.7864ZM9.00947 65.5959L12.4673 62.1577C11.1867 60.8698 9.65801 60.0522 8.00167 59.6603L6.87879 64.4054L5.7559 69.1506C5.75676 69.1508 5.71523 69.1402 5.65493 69.1069C5.59351 69.0729 5.55783 69.0402 5.55167 69.034L9.00947 65.5959ZM6.87879 64.4054V59.5292C9.75072 59.5292 11.3762 61.9572 11.3762 64.0245H6.5H1.62381C1.62381 66.4727 3.53337 69.2816 6.87879 69.2816V64.4054ZM6.5 64.0245H11.3762C11.3762 66.2672 9.76994 67.9882 7.84034 68.3763L6.87879 63.5959L5.91724 58.8154C3.51415 59.2988 1.62381 61.4008 1.62381 64.0245H6.5ZM6.87879 63.5959L7.73089 68.397C9.66689 68.0534 11.3012 67.0639 12.5146 65.8436L9.05682 62.4054L5.59902 58.9673C5.59913 58.9671 5.60472 58.9615 5.61744 58.9518C5.63015 58.9422 5.65181 58.9271 5.68391 58.9094C5.74737 58.8744 5.86136 58.8241 6.02668 58.7947L6.87879 63.5959ZM9.05682 62.4054L12.5146 65.8436C13.8128 64.538 14.6226 62.9836 15.0019 61.267L10.2405 60.2149L5.47919 59.1629C5.47213 59.1948 5.47702 59.1585 5.51414 59.0895C5.53118 59.0578 5.5499 59.0289 5.56795 59.0047C5.58579 58.9808 5.59791 58.9684 5.59902 58.9673L9.05682 62.4054ZM10.2405 60.2149L15.0231 61.166C14.6462 63.0611 12.9519 64.7102 10.6667 64.7102V59.834V54.9578C8.00266 54.9578 5.92954 56.8926 5.45799 59.2639L10.2405 60.2149ZM10.6667 59.834V64.7102C8.38144 64.7102 6.68712 63.0611 6.31026 61.166L11.0928 60.2149L15.8753 59.2639C15.4038 56.8926 13.3307 54.9578 10.6667 54.9578V59.834ZM11.0928 60.2149L6.34482 61.3258C6.70926 62.8835 7.47629 64.4935 8.81872 65.8436L12.2765 62.4054L15.7343 58.9673C15.783 59.0162 15.8162 59.0657 15.8347 59.1007C15.8517 59.1328 15.8487 59.1379 15.8408 59.1041L11.0928 60.2149ZM12.2765 62.4054L8.81872 65.8436C10.1174 67.1496 11.6696 67.97 13.391 68.3547L14.4545 63.5959L15.5181 58.8371C15.4927 58.8314 15.5343 58.8384 15.6072 58.8781C15.6407 58.8963 15.6709 58.9161 15.6958 58.935C15.7205 58.9536 15.7332 58.9662 15.7343 58.9673L12.2765 62.4054ZM14.4545 63.5959L13.493 68.3763C11.5634 67.9882 9.95714 66.2672 9.95714 64.0245H14.8333H19.7095C19.7095 61.4008 17.8192 59.2988 15.4161 58.8154L14.4545 63.5959ZM14.8333 64.0245H9.95714C9.95714 61.7817 11.5634 60.0607 13.493 59.6726L14.4545 64.453L15.4161 69.2335C17.8192 68.7501 19.7095 66.6481 19.7095 64.0245H14.8333ZM14.4545 64.453L13.493 59.6726C9.89252 60.3968 7.07032 63.2514 6.35761 66.8353L11.1402 67.7864L15.9227 68.7374C15.894 68.8819 15.828 68.9875 15.758 69.0578C15.688 69.1282 15.5761 69.2013 15.4161 69.2335L14.4545 64.453ZM11.1402 67.7864L6.95257 65.2881C6.98516 65.2335 7.27805 64.7254 7.89201 64.2403C8.65522 63.6372 9.62176 63.2911 10.6193 63.2911V68.1673V73.0435C11.8536 73.0435 13.0095 72.626 13.9385 71.892C14.7182 71.2759 15.1531 70.5774 15.3277 70.2846L11.1402 67.7864ZM7.87311 64.0245L6.11395 68.5723C6.07762 68.5582 6.06092 68.5472 6.0595 68.5462C6.05806 68.5453 6.0638 68.5491 6.07251 68.5578L9.5303 65.1197L12.9881 61.6815C12.066 60.7542 10.9284 59.978 9.63226 59.4766L7.87311 64.0245ZM9.5303 65.1197L6.07251 68.5578C6.07642 68.5618 6.07979 68.5656 6.08244 68.5688C6.08509 68.5721 6.08625 68.5739 6.08607 68.5736C6.08589 68.5733 6.08373 68.57 6.08017 68.5631C6.0766 68.5562 6.07114 68.5447 6.06482 68.5281L10.6193 66.7864L15.1738 65.0446C14.6786 63.7497 13.9104 62.6091 12.9881 61.6815L9.5303 65.1197ZM10.6193 66.7864L15.1388 68.6172C15.1763 68.5244 15.2337 68.4812 15.2747 68.4637L13.3655 63.9768L11.4564 59.4899C9.03525 60.5201 7.10397 62.4769 6.09987 64.9556L10.6193 66.7864ZM13.3655 63.9768L15.1247 59.429C15.161 59.4431 15.1777 59.4541 15.1791 59.4551C15.1806 59.456 15.1748 59.4522 15.1661 59.4435L11.7083 62.8816L8.25054 66.3198C9.17266 67.2471 10.3102 68.0233 11.6064 68.5247L13.3655 63.9768ZM11.7083 62.8816L15.1661 59.4435C15.1622 59.4395 15.1588 59.4357 15.1562 59.4325C15.1535 59.4292 15.1524 59.4274 15.1526 59.4277C15.1527 59.428 15.1549 59.4313 15.1585 59.4382C15.162 59.4451 15.1675 59.4566 15.1738 59.4732L10.6193 61.2149L6.06482 62.9567C6.56003 64.2516 7.32826 65.3922 8.25054 66.3198L11.7083 62.8816ZM10.6193 61.2149L6.06482 59.4732C6.07114 59.4566 6.0766 59.4451 6.08017 59.4382C6.08373 59.4313 6.08589 59.428 6.08607 59.4277C6.08625 59.4274 6.08509 59.4292 6.08244 59.4325C6.07979 59.4357 6.07642 59.4395 6.07251 59.4435L9.5303 62.8816L12.9881 66.3198C13.9104 65.3922 14.6786 64.2516 15.1738 62.9567L10.6193 61.2149ZM9.5303 62.8816L5.91293 59.6118C5.93356 59.5889 5.96273 59.5623 6.00001 59.5368C6.0369 59.5116 6.07575 59.4914 6.11395 59.4766L7.87311 64.0245L9.63226 68.5723C10.9458 68.0642 12.1541 67.2507 13.1477 66.1514L9.5303 62.8816Z" fill="#9A9A9A" mask="url(#path-11-inside-2_67091_354601)"/>
<path d="M47.668 50.3333H52.3346M51.0013 49V50.3333C51.0013 53.2787 49.5086 55.6667 47.668 55.6667M48.3346 53C48.3346 54.4293 50.3026 55.6053 52.8013 55.6667M53.0013 60.3333L55.668 54.3333L58.3346 60.3333M57.7346 59H53.6013" stroke="white" stroke-linecap="round" stroke-linejoin="round"/>
</svg>
