<svg width="80" height="80" viewBox="0 0 80 80" fill="none" xmlns="http://www.w3.org/2000/svg">
<path d="M44.3445 8.7082C45.4695 8.7082 46.3852 7.79258 46.3852 6.66758C46.3852 5.54258 45.4695 4.62695 44.3445 4.62695H35.6539C34.5289 4.62695 33.6133 5.54258 33.6133 6.66758C33.6133 7.79258 34.5289 8.7082 35.6539 8.7082H44.3445ZM45.2914 6.66758C45.2914 7.18945 44.8664 7.61445 44.3445 7.61445H42.1367C42.757 7.17383 43.1977 6.50039 43.3352 5.72227H44.3445C44.8664 5.7207 45.2914 6.1457 45.2914 6.66758Z" fill="#9A9A9A"/>
<path d="M58.9973 57.0953C58.6957 57.0953 58.4504 57.3406 58.4504 57.6422V70.0953C58.4504 73.8766 55.3738 76.9531 51.5926 76.9531H28.4066C24.6254 76.9531 21.5488 73.8766 21.5488 70.0953V18.3359C21.5488 18.0344 21.3035 17.7891 21.002 17.7891C20.7004 17.7891 20.4551 18.0344 20.4551 18.3359V70.0953C20.4551 74.4797 24.0223 78.0469 28.4066 78.0469H51.5941C55.9785 78.0469 59.5457 74.4797 59.5457 70.0953V57.6422C59.5452 57.497 59.4872 57.358 59.3844 57.2555C59.2816 57.153 59.1424 57.0954 58.9973 57.0953ZM51.5941 1.95312H28.4066C24.0223 1.95312 20.4551 5.52031 20.4551 9.90469V14.6234C20.4551 14.925 20.7004 15.1703 21.002 15.1703C21.3035 15.1703 21.5488 14.925 21.5488 14.6234V9.90469C21.5488 6.12344 24.6254 3.04688 28.4066 3.04688H51.5941C55.3754 3.04688 58.452 6.12344 58.452 9.90469V20.2609C58.452 20.5625 58.6973 20.8078 58.9988 20.8078C59.3004 20.8078 59.5457 20.5625 59.5457 20.2609V9.90469C59.5441 5.52031 55.977 1.95312 51.5941 1.95312Z" fill="#9A9A9A"/>
<path d="M44.3465 8.7082C45.4715 8.7082 46.3871 7.79258 46.3871 6.66758C46.3871 5.54258 45.4715 4.62695 44.3465 4.62695H35.6559C34.5309 4.62695 33.6152 5.54258 33.6152 6.66758C33.6152 7.79258 34.5309 8.7082 35.6559 8.7082H44.3465ZM45.2934 6.66758C45.2934 7.18945 44.8684 7.61445 44.3465 7.61445H42.1387C42.759 7.17383 43.1996 6.50039 43.3371 5.72227H44.3465C44.8684 5.7207 45.2934 6.1457 45.2934 6.66758Z" fill="#9A9A9A"/>
<rect x="30" y="23" width="30" height="30" rx="9" fill="#E1EAF8"/>
<path d="M44.9993 46.3327C43.8466 46.3327 42.7632 46.1138 41.7494 45.676C40.7355 45.2382 39.8535 44.6446 39.1035 43.8952C38.3535 43.1457 37.7599 42.2638 37.3227 41.2493C36.8855 40.2349 36.6666 39.1516 36.666 37.9993C36.6655 36.8471 36.8844 35.7638 37.3227 34.7493C37.761 33.7349 38.3546 32.853 39.1035 32.1035C39.8524 31.3541 40.7344 30.7605 41.7494 30.3227C42.7644 29.8849 43.8477 29.666 44.9993 29.666C46.151 29.666 47.2343 29.8849 48.2493 30.3227C49.2643 30.7605 50.1463 31.3541 50.8952 32.1035C51.6441 32.853 52.238 33.7349 52.6768 34.7493C53.1157 35.7638 53.3344 36.8471 53.3327 37.9993C53.331 39.1516 53.1121 40.2349 52.676 41.2493C52.2399 42.2638 51.6463 43.1457 50.8952 43.8952C50.1441 44.6446 49.2621 45.2385 48.2493 45.6768C47.2366 46.1152 46.1532 46.3338 44.9993 46.3327ZM40.2702 42.7285L44.9993 37.9993V31.3327C43.1382 31.3327 41.5619 31.9785 40.2702 33.2702C38.9785 34.5618 38.3327 36.1382 38.3327 37.9993C38.3327 38.8882 38.4993 39.7424 38.8327 40.5618C39.166 41.3813 39.6452 42.1035 40.2702 42.7285Z" fill="#0166FF"/>
<path d="M30.5488 69.5527H49.6691C49.9707 69.5527 50.216 69.798 50.216 70.0996C50.216 70.4012 49.9707 70.6465 49.6691 70.6465H30.5488C30.2473 70.6465 30.002 70.4012 30.002 70.0996C30.002 69.798 30.2473 69.5527 30.5488 69.5527Z" fill="#9A9A9A"/>
<path d="M30.5469 64.1137H44.6672C44.9687 64.1137 45.2141 64.359 45.2141 64.6606C45.2141 64.9621 44.9687 65.2075 44.6672 65.2075H30.5469C30.2453 65.2075 30 64.9621 30 64.6606C30 64.359 30.2453 64.1137 30.5469 64.1137Z" fill="#9A9A9A"/>
<path d="M9.4606 23.3333C9.07965 23.3333 8.85108 23.1048 8.77489 22.7238C8.47013 21.4286 7.8606 20.2095 6.87013 19.219C5.87965 18.2286 4.73679 17.619 3.44156 17.3143C3.0606 17.3143 2.83203 17.0095 2.83203 16.7048C2.83203 16.4 3.0606 16.0952 3.44156 16.019C4.73679 15.7905 5.95584 15.1048 6.94632 14.1143C7.93679 13.1238 8.54632 11.9809 8.85108 10.6095C8.92727 10.2286 9.23203 10 9.53679 10C9.84156 10 10.1463 10.2286 10.2225 10.6095C10.5273 11.9048 11.1368 13.1238 12.1273 14.1143C13.1177 15.1048 14.2606 15.7143 15.632 16.019C16.013 16.0952 16.2416 16.4 16.2416 16.7048C16.2416 17.0095 16.013 17.3143 15.632 17.3905C12.9654 17.9238 10.832 20.0571 10.2987 22.7238C10.0701 23.1048 9.84156 23.3333 9.4606 23.3333ZM5.04156 16.7048C6.03203 17.0857 6.94632 17.6952 7.70822 18.4571C8.47013 19.219 9.07965 20.1333 9.4606 21.1238C10.2987 19.0667 11.8987 17.4667 13.8797 16.6286C12.8892 16.2476 11.9749 15.6381 11.213 14.8762C10.4511 14.1143 9.84156 13.2 9.4606 12.2095C9.07965 13.2 8.47013 14.1143 7.70822 14.8762C6.94632 15.7143 6.03203 16.3238 5.04156 16.7048Z" fill="#0166FF"/>
<path d="M68.6143 71.8946C66.3286 71.8946 64.5 70.066 64.5 67.7803C64.5 65.4946 66.3286 63.666 68.6143 63.666C70.9 63.666 72.7286 65.4946 72.7286 67.7803C72.7286 70.066 70.8238 71.8946 68.6143 71.8946ZM68.6143 64.8851C67.0143 64.8851 65.6429 66.1803 65.6429 67.8565C65.6429 69.4565 66.9381 70.8279 68.6143 70.8279C70.2143 70.8279 71.5857 69.5327 71.5857 67.8565C71.5857 66.1803 70.2143 64.8851 68.6143 64.8851Z" fill="#0166FF"/>
</svg>
