<svg width="81" height="80" viewBox="0 0 81 80" fill="none" xmlns="http://www.w3.org/2000/svg">
<path d="M55.3125 69.9082C54.9734 69.9082 54.6984 70.1831 54.6984 70.5223C54.6984 72.866 52.7984 74.766 50.4547 74.766H31.6953C30.1859 74.766 28.9609 75.991 28.9609 77.5004H50.4547C54.3094 77.5004 57.4328 74.3754 57.4328 70.5223V69.9082H55.3125Z" fill="#E1EAF8"/>
<path d="M44.4438 8.05313H32.9609C32.0203 8.05313 31.1844 7.45156 30.8859 6.55781L29.5312 2.5H47.8719L46.5187 6.55781C46.3732 6.99307 46.0946 7.37159 45.7223 7.63991C45.3499 7.90823 44.9027 8.05277 44.4438 8.05313Z" fill="#E1EAF8"/>
<path d="M43.5126 63.4885C43.6098 63.4563 43.6916 63.3987 43.7544 63.3249C43.8157 63.2533 43.8574 63.1669 43.8754 63.0744C43.8933 62.9818 43.8871 62.8862 43.8571 62.7968C43.8344 62.7287 43.7985 62.6657 43.7515 62.6115C43.7044 62.5573 43.6471 62.5129 43.5828 62.4809C43.5186 62.4489 43.4486 62.4299 43.377 62.425C43.3054 62.4201 43.2335 62.4294 43.1654 62.4523L39.3081 63.747C39.24 63.7697 39.177 63.8056 39.1228 63.8527C39.0686 63.8998 39.0242 63.9571 38.9922 64.0213C38.9602 64.0856 38.9412 64.1556 38.9363 64.2272C38.9314 64.2988 38.9407 64.3707 38.9636 64.4387C38.9863 64.5068 39.0222 64.5698 39.0693 64.624C39.1164 64.6782 39.1737 64.7226 39.2379 64.7546C39.3022 64.7866 39.3722 64.8056 39.4438 64.8105C39.5154 64.8154 39.5873 64.8061 39.6553 64.7832L43.5126 63.4885Z" fill="#0166FF"/>
<path d="M48.0147 71.9674C48.1402 71.9453 48.2541 71.8801 48.3367 71.783C48.3792 71.7331 48.4142 71.6726 48.4377 71.6064L49.7608 67.759C49.8586 67.4729 49.7072 67.1614 49.4211 67.0637C49.135 66.9659 48.8235 67.1173 48.7257 67.4034L47.4027 71.2508C47.3612 71.3713 47.3632 71.5025 47.4082 71.6218C47.4532 71.741 47.5384 71.8408 47.6491 71.9039C47.7599 71.967 47.8892 71.9895 48.0147 71.9674Z" fill="#0166FF"/>
<path d="M69.3467 44.3221C69.2496 44.3543 69.1678 44.4119 69.105 44.4856C69.0437 44.5573 69.002 44.6436 68.984 44.7362C68.966 44.8287 68.9723 44.9243 69.0023 45.0138C69.0249 45.0819 69.0608 45.1448 69.1079 45.199C69.155 45.2533 69.2123 45.2976 69.2766 45.3296C69.3408 45.3616 69.4108 45.3806 69.4824 45.3855C69.554 45.3905 69.6259 45.3812 69.6939 45.3582L73.5513 44.0635C73.6194 44.0408 73.6823 44.0049 73.7365 43.9579C73.7908 43.9108 73.8351 43.8535 73.8671 43.7892C73.8991 43.7249 73.9181 43.655 73.9231 43.5834C73.928 43.5117 73.9187 43.4399 73.8957 43.3718C73.8731 43.3037 73.8372 43.2407 73.7901 43.1865C73.743 43.1323 73.6857 43.088 73.6214 43.0559C73.5572 43.0239 73.4872 43.0049 73.4156 43C73.344 42.9951 73.2721 43.0044 73.2041 43.0274L69.3467 44.3221Z" fill="#0166FF"/>
<path d="M64.8447 35.8431C64.7192 35.8652 64.6053 35.9304 64.5227 36.0275C64.4802 36.0775 64.4451 36.1379 64.4217 36.2041L63.0986 40.0515C63.0008 40.3376 63.1522 40.6491 63.4383 40.7469C63.7244 40.8447 64.0359 40.6933 64.1337 40.4072L65.4567 36.5598C65.4982 36.4392 65.4962 36.308 65.4512 36.1888C65.4062 36.0695 65.321 35.9697 65.2102 35.9066C65.0995 35.8435 64.9702 35.8211 64.8447 35.8431Z" fill="#0166FF"/>
<path d="M56.7234 69.6327C56.7234 69.3311 56.9688 69.0858 57.2703 69.0858C57.5734 69.0858 57.8172 69.3296 57.8156 69.6327V70.5218C57.8156 74.6702 54.4406 78.0468 50.2906 78.0468H26.7828C22.6344 78.0468 19.2578 74.6718 19.2578 70.5218L19.2584 67.9993L19.2579 64.2137C19.2578 63.9112 19.503 63.666 19.8055 63.666C20.1079 63.666 20.3531 63.9112 20.3531 64.2136V70.5218C20.3531 74.0671 23.2375 76.953 26.7844 76.953H50.2922C53.8375 76.953 56.7234 74.0686 56.7234 70.5218V69.6327Z" fill="#9A9A9A"/>
<path d="M27.8863 38.5645H47.0066C47.3082 38.5645 47.5535 38.3191 47.5535 38.0176C47.5535 37.716 47.3082 37.4707 47.0066 37.4707H27.8863C27.5848 37.4707 27.3395 37.716 27.3395 38.0176C27.3395 38.3191 27.5848 38.5645 27.8863 38.5645Z" fill="#9A9A9A"/>
<path d="M27.8844 44.0035H42.0047C42.3062 44.0035 42.5516 43.7582 42.5516 43.4566C42.5516 43.155 42.3062 42.9097 42.0047 42.9097H27.8844C27.5828 42.9097 27.3375 43.155 27.3375 43.4566C27.3375 43.7582 27.5828 44.0035 27.8844 44.0035ZM37.5312 49.1129H27.8281C27.5266 49.1129 27.2812 49.3582 27.2812 49.6597C27.2812 49.9613 27.5266 50.2066 27.8281 50.2066H37.5312C37.8328 50.2066 38.0781 49.9613 38.0781 49.6597C38.0781 49.3582 37.8328 49.1129 37.5312 49.1129ZM37.5312 54.5519H27.8281C27.5266 54.5519 27.2812 54.7972 27.2812 55.0988C27.2812 55.4004 27.5266 55.6457 27.8281 55.6457H37.5312C37.8328 55.6457 38.0781 55.4004 38.0781 55.0988C38.0781 54.7972 37.8328 54.5519 37.5312 54.5519Z" fill="#9A9A9A"/>
<path d="M19.2609 9.47813V60.0273C19.2609 60.3298 19.5061 60.575 19.8086 60.575C20.1111 60.575 20.3563 60.3298 20.3563 60.0273V9.47813C20.3563 5.93281 23.2406 3.04688 26.7875 3.04688H50.2953C53.8406 3.04688 56.7266 5.93125 56.7266 9.47813V38.1719C56.7266 38.4734 56.9719 38.7188 57.2734 38.7188C57.575 38.7188 57.8203 38.4734 57.8203 38.1719V9.47813C57.8203 5.32969 54.4453 1.95312 50.2953 1.95312H26.7859C22.6375 1.95312 19.2609 5.32813 19.2609 9.47813Z" fill="#9A9A9A"/>
<path fill-rule="evenodd" clip-rule="evenodd" d="M57.5 66C64.1274 66 69.5 60.6274 69.5 54C69.5 47.3726 64.1274 42 57.5 42C50.8726 42 45.5 47.3726 45.5 54C45.5 60.6274 50.8726 66 57.5 66Z" fill="#0166FF"/>
<path d="M53.5 53.8125L56.3125 56.625L61.9375 51" stroke="white" stroke-width="1.4" stroke-linecap="round" stroke-linejoin="round"/>
<path d="M47.5 23.7987V21.5535C47.5 19.3082 46.6447 17.1698 45.0409 15.566C43.4371 13.9623 41.2987 13 39.0535 13C36.7013 13 34.5629 13.9623 33.066 15.566C31.4623 17.0629 30.5 19.2013 30.5 21.5535C30.5 23.7987 31.3553 25.9371 32.9591 27.5409C34.5629 29.1447 36.7013 30 39.0535 30C39.2673 30 39.3742 29.8931 39.4811 29.7862C39.588 29.6792 39.695 29.4654 39.695 29.3585C39.695 29.1447 39.588 29.0377 39.4811 28.9308C39.3742 28.8239 39.1604 28.717 39.0535 28.717C37.6635 28.717 36.2736 28.2893 35.0975 27.5409C33.9214 26.7925 32.9591 25.6164 32.4245 24.3333C31.8899 23.0503 31.6761 21.5535 31.9969 20.1635C32.3176 18.7736 32.9591 17.4906 33.9214 16.5283C34.8836 15.566 36.1667 14.8176 37.5566 14.6038C38.9465 14.3899 40.4434 14.4969 41.7264 15.0314C43.0094 15.566 44.1855 16.5283 44.934 17.7044C45.6824 18.8805 46.1101 20.2704 46.1101 21.6604V23.9057C46.1101 24.3333 45.8962 24.761 45.6824 25.0818C45.3616 25.4025 44.934 25.5094 44.5063 25.5094C44.0786 25.5094 43.6509 25.2956 43.3302 25.0818C43.0094 24.761 42.9025 24.3333 42.9025 23.9057V18.1321C42.9025 17.9182 42.7956 17.8113 42.6887 17.7044C42.5818 17.5975 42.3679 17.4906 42.261 17.4906C42.0472 17.4906 41.9403 17.5975 41.8333 17.7044C41.7264 17.8113 41.6195 18.0252 41.6195 18.1321V18.5597L41.4057 18.3459C40.7642 17.8113 39.9088 17.4906 39.0535 17.4906C38.4119 17.4906 37.7704 17.5975 37.2358 17.9182C36.5943 18.239 36.0597 18.6667 35.739 19.2013C35.3113 19.7358 35.0975 20.3774 34.9906 21.0189C34.8836 21.6604 34.9906 22.3019 35.2044 22.9434C35.4182 23.5849 35.8459 24.1195 36.2736 24.5472C36.8082 24.9748 37.3428 25.2956 37.9843 25.4025C38.6258 25.5094 39.2673 25.5094 39.9088 25.4025C40.5503 25.2956 41.0849 24.9748 41.6195 24.5472L41.7264 24.4403L41.8333 24.6541C42.0472 25.2956 42.4748 25.9371 43.0094 26.2579C43.544 26.5786 44.2925 26.7925 44.934 26.6855C45.5755 26.5786 46.217 26.2579 46.6447 25.7233C47.2862 25.0818 47.5 24.4403 47.5 23.7987ZM40.978 23.478C40.4434 24.0126 39.8019 24.2264 39.0535 24.2264C38.5189 24.2264 37.9843 24.1195 37.5566 23.7987C37.022 23.478 36.7013 23.0503 36.4874 22.5157C36.2736 21.9811 36.2736 21.4465 36.3805 20.9119C36.4874 20.3774 36.7013 19.9497 37.1289 19.522C37.5566 19.0943 37.9843 18.8805 38.5189 18.7736C39.0535 18.6667 39.5881 18.7736 40.1226 18.8805C40.6572 19.0943 41.0849 19.4151 41.2987 19.8428C41.6195 20.2704 41.7264 20.805 41.7264 21.3396C41.7264 22.195 41.4057 22.9434 40.978 23.478Z" fill="#9A9A9A"/>
</svg>
