<svg width="80" height="80" viewBox="0 0 80 80" fill="none" xmlns="http://www.w3.org/2000/svg">
<path d="M77.9809 59.1516L76.4809 40.8687C76.4044 39.9406 75.5872 39.2406 74.659 39.3062L68.2528 39.7656C67.795 39.7984 67.3778 40.0078 67.0794 40.3562C66.7809 40.7047 66.6372 41.1484 66.6747 41.6062L66.7481 42.4937L58.7778 44.5781C54.9575 45.5766 50.9497 44.8016 47.7778 42.45L46.5684 41.5531C44.9184 40.3297 42.8794 39.6562 40.8247 39.6562H37.2965C35.434 39.6562 33.7059 40.5828 32.6747 42.1344L32.52 42.3656C31.6169 42.3 30.709 42.3516 29.8169 42.5187L29.2012 42.6344C25.0794 43.4078 20.8965 43.4297 16.7669 42.7016L15.0059 42.3906C14.709 42.3375 14.4247 42.5375 14.3731 42.8344C14.32 43.1313 14.5184 43.4156 14.8169 43.4672L16.5778 43.7781C18.645 44.1422 20.7247 44.325 22.8044 44.325C25.0106 44.325 27.2153 44.1203 29.4044 43.7094L30.0215 43.5937C30.6137 43.4828 31.2137 43.4297 31.8137 43.4328L30.7419 45.0453C30.209 45.8469 30.1637 46.8312 30.6184 47.6797C31.0731 48.5281 31.9184 49.0344 32.8809 49.0344C34.9637 49.0344 36.9778 48.1656 38.4075 46.6516L38.7762 46.2609L53.9465 56.9297C54.3653 57.225 54.6434 57.6656 54.7294 58.1703C54.8153 58.675 54.6981 59.1828 54.3997 59.6C53.7919 60.4484 52.6044 60.65 51.7512 60.05L47.0028 56.7094C46.884 56.6261 46.737 56.5934 46.5941 56.6183C46.4512 56.6432 46.324 56.7237 46.2403 56.8422C46.1571 56.961 46.1243 57.108 46.1492 57.2509C46.1741 57.3938 46.2546 57.521 46.3731 57.6047L51.0887 60.9219C51.5075 61.2172 51.7856 61.6562 51.8716 62.1609C51.9575 62.6656 51.8403 63.1734 51.5419 63.5906C50.934 64.4391 49.7466 64.6406 48.8934 64.0406L44.145 60.7C44.0262 60.6168 43.8792 60.584 43.7363 60.6089C43.5934 60.6338 43.4662 60.7143 43.3825 60.8328C43.2992 60.9516 43.2665 61.0986 43.2914 61.2415C43.3163 61.3844 43.3968 61.5116 43.5153 61.5953L48.2294 64.9109C48.6481 65.2062 48.9262 65.6469 49.0122 66.1516C49.0981 66.6562 48.9809 67.1641 48.6825 67.5812C48.0762 68.4281 46.8872 68.6312 46.034 68.0312L43.045 65.9297C42.9262 65.8464 42.7792 65.8137 42.6363 65.8386C42.4934 65.8635 42.3662 65.944 42.2825 66.0625C42.1992 66.1813 42.1665 66.3283 42.1914 66.4712C42.2163 66.6141 42.2968 66.7413 42.4153 66.825L45.37 68.9031C45.7887 69.1984 46.0669 69.6391 46.1528 70.1438C46.2387 70.6484 46.1215 71.1563 45.8231 71.5734C45.2153 72.4219 44.0278 72.6234 43.1747 72.0234L41.0481 70.5281L41.2262 70.2766C42.17 68.9344 41.8528 67.0656 40.5184 66.1094C39.8622 65.6406 39.0637 65.4547 38.2684 65.5906C38.0981 65.6187 37.9356 65.6641 37.7762 65.7203C37.7825 64.775 37.3481 63.8406 36.5262 63.2516C35.87 62.7828 35.0715 62.5969 34.2762 62.7328C34.1059 62.7609 33.9434 62.8063 33.784 62.8625C33.7903 61.9172 33.3559 60.9828 32.534 60.3937C31.8778 59.925 31.0794 59.7391 30.284 59.875C29.4887 60.0094 28.795 60.4484 28.3309 61.1078L28.1215 61.4047C27.9465 60.7625 27.559 60.1734 26.9778 59.7578C26.3215 59.2875 25.5231 59.1047 24.7278 59.2391C24.3403 59.3047 23.9778 59.4438 23.6544 59.6437L19.8403 58.9328C17.5927 58.5137 15.3011 58.3799 13.02 58.5344L11.9231 58.6094L13.3169 41.6062C13.3544 41.1484 13.2106 40.7047 12.9122 40.3562C12.6137 40.0078 12.1965 39.7984 11.7387 39.7656L5.33249 39.3062C4.40905 39.2406 3.58717 39.9406 3.51061 40.8687L2.01061 59.1516C1.93405 60.0891 2.63405 60.9141 3.57155 60.9906L9.97311 61.5156C10.1965 61.5346 10.4214 61.5092 10.6348 61.4408C10.8483 61.3725 11.0461 61.2625 11.2169 61.1172C11.5637 60.8219 11.7762 60.4094 11.8137 59.9562L11.834 59.7125L13.0965 59.6266C15.284 59.4781 17.4872 59.6062 19.6419 60.0078L22.7028 60.5781L22.0403 61.5203C21.3497 62.5016 21.5825 63.8703 22.5575 64.5687L23.8669 65.5062C24.2434 65.7766 24.6856 65.9172 25.1403 65.9172C25.2637 65.9172 25.3887 65.9063 25.5122 65.8859C25.5575 65.8781 25.6012 65.8672 25.645 65.8563C25.7059 66.4641 26.0153 67.0453 26.5481 67.4266L27.8575 68.3641C28.234 68.6344 28.6762 68.775 29.1309 68.775C29.2544 68.775 29.3794 68.7641 29.5044 68.7437C29.5497 68.7359 29.5934 68.725 29.6372 68.7141C29.6981 69.3219 30.0075 69.9031 30.5403 70.2844L31.8497 71.2219C32.2262 71.4922 32.6684 71.6328 33.1231 71.6328C33.2465 71.6328 33.3715 71.6219 33.495 71.6016C33.5403 71.5938 33.584 71.5828 33.6278 71.5719C33.6887 72.1797 33.9981 72.7609 34.5294 73.1422L35.8403 74.0797C36.2169 74.35 36.659 74.4906 37.1137 74.4906C37.2372 74.4906 37.3622 74.4797 37.4856 74.4594C37.7717 74.4117 38.0454 74.3075 38.2906 74.1526C38.5359 73.9978 38.7477 73.7956 38.9137 73.5578L40.4153 71.4219L42.5419 72.9172C43.0637 73.2844 43.6653 73.4609 44.2622 73.4609C45.1997 73.4609 46.1247 73.025 46.709 72.2094C47.1778 71.5531 47.3622 70.7547 47.2278 69.9594C47.1997 69.7906 47.1544 69.6266 47.0981 69.4672C47.1059 69.4672 47.1122 69.4688 47.12 69.4688C48.0575 69.4688 48.9825 69.0328 49.5669 68.2172C50.0356 67.5609 50.22 66.7625 50.0856 65.9672C50.0575 65.7984 50.0122 65.6344 49.9559 65.475C49.9637 65.475 49.97 65.4766 49.9778 65.4766C50.9153 65.4766 51.8403 65.0406 52.4247 64.225C52.8934 63.5688 53.0778 62.7703 52.9434 61.975C52.9153 61.8063 52.87 61.6422 52.8137 61.4844H52.8356C53.7731 61.4844 54.6981 61.0484 55.2825 60.2328C55.7512 59.5766 55.9356 58.7781 55.8012 57.9828C55.6669 57.1875 55.2278 56.4937 54.5684 56.0297L39.5278 45.4516L39.9528 45.0016C40.0523 44.896 40.1059 44.7553 40.1018 44.6103C40.0977 44.4653 40.0363 44.3279 39.9309 44.2281C39.8254 44.1286 39.6847 44.075 39.5397 44.0791C39.3947 44.0832 39.2572 44.1447 39.1575 44.25L37.6044 45.8953C36.3809 47.1922 34.6559 47.9359 32.8731 47.9359C32.3215 47.9359 31.8356 47.6453 31.5747 47.1594C31.3137 46.6734 31.3403 46.1078 31.6465 45.6484L33.5809 42.7359C33.9868 42.1233 34.5382 41.6209 35.1858 41.2735C35.8334 40.9261 36.557 40.7447 37.2919 40.7453H40.8215C42.6419 40.7453 44.4512 41.3422 45.9137 42.4281L47.1231 43.325C50.5622 45.875 54.909 46.7172 59.0512 45.6328L66.8356 43.5969L68.0669 58.6062L66.97 58.5312C64.6903 58.3766 62.395 58.5109 60.1497 58.9297L57.1778 59.4828C57.1069 59.4957 57.0392 59.5225 56.9787 59.5616C56.9182 59.6007 56.866 59.6514 56.8251 59.7108C56.7843 59.7702 56.7555 59.837 56.7406 59.9075C56.7257 59.9781 56.7248 60.0508 56.7381 60.1217C56.7514 60.1925 56.7785 60.26 56.818 60.3203C56.8575 60.3806 56.9084 60.4325 56.968 60.4731C57.0276 60.5136 57.0947 60.5419 57.1652 60.5565C57.2358 60.571 57.3086 60.5715 57.3794 60.5578L60.3512 60.0047C62.5083 59.6031 64.7074 59.475 66.8966 59.6234L68.159 59.7094L68.1794 59.9531C68.2169 60.4078 68.4278 60.8203 68.7762 61.1141C68.9468 61.2596 69.1446 61.3698 69.3581 61.4382C69.5716 61.5066 69.7966 61.5319 70.02 61.5125L76.4215 60.9875C77.3575 60.9141 78.059 60.0891 77.9809 59.1516ZM5.56374 57.3484C5.56374 56.5766 6.18874 55.9516 6.96061 55.9516C7.73249 55.9516 8.35749 56.5766 8.35749 57.3484C8.35749 58.1203 7.73249 58.7453 6.96061 58.7453C6.18874 58.7453 5.56374 58.1203 5.56374 57.3484ZM5.21686 40.3969C5.23092 40.3969 5.24655 40.3969 5.26061 40.3984L11.6669 40.8578C11.8309 40.8703 11.9809 40.9453 12.0887 41.0703C12.1965 41.1953 12.2481 41.3547 12.234 41.5187L11.8106 46.6781C11.0544 44.3719 8.98717 42.6234 6.42155 42.3969L4.5028 42.2266L4.60592 40.9594C4.63405 40.6406 4.9028 40.3969 5.21686 40.3969ZM25.3356 64.8094C25.045 64.8594 24.7512 64.7922 24.5106 64.6187L23.1997 63.6812C22.7106 63.3297 22.5934 62.6437 22.9403 62.1516L23.6778 61.1016C23.9731 60.6828 24.4137 60.4047 24.9184 60.3188C25.1667 60.2753 25.4211 60.2821 25.6667 60.3387C25.9122 60.3954 26.144 60.5007 26.3481 60.6484C27.1965 61.2562 27.3981 62.4438 26.7981 63.2969L26.0528 64.3578C25.969 64.4767 25.8625 64.5779 25.7394 64.6554C25.6163 64.7329 25.4791 64.7852 25.3356 64.8094ZM29.3278 67.6672C29.0356 67.7156 28.7419 67.6484 28.5012 67.4766L27.1919 66.5391C26.7012 66.1875 26.5856 65.5016 26.9325 65.0094L29.2325 61.7375C29.5278 61.3187 29.9684 61.0406 30.4731 60.9547C30.7214 60.9112 30.9758 60.918 31.2214 60.9747C31.4669 61.0313 31.6986 61.1366 31.9028 61.2844C32.7512 61.8922 32.9528 63.0797 32.3528 63.9328L30.045 67.2156C29.8752 67.4552 29.6173 67.6176 29.3278 67.6672ZM33.3184 70.525C33.1749 70.5501 33.0278 70.5462 32.8858 70.5135C32.7438 70.4807 32.6099 70.4198 32.4919 70.3344L31.1825 69.3969C30.6934 69.0469 30.5762 68.3594 30.9231 67.8672L33.2231 64.5953C33.5184 64.1766 33.959 63.8984 34.4637 63.8125C34.712 63.7691 34.9664 63.7759 35.212 63.8325C35.4576 63.8891 35.6893 63.9944 35.8934 64.1422C36.7419 64.75 36.9434 65.9375 36.3434 66.7906L34.0356 70.0734C33.9518 70.1924 33.8453 70.2935 33.7222 70.371C33.5991 70.4485 33.4619 70.5009 33.3184 70.525ZM38.0278 72.9297C37.9443 73.049 37.8379 73.1506 37.7148 73.2284C37.5916 73.3062 37.4543 73.3587 37.3106 73.3828C37.1671 73.4079 37.02 73.4039 36.878 73.3712C36.7361 73.3384 36.6021 73.2776 36.484 73.1922L35.1731 72.2547C34.684 71.9031 34.5669 71.2172 34.9137 70.725L37.2153 67.4531C37.5106 67.0344 37.9497 66.7563 38.4559 66.6703C38.5637 66.6516 38.6715 66.6437 38.7794 66.6437C39.1747 66.6437 39.5575 66.7656 39.8856 67.0016C40.734 67.6094 40.9356 68.7969 40.3356 69.65L38.0278 72.9297ZM71.6419 57.3484C71.6419 56.5766 72.2669 55.9516 73.0387 55.9516C73.8106 55.9516 74.4356 56.5766 74.4356 57.3484C74.4356 58.1203 73.8106 58.7453 73.0387 58.7453C72.2669 58.7453 71.6419 58.1203 71.6419 57.3484ZM67.9106 41.0687C68.0184 40.9437 68.1669 40.8688 68.3325 40.8563L74.7387 40.3969C75.0715 40.3719 75.3653 40.625 75.3934 40.9578L75.4981 42.225L73.5794 42.3953C71.0137 42.6219 68.945 44.3703 68.1903 46.6766L67.7669 41.5172C67.7512 41.3531 67.8028 41.1937 67.9106 41.0687Z" fill="#9A9A9A"/>
<path d="M39.9992 4.76718C31.8336 4.76718 25.2148 11.3859 25.2148 19.5516C25.2148 27.7172 31.8336 34.3359 39.9992 34.3359C48.1648 34.3359 54.7836 27.7172 54.7836 19.5516C54.7836 11.3859 48.1648 4.76718 39.9992 4.76718Z" fill="#0166FF"/>
<path d="M47.4667 16.347C47.3417 15.1024 46.7825 13.9416 45.8872 13.068L45.8062 13.002C45.1613 12.3751 44.3676 11.9223 43.4997 11.6862C42.6319 11.45 41.7182 11.4383 40.8445 11.652C39.9708 11.8658 39.1658 12.298 38.505 12.9082C37.8441 13.5183 37.3491 14.2864 37.0665 15.1403C36.688 16.2842 36.7086 17.5226 37.125 18.6533L32.6625 23.133C32.6116 23.1839 32.5712 23.2444 32.5436 23.3109C32.5161 23.3774 32.5019 23.4488 32.502 23.5208V25.9508C32.5011 26.0231 32.5146 26.0948 32.5419 26.1618C32.5691 26.2287 32.6094 26.2896 32.6605 26.3407C32.7116 26.3919 32.7724 26.4323 32.8393 26.4596C32.9062 26.4869 32.978 26.5006 33.0502 26.4998H35.487C35.5663 26.5011 35.6449 26.485 35.7172 26.4525C35.7896 26.42 35.8539 26.372 35.9056 26.3118C35.9573 26.2517 35.9951 26.1809 36.0163 26.1045C36.0376 26.0281 36.0417 25.948 36.0285 25.8698L35.9182 25.1385L36.5985 25.248C36.6848 25.2629 36.7735 25.2575 36.8573 25.2321C36.9412 25.2067 37.0179 25.1621 37.0815 25.1018L38.3032 23.8793C38.3652 23.8182 38.4114 23.7431 38.438 23.6603C38.4647 23.5775 38.4709 23.4895 38.4562 23.4038L38.3392 22.6718L39.0712 22.7813C39.157 22.7952 39.2449 22.7886 39.3276 22.7618C39.4102 22.7351 39.4854 22.689 39.5467 22.6275L40.3582 21.8078C41.2031 22.1215 42.114 22.2143 43.0048 22.0775C43.8955 21.9408 44.7367 21.5789 45.4485 21.0263C46.1607 20.4735 46.7204 19.7486 47.075 18.9197C47.4295 18.0908 47.5672 17.1853 47.475 16.2885L47.4667 16.347ZM44.073 18.126C43.7604 18.4463 43.3574 18.6635 42.918 18.7485C42.7733 18.7774 42.6261 18.792 42.4785 18.792C42.1829 18.7914 41.8902 18.7343 41.616 18.624C41.2042 18.4521 40.8528 18.1615 40.6065 17.7893C40.3553 17.4204 40.2224 16.9838 40.2255 16.5375C40.2255 16.0924 40.3576 15.6572 40.6049 15.2872C40.8523 14.9171 41.2039 14.6287 41.6152 14.4585C42.0279 14.2903 42.4809 14.2471 42.9178 14.3343C43.3548 14.4215 43.7565 14.6353 44.073 14.949C44.4903 15.3724 44.7243 15.943 44.7243 16.5375C44.7243 17.132 44.4903 17.7026 44.073 18.126Z" fill="white"/>
<path d="M16.7141 45.2906L23.5485 45.8578C24.8094 45.9625 25.4938 47.3812 24.7922 48.4344L23.6156 50.1984C22.5031 51.8656 20.186 52.1906 18.6594 50.8937L15.5016 48.2109C14.2719 47.1656 15.1063 45.1562 16.7141 45.2906ZM63.6453 46.0625L57.2391 47.7125C55.9094 48.0547 55.4344 49.7 56.3781 50.6984C58.4422 52.8812 61.9485 52.7766 63.8766 50.4734L65.3313 48.7375C66.3688 47.4984 65.2094 45.6594 63.6453 46.0625Z" fill="#E1EAF8"/>
</svg>
