<svg width="80" height="80" viewBox="0 0 80 80" fill="none" xmlns="http://www.w3.org/2000/svg">
<path d="M50.0305 18.1109C50.332 18.1109 50.5773 17.8656 50.5773 17.5641V9.90469C50.5773 5.52031 47.0102 1.95312 42.6258 1.95312H19.4398C15.0555 1.95312 11.4883 5.52031 11.4883 9.90469V70.0969C11.4883 74.4812 15.0555 78.0484 19.4398 78.0484H42.6258C47.0102 78.0484 50.5773 74.4812 50.5773 70.0969V54.875C50.5773 54.5734 50.332 54.3281 50.0305 54.3281C49.7289 54.3281 49.4836 54.5734 49.4836 54.875V70.0969C49.4836 73.8781 46.407 76.9547 42.6258 76.9547H19.4398C15.6586 76.9547 12.582 73.8781 12.582 70.0969V9.90469C12.582 6.12344 15.6586 3.04688 19.4398 3.04688H42.6258C46.407 3.04688 49.4836 6.12344 49.4836 9.90469V17.5641C49.4836 17.8656 49.7289 18.1109 50.0305 18.1109Z" fill="#9A9A9A"/>
<path d="M35.3797 8.7082C36.5047 8.7082 37.4203 7.79258 37.4203 6.66758C37.4203 5.54258 36.5047 4.62695 35.3797 4.62695H26.6891C25.5641 4.62695 24.6484 5.54258 24.6484 6.66758C24.6484 7.79258 25.5641 8.7082 26.6891 8.7082H35.3797ZM36.3266 6.66758C36.3266 7.18945 35.9016 7.61445 35.3797 7.61445H33.2625C33.8986 7.16603 34.3347 6.4872 34.4781 5.72227H35.3797C35.9016 5.7207 36.3266 6.1457 36.3266 6.66758ZM21.5781 73.7723C21.5781 74.0738 21.8234 74.3191 22.125 74.3191H39.9422C40.2438 74.3191 40.4891 74.0738 40.4891 73.7723C40.4891 73.4707 40.2438 73.2254 39.9422 73.2254H22.125C21.8234 73.2254 21.5781 73.4707 21.5781 73.7723Z" fill="#9A9A9A"/>
<path d="M37.88 71.034H24.6832C22.1441 71.034 20.6316 68.1996 22.0488 66.0902L23.1863 64.3965C23.6208 63.7496 24.2078 63.2195 24.8956 62.853C25.5833 62.4865 26.3507 62.2948 27.13 62.2949H31.5441C34.98 62.2949 38.191 64.0059 40.1066 66.859C41.3003 68.6402 40.0253 71.034 37.88 71.034Z" fill="#FAFBFF"/>
<path d="M62.9273 19.9736H34.9039C32.1195 19.9736 29.8633 22.2299 29.8633 25.0143V47.1455C29.8633 49.9299 32.1195 52.1861 34.9039 52.1861H37.243C38.2727 52.1861 39.1055 53.0205 39.1055 54.0486V59.0377C39.1055 59.9174 40.168 60.358 40.7898 59.7361L47.7945 52.7314C48.1445 52.3814 48.618 52.1861 49.1117 52.1861H62.9258C65.7102 52.1861 67.9664 49.9299 67.9664 47.1455V25.0143C67.9664 22.2299 65.7102 19.9736 62.9273 19.9736Z" fill="#FD4E4E"/>
<path d="M56.25 36H56.75C57.3023 36 57.75 35.5523 57.75 35V33.25C57.75 32.6977 57.3023 32.25 56.75 32.25H52.75C52.1977 32.25 51.75 31.8023 51.75 31.25V28C51.75 27.4477 51.3023 27 50.75 27H48.25C47.6977 27 47.25 27.4477 47.25 28V31.25C47.25 31.8023 46.8023 32.25 46.25 32.25H42.25C41.6977 32.25 41.25 32.6977 41.25 33.25V35C41.25 35.5523 41.6977 36 42.25 36H42.75M56.25 36L57.5357 43.0711C57.6473 43.685 57.1757 44.25 56.5518 44.25H52.5M56.25 36H42.75M42.75 36L41.4643 43.0711C41.3527 43.685 41.8243 44.25 42.4482 44.25H46.5M46.5 44.25V40.5M46.5 44.25H52.5M52.5 44.25V40.5" stroke="white" stroke-width="1.2" stroke-linejoin="round"/>
</svg>
