<svg width="80" height="80" viewBox="0 0 80 80" fill="none" xmlns="http://www.w3.org/2000/svg">
<path d="M38.593 47.2132H41.5773V56.3987C41.5773 56.4776 41.5926 56.5558 41.6223 56.6288C41.652 56.7017 41.6955 56.768 41.7504 56.8239C41.8053 56.8797 41.8704 56.924 41.9422 56.9542C42.0139 56.9844 42.0907 57 42.1683 57H46.832C46.9887 57 47.1391 56.9366 47.2499 56.8239C47.3608 56.7111 47.423 56.5582 47.423 56.3987V47.2132H50.4073C50.9345 47.2132 51.1981 46.5651 50.8256 46.1862L44.918 40.176C44.6874 39.9413 44.313 39.9413 44.0813 40.176L38.1737 46.1862C37.8023 46.5651 38.0658 47.2132 38.593 47.2132Z" fill="#0166FF"/>
<path d="M42.407 36.127H39.4227V27.573C39.4227 27.421 39.3604 27.2753 39.2496 27.1678C39.1388 27.0604 38.9884 27 38.8317 27H34.168C34.0113 27 33.8609 27.0604 33.7501 27.1678C33.6392 27.2753 33.577 27.421 33.577 27.573V36.127H30.5927C30.0655 36.127 29.8019 36.7445 30.1744 37.1055L36.082 42.8323C36.3126 43.0559 36.687 43.0559 36.9187 42.8323L42.8263 37.1055C43.1977 36.7445 42.9342 36.127 42.407 36.127Z" fill="#0166FF"/>
<path d="M14.5085 58.6031C11.2507 53.65 9.3382 47.7344 9.29289 41.3734C9.16789 23.7844 23.5069 9.33281 41.0976 9.32656C47.3898 9.325 53.2538 11.15 58.1913 14.3C59.2241 14.9578 60.5741 14.8141 61.4335 13.9422L61.4351 13.9406C55.7679 9.69844 48.7319 7.1875 41.1085 7.1875C22.382 7.1875 7.01632 22.6703 7.15226 41.3969C7.20851 49.0938 9.82726 56.1813 14.196 61.85C15.0538 60.9781 15.182 59.6266 14.5085 58.6031ZM68.246 20.7312L68.2366 20.7406C67.3757 21.6031 67.2382 22.9484 67.896 23.9734C71.0726 28.9188 72.9179 34.7984 72.9241 41.1109C72.9413 58.6297 58.6273 72.9578 41.1085 72.9578C34.8054 72.9578 28.9319 71.1234 23.9898 67.9625C22.9632 67.3047 21.6179 67.4453 20.757 68.3078L20.746 68.3188C26.4195 72.5766 33.4679 75.0984 41.1069 75.1C59.8413 75.1 75.082 59.8453 75.0632 41.1109C75.057 33.4609 72.5195 26.4047 68.246 20.7312Z" fill="#E1EAF8"/>
<path d="M41.1076 6.63965C31.892 6.63965 23.2264 10.2287 16.7107 16.7459C10.1936 23.2631 6.60449 31.9271 6.60449 41.1428C6.60449 49.6506 9.72949 57.8225 15.4029 64.1553C15.5029 64.2678 15.6451 64.3334 15.7951 64.3365H15.8107C15.9561 64.3365 16.0951 64.2787 16.1982 64.1756L64.1436 16.2287C64.2498 16.1225 64.3076 15.9771 64.3029 15.8271C64.2982 15.6771 64.2326 15.535 64.1217 15.435C57.7889 9.76465 49.6154 6.63965 41.1076 6.63965ZM53.7232 25.1053V19.624C53.7232 16.6162 51.2764 14.1678 48.267 14.1678H31.7311C28.7232 14.1678 26.2748 16.6146 26.2748 19.624V48.4303C26.2748 48.7318 26.5201 48.9771 26.8217 48.9771C27.1232 48.9771 27.3686 48.7318 27.3686 48.4303V19.624C27.3686 17.2193 29.3248 15.2615 31.7311 15.2615H48.267C50.6717 15.2615 52.6295 17.2178 52.6295 19.624V26.199L15.8357 62.9928C10.5842 56.924 7.69824 49.1881 7.69824 41.1428C7.69824 32.2193 11.1732 23.8287 17.4842 17.5193C23.7951 11.21 32.1842 7.7334 41.1076 7.7334C49.1514 7.7334 56.8873 10.6193 62.9576 15.8709L53.7232 25.1053ZM66.792 18.8818C67.0061 18.6678 67.0061 18.3225 66.792 18.1084C66.5779 17.8943 66.2326 17.8943 66.0186 18.1084L18.0732 66.0553C17.967 66.1615 17.9092 66.3068 17.9139 66.4568C17.9186 66.6068 17.9842 66.749 18.0951 66.849C24.4279 72.5225 32.6014 75.6475 41.1076 75.6475C50.3232 75.6475 58.9889 72.0584 65.5045 65.5412C72.0217 59.024 75.6107 50.36 75.6107 41.1443C75.6107 33.5928 73.2154 26.4209 68.6811 20.4037C68.4998 20.1631 68.1561 20.1146 67.9154 20.2959C67.6748 20.4771 67.6264 20.8209 67.8076 21.0615C72.1967 26.8865 74.517 33.8318 74.517 41.1428C74.517 50.0662 71.042 58.4568 64.7311 64.7678C58.4201 71.0787 50.0311 74.5537 41.1076 74.5537C33.0639 74.5537 25.3279 71.6678 19.2576 66.4162L26.2748 59.399V62.5646C26.2748 65.5725 28.7217 68.0209 31.7311 68.0209H48.267C51.2748 68.0209 53.7232 65.574 53.7232 62.5646V35.4896C53.7232 35.1881 53.4779 34.9428 53.1764 34.9428C52.8748 34.9428 52.6295 35.1881 52.6295 35.4896V62.5646C52.6295 64.9693 50.6732 66.9271 48.267 66.9271H31.7311C29.3264 66.9271 27.3686 64.9709 27.3686 62.5646V58.3053L66.792 18.8818Z" fill="#9A9A9A"/>
<path d="M68.0105 14.2395C60.8246 7.05352 51.2699 3.0957 41.1074 3.0957C30.9449 3.0957 21.3902 7.05352 14.2043 14.2395C7.01836 21.4254 3.06055 30.9801 3.06055 41.1426C3.06055 46.4629 4.13711 51.6098 6.26211 56.441C6.32055 56.5736 6.42916 56.6777 6.56417 56.7304C6.69918 56.7831 6.84957 56.7802 6.98242 56.7223C7.11505 56.6638 7.21912 56.5552 7.27183 56.4202C7.32455 56.2852 7.32161 56.1348 7.26367 56.002C5.20117 51.3098 4.1543 46.3113 4.1543 41.1426C4.1543 31.2723 7.99805 21.9926 14.9777 15.0129C21.9574 8.0332 31.2371 4.18945 41.1074 4.18945C50.9777 4.18945 60.2574 8.0332 67.2371 15.0129C74.2168 21.9926 78.0605 31.2723 78.0605 41.1426C78.0605 51.0129 74.2168 60.2926 67.2371 67.2723C60.2574 74.252 50.9777 78.0957 41.1074 78.0957C34.4855 78.0957 27.9918 76.3238 22.3246 72.9723C16.8215 69.7176 12.2293 65.0691 9.04492 59.527C9.00928 59.4645 8.96164 59.4097 8.90475 59.3658C8.84785 59.3218 8.78283 59.2895 8.71341 59.2708C8.644 59.2521 8.57157 59.2473 8.50028 59.2566C8.42899 59.266 8.36026 59.2894 8.29805 59.3254C8.03555 59.4754 7.94648 59.8098 8.09648 60.0723C11.3746 65.777 16.1027 70.5645 21.7684 73.9145C27.6043 77.366 34.2918 79.1895 41.1074 79.1895C51.2699 79.1895 60.8246 75.2316 68.0105 68.0457C75.1965 60.8598 79.1543 51.3051 79.1543 41.1426C79.1543 30.9801 75.1965 21.427 68.0105 14.2395Z" fill="#9A9A9A"/>
<path d="M73.534 15.7813C73.4022 15.7817 73.2747 15.7344 73.175 15.6483C73.0753 15.5622 73.01 15.443 72.9912 15.3125C72.9723 15.1821 73.0012 15.0493 73.0725 14.9385C73.1439 14.8276 73.2528 14.7463 73.3793 14.7094L77.2824 13.5594C77.5715 13.475 77.8762 13.6391 77.9621 13.9297C77.9825 13.9987 77.9891 14.071 77.9815 14.1424C77.9739 14.2139 77.9523 14.2832 77.9179 14.3463C77.8835 14.4095 77.837 14.4652 77.781 14.5103C77.7251 14.5555 77.6608 14.5891 77.5918 14.6094L73.6887 15.7594C73.6371 15.7735 73.584 15.7813 73.534 15.7813ZM64.959 6.84223C64.8934 6.84223 64.8262 6.82973 64.7621 6.80473C64.4809 6.69535 64.3402 6.37973 64.4496 6.09691L65.9152 2.3016C65.9412 2.23461 65.9801 2.17338 66.0297 2.12142C66.0793 2.06946 66.1387 2.02778 66.2044 1.99876C66.2702 1.96974 66.341 1.95395 66.4128 1.95229C66.4846 1.95064 66.5561 1.96314 66.6231 1.9891C66.69 2.01506 66.7513 2.05396 66.8032 2.10357C66.8552 2.15319 66.8969 2.21256 66.9259 2.27829C66.9549 2.34401 66.9707 2.41481 66.9724 2.48664C66.974 2.55847 66.9615 2.62992 66.9356 2.69691L65.4684 6.49223C65.4287 6.59513 65.3588 6.68362 65.2679 6.74608C65.177 6.80854 65.0693 6.84206 64.959 6.84223ZM2.56212 66.4625C2.43034 66.4629 2.30286 66.4157 2.20312 66.3296C2.10339 66.2434 2.0381 66.1242 2.01928 65.9938C2.00046 65.8633 2.02936 65.7305 2.10068 65.6197C2.17199 65.5089 2.28092 65.4276 2.40743 65.3907L6.31056 64.2407C6.60118 64.1547 6.90431 64.3219 6.99024 64.611C7.07618 64.9 6.91056 65.2047 6.61993 65.2907L2.71681 66.4407C2.66524 66.4547 2.61368 66.4625 2.56212 66.4625ZM13.5746 78.0469C13.509 78.0469 13.4418 78.0344 13.3777 78.0094C13.0965 77.9 12.9559 77.5844 13.0652 77.3016L14.5309 73.5079C14.5568 73.4409 14.5957 73.3796 14.6453 73.3277C14.695 73.2757 14.7543 73.234 14.8201 73.205C14.8858 73.176 14.9566 73.1602 15.0284 73.1585C15.1002 73.1569 15.1717 73.1694 15.2387 73.1954C15.3057 73.2213 15.3669 73.2602 15.4189 73.3098C15.4708 73.3594 15.5125 73.4188 15.5415 73.4845C15.5705 73.5503 15.5863 73.6211 15.588 73.6929C15.5896 73.7647 15.5771 73.8362 15.5512 73.9032L14.0856 77.6985C14.0452 77.8011 13.9749 77.8892 13.8837 77.9514C13.7926 78.0135 13.6849 78.0468 13.5746 78.0469Z" fill="#0166FF"/>
</svg>
