<svg width="80" height="80" viewBox="0 0 80 80" fill="none" xmlns="http://www.w3.org/2000/svg">
<path d="M67.8009 45.2427H55.3098C54.3903 45.2427 53.5085 45.608 52.8583 46.2581C52.2081 46.9083 51.8428 47.7901 51.8428 48.7096V53.6296C51.8428 54.5491 52.2081 55.4309 52.8583 56.081C53.5085 56.7312 54.3903 57.0965 55.3098 57.0965H67.8009L72.4689 55.0976V43.2437L67.8009 45.2427ZM55.8637 52.5622C55.5883 52.5623 55.319 52.4806 55.09 52.3276C54.8609 52.1746 54.6824 51.9571 54.577 51.7026C54.4715 51.4482 54.4439 51.1681 54.4976 50.898C54.5514 50.6278 54.684 50.3797 54.8787 50.1849C55.0735 49.9901 55.3217 49.8574 55.5918 49.8037C55.862 49.75 56.142 49.7775 56.3965 49.8829C56.6509 49.9883 56.8685 50.1668 57.0215 50.3958C57.1745 50.6249 57.2562 50.8941 57.2562 51.1696C57.2562 51.5389 57.1095 51.8931 56.8484 52.1543C56.5872 52.4155 56.233 52.5622 55.8637 52.5622ZM68.3478 53.9285C68.3478 54.0735 68.2902 54.2126 68.1876 54.3152C68.085 54.4177 67.9459 54.4754 67.8009 54.4754C67.6559 54.4754 67.5168 54.4177 67.4142 54.3152C67.3116 54.2126 67.254 54.0735 67.254 53.9285V48.4107C67.254 48.2656 67.3116 48.1265 67.4142 48.024C67.5168 47.9214 67.6559 47.8638 67.8009 47.8638C67.9459 47.8638 68.085 47.9214 68.1876 48.024C68.2902 48.1265 68.3478 48.2656 68.3478 48.4107V53.9285Z" fill="#E1EAF8"/>
<path d="M20.7898 25.8399L48.8227 13.2207L42.6398 4.94097C42.5299 4.79373 42.392 4.66959 42.2341 4.57563C42.0762 4.48167 41.9013 4.41974 41.7194 4.39338C41.5376 4.36702 41.3523 4.37673 41.1742 4.42198C40.9961 4.46722 40.8286 4.54711 40.6814 4.65707L12.3164 25.8399H20.7898Z" fill="#0166FF"/>
<path d="M35.5 6L30.143 2.1736C29.2382 1.52725 27.9798 1.74314 27.3421 2.65414L11 26" stroke="#9A9A9A" stroke-width="1.4" stroke-linecap="round" stroke-linejoin="round"/>
<path d="M62.5 26L56.3172 12.3095C55.8649 11.308 54.6894 10.859 53.6846 11.304L20.5 26" stroke="#9A9A9A" stroke-width="1.4" stroke-linecap="round" stroke-linejoin="round"/>
<path d="M14.5 21H10C9.16667 21 7.5 21.5 7.5 23.5M7.5 23.5C7.5 25.5 9.16667 26 10 26H64C65.3333 26 68 26.8 68 30C68 33.2 68 40.3333 68 43.5M7.5 23.5V55.5M30.5 76.5H64C65.3333 76.1667 68 75 68 73C68 71 68 63.1667 68 59.5" stroke="#9A9A9A" stroke-width="1.4" stroke-linecap="round" stroke-linejoin="round"/>
<path d="M64 21.0002C66.8333 20.8335 72.5 22.0002 72.5 28.0002C72.5 34.0002 72.5 56.8334 72.5 67.5C72.3333 69.1667 71.2 72.5 68 72.5" stroke="#9A9A9A" stroke-width="1.4" stroke-linecap="round" stroke-linejoin="round"/>
<path d="M31.466 40.2012V37.859C31.4654 37.3236 31.2524 36.8103 30.8738 36.4317C30.4952 36.0532 29.9819 35.8402 29.4465 35.8396H16.4748C15.9393 35.8402 15.426 36.0532 15.0474 36.4318C14.6688 36.8104 14.4559 37.3237 14.4552 37.8591V40.2012C14.4559 40.7366 14.6688 41.2499 15.0474 41.6285C15.426 42.0071 15.9393 42.2201 16.4748 42.2207H29.4465C29.9819 42.2201 30.4952 42.0071 30.8738 41.6285C31.2524 41.2499 31.4654 40.7366 31.466 40.2012ZM15.5488 40.2012V37.859C15.5492 37.6135 15.6468 37.3782 15.8204 37.2047C15.994 37.0312 16.2293 36.9336 16.4748 36.9333H19.8201C19.2567 37.2726 18.7907 37.7518 18.4673 38.3243C18.1438 38.8969 17.974 39.5434 17.9743 40.201C17.9739 40.5382 18.0898 40.8652 18.3024 41.1269H16.4748C16.2293 41.1266 15.994 41.029 15.8205 40.8555C15.6469 40.6819 15.5491 40.4466 15.5488 40.2012ZM13.717 31.9351H17.6066C17.7517 31.9351 17.8908 31.8774 17.9933 31.7749C18.0959 31.6723 18.1535 31.5332 18.1535 31.3882C18.1535 31.2431 18.0959 31.104 17.9933 31.0015C17.8908 30.8989 17.7517 30.8413 17.6066 30.8413H13.7168C13.5718 30.8413 13.4327 30.8989 13.3301 31.0015C13.2275 31.104 13.1699 31.2431 13.1699 31.3882C13.1699 31.5332 13.2275 31.6723 13.3301 31.7749C13.4327 31.8774 13.5719 31.9351 13.717 31.9351ZM26.4084 31.9351C26.5534 31.9351 26.6925 31.8774 26.7951 31.7749C26.8976 31.6723 26.9552 31.5332 26.9552 31.3882C26.9552 31.2431 26.8976 31.104 26.7951 31.0015C26.6925 30.8989 26.5534 30.8413 26.4084 30.8413H22.5185C22.3735 30.8413 22.2344 30.8989 22.1318 31.0015C22.0293 31.104 21.9716 31.2431 21.9716 31.3882C21.9716 31.5332 22.0293 31.6723 22.1318 31.7749C22.2344 31.8774 22.3735 31.9351 22.5185 31.9351H26.4084ZM35.2099 30.8413H31.3201C31.175 30.8413 31.0359 30.8989 30.9334 31.0015C30.8308 31.104 30.7732 31.2431 30.7732 31.3882C30.7732 31.5332 30.8308 31.6723 30.9334 31.7749C31.0359 31.8774 31.175 31.9351 31.3201 31.9351H35.2099C35.355 31.9351 35.4941 31.8774 35.5966 31.7749C35.6992 31.6723 35.7568 31.5332 35.7568 31.3882C35.7568 31.2431 35.6992 31.104 35.5966 31.0015C35.4941 30.8989 35.355 30.8413 35.2099 30.8413ZM44.0116 30.8413H40.1216C39.9766 30.8413 39.8375 30.8989 39.7349 31.0015C39.6324 31.104 39.5748 31.2431 39.5748 31.3882C39.5748 31.5332 39.6324 31.6723 39.7349 31.7749C39.8375 31.8774 39.9766 31.9351 40.1216 31.9351H44.0116C44.1567 31.9351 44.2958 31.8774 44.3983 31.7749C44.5009 31.6723 44.5585 31.5332 44.5585 31.3882C44.5585 31.2431 44.5009 31.104 44.3983 31.0015C44.2958 30.8989 44.1567 30.8413 44.0116 30.8413ZM52.8132 30.8413H48.9232C48.7782 30.8413 48.6391 30.8989 48.5365 31.0015C48.4339 31.104 48.3763 31.2431 48.3763 31.3882C48.3763 31.5332 48.4339 31.6723 48.5365 31.7749C48.6391 31.8774 48.7782 31.9351 48.9232 31.9351H52.813C52.9581 31.9351 53.0972 31.8774 53.1997 31.7749C53.3023 31.6723 53.3599 31.5332 53.3599 31.3882C53.3599 31.2431 53.3023 31.104 53.1997 31.0015C53.0972 30.8989 52.9582 30.8413 52.8132 30.8413ZM61.6148 30.8413H57.7248C57.5797 30.8413 57.4406 30.8989 57.3381 31.0015C57.2355 31.104 57.1779 31.2431 57.1779 31.3882C57.1779 31.5332 57.2355 31.6723 57.3381 31.7749C57.4406 31.8774 57.5797 31.9351 57.7248 31.9351H61.6146C61.7596 31.9351 61.8988 31.8774 62.0013 31.7749C62.1039 31.6723 62.1615 31.5332 62.1615 31.3882C62.1615 31.2431 62.1039 31.104 62.0013 31.0015C61.8988 30.8989 61.7598 30.8413 61.6148 30.8413ZM31.3201 71.4982H35.2099C35.355 71.4982 35.4941 71.4406 35.5966 71.338C35.6992 71.2354 35.7568 71.0963 35.7568 70.9513C35.7568 70.8063 35.6992 70.6672 35.5966 70.5646C35.4941 70.4621 35.355 70.4044 35.2099 70.4044H31.3201C31.175 70.4044 31.0359 70.4621 30.9334 70.5646C30.8308 70.6672 30.7732 70.8063 30.7732 70.9513C30.7732 71.0963 30.8308 71.2354 30.9334 71.338C31.0359 71.4406 31.175 71.4982 31.3201 71.4982ZM44.0116 70.4044H40.1216C39.9766 70.4044 39.8375 70.4621 39.7349 70.5646C39.6324 70.6672 39.5748 70.8063 39.5748 70.9513C39.5748 71.0963 39.6324 71.2354 39.7349 71.338C39.8375 71.4406 39.9766 71.4982 40.1216 71.4982H44.0116C44.1567 71.4982 44.2958 71.4406 44.3983 71.338C44.5009 71.2354 44.5585 71.0963 44.5585 70.9513C44.5585 70.8063 44.5009 70.6672 44.3983 70.5646C44.2958 70.4621 44.1567 70.4044 44.0116 70.4044ZM52.8132 70.4044H48.9232C48.7782 70.4044 48.6391 70.4621 48.5365 70.5646C48.4339 70.6672 48.3763 70.8063 48.3763 70.9513C48.3763 71.0963 48.4339 71.2354 48.5365 71.338C48.6391 71.4406 48.7782 71.4982 48.9232 71.4982H52.813C52.9581 71.4982 53.0972 71.4406 53.1997 71.338C53.3023 71.2354 53.3599 71.0963 53.3599 70.9513C53.3599 70.8063 53.3023 70.6672 53.1997 70.5646C53.0972 70.4621 52.9582 70.4044 52.8132 70.4044ZM61.6148 70.4044H57.7248C57.5797 70.4044 57.4406 70.4621 57.3381 70.5646C57.2355 70.6672 57.1779 70.8063 57.1779 70.9513C57.1779 71.0963 57.2355 71.2354 57.3381 71.338C57.4406 71.4406 57.5797 71.4982 57.7248 71.4982H61.6146C61.7596 71.4982 61.8988 71.4406 62.0013 71.338C62.1039 71.2354 62.1615 71.0963 62.1615 70.9513C62.1615 70.8063 62.1039 70.6672 62.0013 70.5646C61.8988 70.4621 61.7598 70.4044 61.6148 70.4044Z" fill="#9A9A9A"/>
<path d="M56.167 17.4804C56.2999 17.7792 56.3654 18.1036 56.3588 18.4306C56.3521 18.7575 56.2735 19.079 56.1285 19.3721C55.9835 19.6653 55.7757 19.9228 55.5199 20.1266C55.2641 20.3303 54.9665 20.4751 54.6484 20.5508L39.9388 24.0495C39.7252 24.1003 39.5037 24.1086 39.2869 24.0738C39.0701 24.039 38.8623 23.9618 38.6754 23.8467C38.4884 23.7316 38.3259 23.5807 38.1973 23.4028C38.0686 23.2249 37.9762 23.0234 37.9254 22.8098C37.921 22.7917 37.917 22.7735 37.9134 22.7551C37.8429 22.4077 37.8913 22.0467 38.0507 21.7301C38.2101 21.4135 38.4713 21.1597 38.7923 21.0093L50.6945 15.4381C51.6772 14.9781 52.8024 14.9273 53.8226 15.2969C54.8427 15.6666 55.6743 16.4263 56.1343 17.409C56.1455 17.4327 56.1563 17.4565 56.167 17.4804Z" fill="#E1EAF8"/>
<circle cx="16.5" cy="69" r="11" fill="#0166FF"/>
<path d="M22.5003 66.3332C22.5003 65.2286 20.411 64.3332 17.8337 64.3332C15.2563 64.3332 13.167 65.2286 13.167 66.3332M22.5003 66.3332V68.9999C22.5003 69.6799 21.7097 70.2799 20.5003 70.6412C19.7443 70.8679 18.825 70.9999 17.8337 70.9999C16.8423 70.9999 15.923 70.8672 15.167 70.6412C13.9583 70.2799 13.167 69.6799 13.167 68.9999V66.3332M22.5003 66.3332C22.5003 67.0132 21.7097 67.6132 20.5003 67.9746C19.7443 68.2012 18.825 68.3332 17.8337 68.3332C16.8423 68.3332 15.923 68.2006 15.167 67.9746C13.9583 67.6132 13.167 67.0132 13.167 66.3332" stroke="white" stroke-linecap="round" stroke-linejoin="round"/>
<path d="M10.5 68.9999V71.6666C10.5 72.3466 11.2913 72.9466 12.5 73.3079C13.256 73.5346 14.1753 73.6666 15.1667 73.6666C16.158 73.6666 17.0773 73.5339 17.8333 73.3079C19.042 72.9466 19.8333 72.3466 19.8333 71.6666V70.9999M10.5 68.9999C10.5 68.2019 11.59 67.5132 13.1667 67.1926M10.5 68.9999C10.5 69.6799 11.2913 70.2799 12.5 70.6413C13.256 70.8679 14.1753 70.9999 15.1667 70.9999C15.63 70.9999 16.0773 70.9713 16.5 70.9173" stroke="white" stroke-linecap="round" stroke-linejoin="round"/>
</svg>
