<svg width="80" height="80" viewBox="0 0 80 80" fill="none" xmlns="http://www.w3.org/2000/svg">
<path d="M58.9953 49.0953C58.6937 49.0953 58.4484 49.3406 58.4484 49.6422V70.0953C58.4484 73.8766 55.3719 76.9531 51.5906 76.9531H28.4047C24.6234 76.9531 21.5469 73.8766 21.5469 70.0953V18.3359C21.5469 18.0344 21.3016 17.7891 21 17.7891C20.6984 17.7891 20.4531 18.0344 20.4531 18.3359V70.0953C20.4531 74.4797 24.0203 78.0469 28.4047 78.0469H51.5922C55.9766 78.0469 59.5437 74.4797 59.5437 70.0953V49.6422C59.5433 49.497 59.4853 49.358 59.3825 49.2555C59.2797 49.153 59.1405 49.0954 58.9953 49.0953ZM51.5922 1.95312H28.4047C24.0203 1.95312 20.4531 5.52031 20.4531 9.90469V14.6234C20.4531 14.925 20.6984 15.1703 21 15.1703C21.3016 15.1703 21.5469 14.925 21.5469 14.6234V9.90469C21.5469 6.12344 24.6234 3.04688 28.4047 3.04688H51.5922C55.3734 3.04688 58.45 6.12344 58.45 9.90469V23.2609C58.45 23.5625 58.6953 23.8078 58.9969 23.8078C59.2984 23.8078 59.5437 23.5625 59.5437 23.2609V9.90469C59.5422 5.52031 55.975 1.95312 51.5922 1.95312Z" fill="#9A9A9A"/>
<path d="M44.343 8.7082C45.468 8.7082 46.3836 7.79258 46.3836 6.66758C46.3836 5.54258 45.468 4.62695 44.343 4.62695H35.6523C34.5273 4.62695 33.6117 5.54258 33.6117 6.66758C33.6117 7.79258 34.5273 8.7082 35.6523 8.7082H44.343ZM45.2898 6.66758C45.2898 7.18945 44.8648 7.61445 44.343 7.61445H42.1352C42.7555 7.17383 43.1961 6.50039 43.3336 5.72227H44.343C44.8648 5.7207 45.2898 6.1457 45.2898 6.66758ZM30.543 73.7723C30.543 74.0738 30.7883 74.3191 31.0898 74.3191H48.907C49.2086 74.3191 49.4539 74.0738 49.4539 73.7723C49.4539 73.4707 49.2086 73.2254 48.907 73.2254H31.0898C30.7867 73.2254 30.543 73.4707 30.543 73.7723Z" fill="#9A9A9A"/>
<path d="M53.2939 12C53.9602 12.0003 54.5 12.7778 54.5 13.7354V21.2646C54.5 22.2222 53.9592 22.9997 53.293 23H26.707C26.0408 22.9997 25.5 22.2222 25.5 21.2646V13.7354C25.5 12.7778 26.0408 12.0003 26.707 12H53.2939ZM29.5 19C29.2239 19 29 19.2239 29 19.5C29 19.7761 29.2239 20 29.5 20H44.5C44.7761 20 45 19.7761 45 19.5C45 19.2239 44.7761 19 44.5 19H29.5ZM29.5 15C29.2239 15 29 15.2239 29 15.5C29 15.7761 29.2239 16 29.5 16H48.5C48.7761 16 49 15.7761 49 15.5C49 15.2239 48.7761 15 48.5 15H29.5Z" fill="#E1EAF8"/>
<rect x="24.5" y="52" width="8" height="2" rx="1" fill="#E1EAF8"/>
<rect x="35.5" y="52" width="8" height="2" rx="1" fill="#E1EAF8"/>
<rect x="46.5" y="52" width="8" height="2" rx="1" fill="#E1EAF8"/>
<rect x="24.5" y="56" width="8" height="2" rx="1" fill="#E1EAF8"/>
<rect x="35.5" y="56" width="8" height="2" rx="1" fill="#E1EAF8"/>
<rect x="46.5" y="56" width="8" height="2" rx="1" fill="#E1EAF8"/>
<rect x="24.5" y="60" width="8" height="2" rx="1" fill="#E1EAF8"/>
<rect x="35.5" y="60" width="8" height="2" rx="1" fill="#E1EAF8"/>
<rect x="46.5" y="60" width="8" height="2" rx="1" fill="#E1EAF8"/>
<path d="M67.2944 31H29.707C28.7648 31 28 31.9188 28 33.0507V41.9493C28 43.0812 28.7648 44 29.707 44H67.293C68.2352 44 69 43.0812 69 41.9493V33.0507C69 31.9188 68.2365 31 67.2944 31Z" fill="#0166FF"/>
<path d="M38.025 37.2617C38.025 37.8766 37.9791 38.4243 37.8872 38.9049C37.7953 39.3855 37.6469 39.7954 37.4419 40.1347C37.2441 40.4669 36.9826 40.7213 36.6575 40.898C36.3394 41.0747 35.9542 41.163 35.5019 41.163C34.9365 41.163 34.4665 41.0075 34.0919 40.6965C33.7244 40.3856 33.4488 39.9403 33.265 39.3608C33.0883 38.7742 33 38.0745 33 37.2617C33 36.4419 33.0813 35.7422 33.2438 35.1627C33.4135 34.5831 33.682 34.1414 34.0495 33.8375C34.417 33.5265 34.9012 33.371 35.5019 33.371C36.0673 33.371 36.5373 33.5265 36.9119 33.8375C37.2865 34.1414 37.5656 34.5831 37.7494 35.1627C37.9331 35.7422 38.025 36.4419 38.025 37.2617ZM33.9329 37.2617C33.9329 37.9543 33.9824 38.5303 34.0813 38.9897C34.1873 39.4491 34.3534 39.7954 34.5796 40.0287C34.8128 40.2548 35.1203 40.3679 35.5019 40.3679C35.8836 40.3679 36.1875 40.2548 36.4136 40.0287C36.6468 39.8025 36.8165 39.4597 36.9225 39.0003C37.0285 38.5339 37.0815 37.9543 37.0815 37.2617C37.0815 36.5691 37.0285 35.9966 36.9225 35.5443C36.8165 35.0849 36.6468 34.7421 36.4136 34.516C36.1875 34.2828 35.8836 34.1661 35.5019 34.1661C35.1203 34.1661 34.8128 34.2828 34.5796 34.516C34.3534 34.7421 34.1873 35.0849 34.0813 35.5443C33.9824 35.9966 33.9329 36.5691 33.9329 37.2617Z" fill="white"/>
<path d="M40.7948 38.1522L38.8335 35.3747H39.8937L41.3566 37.5162L42.809 35.3747H43.8586L41.8973 38.1522L43.9646 41.057H42.9044L41.3566 38.7883L39.7877 41.057H38.7381L40.7948 38.1522Z" fill="white"/>
<path d="M50.0105 39.3396H48.9079V41.057H48.0068V39.3396H44.3812V38.5445L47.9432 33.4453H48.9079V38.5021H50.0105V39.3396ZM48.0068 36.1168C48.0068 35.933 48.0068 35.7669 48.0068 35.6185C48.0139 35.463 48.0209 35.3182 48.028 35.1839C48.0351 35.0496 48.0386 34.9224 48.0386 34.8022C48.0457 34.675 48.0528 34.5549 48.0598 34.4418H48.0174C47.9609 34.5761 47.8902 34.7209 47.8054 34.8764C47.7206 35.0319 47.6393 35.1627 47.5616 35.2687L45.2929 38.5021H48.0068V36.1168Z" fill="white"/>
<path d="M52.0487 37.2087C52.0487 37.3218 52.0417 37.4702 52.0275 37.654C52.0205 37.8377 52.0134 37.9967 52.0063 38.131H52.0487C52.0911 38.0745 52.1547 37.9932 52.2395 37.8872C52.3244 37.7812 52.4092 37.6752 52.494 37.5692C52.5859 37.4561 52.6636 37.3642 52.7272 37.2935L54.54 35.3747H55.632L53.3315 37.8024L55.791 41.057H54.6672L52.6954 38.4067L52.0487 38.9685V41.057H51.1264V33H52.0487V37.2087Z" fill="white"/>
<path d="M56.6516 40.4845C56.6516 40.223 56.7152 40.0393 56.8424 39.9333C56.9696 39.8272 57.1216 39.7742 57.2983 39.7742C57.482 39.7742 57.6375 39.8272 57.7647 39.9333C57.899 40.0393 57.9662 40.223 57.9662 40.4845C57.9662 40.739 57.899 40.9227 57.7647 41.0358C57.6375 41.1489 57.482 41.2054 57.2983 41.2054C57.1216 41.2054 56.9696 41.1489 56.8424 41.0358C56.7152 40.9227 56.6516 40.739 56.6516 40.4845Z" fill="white"/>
<path d="M59.4883 40.4845C59.4883 40.223 59.5519 40.0393 59.6791 39.9333C59.8063 39.8272 59.9583 39.7742 60.135 39.7742C60.3187 39.7742 60.4742 39.8272 60.6014 39.9333C60.7357 40.0393 60.8028 40.223 60.8028 40.4845C60.8028 40.739 60.7357 40.9227 60.6014 41.0358C60.4742 41.1489 60.3187 41.2054 60.135 41.2054C59.9583 41.2054 59.8063 41.1489 59.6791 41.0358C59.5519 40.9227 59.4883 40.739 59.4883 40.4845Z" fill="white"/>
<path d="M62.325 40.4845C62.325 40.223 62.3886 40.0393 62.5158 39.9333C62.643 39.8272 62.7949 39.7742 62.9716 39.7742C63.1554 39.7742 63.3109 39.8272 63.4381 39.9333C63.5724 40.0393 63.6395 40.223 63.6395 40.4845C63.6395 40.739 63.5724 40.9227 63.4381 41.0358C63.3109 41.1489 63.1554 41.2054 62.9716 41.2054C62.7949 41.2054 62.643 41.1489 62.5158 41.0358C62.3886 40.9227 62.325 40.739 62.325 40.4845Z" fill="white"/>
</svg>
