<svg width="80" height="80" viewBox="0 0 80 80" fill="none" xmlns="http://www.w3.org/2000/svg">
<path d="M54.8125 69.9082C54.4734 69.9082 54.1984 70.1831 54.1984 70.5223C54.1984 72.866 52.2984 74.766 49.9547 74.766H31.1953C29.6859 74.766 28.4609 75.991 28.4609 77.5004H49.9547C53.8094 77.5004 56.9328 74.3754 56.9328 70.5223V69.9082H54.8125Z" fill="#E1EAF8"/>
<path d="M43.9438 8.05313H32.4609C31.5203 8.05313 30.6844 7.45156 30.3859 6.55781L29.0312 2.5H47.3719L46.0187 6.55781C45.8732 6.99307 45.5946 7.37159 45.2223 7.63991C44.8499 7.90823 44.4027 8.05277 43.9438 8.05313Z" fill="#E1EAF8"/>
<path d="M43.0126 63.4894C43.1098 63.4572 43.1916 63.3997 43.2544 63.3259C43.3157 63.2542 43.3574 63.1679 43.3754 63.0754C43.3933 62.9828 43.3871 62.8872 43.3571 62.7978C43.3344 62.7297 43.2985 62.6667 43.2515 62.6125C43.2044 62.5583 43.1471 62.5139 43.0828 62.4819C43.0186 62.4499 42.9486 62.4309 42.877 62.426C42.8054 62.4211 42.7335 62.4304 42.6654 62.4533L38.8081 63.748C38.74 63.7707 38.677 63.8066 38.6228 63.8537C38.5686 63.9007 38.5242 63.958 38.4922 64.0223C38.4602 64.0866 38.4412 64.1565 38.4363 64.2282C38.4314 64.2998 38.4407 64.3717 38.4636 64.4397C38.4863 64.5078 38.5222 64.5708 38.5693 64.625C38.6164 64.6792 38.6737 64.7236 38.7379 64.7556C38.8022 64.7876 38.8722 64.8066 38.9438 64.8115C39.0154 64.8164 39.0873 64.8071 39.1553 64.7842L43.0126 63.4894Z" fill="#FD4E4E"/>
<path d="M47.5147 71.9684C47.6402 71.9463 47.7541 71.8811 47.8367 71.784C47.8792 71.734 47.9142 71.6736 47.9377 71.6074L49.2608 67.76C49.3586 67.4739 49.2072 67.1624 48.9211 67.0646C48.635 66.9668 48.3235 67.1183 48.2257 67.4044L46.9027 71.2518C46.8612 71.3723 46.8632 71.5035 46.9082 71.6228C46.9532 71.742 47.0384 71.8418 47.1491 71.9049C47.2599 71.968 47.3892 71.9904 47.5147 71.9684Z" fill="#FD4E4E"/>
<path d="M68.8467 44.3211C68.7496 44.3533 68.6678 44.4109 68.605 44.4847C68.5437 44.5563 68.502 44.6426 68.484 44.7352C68.466 44.8277 68.4723 44.9234 68.5023 45.0128C68.5249 45.0809 68.5608 45.1439 68.6079 45.1981C68.655 45.2523 68.7123 45.2967 68.7766 45.3287C68.8408 45.3607 68.9108 45.3797 68.9824 45.3846C69.054 45.3895 69.1259 45.3802 69.1939 45.3573L73.0513 44.0625C73.1194 44.0399 73.1823 44.0039 73.2365 43.9569C73.2908 43.9098 73.3351 43.8525 73.3671 43.7882C73.3991 43.724 73.4181 43.654 73.4231 43.5824C73.428 43.5108 73.4187 43.4389 73.3957 43.3709C73.3731 43.3027 73.3372 43.2398 73.2901 43.1856C73.243 43.1314 73.1857 43.087 73.1214 43.055C73.0572 43.023 72.9872 43.004 72.9156 42.9991C72.844 42.9942 72.7721 43.0034 72.7041 43.0264L68.8467 44.3211Z" fill="#FD4E4E"/>
<path d="M64.3447 35.8422C64.2192 35.8642 64.1053 35.9294 64.0227 36.0265C63.9802 36.0765 63.9451 36.137 63.9217 36.2031L62.5986 40.0506C62.5008 40.3366 62.6522 40.6481 62.9383 40.7459C63.2244 40.8437 63.5359 40.6923 63.6337 40.4062L64.9567 36.5588C64.9982 36.4382 64.9962 36.307 64.9512 36.1878C64.9062 36.0686 64.821 35.9688 64.7102 35.9057C64.5995 35.8426 64.4702 35.8201 64.3447 35.8422Z" fill="#FD4E4E"/>
<path d="M56.2234 69.6327C56.2234 69.3311 56.4688 69.0858 56.7703 69.0858C57.0734 69.0858 57.3172 69.3296 57.3156 69.6327V70.5218C57.3156 74.6702 53.9406 78.0468 49.7906 78.0468H26.2828C22.1344 78.0468 18.7578 74.6718 18.7578 70.5218L18.7584 67.9993L18.7579 64.2137C18.7578 63.9112 19.003 63.666 19.3055 63.666C19.6079 63.666 19.8531 63.9112 19.8531 64.2136V70.5218C19.8531 74.0671 22.7375 76.953 26.2844 76.953H49.7922C53.3375 76.953 56.2234 74.0686 56.2234 70.5218V69.6327Z" fill="#9A9A9A"/>
<path d="M27.3863 38.5645H46.5066C46.8082 38.5645 47.0535 38.3191 47.0535 38.0176C47.0535 37.716 46.8082 37.4707 46.5066 37.4707H27.3863C27.0848 37.4707 26.8395 37.716 26.8395 38.0176C26.8395 38.3191 27.0848 38.5645 27.3863 38.5645Z" fill="#9A9A9A"/>
<path d="M27.3844 44.0035H41.5047C41.8062 44.0035 42.0516 43.7582 42.0516 43.4566C42.0516 43.155 41.8062 42.9097 41.5047 42.9097H27.3844C27.0828 42.9097 26.8375 43.155 26.8375 43.4566C26.8375 43.7582 27.0828 44.0035 27.3844 44.0035ZM37.0312 49.1129H27.3281C27.0266 49.1129 26.7812 49.3582 26.7812 49.6597C26.7812 49.9613 27.0266 50.2066 27.3281 50.2066H37.0312C37.3328 50.2066 37.5781 49.9613 37.5781 49.6597C37.5781 49.3582 37.3328 49.1129 37.0312 49.1129ZM37.0312 54.5519H27.3281C27.0266 54.5519 26.7812 54.7972 26.7812 55.0988C26.7812 55.4004 27.0266 55.6457 27.3281 55.6457H37.0312C37.3328 55.6457 37.5781 55.4004 37.5781 55.0988C37.5781 54.7972 37.3328 54.5519 37.0312 54.5519Z" fill="#9A9A9A"/>
<path d="M18.7609 9.47813V60.0273C18.7609 60.3298 19.0061 60.575 19.3086 60.575C19.6111 60.575 19.8563 60.3298 19.8563 60.0273V9.47813C19.8563 5.93281 22.7406 3.04688 26.2875 3.04688H49.7953C53.3406 3.04688 56.2266 5.93125 56.2266 9.47813V38.1719C56.2266 38.4734 56.4719 38.7188 56.7734 38.7188C57.075 38.7188 57.3203 38.4734 57.3203 38.1719V9.47813C57.3203 5.32969 53.9453 1.95312 49.7953 1.95312H26.2859C22.1375 1.95312 18.7609 5.32813 18.7609 9.47813Z" fill="#9A9A9A"/>
<path fill-rule="evenodd" clip-rule="evenodd" d="M38.043 13.2227C36.0504 13.2227 34.435 14.8291 34.435 16.8107C34.435 18.7923 36.0504 20.3987 38.043 20.3987C40.0358 20.3987 41.6511 18.7923 41.6511 16.8107C41.6511 14.8291 40.0358 13.2227 38.043 13.2227ZM35.5744 16.8107C35.5744 15.4548 36.6797 14.3557 38.043 14.3557C39.4064 14.3557 40.5117 15.4548 40.5117 16.8107C40.5117 18.1665 39.4064 19.2656 38.043 19.2656C36.6797 19.2656 35.5744 18.1665 35.5744 16.8107Z" fill="#9A9A9A"/>
<path d="M42.6093 14.7296C42.2947 14.7296 42.0396 14.9833 42.0396 15.2961C42.0396 15.609 42.2947 15.8627 42.6093 15.8627C43.6549 15.8627 44.3184 16.5468 44.3184 17.1846C44.3184 17.8223 43.6549 18.5065 42.6093 18.5065C42.2947 18.5065 42.0396 18.7601 42.0396 19.073C42.0396 19.3859 42.2947 19.6395 42.6093 19.6395C44.0808 19.6395 45.4578 18.6327 45.4578 17.1846C45.4578 15.7364 44.0808 14.7296 42.6093 14.7296Z" fill="#9A9A9A"/>
<path d="M34.0614 15.2961C34.0614 14.9833 33.8064 14.7296 33.4917 14.7296C32.0202 14.7296 30.6433 15.7364 30.6433 17.1846C30.6433 18.6327 32.0202 19.6395 33.4917 19.6395C33.8064 19.6395 34.0614 19.3859 34.0614 19.073C34.0614 18.7601 33.8064 18.5065 33.4917 18.5065C32.4462 18.5065 31.7827 17.8223 31.7827 17.1846C31.7827 16.5468 32.4462 15.8627 33.4917 15.8627C33.8064 15.8627 34.0614 15.609 34.0614 15.2961Z" fill="#9A9A9A"/>
<path fill-rule="evenodd" clip-rule="evenodd" d="M38.0482 21.5274C36.6928 21.5274 35.4401 21.8906 34.5095 22.5075C33.5829 23.1218 32.921 24.0326 32.921 25.1154C32.921 26.1981 33.5829 27.109 34.5095 27.7233C35.4401 28.3402 36.6928 28.7034 38.0482 28.7034C39.4035 28.7034 40.6562 28.3402 41.5869 27.7233C42.5134 27.109 43.1754 26.1981 43.1754 25.1154C43.1754 24.0326 42.5134 23.1218 41.5869 22.5075C40.6562 21.8906 39.4035 21.5274 38.0482 21.5274ZM34.0603 25.1154C34.0603 24.5294 34.4186 23.9295 35.1415 23.4503C35.8604 22.9736 36.8865 22.6604 38.0482 22.6604C39.2099 22.6604 40.236 22.9736 40.9548 23.4503C41.6777 23.9295 42.036 24.5294 42.036 25.1154C42.036 25.7014 41.6777 26.3013 40.9548 26.7805C40.236 27.2572 39.2099 27.5704 38.0482 27.5704C36.8865 27.5704 35.8604 27.2572 35.1415 26.7805C34.4186 26.3013 34.0603 25.7014 34.0603 25.1154Z" fill="#9A9A9A"/>
<path d="M43.567 22.7307C43.6344 22.4251 43.9382 22.2317 44.2456 22.2987C44.9761 22.458 45.6345 22.7458 46.1233 23.1436C46.6118 23.541 46.972 24.0873 46.972 24.7405C46.972 25.3938 46.6118 25.9401 46.1233 26.3375C45.6345 26.7353 44.9761 27.0231 44.2456 27.1824C43.9382 27.2494 43.6344 27.056 43.567 26.7504C43.4996 26.4447 43.6941 26.1426 44.0014 26.0756C44.6033 25.9443 45.0843 25.7189 45.4018 25.4606C45.7197 25.2019 45.8326 24.9493 45.8326 24.7405C45.8326 24.5318 45.7197 24.2792 45.4018 24.0205C45.0843 23.7622 44.6033 23.5368 44.0014 23.4055C43.6941 23.3385 43.4996 23.0363 43.567 22.7307Z" fill="#9A9A9A"/>
<path d="M31.8358 22.2987C32.1431 22.2317 32.4469 22.4251 32.5143 22.7307C32.5817 23.0363 32.3872 23.3385 32.0799 23.4055C31.478 23.5368 30.997 23.7622 30.6795 24.0205C30.3617 24.2792 30.2488 24.5318 30.2488 24.7405C30.2488 24.9493 30.3617 25.2019 30.6795 25.4606C30.997 25.7189 31.478 25.9443 32.0799 26.0756C32.3872 26.1426 32.5817 26.4447 32.5143 26.7504C32.4469 27.056 32.1431 27.2494 31.8358 27.1824C31.1052 27.0231 30.4468 26.7353 29.958 26.3375C29.4696 25.9401 29.1094 25.3938 29.1094 24.7405C29.1094 24.0873 29.4696 23.541 29.958 23.1436C30.4468 22.7458 31.1052 22.458 31.8358 22.2987Z" fill="#9A9A9A"/>
<path d="M58.6482 49.9201H54.9621C55.109 49.717 55.2287 49.5204 55.3065 49.3771C55.3628 49.2734 55.4725 49.1929 55.6096 49.1719C55.6345 49.1681 55.6686 49.1667 55.8452 49.1667H57.8502C58.0267 49.1667 58.0609 49.1681 58.0858 49.1719C58.2584 49.1983 58.3315 49.2579 58.3764 49.3527C58.3875 49.376 58.4015 49.408 58.4185 49.4467C58.4693 49.5624 58.5463 49.7379 58.6482 49.9201Z" fill="#FD4E4E"/>
<path fill-rule="evenodd" clip-rule="evenodd" d="M57 66C63.6274 66 69 60.6274 69 54C69 47.3726 63.6274 42 57 42C50.3726 42 45 47.3726 45 54C45 60.6274 50.3726 66 57 66ZM55.8165 48.1667C55.6853 48.1666 55.5686 48.1665 55.4582 48.1834C55.0237 48.2499 54.6388 48.5112 54.4278 48.8999C54.3331 49.0742 54.1526 49.3586 53.9464 49.5931C53.8434 49.7103 53.7461 49.8011 53.6619 49.8596C53.5915 49.9085 53.5548 49.918 53.5483 49.9196C53.5476 49.9198 53.5473 49.9199 53.5473 49.92C53.5401 49.9201 53.5298 49.9201 53.5012 49.9201H51.6667C51.3905 49.9201 51.1667 50.144 51.1667 50.4201C51.1667 50.6963 51.3905 50.9201 51.6667 50.9201H62.3333C62.6095 50.9201 62.8333 50.6963 62.8333 50.4201C62.8333 50.144 62.6095 49.9201 62.3333 49.9201H60.1941C60.1622 49.9201 60.1531 49.9201 60.1457 49.9199L60.1337 49.9198C59.9401 49.9197 59.7886 49.8228 59.639 49.6189C59.5153 49.4502 59.4364 49.2727 59.3582 49.0966C59.3326 49.0389 59.307 48.9813 59.28 48.9243C59.0537 48.447 58.6361 48.2445 58.2371 48.1834C58.1267 48.1665 58.01 48.1666 57.8788 48.1667H55.8165ZM53.3332 51.9925C53.3141 51.7171 53.0752 51.5093 52.7998 51.5284C52.5243 51.5476 52.3165 51.7864 52.3357 52.0619L52.6185 56.13C52.6703 56.8756 52.7127 57.4857 52.8125 57.9662C52.9173 58.4705 53.0973 58.8982 53.47 59.2325C53.84 59.5644 54.289 59.7048 54.8111 59.7703C55.3137 59.8334 55.9479 59.8333 56.7302 59.8333H57.2688C58.0512 59.8333 58.6854 59.8334 59.1879 59.7703C59.71 59.7048 60.1591 59.5644 60.5291 59.2325C60.9018 58.8982 61.0818 58.4705 61.1865 57.9662C61.2864 57.4858 61.3288 56.8756 61.3806 56.1301L61.6634 52.0619C61.6826 51.7864 61.4748 51.5476 61.1993 51.5284C60.9238 51.5093 60.685 51.7171 60.6658 51.9925L60.3855 56.025C60.3305 56.815 60.2918 57.3568 60.2074 57.7628C60.1265 58.1527 60.0159 58.3495 59.8613 58.4881C59.7041 58.6292 59.4841 58.7253 59.0634 58.7781C58.6304 58.8324 58.0592 58.8333 57.2352 58.8333H56.7638C55.9398 58.8333 55.3686 58.8324 54.9356 58.7781C54.515 58.7253 54.295 58.6292 54.1377 58.4882C53.9832 58.3495 53.8726 58.1527 53.7916 57.7628C53.7073 57.3568 53.6685 56.815 53.6136 56.025L53.3332 51.9925ZM55.973 53.4366C55.9444 53.1619 55.6985 52.9625 55.4239 52.9911C55.1492 53.0198 54.9498 53.2656 54.9784 53.5403L55.2832 56.4627C55.3118 56.7374 55.5577 56.9368 55.8323 56.9082C56.107 56.8795 56.3064 56.6337 56.2778 56.359L55.973 53.4366ZM59.0206 53.5403C59.0493 53.2656 58.8498 53.0198 58.5752 52.9911C58.3005 52.9625 58.0547 53.1619 58.026 53.4366L57.7213 56.359C57.6926 56.6337 57.8921 56.8795 58.1667 56.9082C58.4414 56.9368 58.6872 56.7374 58.7159 56.4627L59.0206 53.5403Z" fill="#FD4E4E"/>
</svg>
