<svg width="80" height="80" viewBox="0 0 80 80" fill="none" xmlns="http://www.w3.org/2000/svg">
<path d="M43.782 8.05313H32.2992C31.3586 8.05313 30.5227 7.45156 30.2242 6.55781L28.8711 2.5H47.2117L45.8586 6.55781C45.7129 6.99328 45.434 7.37195 45.0614 7.64028C44.6888 7.90861 44.2412 8.05303 43.782 8.05313ZM54.0383 67.3656V70.5203C54.0383 72.8641 52.1383 74.7641 49.7945 74.7641H31.0352C29.5258 74.7641 28.3008 75.9891 28.3008 77.4984H49.7945C53.6492 77.4984 56.7727 74.3734 56.7727 70.5203V64.6313C55.2633 64.6313 54.0383 65.8563 54.0383 67.3656Z" fill="#E1EAF8"/>
<path d="M52.032 34.1733H24.0508C23.4461 34.1733 22.957 33.6843 22.957 33.0796V14.0249C22.957 13.4202 23.4461 12.9312 24.0508 12.9312H52.032C52.6367 12.9312 53.1258 13.4202 53.1258 14.0249V33.0796C53.1258 33.6827 52.6352 34.1733 52.032 34.1733Z" fill="#0166FF"/>
<path d="M32 20.1668C32 19.8132 32.1405 19.4741 32.3905 19.224C32.6406 18.974 32.9797 18.8335 33.3333 18.8335H42.6667C43.0203 18.8335 43.3594 18.974 43.6095 19.224C43.8595 19.4741 44 19.8132 44 20.1668V26.8335C44 27.1871 43.8595 27.5263 43.6095 27.7763C43.3594 28.0264 43.0203 28.1668 42.6667 28.1668H33.3333C32.9797 28.1668 32.6406 28.0264 32.3905 27.7763C32.1405 27.5263 32 27.1871 32 26.8335V20.1668Z" stroke="white" stroke-linecap="round" stroke-linejoin="round"/>
<path d="M34.666 25.5V22.8333C34.666 22.4797 34.8065 22.1406 35.0565 21.8905C35.3066 21.6405 35.6457 21.5 35.9993 21.5C36.353 21.5 36.6921 21.6405 36.9422 21.8905C37.1922 22.1406 37.3327 22.4797 37.3327 22.8333V25.5M34.666 24.1667H37.3327M41.3327 21.5V25.5H40.3327C40.1349 25.5 39.9416 25.4414 39.7771 25.3315C39.6127 25.2216 39.4845 25.0654 39.4088 24.8827C39.3331 24.7 39.3133 24.4989 39.3519 24.3049C39.3905 24.1109 39.4857 23.9327 39.6256 23.7929C39.7654 23.653 39.9436 23.5578 40.1376 23.5192C40.3316 23.4806 40.5326 23.5004 40.7154 23.5761C40.8981 23.6518 41.0543 23.78 41.1642 23.9444C41.274 24.1089 41.3327 24.3022 41.3327 24.5" stroke="white" stroke-linecap="round" stroke-linejoin="round"/>
<path d="M52.4039 58.5416H45.7852C45.3539 58.5416 45.0039 58.1916 45.0039 57.7604V51.1416C45.0039 50.7104 45.3539 50.3604 45.7852 50.3604H52.4039C52.8352 50.3604 53.1852 50.7104 53.1852 51.1416V57.7604C53.1852 58.1916 52.8367 58.5416 52.4039 58.5416Z" fill="#E1EAF8"/>
<path d="M12.2573 15.4115C12.1605 15.4115 12.0636 15.3865 11.9761 15.3334L8.49015 13.235C8.42859 13.198 8.37493 13.1493 8.33225 13.0916C8.28956 13.0339 8.2587 12.9683 8.24142 12.8986C8.22415 12.8289 8.2208 12.7565 8.23158 12.6855C8.24235 12.6145 8.26704 12.5464 8.30421 12.485C8.34115 12.4234 8.38988 12.3697 8.44761 12.3271C8.50533 12.2844 8.57092 12.2535 8.6406 12.2362C8.71028 12.219 8.78269 12.2156 8.85367 12.2264C8.92465 12.2372 8.9928 12.2619 9.05421 12.299L12.5402 14.3975C12.6017 14.4344 12.6554 14.4831 12.6981 14.5409C12.7407 14.5986 12.7716 14.6642 12.7889 14.7339C12.8062 14.8035 12.8095 14.8759 12.7987 14.9469C12.788 15.0179 12.7633 15.0861 12.7261 15.1475C12.6774 15.2282 12.6087 15.295 12.5265 15.3413C12.4444 15.3875 12.3516 15.4118 12.2573 15.4115ZM7.6839 29.26C7.55645 29.26 7.43299 29.2155 7.33483 29.1342C7.23667 29.053 7.16998 28.9399 7.14627 28.8147C7.12256 28.6895 7.14332 28.5599 7.20496 28.4484C7.2666 28.3368 7.36526 28.2503 7.4839 28.2037L11.2714 26.7178C11.5527 26.6068 11.8698 26.7459 11.9808 27.0272C12.0917 27.3084 11.9527 27.6256 11.6714 27.7365L7.8839 29.2225C7.81828 29.2475 7.74953 29.26 7.6839 29.26ZM63.5589 64.285C63.462 64.285 63.3652 64.26 63.2777 64.2068L59.7917 62.1084C59.7302 62.0715 59.6765 62.0227 59.6338 61.965C59.5911 61.9073 59.5603 61.8417 59.543 61.772C59.5257 61.7023 59.5224 61.6299 59.5331 61.559C59.5439 61.488 59.5686 61.4198 59.6058 61.3584C59.6427 61.2968 59.6914 61.2432 59.7492 61.2005C59.8069 61.1578 59.8725 61.1269 59.9422 61.1097C60.0118 61.0924 60.0843 61.0891 60.1552 61.0998C60.2262 61.1106 60.2944 61.1353 60.3558 61.1725L63.8417 63.2709C63.9033 63.3078 63.9569 63.3566 63.9996 63.4143C64.0423 63.472 64.0732 63.5376 64.0905 63.6073C64.1077 63.677 64.1111 63.7494 64.1003 63.8204C64.0895 63.8913 64.0648 63.9595 64.0277 64.0209C63.9789 64.1016 63.9101 64.1682 63.828 64.2145C63.7458 64.2608 63.6532 64.285 63.5589 64.285ZM60.8605 49.824C60.733 49.8241 60.6096 49.7796 60.5114 49.6983C60.4132 49.617 60.3466 49.504 60.3228 49.3788C60.2991 49.2535 60.3199 49.124 60.3815 49.0124C60.4432 48.9009 60.5418 48.8143 60.6605 48.7678L64.448 47.2818C64.7292 47.1709 65.0464 47.31 65.1573 47.5912C65.2683 47.8725 65.1292 48.1897 64.848 48.3006L61.0605 49.7865C60.9948 49.8131 60.9277 49.824 60.8605 49.824Z" fill="#0166FF"/>
<path d="M23.7305 68.7969C23.7305 69.0984 23.9758 69.3438 24.2773 69.3438H51.8023C52.1039 69.3438 52.3492 69.0984 52.3492 68.7969C52.3492 68.4953 52.1039 68.25 51.8023 68.25H24.2773C23.9758 68.25 23.7305 68.4953 23.7305 68.7969Z" fill="#9A9A9A"/>
<path d="M56.2254 64.6801C56.2254 64.3785 56.4707 64.1332 56.7723 64.1332C57.0754 64.1332 57.3191 64.3769 57.3176 64.6801V70.5691C57.3176 74.7176 53.9426 78.0941 49.7926 78.0941H26.2848C22.1363 78.0941 18.7598 74.7191 18.7598 70.5691L18.7604 68.0467L18.7598 64.2611C18.7598 63.9586 19.005 63.7134 19.3075 63.7134C19.6099 63.7134 19.8551 63.9586 19.8551 64.261V70.5691C19.8551 74.1144 22.7395 77.0004 26.2863 77.0004H49.7941C53.3395 77.0004 56.2254 74.116 56.2254 70.5691V64.6801Z" fill="#9A9A9A"/>
<path d="M27.3887 38.6118H50.509C50.8105 38.6118 51.0559 38.3665 51.0559 38.0649C51.0559 37.7634 50.8105 37.5181 50.509 37.5181H27.3887C27.0871 37.5181 26.8418 37.7634 26.8418 38.0649C26.8418 38.3665 27.0871 38.6118 27.3887 38.6118Z" fill="#9A9A9A"/>
<path d="M27.3867 44.0508H50.507C50.8086 44.0508 51.0539 43.8055 51.0539 43.504C51.0539 43.2024 50.8086 42.9571 50.507 42.9571H27.3867C27.0852 42.9571 26.8398 43.2024 26.8398 43.504C26.8398 43.8055 27.0852 44.0508 27.3867 44.0508ZM42.0336 51.1602H32.3305C32.0289 51.1602 31.7836 51.4055 31.7836 51.7071C31.7836 52.0087 32.0289 52.254 32.3305 52.254H42.0336C42.3352 52.254 42.5805 52.0087 42.5805 51.7071C42.5805 51.4055 42.3352 51.1602 42.0336 51.1602ZM42.0336 56.5993H32.3305C32.0289 56.5993 31.7836 56.8446 31.7836 57.1462C31.7836 57.4477 32.0289 57.693 32.3305 57.693H42.0336C42.3352 57.693 42.5805 57.4477 42.5805 57.1462C42.5805 56.8446 42.3352 56.5993 42.0336 56.5993ZM23.7305 63.3571C23.7305 63.6587 23.9758 63.904 24.2773 63.904H41.1945C41.4961 63.904 41.7414 63.6587 41.7414 63.3571C41.7414 63.0555 41.4961 62.8102 41.1945 62.8102H24.2773C23.9758 62.8102 23.7305 63.054 23.7305 63.3571ZM77.8695 16.7618C77.8695 15.818 77.1023 15.0508 76.157 15.0508H73.257L73.9945 11.118C74.1258 10.4212 73.968 9.72115 73.5508 9.14771C73.1351 8.57428 72.518 8.20709 71.8148 8.11646C71.2648 8.04459 70.7492 8.43365 70.6664 8.98209L70.2914 11.4774C70.1336 12.5243 69.4102 13.3774 68.4023 13.7024C67.3352 14.0462 66.5133 14.9383 66.2555 16.0305C66.2539 16.0399 66.2461 16.0462 66.2367 16.0462H64.8852C64.7773 15.3524 64.1773 14.818 63.4539 14.818H60.2351C59.9773 14.818 59.732 14.929 59.5617 15.1212C59.3914 15.3133 59.3102 15.5696 59.3398 15.8258L60.318 24.1508C60.3711 24.6055 60.757 24.9477 61.2133 24.9477H63.4539C64.1289 24.9477 64.6961 24.4837 64.857 23.8571H65.0461C65.1383 23.8571 65.2305 23.8883 65.3023 23.9446L65.7195 24.2696C66.7133 25.0399 67.9508 25.4649 69.2055 25.4649H74.8945C75.8383 25.4649 76.6055 24.6977 76.6055 23.754C76.6055 23.3899 76.4898 23.054 76.2961 22.7758C76.7117 22.4571 76.982 21.9571 76.982 21.393C76.982 21.0696 76.8883 20.768 76.7289 20.5102C77.1945 20.1962 77.5023 19.6649 77.5023 19.0633C77.5023 18.7102 77.393 18.3837 77.2055 18.1133C77.6101 17.7962 77.8695 17.3087 77.8695 16.7618ZM63.8117 23.4962C63.8117 23.693 63.6523 23.8524 63.4555 23.8524H61.3852L60.4523 15.9102H63.4555C63.6523 15.9102 63.8117 16.0696 63.8117 16.2665V23.4962ZM74.8977 24.3696H69.2086C68.1891 24.3676 67.1991 24.028 66.393 23.404L65.9742 23.079C65.7088 22.874 65.383 22.7625 65.0476 22.7618H64.9055V17.1383H66.2383C66.757 17.1383 67.2023 16.7852 67.3211 16.2805C67.4914 15.5602 68.0336 14.9712 68.7383 14.743C70.1445 14.2899 71.1539 13.1008 71.3727 11.6399L71.7383 9.21178C72.1133 9.2774 72.4414 9.48053 72.6664 9.79146C72.7835 9.95157 72.8665 10.1341 72.91 10.3276C72.9536 10.5212 72.9568 10.7216 72.9195 10.9165L72.1727 14.8946C72.1148 15.204 72.1961 15.5212 72.3977 15.7633C72.5992 16.0055 72.8945 16.1446 73.2101 16.1446H76.157C76.4977 16.1446 76.7758 16.4212 76.7758 16.7618C76.7758 17.1024 76.4992 17.379 76.157 17.379H74.1508C73.8492 17.379 73.6039 17.6243 73.6039 17.9258C73.6039 18.2274 73.8492 18.4727 74.1508 18.4727H75.8242C76.1477 18.4727 76.4102 18.7352 76.4102 19.0587C76.4097 19.2309 76.3411 19.396 76.2193 19.5178C76.0975 19.6396 75.9324 19.7082 75.7602 19.7087H74.2867C73.9851 19.7087 73.7398 19.954 73.7398 20.2555C73.7398 20.5571 73.9851 20.8024 74.2867 20.8024H75.3039C75.6273 20.8024 75.8898 21.0649 75.8898 21.3883C75.8894 21.5606 75.8208 21.7257 75.699 21.8475C75.5772 21.9693 75.4121 22.0379 75.2398 22.0383H74.0976C73.7961 22.0383 73.5508 22.2837 73.5508 22.5852C73.5508 22.8868 73.7961 23.1321 74.0976 23.1321H74.8945C75.2352 23.1321 75.5133 23.4087 75.5133 23.7493C75.5133 24.0899 75.2383 24.3696 74.8977 24.3696Z" fill="#9A9A9A"/>
<path d="M57.3211 9.525V60.0742C57.3211 60.3767 57.0759 60.6219 56.7734 60.6219C56.471 60.6219 56.2258 60.3767 56.2258 60.0742V9.525C56.2258 5.97969 53.3414 3.09375 49.7945 3.09375H26.2867C22.7414 3.09375 19.8555 5.97813 19.8555 9.525V44.2188C19.8555 44.5203 19.6102 44.7656 19.3086 44.7656C19.007 44.7656 18.7617 44.5203 18.7617 44.2188V9.525C18.7617 5.37656 22.1367 2 26.2867 2H49.7961C53.9445 2 57.3211 5.375 57.3211 9.525Z" fill="#9A9A9A"/>
<path d="M5.60645 47.1221H24.5439C25.1532 47.1222 25.6502 47.6181 25.6504 48.2295V59.7842C25.6504 60.3939 25.1537 60.8905 24.5439 60.8906H22.1816L17.6973 60.8896H5.60645C4.99672 60.8896 4.50011 60.3929 4.5 59.7832V48.2285C4.5 47.6187 4.99665 47.1221 5.60645 47.1221Z" stroke="#9A9A9A"/>
<path d="M16.5 54.0469C16.5 54.4447 16.342 54.8262 16.0607 55.1075C15.7794 55.3888 15.3978 55.5469 15 55.5469C14.6022 55.5469 14.2206 55.3888 13.9393 55.1075C13.658 54.8262 13.5 54.4447 13.5 54.0469C13.5 53.6491 13.658 53.2675 13.9393 52.9862C14.2206 52.7049 14.6022 52.5469 15 52.5469C15.3978 52.5469 15.7794 52.7049 16.0607 52.9862C16.342 53.2675 16.5 53.6491 16.5 54.0469Z" stroke="#9A9A9A" stroke-linecap="round" stroke-linejoin="round"/>
<path d="M10 54.0469C10.8 51.9984 12.668 50.5469 15 50.5469C17.332 50.5469 19.2 51.9984 20 54.0469C19.2 56.0954 17.332 57.5469 15 57.5469C12.668 57.5469 10.8 56.0954 10 54.0469Z" stroke="#9A9A9A" stroke-linecap="round" stroke-linejoin="round"/>
</svg>
