<svg width="80" height="80" viewBox="0 0 80 80" fill="none" xmlns="http://www.w3.org/2000/svg">
<path d="M30.7335 53.5105H19.2165C17.6572 53.5105 16.3936 54.7742 16.3936 56.3335V57.0955H27.3866C27.6949 57.0955 27.9457 57.3463 27.9457 57.6547C27.9457 57.963 27.6949 58.2138 27.3866 58.2138H16.3936V64.1872C16.3936 64.2288 16.3983 64.2687 16.3999 64.3086H21.3844C21.6928 64.3086 21.9436 64.5595 21.9436 64.8678C21.9436 65.1761 21.6928 65.427 21.3844 65.427H16.6444C17.1284 66.574 18.2643 67.3808 19.5871 67.3808H22.2296C25.7411 67.3808 28.973 65.4621 30.6537 62.3787L33.2114 57.685C34.2387 55.8031 32.8759 53.5105 30.7335 53.5105Z" fill="#E1EAF8"/>
<path d="M21.6572 24.3767C21.6572 23.5332 21.8298 22.7328 22.1748 21.9724C22.5199 21.2119 23.0471 20.6272 23.7549 20.2182C24.4626 19.8092 25.3029 19.6047 26.2711 19.6047C27.6961 19.6047 28.8208 20.0393 29.642 20.9068C30.4632 21.7743 30.8737 22.9309 30.8737 24.3767C30.8737 25.8305 30.4632 26.992 29.642 27.8595C28.8208 28.727 27.6961 29.1615 26.2711 29.1615C25.3029 29.1615 24.4642 28.957 23.7549 28.548C23.0455 28.1391 22.5183 27.5543 22.1748 26.7939C21.8298 26.0334 21.6572 25.2266 21.6572 24.3767ZM24.9227 24.4007C24.9227 25.4247 25.0777 26.1692 25.3876 26.6309C25.5889 26.9361 25.8829 27.0894 26.2711 27.0894C26.6593 27.0894 26.9485 26.9361 27.1434 26.6309C27.4533 26.1676 27.6083 25.4247 27.6083 24.4007C27.6083 23.3846 27.4533 22.6401 27.1434 22.1705C26.9501 21.8733 26.6593 21.7247 26.2711 21.7247C25.8829 21.7247 25.5889 21.8733 25.3876 22.1705C25.0777 22.6338 24.9227 23.3766 24.9227 24.4007ZM36.2241 19.6047H38.3185C38.4383 19.6047 38.5166 19.7309 38.4623 19.8396L28.8336 38.8238C28.7745 38.9404 28.6547 39.0139 28.5237 39.0139H26.5682C26.4484 39.0139 26.3701 38.8877 26.4244 38.779L36.0787 19.6926C36.1074 19.6383 36.1634 19.6047 36.2241 19.6047ZM33.9427 34.2051C33.9427 33.3536 34.1137 32.55 34.4539 31.7943C34.7942 31.0387 35.3214 30.454 36.034 30.0402C36.7465 29.6264 37.5836 29.4203 38.5454 29.4203C39.9784 29.4203 41.1063 29.8565 41.9275 30.7272C42.7486 31.5994 43.1592 32.7577 43.1592 34.2035C43.1592 35.6493 42.7486 36.8092 41.9275 37.6799C41.1063 38.5522 39.9784 38.9883 38.5454 38.9883C37.5836 38.9883 36.7481 38.7822 36.034 38.3684C35.3214 37.9547 34.7942 37.3715 34.4539 36.6143C34.1137 35.8586 33.9427 35.055 33.9427 34.2051ZM37.2098 34.2291C37.2098 35.2531 37.3648 35.9976 37.6747 36.4593C37.868 36.7565 38.1588 36.905 38.547 36.905C38.9336 36.905 39.2291 36.7565 39.4304 36.4593C39.7404 35.996 39.8953 35.2531 39.8953 34.2291C39.8953 33.205 39.7404 32.4573 39.4304 31.9861C39.2291 31.6889 38.9352 31.5403 38.547 31.5403C38.1588 31.5403 37.8696 31.6937 37.6747 31.9988C37.3648 32.4621 37.2098 33.205 37.2098 34.2291ZM47.6117 66.403H46.356C45.3192 66.403 44.4261 65.609 44.375 64.5737C44.3207 63.4666 45.2041 62.5496 46.2985 62.5496H47.8897C48.7987 62.5496 49.5448 63.2525 49.6151 64.144C49.6215 64.2223 49.6886 64.2814 49.7653 64.2814H51.5146C51.6009 64.2814 51.6712 64.2111 51.668 64.1248C51.5881 62.155 49.9937 60.5702 48.0207 60.5031V58.7729C48.0207 58.7326 48.0047 58.694 47.9762 58.6656C47.9478 58.6371 47.9092 58.6211 47.8689 58.6211H46.1228C46.0825 58.6211 46.0439 58.6371 46.0154 58.6656C45.987 58.694 45.971 58.7326 45.971 58.7729V60.5143C43.9117 60.6836 42.2917 62.425 42.3221 64.5322C42.3524 66.7209 44.1945 68.4527 46.3832 68.4527H47.6389C48.6757 68.4527 49.5688 69.2467 49.6183 70.2819C49.6726 71.3891 48.7891 72.3061 47.6948 72.3061H46.1036C45.1946 72.3061 44.4485 71.6031 44.3782 70.7117C44.3748 70.6742 44.3575 70.6393 44.3297 70.6139C44.3019 70.5885 44.2657 70.5743 44.228 70.5743H42.4786C42.3924 70.5743 42.3221 70.6446 42.3253 70.7309C42.4052 72.7007 43.9996 74.2855 45.9726 74.3526V76.0828C45.9726 76.1675 46.0413 76.2346 46.1243 76.2346H47.8705C47.9552 76.2346 48.0223 76.1659 48.0223 76.0828V74.3414C50.08 74.1721 51.7015 72.4307 51.6712 70.3235C51.6424 68.1348 49.8004 66.403 47.6117 66.403Z" fill="#0166FF"/>
<path d="M15.4922 43.1868C15.4922 43.4951 15.743 43.7459 16.0513 43.7459H48.0847C48.393 43.7459 48.6438 43.4951 48.6438 43.1868C48.6438 42.8784 48.393 42.6276 48.0847 42.6276H16.0513C15.7414 42.6276 15.4922 42.8784 15.4922 43.1868ZM48.0847 49.8216H16.0513C15.743 49.8216 15.4922 50.0724 15.4922 50.3807C15.4922 50.6891 15.743 50.9399 16.0513 50.9399H48.0847C48.393 50.9399 48.6438 50.6891 48.6438 50.3807C48.6438 50.0724 48.393 49.8216 48.0847 49.8216ZM16.0513 65.3246H30.7955C31.1039 65.3246 31.3547 65.0738 31.3547 64.7655C31.3547 64.4571 31.1039 64.2063 30.7955 64.2063H16.0513C15.743 64.2063 15.4922 64.4571 15.4922 64.7655C15.4922 65.0738 15.7414 65.3246 16.0513 65.3246Z" fill="#9A9A9A"/>
<path d="M74.75 59.1579H70.9062C70.9462 59.0221 70.9685 58.8783 70.9685 58.7298V54.477C70.9685 53.6238 70.2752 52.9305 69.4221 52.9305H59.632V9.83545C59.632 8.47909 58.5281 7.37515 57.1717 7.37515H42.8972V5.95969C42.8972 5.39734 42.4387 4.93883 41.8764 4.93883H29.9679V2.31558H34.168V3.26615C34.168 3.57448 34.4188 3.8253 34.7272 3.8253C35.0355 3.8253 35.2863 3.57448 35.2863 3.26615V2.28363C35.2863 1.68453 34.799 1.19727 34.1999 1.19727H29.936C29.3369 1.19727 28.8496 1.68453 28.8496 2.28363V4.93883H22.079C21.5167 4.93883 21.0582 5.39734 21.0582 5.95969V7.37515H6.9642C5.60784 7.37515 4.50391 8.47909 4.50391 9.83545V76.5397C4.50391 77.8961 5.60784 79 6.9642 79H69.4221C70.2752 79 70.9685 78.3066 70.9685 77.4535V73.2007C70.9685 72.8157 70.8263 72.4642 70.5931 72.1943C70.8263 71.9227 70.9685 71.5712 70.9685 71.1878V66.935C70.9685 66.7864 70.9462 66.6426 70.9062 66.5068H74.75C75.6031 66.5068 76.2965 65.8135 76.2965 64.9604V60.7076C76.2981 59.8529 75.6031 59.1579 74.75 59.1579ZM46.9983 77.8817C41.2341 77.8817 36.5452 73.1928 36.5452 67.4286C36.5452 61.6645 41.2341 56.9756 46.9983 56.9756C52.7624 56.9756 57.4513 61.6645 57.4513 67.4286C57.4513 73.1928 52.7624 77.8817 46.9983 77.8817ZM69.8502 54.477V58.7298C69.8502 58.9662 69.6585 59.1579 69.4221 59.1579H55.0821C53.435 57.5475 51.3102 56.4244 48.9425 56.0218V54.477C48.9425 54.2405 49.1342 54.0488 49.3707 54.0488H69.4205C69.6585 54.0472 69.8502 54.2405 69.8502 54.477ZM43.2519 14.4876H37.328C39.7164 13.4764 41.437 11.1966 41.6479 8.49347H43.2519V14.4876ZM22.1765 6.05714H41.7773V7.37515H22.1765V6.05714ZM6.9642 77.8817C6.22451 77.8817 5.62222 77.2794 5.62222 76.5397V9.83545C5.62222 9.09576 6.22451 8.49347 6.9642 8.49347H19.7657V14.5611C19.7657 15.1363 20.2338 15.6059 20.8105 15.6059H43.3254C43.9005 15.6059 44.3702 15.1379 44.3702 14.5611V12.0146H55.122V50.9479C55.122 51.2562 55.3728 51.507 55.6812 51.507C55.9895 51.507 56.2403 51.2562 56.2403 50.9479V11.4554C56.2403 11.1471 55.9895 10.8962 55.6812 10.8962H44.3702V8.49347H57.1717C57.9114 8.49347 58.5137 9.09576 58.5137 9.83545V52.9289H49.3723C48.5192 52.9289 47.8258 53.6222 47.8258 54.4754V55.8876C47.5526 55.8685 47.2778 55.8557 46.9999 55.8557C45.193 55.8557 43.4836 56.2727 41.9579 57.0139H16.0513C15.743 57.0139 15.4921 57.2648 15.4921 57.5731C15.4921 57.8814 15.743 58.1323 16.0513 58.1323H40.1158C37.2737 60.2427 35.4269 63.6232 35.4269 67.4286C35.4269 70.0279 36.288 72.4275 37.7402 74.3622H9.01391V12.0146H17.9684C18.2767 12.0146 18.5276 11.7637 18.5276 11.4554C18.5276 11.1471 18.2767 10.8962 17.9684 10.8962H8.45475C8.14642 10.8962 7.89559 11.1471 7.89559 11.4554V74.9213C7.89559 75.2297 8.14642 75.4805 8.45475 75.4805H38.6988C39.6606 76.4743 40.7925 77.2881 42.0409 77.8833H6.9642V77.8817ZM69.8502 77.4535C69.8502 77.69 69.6585 77.8817 69.4221 77.8817H51.9572C54.2306 76.8001 56.0949 74.9964 57.258 72.771H69.4221C69.6585 72.771 69.8502 72.9627 69.8502 73.1991V77.4535ZM69.8502 66.9334V71.1862C69.8502 71.4226 69.6585 71.6143 69.4221 71.6143H57.7836C58.3046 70.2798 58.5717 68.8597 58.5712 67.427C58.5712 67.1155 58.5552 66.8088 58.5313 66.5036H69.4237C69.6585 66.5052 69.8502 66.6969 69.8502 66.9334ZM75.1798 64.9572C75.1798 65.1936 74.9881 65.3853 74.7516 65.3853H58.3891C58.0488 63.481 57.2404 61.7364 56.0886 60.2746H74.7532C74.9897 60.2746 75.1814 60.4663 75.1814 60.7028V64.9572H75.1798Z" fill="#9A9A9A"/>
</svg>
