<svg width="80" height="80" viewBox="0 0 80 80" fill="none" xmlns="http://www.w3.org/2000/svg">
<path d="M54.8125 69.9082C54.4734 69.9082 54.1984 70.1831 54.1984 70.5223C54.1984 72.866 52.2984 74.766 49.9547 74.766H31.1953C29.6859 74.766 28.4609 75.991 28.4609 77.5004H49.9547C53.8094 77.5004 56.9328 74.3754 56.9328 70.5223V69.9082H54.8125Z" fill="#E1EAF8"/>
<path d="M43.9438 8.05313H32.4609C31.5203 8.05313 30.6844 7.45156 30.3859 6.55781L29.0312 2.5H47.3719L46.0187 6.55781C45.8732 6.99307 45.5946 7.37159 45.2223 7.63991C44.8499 7.90823 44.4027 8.05277 43.9438 8.05313Z" fill="#E1EAF8"/>
<path d="M43.0126 63.4894C43.1098 63.4572 43.1916 63.3997 43.2544 63.3259C43.3157 63.2542 43.3574 63.1679 43.3754 63.0754C43.3933 62.9828 43.3871 62.8872 43.3571 62.7978C43.3344 62.7297 43.2985 62.6667 43.2515 62.6125C43.2044 62.5583 43.1471 62.5139 43.0828 62.4819C43.0186 62.4499 42.9486 62.4309 42.877 62.426C42.8054 62.4211 42.7335 62.4304 42.6654 62.4533L38.8081 63.748C38.74 63.7707 38.677 63.8066 38.6228 63.8537C38.5686 63.9007 38.5242 63.958 38.4922 64.0223C38.4602 64.0866 38.4412 64.1565 38.4363 64.2282C38.4314 64.2998 38.4407 64.3717 38.4636 64.4397C38.4863 64.5078 38.5222 64.5708 38.5693 64.625C38.6164 64.6792 38.6737 64.7236 38.7379 64.7556C38.8022 64.7876 38.8722 64.8066 38.9438 64.8115C39.0154 64.8164 39.0873 64.8071 39.1553 64.7842L43.0126 63.4894Z" fill="#0166FF"/>
<path d="M47.5147 71.9684C47.6402 71.9463 47.7541 71.8811 47.8367 71.784C47.8792 71.734 47.9142 71.6736 47.9377 71.6074L49.2608 67.76C49.3586 67.4739 49.2072 67.1624 48.9211 67.0646C48.635 66.9668 48.3235 67.1183 48.2257 67.4044L46.9027 71.2518C46.8612 71.3723 46.8632 71.5035 46.9082 71.6228C46.9532 71.742 47.0384 71.8418 47.1491 71.9049C47.2599 71.968 47.3892 71.9904 47.5147 71.9684Z" fill="#0166FF"/>
<path d="M68.8467 44.3211C68.7496 44.3533 68.6678 44.4109 68.605 44.4847C68.5437 44.5563 68.502 44.6426 68.484 44.7352C68.466 44.8277 68.4723 44.9234 68.5023 45.0128C68.5249 45.0809 68.5608 45.1439 68.6079 45.1981C68.655 45.2523 68.7123 45.2967 68.7766 45.3287C68.8408 45.3607 68.9108 45.3797 68.9824 45.3846C69.054 45.3895 69.1259 45.3802 69.1939 45.3573L73.0513 44.0625C73.1194 44.0399 73.1823 44.0039 73.2365 43.9569C73.2908 43.9098 73.3351 43.8525 73.3671 43.7882C73.3991 43.724 73.4181 43.654 73.4231 43.5824C73.428 43.5108 73.4187 43.4389 73.3957 43.3709C73.3731 43.3027 73.3372 43.2398 73.2901 43.1856C73.243 43.1314 73.1857 43.087 73.1214 43.055C73.0572 43.023 72.9872 43.004 72.9156 42.9991C72.844 42.9942 72.7721 43.0034 72.7041 43.0264L68.8467 44.3211Z" fill="#0166FF"/>
<path d="M64.3447 35.8422C64.2192 35.8642 64.1053 35.9294 64.0227 36.0265C63.9802 36.0765 63.9451 36.137 63.9217 36.2031L62.5986 40.0506C62.5008 40.3366 62.6522 40.6481 62.9383 40.7459C63.2244 40.8437 63.5359 40.6923 63.6337 40.4062L64.9567 36.5588C64.9982 36.4382 64.9962 36.307 64.9512 36.1878C64.9062 36.0686 64.821 35.9688 64.7102 35.9057C64.5995 35.8426 64.4702 35.8201 64.3447 35.8422Z" fill="#0166FF"/>
<path d="M56.2234 69.6327C56.2234 69.3311 56.4688 69.0858 56.7703 69.0858C57.0734 69.0858 57.3172 69.3296 57.3156 69.6327V70.5218C57.3156 74.6702 53.9406 78.0468 49.7906 78.0468H26.2828C22.1344 78.0468 18.7578 74.6718 18.7578 70.5218L18.7584 67.9993L18.7579 64.2137C18.7578 63.9112 19.003 63.666 19.3055 63.666C19.6079 63.666 19.8531 63.9112 19.8531 64.2136V70.5218C19.8531 74.0671 22.7375 76.953 26.2844 76.953H49.7922C53.3375 76.953 56.2234 74.0686 56.2234 70.5218V69.6327Z" fill="#9A9A9A"/>
<path d="M27.3863 38.5645H46.5066C46.8082 38.5645 47.0535 38.3191 47.0535 38.0176C47.0535 37.716 46.8082 37.4707 46.5066 37.4707H27.3863C27.0848 37.4707 26.8395 37.716 26.8395 38.0176C26.8395 38.3191 27.0848 38.5645 27.3863 38.5645Z" fill="#9A9A9A"/>
<path d="M27.3844 44.0035H41.5047C41.8062 44.0035 42.0516 43.7582 42.0516 43.4566C42.0516 43.155 41.8062 42.9097 41.5047 42.9097H27.3844C27.0828 42.9097 26.8375 43.155 26.8375 43.4566C26.8375 43.7582 27.0828 44.0035 27.3844 44.0035ZM37.0312 49.1129H27.3281C27.0266 49.1129 26.7812 49.3582 26.7812 49.6597C26.7812 49.9613 27.0266 50.2066 27.3281 50.2066H37.0312C37.3328 50.2066 37.5781 49.9613 37.5781 49.6597C37.5781 49.3582 37.3328 49.1129 37.0312 49.1129ZM37.0312 54.5519H27.3281C27.0266 54.5519 26.7812 54.7972 26.7812 55.0988C26.7812 55.4004 27.0266 55.6457 27.3281 55.6457H37.0312C37.3328 55.6457 37.5781 55.4004 37.5781 55.0988C37.5781 54.7972 37.3328 54.5519 37.0312 54.5519Z" fill="#9A9A9A"/>
<path d="M18.7609 9.47813V60.0273C18.7609 60.3298 19.0061 60.575 19.3086 60.575C19.6111 60.575 19.8563 60.3298 19.8563 60.0273V9.47813C19.8563 5.93281 22.7406 3.04688 26.2875 3.04688H49.7953C53.3406 3.04688 56.2266 5.93125 56.2266 9.47813V38.1719C56.2266 38.4734 56.4719 38.7188 56.7734 38.7188C57.075 38.7188 57.3203 38.4734 57.3203 38.1719V9.47813C57.3203 5.32969 53.9453 1.95312 49.7953 1.95312H26.2859C22.1375 1.95312 18.7609 5.32813 18.7609 9.47813Z" fill="#9A9A9A"/>
<path fill-rule="evenodd" clip-rule="evenodd" d="M34.5 13.9995C33.4391 13.9995 32.4217 14.421 31.6716 15.1711C30.9214 15.9212 30.5 16.9387 30.5 17.9995C30.5 19.0604 30.9214 20.0778 31.6716 20.828C32.4217 21.5781 33.4391 21.9995 34.5 21.9995C35.5609 21.9995 36.5783 21.5781 37.3284 20.828C38.0786 20.0778 38.5 19.0604 38.5 17.9995C38.5 16.9387 38.0786 15.9212 37.3284 15.1711C36.5783 14.421 35.5609 13.9995 34.5 13.9995ZM32.5 22.9995C31.4391 22.9995 30.4217 23.421 29.6716 24.1711C28.9214 24.9212 28.5 25.9387 28.5 26.9995V27.9995C28.5 28.53 28.7107 29.0387 29.0858 29.4137C29.4609 29.7888 29.9696 29.9995 30.5 29.9995H38.5C39.0304 29.9995 39.5391 29.7888 39.9142 29.4137C40.2893 29.0387 40.5 28.53 40.5 27.9995V26.9995C40.5 25.9387 40.0786 24.9212 39.3284 24.1711C38.5783 23.421 37.5609 22.9995 36.5 22.9995H32.5ZM39.75 20.9045C40.228 20.0445 40.5 19.0545 40.5 17.9995C40.5002 16.983 40.2421 15.983 39.75 15.0935C40.3178 14.5563 41.0306 14.1971 41.8003 14.0606C42.57 13.924 43.3628 14.0159 44.0808 14.325C44.7988 14.6341 45.4106 15.1468 45.8403 15.7998C46.2701 16.4527 46.4992 17.2173 46.4992 17.999C46.4992 18.7807 46.2701 19.5453 45.8403 20.1983C45.4106 20.8512 44.7988 21.3639 44.0808 21.673C43.3628 21.9821 42.57 22.0741 41.8003 21.9375C41.0306 21.8009 40.3178 21.4418 39.75 20.9045ZM41.966 29.9995C42.306 29.4115 42.501 28.7285 42.501 27.9995V26.9995C42.5028 25.5233 41.9586 24.0986 40.973 22.9995H44.5C45.5609 22.9995 46.5783 23.421 47.3284 24.1711C48.0786 24.9212 48.5 25.9387 48.5 26.9995V27.9995C48.5 28.53 48.2893 29.0387 47.9142 29.4137C47.5391 29.7888 47.0304 29.9995 46.5 29.9995H41.966Z" fill="#9A9A9A"/>
<path fill-rule="evenodd" clip-rule="evenodd" d="M57 66C63.6274 66 69 60.6274 69 54C69 47.3726 63.6274 42 57 42C50.3726 42 45 47.3726 45 54C45 60.6274 50.3726 66 57 66Z" fill="#0166FF"/>
<g clip-path="url(#clip0_71575_117442)">
<path d="M62.3341 55.3332C62.591 55.3333 62.8379 55.4323 63.0237 55.6095C63.2096 55.7867 63.3201 56.0286 63.3325 56.2852C63.3448 56.5417 63.258 56.7931 63.09 56.9873C62.922 57.1816 62.6858 57.3038 62.4301 57.3285L62.3341 57.3332H54.0815L55.0415 58.2932C55.2233 58.4744 55.3285 58.7186 55.3353 58.9752C55.3421 59.2318 55.2499 59.4812 55.0779 59.6717C54.9058 59.8623 54.6671 59.9793 54.4112 59.9987C54.1552 60.0181 53.9016 59.9383 53.7028 59.7759L53.6268 59.7072L51.0741 57.1539C50.4248 56.5045 50.8475 55.4092 51.7348 55.3372L51.8281 55.3332H62.3341ZM58.9608 48.2932C59.1357 48.1181 59.3693 48.0141 59.6165 48.0013C59.8636 47.9885 60.1067 48.0678 60.2988 48.2239L60.3748 48.2925L62.9275 50.8459C63.5768 51.4952 63.1541 52.5905 62.2668 52.6625L62.1735 52.6665H51.6675C51.4107 52.6664 51.1637 52.5675 50.9779 52.3903C50.792 52.213 50.6815 51.9711 50.6691 51.7146C50.6568 51.4581 50.7436 51.2067 50.9116 51.0124C51.0796 50.8182 51.3159 50.696 51.5715 50.6712L51.6675 50.6665H59.9201L58.9601 49.7065C58.7729 49.519 58.6677 49.2649 58.6677 48.9999C58.6677 48.7349 58.7735 48.4807 58.9608 48.2932Z" fill="white"/>
</g>
<defs>
<clipPath id="clip0_71575_117442">
<rect width="16" height="16" fill="white" transform="translate(49 46)"/>
</clipPath>
</defs>
</svg>
