<svg width="80" height="80" viewBox="0 0 80 80" fill="none" xmlns="http://www.w3.org/2000/svg">
<path d="M18.1742 30.9365C19.3773 30.9365 20.3523 29.9615 20.3523 28.7584V5.88965C20.3523 4.86152 21.1883 4.02402 22.2148 4.02402L50.3336 4.05215C51.5352 4.05371 52.5117 3.07871 52.5117 1.87715L22.2164 1.84746C19.9836 1.84746 18.1742 3.65684 18.1742 5.88965V30.9365Z" fill="#E1EAF8"/>
<path d="M9.16099 18.2568C9.23911 18.2568 9.31724 18.274 9.39224 18.3084L13.0766 20.0334C13.1417 20.0637 13.2001 20.1066 13.2486 20.1596C13.297 20.2125 13.3346 20.2745 13.3591 20.342C13.3836 20.4094 13.3946 20.4811 13.3915 20.5528C13.3883 20.6245 13.371 20.6949 13.3407 20.7599C13.3103 20.825 13.2674 20.8834 13.2145 20.9319C13.1615 20.9804 13.0996 21.0179 13.0321 21.0424C12.9646 21.067 12.893 21.078 12.8213 21.0748C12.7496 21.0716 12.6792 21.0544 12.6141 21.024L8.92974 19.299C8.81681 19.2465 8.7252 19.157 8.67007 19.0454C8.61493 18.9337 8.59958 18.8065 8.62656 18.685C8.65354 18.5634 8.72122 18.4547 8.81841 18.3768C8.91559 18.299 9.03646 18.2566 9.16099 18.2568ZM13.3454 32.3599C13.5438 32.3599 13.7344 32.4677 13.8313 32.6552C13.8644 32.719 13.8846 32.7887 13.8907 32.8604C13.8969 32.932 13.8888 33.0041 13.867 33.0726C13.8453 33.1411 13.8102 33.2046 13.7639 33.2596C13.7175 33.3145 13.6608 33.3598 13.5969 33.3927L9.98442 35.2631C9.85555 35.3298 9.70544 35.3426 9.56713 35.2986C9.42883 35.2547 9.31364 35.1576 9.24693 35.0287C9.18021 34.8998 9.16742 34.7497 9.21137 34.6114C9.25533 34.4731 9.35242 34.3579 9.4813 34.2912L13.0938 32.4209C13.1751 32.3787 13.261 32.3599 13.3454 32.3599ZM69.8344 18.2568C69.959 18.2566 70.0798 18.299 70.177 18.3768C70.2742 18.4547 70.3419 18.5634 70.3689 18.685C70.3958 18.8065 70.3805 18.9337 70.3253 19.0454C70.2702 19.157 70.1786 19.2465 70.0657 19.299L66.3813 21.024C66.3163 21.0544 66.2459 21.0716 66.1742 21.0748C66.1024 21.078 66.0308 21.067 65.9633 21.0424C65.8959 21.0179 65.8339 20.9804 65.7809 20.9319C65.728 20.8834 65.6851 20.825 65.6547 20.7599C65.6244 20.6949 65.6071 20.6245 65.6039 20.5528C65.6008 20.4811 65.6118 20.4094 65.6363 20.342C65.6608 20.2745 65.6984 20.2125 65.7469 20.1596C65.7953 20.1066 65.8538 20.0637 65.9188 20.0334L69.6032 18.3084C69.6782 18.274 69.7563 18.2568 69.8344 18.2568ZM65.6501 32.3599C65.7375 32.3604 65.8236 32.3813 65.9016 32.4209L69.5141 34.2912C69.7829 34.4302 69.8876 34.7599 69.7485 35.0287C69.6094 35.2974 69.2797 35.4021 69.011 35.2631L65.3985 33.3927C65.1297 33.2537 65.0251 32.924 65.1641 32.6552C65.2102 32.5661 65.2799 32.4914 65.3656 32.4393C65.4513 32.3872 65.5497 32.3598 65.6501 32.3599Z" fill="#0166FF"/>
<path d="M65.3828 10.026L61.3297 11.5198V5.89946C61.3297 3.85727 62.8391 2.16977 64.8031 1.88696L65.3844 1.84478C67.6234 1.84478 69.4375 3.6604 69.4375 5.8979V10.4385C69.4375 11.2807 68.5297 11.8088 67.7969 11.3932L65.3828 10.026Z" fill="#E1EAF8"/>
<path d="M29.6477 64.9186C29.6477 65.2202 29.893 65.4655 30.1945 65.4655H51.3117C51.6133 65.4655 51.8586 65.2202 51.8586 64.9186C51.8586 64.6171 51.6133 64.3717 51.3117 64.3717H30.1945C29.8914 64.3717 29.6477 64.6171 29.6477 64.9186ZM56.5352 57.3218C56.5352 57.0202 56.2898 56.7749 55.9883 56.7749H34.093C33.7914 56.7749 33.5461 57.0202 33.5461 57.3218C33.5461 57.6233 33.7914 57.8686 34.093 57.8686H55.9883C56.2898 57.8686 56.5352 57.6233 56.5352 57.3218ZM55.9883 49.0421H33.0039C32.7023 49.0421 32.457 49.2874 32.457 49.5889C32.457 49.8905 32.7023 50.1358 33.0039 50.1358H55.9883C56.2898 50.1358 56.5352 49.8905 56.5352 49.5889C56.5352 49.2874 56.2898 49.0421 55.9883 49.0421ZM28.6883 34.6718H50.2977C50.5992 34.6718 50.8445 34.4264 50.8445 34.1249C50.8445 33.8233 50.5992 33.578 50.2977 33.578H28.6898C28.3883 33.578 28.143 33.8233 28.143 34.1249C28.143 34.4264 28.3867 34.6718 28.6883 34.6718ZM22.9977 26.9389H55.9883C56.2898 26.9389 56.5352 26.6936 56.5352 26.3921C56.5352 26.0905 56.2898 25.8452 55.9883 25.8452H22.9977C22.6961 25.8452 22.4508 26.0905 22.4508 26.3921C22.4508 26.6936 22.6961 26.9389 22.9977 26.9389ZM22.4508 18.6608C22.4508 18.9624 22.6961 19.2077 22.9977 19.2077H55.9883C56.2898 19.2077 56.5352 18.9624 56.5352 18.6608C56.5352 18.3593 56.2898 18.1139 55.9883 18.1139H22.9977C22.6961 18.1139 22.4508 18.3577 22.4508 18.6608ZM53.8492 11.4749C54.1508 11.4749 54.3961 11.2296 54.3961 10.928C54.3961 10.6264 54.1508 10.3811 53.8492 10.3811H25.1367C24.8352 10.3811 24.5898 10.6264 24.5898 10.928C24.5898 11.2296 24.8352 11.4749 25.1367 11.4749H53.8492Z" fill="#9A9A9A"/>
<path d="M18.1756 68.5629C17.874 68.5629 17.6287 68.8082 17.6287 69.1098V70.8473C17.6287 71.4941 17.86 72.1223 18.2803 72.6145L21.585 76.4895C21.9377 76.9067 22.4396 77.1694 22.9835 77.2217C23.5274 77.274 24.0701 77.1115 24.4959 76.7691L27.9412 74.0207C28.1195 73.8774 28.3414 73.7992 28.5701 73.7992C28.7989 73.7992 29.0208 73.8774 29.199 74.0207L32.8506 76.9348C33.2222 77.2336 33.6847 77.3965 34.1615 77.3965C34.6384 77.3965 35.1009 77.2336 35.4725 76.9348L39.124 74.0207C39.3023 73.8774 39.5242 73.7992 39.7529 73.7992C39.9817 73.7992 40.2036 73.8774 40.3818 74.0207L44.0318 76.9348C44.4034 77.2336 44.8659 77.3965 45.3428 77.3965C45.8196 77.3965 46.2821 77.2336 46.6537 76.9348L50.3053 74.0207C50.4835 73.8774 50.7054 73.7992 50.9342 73.7992C51.1629 73.7992 51.3848 73.8774 51.5631 74.0207L55.0084 76.7691C55.4342 77.1115 55.9769 77.274 56.5208 77.2217C57.0647 77.1694 57.5666 76.9067 57.9193 76.4895L61.224 72.6145C61.6444 72.1216 61.8754 71.4951 61.8756 70.8473V5.8582C61.8756 4.13007 63.4506 2.39258 65.4021 2.39258C67.3271 2.39258 68.8896 3.97227 68.8896 5.89883V10.4301C68.8896 10.7254 68.6865 10.8629 68.6006 10.9082C68.5131 10.9535 68.285 11.041 68.0428 10.8723L66.5818 9.85352C65.8646 9.35352 64.9006 9.35352 64.1834 9.85352C63.935 10.0254 63.874 10.3676 64.0475 10.6144C64.0884 10.6735 64.1406 10.7239 64.201 10.7627C64.2614 10.8015 64.329 10.828 64.3997 10.8406C64.4704 10.8532 64.5429 10.8518 64.613 10.8363C64.6832 10.8208 64.7496 10.7916 64.8084 10.7504C64.9771 10.6336 65.1774 10.5711 65.3826 10.5711C65.5878 10.5711 65.7881 10.6336 65.9568 10.7504L67.4178 11.7691C67.9178 12.1176 68.5662 12.1598 69.1068 11.8769C69.6475 11.5941 69.9834 11.0395 69.9834 10.4301V5.89883C69.9834 3.36133 67.9193 1.29883 65.3834 1.29883H22.2178C19.6865 1.29883 17.6287 3.3582 17.6287 5.88789V41.7301C17.6287 42.0316 17.874 42.277 18.1756 42.277C18.4771 42.277 18.7225 42.0316 18.7225 41.7301V5.89101C18.7225 3.96289 20.2912 2.3957 22.2178 2.3957L62.3693 2.39258C61.3943 3.24414 60.7834 4.4957 60.7834 5.85976V70.8473C60.7834 71.2348 60.6443 71.6113 60.3928 71.9051L57.0881 75.7801C56.9188 75.9803 56.678 76.1063 56.417 76.1314C56.156 76.1565 55.8956 76.0787 55.6912 75.9145L52.2459 73.166C51.8743 72.8672 51.4118 72.7043 50.935 72.7043C50.4581 72.7043 49.9956 72.8672 49.624 73.166L45.9725 76.0801C45.7942 76.2234 45.5723 76.3016 45.3436 76.3016C45.1148 76.3016 44.8929 76.2234 44.7146 76.0801L41.0647 73.166C40.2928 72.5504 39.2146 72.5488 38.4412 73.166L34.7912 76.0801C34.6129 76.2234 34.3911 76.3016 34.1623 76.3016C33.9336 76.3016 33.7117 76.2234 33.5334 76.0801L29.8818 73.166C29.5103 72.8672 29.0477 72.7043 28.5709 72.7043C28.0941 72.7043 27.6315 72.8672 27.26 73.166L23.8146 75.9145C23.6104 76.079 23.3499 76.1571 23.0888 76.132C22.8277 76.1069 22.5869 75.9806 22.4178 75.7801L19.1131 71.9051C18.8615 71.6098 18.7225 71.2348 18.7225 70.8473V69.1082C18.7225 68.8066 18.4771 68.5629 18.1756 68.5629Z" fill="#9A9A9A"/>
<path d="M17.8232 44.126C11.6967 44.126 6.72949 49.0932 6.72949 55.2197C6.72949 61.3463 11.6967 66.3135 17.8232 66.3135C23.9498 66.3135 28.917 61.3463 28.917 55.2197C28.9186 49.0932 23.9514 44.126 17.8232 44.126Z" fill="#0166FF"/>
<path d="M18.0694 53.9872H17.1031C16.3057 53.9872 15.6193 53.3756 15.5795 52.5794C15.5372 51.7289 16.2176 51.022 17.0597 51.022H18.2841C18.9826 51.022 19.5581 51.5636 19.6112 52.2489C19.616 52.3092 19.6667 52.3538 19.727 52.3538H21.0721C21.1384 52.3538 21.1927 52.2995 21.1891 52.2344C21.1276 50.7192 19.9007 49.5007 18.3843 49.4476V48.117C18.3843 48.0519 18.3324 48 18.2673 48H16.9246C16.8594 48 16.8075 48.0519 16.8075 48.117V49.4561C15.2236 49.5864 13.9774 50.9255 14.0003 52.5468C14.0232 54.2297 15.4407 55.5628 17.1236 55.5628H18.0899C18.8873 55.5628 19.5738 56.1744 19.6136 56.9706C19.6558 57.8211 18.9754 58.5268 18.1334 58.5268H16.9089C16.2104 58.5268 15.6349 57.9852 15.5819 57.2999C15.5794 57.271 15.5661 57.2441 15.5446 57.2247C15.5231 57.2052 15.4951 57.1946 15.4661 57.195H14.1209C14.0546 57.195 14.0003 57.2493 14.0039 57.3156C14.0655 58.8308 15.2923 60.0493 16.8088 60.1024V61.433C16.8088 61.4981 16.8606 61.55 16.9258 61.55H18.2685C18.3336 61.55 18.3855 61.4981 18.3855 61.433V60.0939C19.9695 59.9636 21.2156 58.6245 21.1927 57.0032C21.1698 55.3203 19.7535 53.9872 18.0694 53.9872Z" fill="white"/>
</svg>
