<svg width="57" height="77" viewBox="0 0 57 77" fill="none" xmlns="http://www.w3.org/2000/svg">
<path d="M38.5422 16.1578C38.8438 16.1578 39.0891 15.9125 39.0891 15.6109V7.95156C39.0891 3.56719 35.5219 0 31.1375 0H7.95156C3.56719 0 0 3.56719 0 7.95156V68.1438C0 72.5281 3.56719 76.0953 7.95156 76.0953H31.1375C35.5219 76.0953 39.0891 72.5281 39.0891 68.1438V52.9219C39.0891 52.6203 38.8438 52.375 38.5422 52.375C38.2406 52.375 37.9953 52.6203 37.9953 52.9219V68.1438C37.9953 71.925 34.9187 75.0016 31.1375 75.0016H7.95156C4.17031 75.0016 1.09375 71.925 1.09375 68.1438V7.95156C1.09375 4.17031 4.17031 1.09375 7.95156 1.09375H31.1375C34.9187 1.09375 37.9953 4.17031 37.9953 7.95156V15.6109C37.9953 15.9125 38.2406 16.1578 38.5422 16.1578Z" fill="#9A9A9A"/>
<path d="M23.8914 6.75557C25.0164 6.75557 25.932 5.83994 25.932 4.71494C25.932 3.58994 25.0164 2.67432 23.8914 2.67432H15.2008C14.0758 2.67432 13.1602 3.58994 13.1602 4.71494C13.1602 5.83994 14.0758 6.75557 15.2008 6.75557H23.8914ZM24.8383 4.71494C24.8383 5.23682 24.4133 5.66182 23.8914 5.66182H21.7742C22.4103 5.2134 22.8464 4.53456 22.9898 3.76963H23.8914C24.4133 3.76807 24.8383 4.19307 24.8383 4.71494ZM10.0898 71.8196C10.0898 72.1212 10.3352 72.3665 10.6367 72.3665H28.4539C28.7555 72.3665 29.0008 72.1212 29.0008 71.8196C29.0008 71.5181 28.7555 71.2728 28.4539 71.2728H10.6367C10.3352 71.2728 10.0898 71.5181 10.0898 71.8196Z" fill="#9A9A9A"/>
<path d="M26.3917 69.0809H13.1949C10.6558 69.0809 9.14331 66.2465 10.5605 64.1371L11.698 62.4434C12.1325 61.7964 12.7195 61.2663 13.4073 60.8998C14.0951 60.5333 14.8624 60.3417 15.6417 60.3418H20.0558C23.4917 60.3418 26.7027 62.0527 28.6183 64.9059C29.8121 66.6871 28.5371 69.0809 26.3917 69.0809Z" fill="#FAFBFF"/>
<path d="M51.4391 18.021H23.4156C20.6312 18.021 18.375 20.2772 18.375 23.0616V45.1929C18.375 47.9772 20.6312 50.2335 23.4156 50.2335H25.7547C26.7844 50.2335 27.6172 51.0679 27.6172 52.096V57.0851C27.6172 57.9647 28.6797 58.4054 29.3016 57.7835L36.3062 50.7788C36.6562 50.4288 37.1297 50.2335 37.6234 50.2335H51.4375C54.2219 50.2335 56.4781 47.9772 56.4781 45.1929V23.0616C56.4781 20.2772 54.2219 18.021 51.4391 18.021Z" fill="#FD4E4E"/>
<path d="M43.2852 30.2074C43.2852 29.0414 43.0161 27.965 42.2985 27.1578C41.581 26.3506 40.5047 25.9021 39.1593 25.9918H34.1364C32.791 25.9918 31.7147 26.3506 30.9971 27.1578C30.2796 27.965 30.0105 29.0414 30.0105 30.2074V37.7416C30.0105 38.9973 30.2796 40.0737 30.9971 40.8809C31.7147 41.5985 32.791 42.0469 34.1364 42.0469H39.1593C40.5047 42.0469 41.581 41.6882 42.2985 40.8809C43.0161 40.0737 43.2852 38.9077 43.2852 37.7416" stroke="white" stroke-width="1.3" stroke-linecap="round"/>
<path d="M47.4123 33.9746H39.3398" stroke="white" stroke-width="1.2" stroke-linecap="round"/>
<path d="M47.4103 33.9748L45.168 31.7324" stroke="white" stroke-width="1.2" stroke-linecap="round"/>
<path d="M47.4103 34.064L45.168 36.396" stroke="white" stroke-width="1.2" stroke-linecap="round"/>
</svg>
