<svg width="80" height="80" viewBox="0 0 80 80" fill="none" xmlns="http://www.w3.org/2000/svg">
<path d="M44.782 8.05313H33.2992C32.3586 8.05313 31.5227 7.45156 31.2242 6.55781L29.8711 2.5H48.2117L46.8586 6.55781C46.7129 6.99328 46.434 7.37195 46.0614 7.64028C45.6888 7.90861 45.2412 8.05303 44.782 8.05313ZM55.0383 67.3656V70.5203C55.0383 72.8641 53.1383 74.7641 50.7945 74.7641H32.0352C30.5258 74.7641 29.3008 75.9891 29.3008 77.4984H50.7945C54.6492 77.4984 57.7727 74.3734 57.7727 70.5203V64.6313C56.2633 64.6313 55.0383 65.8563 55.0383 67.3656Z" fill="#E1EAF8"/>
<path d="M53.075 34.2422H25.0937C24.4891 34.2422 24 33.7531 24 33.1484V14.0938C24 13.4891 24.4891 13 25.0937 13H53.075C53.6797 13 54.1687 13.4891 54.1687 14.0938V33.1484C54.1687 33.7516 53.6781 34.2422 53.075 34.2422Z" fill="#0166FF"/>
<path d="M40.0607 20.5607C40.342 20.2794 40.5 19.8978 40.5 19.5C40.5 19.1022 40.342 18.7206 40.0607 18.4393C39.7794 18.158 39.3978 18 39 18C38.6022 18 38.2206 18.158 37.9393 18.4393C37.658 18.7206 37.5 19.1022 37.5 19.5C37.5 19.8978 37.658 20.2794 37.9393 20.5607C38.2206 20.842 38.6022 21 39 21C39.3978 21 39.7794 20.842 40.0607 20.5607Z" fill="white"/>
<path d="M39.7955 23.2045C39.5845 22.9935 39.2984 22.875 39 22.875C38.7016 22.875 38.4155 22.9935 38.2045 23.2045C37.9935 23.4155 37.875 23.7016 37.875 24V27.75C37.875 28.0484 37.9935 28.3345 38.2045 28.5455C38.4155 28.7565 38.7016 28.875 39 28.875C39.2984 28.875 39.5845 28.7565 39.7955 28.5455C40.0065 28.3345 40.125 28.0484 40.125 27.75V24C40.125 23.7016 40.0065 23.4155 39.7955 23.2045Z" fill="white"/>
<path d="M15.2573 27.412C15.1605 27.412 15.0636 27.387 14.9761 27.3339L11.4902 25.2355C11.4286 25.1985 11.3749 25.1498 11.3322 25.0921C11.2896 25.0343 11.2587 24.9688 11.2414 24.8991C11.2241 24.8294 11.2208 24.757 11.2316 24.686C11.2424 24.615 11.267 24.5469 11.3042 24.4855C11.3412 24.4239 11.3899 24.3702 11.4476 24.3276C11.5053 24.2849 11.5709 24.254 11.6406 24.2367C11.7103 24.2195 11.7827 24.2161 11.8537 24.2269C11.9246 24.2377 11.9928 24.2623 12.0542 24.2995L15.5402 26.398C15.6017 26.4349 15.6554 26.4836 15.6981 26.5413C15.7407 26.5991 15.7716 26.6647 15.7889 26.7343C15.8062 26.804 15.8095 26.8764 15.7987 26.9474C15.788 27.0184 15.7633 27.0865 15.7261 27.148C15.6774 27.2287 15.6087 27.2955 15.5265 27.3418C15.4444 27.388 15.3516 27.4122 15.2573 27.412ZM10.6839 41.2605C10.5565 41.2605 10.433 41.216 10.3348 41.1347C10.2367 41.0534 10.17 40.9404 10.1463 40.8152C10.1226 40.69 10.1433 40.5604 10.205 40.4488C10.2666 40.3373 10.3653 40.2508 10.4839 40.2042L14.2714 38.7183C14.5527 38.6073 14.8698 38.7464 14.9808 39.0276C15.0917 39.3089 14.9527 39.6261 14.6714 39.737L10.8839 41.223C10.8183 41.248 10.7495 41.2605 10.6839 41.2605ZM66.5589 61.2855C66.462 61.2855 66.3652 61.2605 66.2777 61.2073L62.7917 59.1089C62.7302 59.072 62.6765 59.0232 62.6338 58.9655C62.5911 58.9078 62.5603 58.8422 62.543 58.7725C62.5257 58.7028 62.5224 58.6304 62.5331 58.5594C62.5439 58.4885 62.5686 58.4203 62.6058 58.3589C62.6427 58.2973 62.6914 58.2437 62.7492 58.201C62.8069 58.1583 62.8725 58.1274 62.9422 58.1102C63.0118 58.0929 63.0843 58.0895 63.1552 58.1003C63.2262 58.1111 63.2944 58.1358 63.3558 58.173L66.8417 60.2714C66.9033 60.3083 66.9569 60.3571 66.9996 60.4148C67.0423 60.4725 67.0732 60.5381 67.0905 60.6078C67.1077 60.6775 67.1111 60.7499 67.1003 60.8208C67.0895 60.8918 67.0648 60.96 67.0277 61.0214C66.9789 61.102 66.9101 61.1687 66.828 61.215C66.7458 61.2613 66.6532 61.2855 66.5589 61.2855ZM63.8605 46.8245C63.733 46.8246 63.6096 46.7801 63.5114 46.6988C63.4132 46.6175 63.3466 46.5045 63.3228 46.3793C63.2991 46.254 63.3199 46.1245 63.3815 46.0129C63.4432 45.9014 63.5418 45.8148 63.6605 45.7683L67.448 44.2823C67.7292 44.1714 68.0464 44.3105 68.1573 44.5917C68.2683 44.873 68.1292 45.1901 67.848 45.3011L64.0605 46.787C63.9948 46.8136 63.9277 46.8245 63.8605 46.8245Z" fill="#0166FF"/>
<path d="M24.7305 67.75C24.7305 68.0516 24.9758 68.2969 25.2773 68.2969H52.8023C53.1039 68.2969 53.3492 68.0516 53.3492 67.75C53.3492 67.4484 53.1039 67.2031 52.8023 67.2031H25.2773C24.9758 67.2031 24.7305 67.4484 24.7305 67.75Z" fill="#9A9A9A"/>
<path d="M57.2234 64.6327C57.2234 64.3311 57.4688 64.0858 57.7703 64.0858C58.0734 64.0858 58.3172 64.3296 58.3156 64.6327V70.5218C58.3156 74.6702 54.9406 78.0468 50.7906 78.0468H27.2828C23.1344 78.0468 19.7578 74.6718 19.7578 70.5218L19.7584 67.9993L19.7579 64.2137C19.7578 63.9112 20.003 63.666 20.3055 63.666C20.6079 63.666 20.8531 63.9112 20.8531 64.2136V70.5218C20.8531 74.0671 23.7375 76.953 27.2844 76.953H50.7922C54.3375 76.953 57.2234 74.0686 57.2234 70.5218V64.6327Z" fill="#9A9A9A"/>
<path d="M28.3906 38.5645H51.5109C51.8125 38.5645 52.0578 38.3191 52.0578 38.0176C52.0578 37.716 51.8125 37.4707 51.5109 37.4707H28.3906C28.0891 37.4707 27.8438 37.716 27.8438 38.0176C27.8438 38.3191 28.0891 38.5645 28.3906 38.5645Z" fill="#9A9A9A"/>
<path d="M28.3867 44.0039H51.507C51.8086 44.0039 52.0539 43.7586 52.0539 43.457C52.0539 43.1555 51.8086 42.9102 51.507 42.9102H28.3867C28.0852 42.9102 27.8398 43.1555 27.8398 43.457C27.8398 43.7586 28.0852 44.0039 28.3867 44.0039ZM51.0336 51.1133H41.3305C41.0289 51.1133 40.7836 51.3586 40.7836 51.6602C40.7836 51.9617 41.0289 52.207 41.3305 52.207H51.0336C51.3352 52.207 51.5805 51.9617 51.5805 51.6602C51.5805 51.3586 51.3352 51.1133 51.0336 51.1133ZM51.0336 56.5523H41.3305C41.0289 56.5523 40.7836 56.7977 40.7836 57.0992C40.7836 57.4008 41.0289 57.6461 41.3305 57.6461H51.0336C51.3352 57.6461 51.5805 57.4008 51.5805 57.0992C51.5805 56.7977 51.3352 56.5523 51.0336 56.5523Z" fill="#9A9A9A"/>
<path d="M58.3211 9.47813V60.0273C58.3211 60.3298 58.0759 60.575 57.7734 60.575C57.471 60.575 57.2258 60.3298 57.2258 60.0273V9.47813C57.2258 5.93281 54.3414 3.04688 50.7945 3.04688H27.2867C23.7414 3.04688 20.8555 5.93125 20.8555 9.47813V44.1719C20.8555 44.4734 20.6102 44.7188 20.3086 44.7188C20.007 44.7188 19.7617 44.4734 19.7617 44.1719V9.47813C19.7617 5.32969 23.1367 1.95312 27.2867 1.95312H50.7961C54.9445 1.95312 58.3211 5.32813 58.3211 9.47813Z" fill="#9A9A9A"/>
<path d="M14.6064 47.0742H33.5439C34.1532 47.0743 34.6502 47.5702 34.6504 48.1816V59.7363C34.6504 60.3461 34.1537 60.8427 33.5439 60.8428H31.1816L26.6973 60.8418H14.6064C13.9967 60.8418 13.5001 60.3451 13.5 59.7354V48.1807C13.5 47.5709 13.9967 47.0742 14.6064 47.0742Z" stroke="#9A9A9A"/>
<path d="M29.2805 50.7383H18.8711C18.5695 50.7383 18.3242 50.9836 18.3242 51.2852C18.3242 51.5867 18.5695 51.832 18.8711 51.832H29.2805C29.582 51.832 29.8273 51.5867 29.8273 51.2852C29.8273 50.9836 29.582 50.7383 29.2805 50.7383ZM29.2805 55.9789H18.8711C18.5695 55.9789 18.3242 56.2242 18.3242 56.5258C18.3242 56.8273 18.5695 57.0727 18.8711 57.0727H29.2805C29.582 57.0727 29.8273 56.8273 29.8273 56.5258C29.8273 56.2242 29.582 55.9789 29.2805 55.9789Z" fill="#9A9A9A"/>
</svg>
