<svg width="48" height="48" viewBox="0 0 48 48" fill="none" xmlns="http://www.w3.org/2000/svg">
<rect x="0.5" y="0.5" width="47" height="47" rx="13.5" fill="#F5F7FF"/>
<rect x="0.5" y="0.5" width="47" height="47" rx="13.5" stroke="#E1EAF8"/>
<path d="M33.0663 18.6666V25.0666C33.0663 29.0892 33.0663 31.1005 31.8167 32.3502C30.567 33.5999 28.5557 33.5999 24.533 33.5999H23.4663C19.4437 33.5999 17.4324 33.5999 16.1827 32.3502C14.933 31.1005 14.933 29.0892 14.933 25.0666V18.6666M22.3997 25.5999H25.5997C26.0967 25.5999 26.3452 25.5999 26.5412 25.5187C26.8026 25.4104 27.0102 25.2028 27.1185 24.9414C27.1997 24.7454 27.1997 24.4969 27.1997 23.9999C27.1997 23.5029 27.1997 23.2544 27.1185 23.0584C27.0102 22.797 26.8026 22.5894 26.5412 22.4811C26.3452 22.3999 26.0967 22.3999 25.5997 22.3999H22.3997C21.9027 22.3999 21.6542 22.3999 21.4581 22.4811C21.1968 22.5894 20.9891 22.797 20.8809 23.0584C20.7997 23.2544 20.7997 23.5029 20.7997 23.9999C20.7997 24.4969 20.7997 24.7454 20.8809 24.9414C20.9891 25.2028 21.1968 25.4104 21.4581 25.5187C21.6542 25.5999 21.9027 25.5999 22.3997 25.5999ZM15.4663 18.6666H32.533C33.5387 18.6666 34.0415 18.6666 34.3539 18.3541C34.6663 18.0417 34.6663 17.5389 34.6663 16.5332C34.6663 15.5276 34.6663 15.0247 34.3539 14.7123C34.0415 14.3999 33.5387 14.3999 32.533 14.3999H15.4663C14.4607 14.3999 13.9578 14.3999 13.6454 14.7123C13.333 15.0247 13.333 15.5276 13.333 16.5332C13.333 17.5389 13.333 18.0417 13.6454 18.3541C13.9578 18.6666 14.4607 18.6666 15.4663 18.6666Z" stroke="#0166FF" stroke-linecap="round"/>
</svg>
