<svg width="20" height="20" viewBox="0 0 20 20" fill="none" xmlns="http://www.w3.org/2000/svg">
<path d="M16.9 10.7996C16.9 14.7761 13.6765 17.9996 9.7 17.9996C8.58805 17.9996 7.53496 17.7475 6.59478 17.2974C6.27164 17.1427 5.90554 17.0884 5.55945 17.181L4.45601 17.4763C3.58631 17.709 2.79066 16.9133 3.02336 16.0436L3.3186 14.9402C3.4112 14.5941 3.35688 14.228 3.20218 13.9048C2.75207 12.9646 2.5 11.9116 2.5 10.7996C2.5 6.82316 5.72355 3.59961 9.7 3.59961" stroke="#727689" stroke-width="1.2" stroke-linecap="round"/>
<path d="M7.44844 10.8004C7.44844 11.2974 7.04549 11.7004 6.54844 11.7004C6.05138 11.7004 5.64844 11.2974 5.64844 10.8004C5.64844 10.3033 6.05138 9.90039 6.54844 9.90039C7.04549 9.90039 7.44844 10.3033 7.44844 10.8004Z" fill="#727689"/>
<path d="M10.5984 10.8004C10.5984 11.2974 10.1955 11.7004 9.69844 11.7004C9.20138 11.7004 8.79844 11.2974 8.79844 10.8004C8.79844 10.3033 9.20138 9.90039 9.69844 9.90039C10.1955 9.90039 10.5984 10.3033 10.5984 10.8004Z" fill="#727689"/>
<path d="M13.7484 10.8004C13.7484 11.2974 13.3455 11.7004 12.8484 11.7004C12.3514 11.7004 11.9484 11.2974 11.9484 10.8004C11.9484 10.3033 12.3514 9.90039 12.8484 9.90039C13.3455 9.90039 13.7484 10.3033 13.7484 10.8004Z" fill="#727689"/>
<circle cx="14.5" cy="5" r="2.5" stroke="#727689"/>
</svg>
