<svg width="16" height="16" viewBox="0 0 16 16" fill="none" xmlns="http://www.w3.org/2000/svg">
<circle cx="8.00065" cy="7.99967" r="6.06667" stroke="#E1EAF8" stroke-width="1.2"/>
<mask id="path-2-inside-1_65529_324269" fill="white">
<path d="M8.00065 1.92269C8.00065 1.59702 8.26518 1.3303 8.58958 1.35907C9.53981 1.44334 10.4633 1.73082 11.2965 2.2047C12.301 2.776 13.1398 3.5986 13.7305 4.59181C14.3212 5.58502 14.6436 6.71473 14.6661 7.87011C14.6885 9.02549 14.4103 10.1669 13.8586 11.1823C13.3069 12.1977 12.5008 13.0523 11.5192 13.6622C10.5377 14.2721 9.41446 14.6164 8.25973 14.6613C7.105 14.7062 5.95843 14.4502 4.93249 13.9184C4.0815 13.4772 3.33775 12.8589 2.74994 12.1075C2.54927 11.851 2.62908 11.484 2.9023 11.3067C3.17553 11.1295 3.53835 11.2097 3.74386 11.4624C4.21705 12.0441 4.80584 12.5243 5.47526 12.8713C6.31971 13.3091 7.26345 13.5198 8.2139 13.4828C9.16435 13.4459 10.0889 13.1625 10.8968 12.6605C11.7047 12.1585 12.3682 11.4551 12.8223 10.6193C13.2764 9.78349 13.5054 8.84402 13.4869 7.89303C13.4684 6.94204 13.2031 6.01218 12.7169 5.19468C12.2306 4.37717 11.5403 3.70009 10.7135 3.22985C10.058 2.85708 9.33473 2.62444 8.58921 2.54402C8.26542 2.50909 8.00065 2.24836 8.00065 1.92269Z"/>
</mask>
<path d="M8.00065 1.92269C8.00065 1.59702 8.26518 1.3303 8.58958 1.35907C9.53981 1.44334 10.4633 1.73082 11.2965 2.2047C12.301 2.776 13.1398 3.5986 13.7305 4.59181C14.3212 5.58502 14.6436 6.71473 14.6661 7.87011C14.6885 9.02549 14.4103 10.1669 13.8586 11.1823C13.3069 12.1977 12.5008 13.0523 11.5192 13.6622C10.5377 14.2721 9.41446 14.6164 8.25973 14.6613C7.105 14.7062 5.95843 14.4502 4.93249 13.9184C4.0815 13.4772 3.33775 12.8589 2.74994 12.1075C2.54927 11.851 2.62908 11.484 2.9023 11.3067C3.17553 11.1295 3.53835 11.2097 3.74386 11.4624C4.21705 12.0441 4.80584 12.5243 5.47526 12.8713C6.31971 13.3091 7.26345 13.5198 8.2139 13.4828C9.16435 13.4459 10.0889 13.1625 10.8968 12.6605C11.7047 12.1585 12.3682 11.4551 12.8223 10.6193C13.2764 9.78349 13.5054 8.84402 13.4869 7.89303C13.4684 6.94204 13.2031 6.01218 12.7169 5.19468C12.2306 4.37717 11.5403 3.70009 10.7135 3.22985C10.058 2.85708 9.33473 2.62444 8.58921 2.54402C8.26542 2.50909 8.00065 2.24836 8.00065 1.92269Z" stroke="#0166FF" stroke-width="2.4" mask="url(#path-2-inside-1_65529_324269)"/>
</svg>
