<svg width="18" height="18" viewBox="0 0 18 18" fill="none" xmlns="http://www.w3.org/2000/svg">
<path d="M16.3857 3.56445C16.5205 3.52907 16.664 3.55858 16.7744 3.64355C16.8849 3.72874 16.9502 3.86045 16.9502 4V11.3809C16.9499 11.6291 16.7484 11.8301 16.5 11.8301H14.7754C14.5891 11.8301 14.4247 11.7158 14.3574 11.5469L14.3379 11.498L14.291 11.5195L14.0156 11.6406L13.9824 11.6553L13.9863 11.6924C13.9928 11.7443 13.9971 11.7968 13.9971 11.8496C13.997 12.1831 13.8674 12.4957 13.6328 12.7305C13.4582 12.9051 13.2401 13.0221 13.0029 13.0703L12.9648 13.0781L12.9629 13.1172C12.9512 13.433 12.8232 13.7275 12.5996 13.9512C12.3648 14.1859 12.0515 14.3154 11.7178 14.3154C11.5008 14.3154 11.2927 14.2608 11.1094 14.1582L11.0664 14.1338L11.042 14.1768C10.9874 14.273 10.9192 14.363 10.8389 14.4434C10.6041 14.6781 10.2907 14.8066 9.95703 14.8066C9.62327 14.8067 9.30998 14.6782 9.0752 14.4434L8.91016 14.2783L8.86621 14.2334L8.83301 14.2871C8.78302 14.3677 8.72302 14.443 8.6543 14.5117C8.41951 14.7465 8.10621 14.8759 7.77246 14.876C7.44803 14.8759 7.14351 14.7537 6.91113 14.5312L6.9082 14.5283L6.59473 14.2646C5.82556 13.5983 4.79986 12.5888 3.74707 11.4639L3.68359 11.3965L3.66211 11.4863C3.61316 11.6878 3.43238 11.8301 3.22461 11.8301H1.5C1.25165 11.8301 1.05006 11.6291 1.0498 11.3809V4C1.04982 3.86045 1.11507 3.72873 1.22559 3.64355C1.336 3.55858 1.47948 3.5291 1.61426 3.56445L4.83594 4.41309C5.07053 4.47507 5.21426 4.71168 5.16016 4.94824L5.08398 5.27734L5.07031 5.33887H7.91211L7.92676 5.3252C8.17209 5.10075 8.41161 4.93199 8.65527 4.84082C9.12089 4.6667 9.50789 4.67156 9.9082 4.79492C10.3119 4.9194 10.7299 5.16476 11.2598 5.47559C11.4823 5.60611 11.7356 5.7544 12.0195 5.91309C12.2695 6.05257 12.5277 6.06768 12.7822 5.95703L13.0068 5.85938L13.0449 5.84277L13.0361 5.80273L12.8398 4.94824C12.7857 4.71158 12.9293 4.47401 13.1641 4.41211L16.3857 3.56445ZM4.85547 6.27734L3.93262 10.3066L3.92676 10.333L3.94434 10.3516C4.61555 11.0855 5.50878 11.9643 6.23535 12.6602C6.59871 13.0082 6.92056 13.311 7.15234 13.5273C7.26824 13.6355 7.36197 13.7223 7.42676 13.7822C7.45907 13.8121 7.48465 13.8356 7.50195 13.8516C7.51752 13.8659 7.52557 13.8734 7.52734 13.875C7.66016 14.0079 7.88466 14.0079 8.01758 13.875C8.14566 13.7469 8.15469 13.5219 8.02246 13.3896L6.82812 12.1953C6.65242 12.0196 6.65238 11.7343 6.82812 11.5586C7.00389 11.3831 7.28919 11.383 7.46484 11.5586L9.71191 13.8066C9.84467 13.9395 10.0693 13.9394 10.2021 13.8066C10.3285 13.6803 10.3405 13.4553 10.209 13.3232L8.41211 11.5254C8.23636 11.3497 8.23636 11.0654 8.41211 10.8896C8.58787 10.714 8.87217 10.714 9.04785 10.8896L11.4727 13.3145C11.6023 13.4441 11.8335 13.4448 11.9639 13.3145C12.097 13.1808 12.0953 12.9557 11.9639 12.8242L9.61523 10.4766C9.43948 10.3008 9.43948 10.0156 9.61523 9.83984C9.79096 9.66417 10.0762 9.66414 10.252 9.83984L12.5059 12.0947C12.6387 12.2272 12.8628 12.2278 12.9961 12.0947C13.1288 11.962 13.129 11.7375 12.9961 11.6045L11.5322 10.1406C11.1666 9.77504 10.8014 9.40887 10.5273 9.13477L10.0791 8.68652C10.0777 8.68512 10.0724 8.68077 10.0723 8.68066V8.67969H10.0713V8.67871H10.0703C9.76597 8.3744 9.30506 8.33217 8.95117 8.57715C8.49379 8.89388 7.7506 9.40713 6.95117 9.40723C6.4472 9.40718 5.91618 9.20232 5.41602 8.60156C5.25753 8.41104 5.28274 8.12802 5.47266 7.96875C5.9777 7.54518 6.45005 6.986 6.90332 6.44922C6.93966 6.40621 6.97595 6.36357 7.01172 6.32129L7.08105 6.23828H4.86426L4.85547 6.27734ZM1.9502 10.9307H2.86621L2.875 10.8916L4.1748 5.21875L4.18555 5.17188L4.13867 5.16016L2.0127 4.60059L1.9502 4.58398V10.9307ZM15.9873 4.60059L13.8613 5.16016L13.8145 5.17188L13.8252 5.21875L14.0078 6.01367V6.01465L15.125 10.8916L15.1338 10.9307H16.0498V4.58398L15.9873 4.60059ZM9.3291 5.6084C9.2109 5.6109 9.09598 5.63675 8.9707 5.68359C8.87751 5.71845 8.77609 5.78512 8.66992 5.87109C8.56326 5.95748 8.44899 6.06631 8.33105 6.18848C8.09537 6.43265 7.84005 6.73417 7.59082 7.0293C7.24542 7.43836 6.86739 7.88684 6.46094 8.28516L6.41602 8.3291L6.46875 8.3623C6.7086 8.51879 6.96559 8.55325 7.28125 8.46387C7.59339 8.37544 7.96464 8.166 8.43848 7.83789C9.14492 7.34868 10.0994 7.43433 10.707 8.04199L13.5098 10.8457L13.5342 10.8691L13.5654 10.8555L14.0977 10.6211L14.1357 10.6035L14.126 10.5635L13.2627 6.79395L13.25 6.73535L13.1943 6.75977L13.1416 6.78223C12.6303 7.0046 12.0761 6.97529 11.5801 6.69824C11.2879 6.53498 11.0315 6.38405 10.8047 6.25098C10.2977 5.95353 9.9666 5.76395 9.70117 5.67285C9.56716 5.62688 9.44743 5.60593 9.3291 5.6084Z" fill="#5A5E66" stroke="white" stroke-width="0.1"/>
</svg>
