<svg width="40" height="40" viewBox="0 0 40 40" fill="none" xmlns="http://www.w3.org/2000/svg">
<rect width="40" height="40" rx="16" fill="url(#paint0_linear_76614_216651)"/>
<path d="M14.573 29.9267C15.1657 29.3341 15.4986 28.5303 15.4986 27.6922C15.4986 26.8542 15.1657 26.0504 14.573 25.4578C14.2796 25.1643 13.9313 24.9316 13.5479 24.7728C13.1645 24.614 12.7536 24.5322 12.3386 24.5322C11.5005 24.5322 10.6967 24.8652 10.1041 25.4578C9.22464 26.3366 8.87868 27.6985 8.76866 28.9326C8.70618 29.6306 8.71017 30.3329 8.78059 31.0302C8.78822 31.0851 8.81336 31.1362 8.85228 31.1757C8.8912 31.2152 8.94183 31.2411 8.99665 31.2496H9.0046C9.07552 31.2496 10.0856 31.2728 10.3964 30.2892C10.4524 30.1055 10.5345 29.9307 10.6403 29.7703C10.6834 29.7061 10.7472 29.6584 10.821 29.6351C10.8948 29.6119 10.9744 29.6144 11.0466 29.6423C11.1188 29.6702 11.1794 29.7218 11.2184 29.7886C11.2574 29.8555 11.2725 29.9336 11.2613 30.0102C11.2108 30.3846 11.2883 30.7651 11.4813 31.0898C11.5026 31.1258 11.5342 31.1547 11.572 31.1726C11.6097 31.1905 11.652 31.1968 11.6934 31.1906C12.7492 31.0295 13.8321 30.6677 14.573 29.9267Z" fill="url(#paint1_linear_76614_216651)"/>
<path d="M31.232 10.746C31.1657 9.64852 30.3824 8.86448 29.2855 8.79887C25.5562 8.57685 21.4047 10.1568 18.1659 13.3964L17.3043 14.258C16.995 14.5672 16.6992 14.8865 16.4169 15.2156H13.6929C13.4109 15.2301 13.1369 15.3151 12.8961 15.4627C12.6553 15.6103 12.4553 15.8159 12.3144 16.0606L10.7106 19.2657C10.6677 19.3807 10.6376 19.5 10.6211 19.6216C10.6235 19.8274 10.7063 20.0241 10.8518 20.1696C10.9974 20.3151 11.194 20.3979 11.3998 20.4003H13.4278C13.1627 21.2838 13.3404 22.1527 13.9017 22.714L17.3202 26.1325C17.8815 26.6938 18.7504 26.8688 19.6339 26.6063V28.6297C19.6363 28.8355 19.7191 29.0322 19.8646 29.1777C20.0101 29.3232 20.2068 29.406 20.4126 29.4085C20.5341 29.3918 20.6534 29.362 20.7685 29.3197L23.9656 27.7191C24.2104 27.578 24.4159 27.3779 24.5635 27.137C24.7111 26.8961 24.796 26.6221 24.8106 26.3399V23.6167C25.1384 23.3357 25.4586 23.0405 25.7709 22.7312L26.6325 21.8697C29.874 18.6262 31.4547 14.4727 31.232 10.746Z" fill="white"/>
<path d="M26.2599 16.8906C26.7795 16.7872 27.2567 16.5321 27.6313 16.1574C27.8801 15.9088 28.0774 15.6135 28.212 15.2885C28.3467 14.9636 28.416 14.6153 28.416 14.2635C28.416 13.9118 28.3467 13.5635 28.212 13.2385C28.0774 12.9136 27.8801 12.6183 27.6313 12.3696C27.2567 11.995 26.7795 11.7398 26.2599 11.6365C25.7403 11.5331 25.2017 11.5861 24.7122 11.7888C24.2227 11.9915 23.8044 12.3349 23.51 12.7754C23.2157 13.2159 23.0586 13.7337 23.0586 14.2635C23.0586 14.7933 23.2157 15.3112 23.51 15.7517C23.8044 16.1922 24.2227 16.5355 24.7122 16.7382C25.2017 16.941 25.7403 16.994 26.2599 16.8906Z" fill="#702FFE"/>
<defs>
<linearGradient id="paint0_linear_76614_216651" x1="9.28571" y1="40" x2="49.2826" y2="-6.43124" gradientUnits="userSpaceOnUse">
<stop stop-color="#6F2EFE"/>
<stop offset="0.375" stop-color="#6F2EFE"/>
<stop offset="1" stop-color="#9973FD"/>
</linearGradient>
<linearGradient id="paint1_linear_76614_216651" x1="13.9474" y1="30.5523" x2="9.47847" y2="26.0834" gradientUnits="userSpaceOnUse">
<stop stop-color="#FE7838"/>
<stop offset="0.54" stop-color="#FE7636"/>
<stop offset="1" stop-color="#FFAD8A"/>
</linearGradient>
</defs>
</svg>
