<svg width="80" height="80" viewBox="0 0 80 80" fill="none" xmlns="http://www.w3.org/2000/svg">
<mask id="path-1-outside-1_74545_169655" maskUnits="userSpaceOnUse" x="34.814" y="21.2383" width="36" height="48" fill="black">
<rect fill="white" x="34.814" y="21.2383" width="36" height="48"/>
<path d="M38.3158 36.6905H38.6022L38.5983 30.0091C38.5974 27.9339 39.4043 25.9824 40.8715 24.5143C42.3387 23.047 44.2892 22.2383 46.3644 22.2383H49.5253C51.2351 22.2383 52.904 22.7188 54.3522 23.6275L55.5444 24.3763C55.8345 24.5588 56.1703 24.6554 56.5131 24.6551C58.3856 24.6551 59.9099 26.1784 59.9099 28.0519V36.6905H60.1915C60.9308 36.6905 61.6188 37.0226 62.0793 37.6011C62.5398 38.1796 62.7073 38.9256 62.5408 39.6458L62.28 40.7724C62.025 41.8714 61.0593 42.6392 59.9318 42.6392H59.6282C59.2781 46.0418 57.6739 49.1703 55.1895 51.4377L55.1515 51.7774C55.0601 52.6033 55.1686 53.4501 55.4664 54.2256C55.4985 54.3088 55.5476 54.3844 55.6105 54.4476C55.6734 54.5109 55.7487 54.5603 55.8318 54.5928L63.5531 57.61C65.4057 58.3341 66.9776 59.5844 68.0994 61.2276C69.2212 62.8699 69.814 64.79 69.814 66.7786V68.2429C69.814 68.4266 69.6646 68.576 69.4809 68.576C69.2973 68.576 69.1479 68.4266 69.1479 68.2429V66.7786C69.1479 64.9241 68.5951 63.1344 67.5494 61.6034C66.5037 60.0715 65.0375 58.906 63.3105 58.2313L57.6567 56.022C56.809 57.5501 55.592 58.8041 54.12 59.6605C52.6576 60.5121 50.9744 60.9621 49.2541 60.9621C47.5329 60.9621 45.8506 60.5121 44.3882 59.6605C42.9162 58.8041 41.6993 57.5491 40.8515 56.022L39.9076 56.3902C39.8676 56.4054 39.8267 56.413 39.7868 56.413C39.7092 56.413 39.634 56.3858 39.5743 56.3362C39.5147 56.2866 39.4741 56.2178 39.4598 56.1415C39.4455 56.0653 39.4582 55.9864 39.4959 55.9185C39.5335 55.8507 39.5936 55.7981 39.6659 55.7698L42.6774 54.5928C42.7604 54.5602 42.8357 54.5107 42.8985 54.4475C42.9614 54.3842 43.0105 54.3087 43.0428 54.2256C43.3413 53.4462 43.4493 52.6069 43.3577 51.7774L43.3197 51.4367C40.8372 49.1703 39.2339 46.0418 38.8838 42.6392H38.5774C37.4489 42.6392 36.4832 41.8714 36.2291 40.7724L35.9684 39.6458C35.8019 38.9256 35.9694 38.1805 36.4299 37.6011C36.8904 37.0216 37.5764 36.6905 38.3158 36.6905ZM59.2438 28.0519C59.2438 26.5466 58.0193 25.3211 56.5131 25.3211C56.0451 25.3214 55.5867 25.1894 55.1905 24.9405L53.9983 24.1917C52.6582 23.3501 51.1077 22.9038 49.5253 22.9043H46.3644C44.4672 22.9043 42.6831 23.6436 41.3425 24.9852C40.0008 26.3278 39.2634 28.1118 39.2644 30.0091L39.2691 37.0159L39.2967 37.6154L40.3396 37.0178C40.4389 36.9608 40.5214 36.8786 40.5789 36.7796C40.6363 36.6805 40.6667 36.5681 40.6669 36.4536V32.9178C40.6669 31.4459 41.8639 30.2489 43.3358 30.2489H55.1733C56.6453 30.2489 57.8423 31.4459 57.8423 32.9178V36.4536C57.8423 36.6857 57.9679 36.9027 58.1696 37.0178L59.2162 37.6173L59.2438 37.015V28.0519ZM59.9308 41.9732C60.7472 41.9732 61.4465 41.4175 61.6311 40.6221L61.8918 39.4955C62.0127 38.9741 61.8909 38.4346 61.5579 38.0159C61.2248 37.5973 60.7272 37.3565 60.1915 37.3565H59.8947L59.6863 41.8647C59.6844 41.9009 59.6815 41.9361 59.6796 41.9722L59.9308 41.9732ZM57.0307 55.7765L55.8422 55.3122C55.5568 55.7384 53.6099 57.61 52.1581 58.2313C52.1581 59 52.0039 59.471 51.8564 60C55.2428 58.8915 56.5349 56.6519 57.0307 55.7765ZM43.6641 54.4644C43.5813 54.6794 43.4433 54.8678 43.2673 55.0105C44.6232 56.9906 46.8373 58.1628 49.2551 58.1628C51.6728 58.1628 53.886 56.9906 55.2428 55.0105C55.0668 54.8678 54.9288 54.6794 54.846 54.4644C54.552 53.7003 54.4217 52.8744 54.4626 52.0571C53.7528 52.6204 52.9821 53.118 52.1581 53.5376C51.2494 54.001 50.2532 54.2322 49.256 54.2322C48.2589 54.2322 47.2626 54.001 46.354 53.5376C45.53 53.118 44.7593 52.6204 44.0494 52.0571C44.0885 52.8744 43.9572 53.7003 43.6641 54.4644ZM46.6546 52.9449C48.2826 53.7746 50.2256 53.7746 51.8564 52.9429C56.0582 50.8021 58.8033 46.5451 59.0212 41.8343L59.181 38.3661L57.8385 37.5963C57.4303 37.3623 57.1762 36.9246 57.1762 36.4545V32.9188C57.1762 31.8141 56.278 30.9159 55.1733 30.9159H43.3339C42.2292 30.9159 41.331 31.8141 41.331 32.9188V36.4545C41.331 36.9255 41.077 37.3623 40.6688 37.5963L39.3291 38.3642L39.488 41.8324C39.7059 46.5442 42.4509 50.8021 46.6546 52.9449ZM36.6164 39.4955L36.8771 40.6221C37.0617 41.4175 37.7601 41.9732 38.5774 41.9732H38.8315C38.8296 41.9361 38.8258 41.8999 38.8248 41.8628L38.6183 37.3575H38.3167C37.782 37.3575 37.2834 37.5982 36.9504 38.0169C36.6173 38.4355 36.4955 38.9741 36.6164 39.4955Z"/>
</mask>
<path d="M38.3158 36.6905H38.6022L38.5983 30.0091C38.5974 27.9339 39.4043 25.9824 40.8715 24.5143C42.3387 23.047 44.2892 22.2383 46.3644 22.2383H49.5253C51.2351 22.2383 52.904 22.7188 54.3522 23.6275L55.5444 24.3763C55.8345 24.5588 56.1703 24.6554 56.5131 24.6551C58.3856 24.6551 59.9099 26.1784 59.9099 28.0519V36.6905H60.1915C60.9308 36.6905 61.6188 37.0226 62.0793 37.6011C62.5398 38.1796 62.7073 38.9256 62.5408 39.6458L62.28 40.7724C62.025 41.8714 61.0593 42.6392 59.9318 42.6392H59.6282C59.2781 46.0418 57.6739 49.1703 55.1895 51.4377L55.1515 51.7774C55.0601 52.6033 55.1686 53.4501 55.4664 54.2256C55.4985 54.3088 55.5476 54.3844 55.6105 54.4476C55.6734 54.5109 55.7487 54.5603 55.8318 54.5928L63.5531 57.61C65.4057 58.3341 66.9776 59.5844 68.0994 61.2276C69.2212 62.8699 69.814 64.79 69.814 66.7786V68.2429C69.814 68.4266 69.6646 68.576 69.4809 68.576C69.2973 68.576 69.1479 68.4266 69.1479 68.2429V66.7786C69.1479 64.9241 68.5951 63.1344 67.5494 61.6034C66.5037 60.0715 65.0375 58.906 63.3105 58.2313L57.6567 56.022C56.809 57.5501 55.592 58.8041 54.12 59.6605C52.6576 60.5121 50.9744 60.9621 49.2541 60.9621C47.5329 60.9621 45.8506 60.5121 44.3882 59.6605C42.9162 58.8041 41.6993 57.5491 40.8515 56.022L39.9076 56.3902C39.8676 56.4054 39.8267 56.413 39.7868 56.413C39.7092 56.413 39.634 56.3858 39.5743 56.3362C39.5147 56.2866 39.4741 56.2178 39.4598 56.1415C39.4455 56.0653 39.4582 55.9864 39.4959 55.9185C39.5335 55.8507 39.5936 55.7981 39.6659 55.7698L42.6774 54.5928C42.7604 54.5602 42.8357 54.5107 42.8985 54.4475C42.9614 54.3842 43.0105 54.3087 43.0428 54.2256C43.3413 53.4462 43.4493 52.6069 43.3577 51.7774L43.3197 51.4367C40.8372 49.1703 39.2339 46.0418 38.8838 42.6392H38.5774C37.4489 42.6392 36.4832 41.8714 36.2291 40.7724L35.9684 39.6458C35.8019 38.9256 35.9694 38.1805 36.4299 37.6011C36.8904 37.0216 37.5764 36.6905 38.3158 36.6905ZM59.2438 28.0519C59.2438 26.5466 58.0193 25.3211 56.5131 25.3211C56.0451 25.3214 55.5867 25.1894 55.1905 24.9405L53.9983 24.1917C52.6582 23.3501 51.1077 22.9038 49.5253 22.9043H46.3644C44.4672 22.9043 42.6831 23.6436 41.3425 24.9852C40.0008 26.3278 39.2634 28.1118 39.2644 30.0091L39.2691 37.0159L39.2967 37.6154L40.3396 37.0178C40.4389 36.9608 40.5214 36.8786 40.5789 36.7796C40.6363 36.6805 40.6667 36.5681 40.6669 36.4536V32.9178C40.6669 31.4459 41.8639 30.2489 43.3358 30.2489H55.1733C56.6453 30.2489 57.8423 31.4459 57.8423 32.9178V36.4536C57.8423 36.6857 57.9679 36.9027 58.1696 37.0178L59.2162 37.6173L59.2438 37.015V28.0519ZM59.9308 41.9732C60.7472 41.9732 61.4465 41.4175 61.6311 40.6221L61.8918 39.4955C62.0127 38.9741 61.8909 38.4346 61.5579 38.0159C61.2248 37.5973 60.7272 37.3565 60.1915 37.3565H59.8947L59.6863 41.8647C59.6844 41.9009 59.6815 41.9361 59.6796 41.9722L59.9308 41.9732ZM57.0307 55.7765L55.8422 55.3122C55.5568 55.7384 53.6099 57.61 52.1581 58.2313C52.1581 59 52.0039 59.471 51.8564 60C55.2428 58.8915 56.5349 56.6519 57.0307 55.7765ZM43.6641 54.4644C43.5813 54.6794 43.4433 54.8678 43.2673 55.0105C44.6232 56.9906 46.8373 58.1628 49.2551 58.1628C51.6728 58.1628 53.886 56.9906 55.2428 55.0105C55.0668 54.8678 54.9288 54.6794 54.846 54.4644C54.552 53.7003 54.4217 52.8744 54.4626 52.0571C53.7528 52.6204 52.9821 53.118 52.1581 53.5376C51.2494 54.001 50.2532 54.2322 49.256 54.2322C48.2589 54.2322 47.2626 54.001 46.354 53.5376C45.53 53.118 44.7593 52.6204 44.0494 52.0571C44.0885 52.8744 43.9572 53.7003 43.6641 54.4644ZM46.6546 52.9449C48.2826 53.7746 50.2256 53.7746 51.8564 52.9429C56.0582 50.8021 58.8033 46.5451 59.0212 41.8343L59.181 38.3661L57.8385 37.5963C57.4303 37.3623 57.1762 36.9246 57.1762 36.4545V32.9188C57.1762 31.8141 56.278 30.9159 55.1733 30.9159H43.3339C42.2292 30.9159 41.331 31.8141 41.331 32.9188V36.4545C41.331 36.9255 41.077 37.3623 40.6688 37.5963L39.3291 38.3642L39.488 41.8324C39.7059 46.5442 42.4509 50.8021 46.6546 52.9449ZM36.6164 39.4955L36.8771 40.6221C37.0617 41.4175 37.7601 41.9732 38.5774 41.9732H38.8315C38.8296 41.9361 38.8258 41.8999 38.8248 41.8628L38.6183 37.3575H38.3167C37.782 37.3575 37.2834 37.5982 36.9504 38.0169C36.6173 38.4355 36.4955 38.9741 36.6164 39.4955Z" fill="#9A9A9A"/>
<path d="M38.3158 36.6905H38.6022L38.5983 30.0091C38.5974 27.9339 39.4043 25.9824 40.8715 24.5143C42.3387 23.047 44.2892 22.2383 46.3644 22.2383H49.5253C51.2351 22.2383 52.904 22.7188 54.3522 23.6275L55.5444 24.3763C55.8345 24.5588 56.1703 24.6554 56.5131 24.6551C58.3856 24.6551 59.9099 26.1784 59.9099 28.0519V36.6905H60.1915C60.9308 36.6905 61.6188 37.0226 62.0793 37.6011C62.5398 38.1796 62.7073 38.9256 62.5408 39.6458L62.28 40.7724C62.025 41.8714 61.0593 42.6392 59.9318 42.6392H59.6282C59.2781 46.0418 57.6739 49.1703 55.1895 51.4377L55.1515 51.7774C55.0601 52.6033 55.1686 53.4501 55.4664 54.2256C55.4985 54.3088 55.5476 54.3844 55.6105 54.4476C55.6734 54.5109 55.7487 54.5603 55.8318 54.5928L63.5531 57.61C65.4057 58.3341 66.9776 59.5844 68.0994 61.2276C69.2212 62.8699 69.814 64.79 69.814 66.7786V68.2429C69.814 68.4266 69.6646 68.576 69.4809 68.576C69.2973 68.576 69.1479 68.4266 69.1479 68.2429V66.7786C69.1479 64.9241 68.5951 63.1344 67.5494 61.6034C66.5037 60.0715 65.0375 58.906 63.3105 58.2313L57.6567 56.022C56.809 57.5501 55.592 58.8041 54.12 59.6605C52.6576 60.5121 50.9744 60.9621 49.2541 60.9621C47.5329 60.9621 45.8506 60.5121 44.3882 59.6605C42.9162 58.8041 41.6993 57.5491 40.8515 56.022L39.9076 56.3902C39.8676 56.4054 39.8267 56.413 39.7868 56.413C39.7092 56.413 39.634 56.3858 39.5743 56.3362C39.5147 56.2866 39.4741 56.2178 39.4598 56.1415C39.4455 56.0653 39.4582 55.9864 39.4959 55.9185C39.5335 55.8507 39.5936 55.7981 39.6659 55.7698L42.6774 54.5928C42.7604 54.5602 42.8357 54.5107 42.8985 54.4475C42.9614 54.3842 43.0105 54.3087 43.0428 54.2256C43.3413 53.4462 43.4493 52.6069 43.3577 51.7774L43.3197 51.4367C40.8372 49.1703 39.2339 46.0418 38.8838 42.6392H38.5774C37.4489 42.6392 36.4832 41.8714 36.2291 40.7724L35.9684 39.6458C35.8019 38.9256 35.9694 38.1805 36.4299 37.6011C36.8904 37.0216 37.5764 36.6905 38.3158 36.6905ZM59.2438 28.0519C59.2438 26.5466 58.0193 25.3211 56.5131 25.3211C56.0451 25.3214 55.5867 25.1894 55.1905 24.9405L53.9983 24.1917C52.6582 23.3501 51.1077 22.9038 49.5253 22.9043H46.3644C44.4672 22.9043 42.6831 23.6436 41.3425 24.9852C40.0008 26.3278 39.2634 28.1118 39.2644 30.0091L39.2691 37.0159L39.2967 37.6154L40.3396 37.0178C40.4389 36.9608 40.5214 36.8786 40.5789 36.7796C40.6363 36.6805 40.6667 36.5681 40.6669 36.4536V32.9178C40.6669 31.4459 41.8639 30.2489 43.3358 30.2489H55.1733C56.6453 30.2489 57.8423 31.4459 57.8423 32.9178V36.4536C57.8423 36.6857 57.9679 36.9027 58.1696 37.0178L59.2162 37.6173L59.2438 37.015V28.0519ZM59.9308 41.9732C60.7472 41.9732 61.4465 41.4175 61.6311 40.6221L61.8918 39.4955C62.0127 38.9741 61.8909 38.4346 61.5579 38.0159C61.2248 37.5973 60.7272 37.3565 60.1915 37.3565H59.8947L59.6863 41.8647C59.6844 41.9009 59.6815 41.9361 59.6796 41.9722L59.9308 41.9732ZM57.0307 55.7765L55.8422 55.3122C55.5568 55.7384 53.6099 57.61 52.1581 58.2313C52.1581 59 52.0039 59.471 51.8564 60C55.2428 58.8915 56.5349 56.6519 57.0307 55.7765ZM43.6641 54.4644C43.5813 54.6794 43.4433 54.8678 43.2673 55.0105C44.6232 56.9906 46.8373 58.1628 49.2551 58.1628C51.6728 58.1628 53.886 56.9906 55.2428 55.0105C55.0668 54.8678 54.9288 54.6794 54.846 54.4644C54.552 53.7003 54.4217 52.8744 54.4626 52.0571C53.7528 52.6204 52.9821 53.118 52.1581 53.5376C51.2494 54.001 50.2532 54.2322 49.256 54.2322C48.2589 54.2322 47.2626 54.001 46.354 53.5376C45.53 53.118 44.7593 52.6204 44.0494 52.0571C44.0885 52.8744 43.9572 53.7003 43.6641 54.4644ZM46.6546 52.9449C48.2826 53.7746 50.2256 53.7746 51.8564 52.9429C56.0582 50.8021 58.8033 46.5451 59.0212 41.8343L59.181 38.3661L57.8385 37.5963C57.4303 37.3623 57.1762 36.9246 57.1762 36.4545V32.9188C57.1762 31.8141 56.278 30.9159 55.1733 30.9159H43.3339C42.2292 30.9159 41.331 31.8141 41.331 32.9188V36.4545C41.331 36.9255 41.077 37.3623 40.6688 37.5963L39.3291 38.3642L39.488 41.8324C39.7059 46.5442 42.4509 50.8021 46.6546 52.9449ZM36.6164 39.4955L36.8771 40.6221C37.0617 41.4175 37.7601 41.9732 38.5774 41.9732H38.8315C38.8296 41.9361 38.8258 41.8999 38.8248 41.8628L38.6183 37.3575H38.3167C37.782 37.3575 37.2834 37.5982 36.9504 38.0169C36.6173 38.4355 36.4955 38.9741 36.6164 39.4955Z" stroke="#9A9A9A" stroke-width="0.4" mask="url(#path-1-outside-1_74545_169655)"/>
<mask id="path-2-outside-2_74545_169655" maskUnits="userSpaceOnUse" x="6.50269" y="7.08887" width="26" height="37" fill="black">
<rect fill="white" x="6.50269" y="7.08887" width="26" height="37"/>
<path d="M29.3986 21.1178H29.1404L29.1439 15.0944C29.1447 13.2236 28.4173 11.4643 27.0946 10.1407C25.7719 8.81798 24.0134 8.08887 22.1426 8.08887H19.2931C17.7516 8.08887 16.2471 8.52205 14.9415 9.34123L13.8667 10.0163C13.6052 10.1808 13.3024 10.268 12.9935 10.2676C11.3054 10.2676 9.93118 11.641 9.93118 13.3299V21.1178H9.67727C9.01078 21.1178 8.3906 21.4171 7.97543 21.9387C7.56026 22.4602 7.40929 23.1327 7.5594 23.7821L7.79444 24.7977C8.02432 25.7884 8.89498 26.4806 9.91145 26.4806H10.1851C10.5008 29.5481 11.947 32.3685 14.1867 34.4126L14.221 34.7188C14.3033 35.4634 14.2055 36.2268 13.937 36.9259C13.9081 37.0009 13.8639 37.0691 13.8072 37.1261C13.7505 37.1831 13.6825 37.2277 13.6077 37.257L10.948 38.2961C10.7932 38.3566 10.7168 38.531 10.7773 38.6857C10.8378 38.8404 11.0122 38.9167 11.1669 38.8563L11.9624 38.5454C12.7267 39.923 13.8238 41.0536 15.1508 41.8256C16.4692 42.5933 17.9866 42.999 19.5375 42.999C21.0893 42.999 22.6058 42.5933 23.9242 41.8256C25.2512 41.0536 26.3483 39.9221 27.1126 38.5454L27.9635 38.8774C27.9996 38.8911 28.0365 38.898 28.0725 38.898C28.1424 38.8979 28.2102 38.8734 28.264 38.8287C28.3178 38.784 28.3543 38.7219 28.3672 38.6532C28.3801 38.5844 28.3686 38.5133 28.3347 38.4521C28.3008 38.391 28.2466 38.3435 28.1814 38.3181L25.4665 37.257C25.3917 37.2276 25.3239 37.1829 25.2672 37.1259C25.2105 37.069 25.1662 37.0008 25.1371 36.9259C24.868 36.2233 24.7706 35.4666 24.8532 34.7188L24.8875 34.4117C27.1255 32.3685 28.5709 29.5481 28.8865 26.4806H29.1627C30.1801 26.4806 31.0507 25.7884 31.2797 24.7977L31.5148 23.7821C31.6649 23.1327 31.5139 22.4611 31.0987 21.9387C30.6836 21.4163 30.0651 21.1178 29.3986 21.1178ZM10.5316 13.3299C10.5316 11.9729 11.6356 10.8681 12.9935 10.8681C13.4153 10.8683 13.8286 10.7494 14.1858 10.525L15.2606 9.8499C16.4687 9.09115 17.8665 8.68886 19.2931 8.68932H22.1426C23.853 8.68932 25.4614 9.35582 26.67 10.5653C27.8795 11.7756 28.5443 13.384 28.5434 15.0944L28.5391 21.4111L28.5142 21.9515L27.5741 21.4129C27.4846 21.3615 27.4102 21.2874 27.3584 21.1981C27.3066 21.1088 27.2792 21.0074 27.279 20.9042V17.7167C27.279 16.3897 26.1999 15.3106 24.8729 15.3106H14.2012C12.8742 15.3106 11.7952 16.3897 11.7952 17.7167V20.9042C11.7952 21.1135 11.6819 21.3091 11.5001 21.4129L10.5565 21.9533L10.5316 21.4103V13.3299ZM9.91231 25.8802C9.17633 25.8802 8.54586 25.3793 8.37945 24.6621L8.14441 23.6465C8.03547 23.1765 8.14527 22.6901 8.44549 22.3127C8.74572 21.9352 9.19434 21.7182 9.67727 21.7182H9.9449L10.1328 25.7824C10.1345 25.815 10.137 25.8467 10.1388 25.8793L9.91231 25.8802ZM12.5268 38.3241L13.5982 37.9055C13.8556 38.2898 14.1446 38.644 14.462 38.9657C14.1343 39.3723 14.0408 39.9041 14.1738 40.3811C13.5313 39.8038 12.9737 39.1133 12.5268 38.3241ZM24.577 37.1412C24.6516 37.3351 24.776 37.5049 24.9347 37.6336C23.7124 39.4186 21.7163 40.4754 19.5367 40.4754C17.357 40.4754 15.3618 39.4186 14.1386 37.6336C14.2973 37.5049 14.4217 37.3351 14.4963 37.1412C14.7614 36.4524 14.8789 35.7078 14.842 34.971C15.4819 35.4788 16.1767 35.9274 16.9196 36.3057C17.7387 36.7235 18.6368 36.9319 19.5358 36.9319C20.4348 36.9319 21.3329 36.7235 22.152 36.3057C22.8949 35.9274 23.5897 35.4788 24.2296 34.971C24.1944 35.7078 24.3128 36.4524 24.577 37.1412ZM21.881 35.7713C20.4133 36.5193 18.6617 36.5193 17.1915 35.7696C13.4035 33.8396 10.9288 30.0019 10.7324 25.755L10.5882 22.6283L11.7986 21.9344C12.1666 21.7234 12.3956 21.3288 12.3956 20.905V17.7175C12.3956 16.7216 13.2054 15.9119 14.2012 15.9119H24.8747C25.8705 15.9119 26.6803 16.7216 26.6803 17.7175V20.905C26.6803 21.3296 26.9093 21.7234 27.2773 21.9344L28.4851 22.6266L28.3418 25.7532C28.1454 30.001 25.6707 33.8396 21.881 35.7713ZM30.9306 23.6465L30.6956 24.6621C30.5292 25.3793 29.8996 25.8802 29.1627 25.8802H28.9337C28.9354 25.8467 28.9388 25.8141 28.9397 25.7807L29.1258 21.7191H29.3978C29.8798 21.7191 30.3293 21.9361 30.6295 22.3135C30.9298 22.691 31.0396 23.1765 30.9306 23.6465Z"/>
</mask>
<path d="M29.3986 21.1178H29.1404L29.1439 15.0944C29.1447 13.2236 28.4173 11.4643 27.0946 10.1407C25.7719 8.81798 24.0134 8.08887 22.1426 8.08887H19.2931C17.7516 8.08887 16.2471 8.52205 14.9415 9.34123L13.8667 10.0163C13.6052 10.1808 13.3024 10.268 12.9935 10.2676C11.3054 10.2676 9.93118 11.641 9.93118 13.3299V21.1178H9.67727C9.01078 21.1178 8.3906 21.4171 7.97543 21.9387C7.56026 22.4602 7.40929 23.1327 7.5594 23.7821L7.79444 24.7977C8.02432 25.7884 8.89498 26.4806 9.91145 26.4806H10.1851C10.5008 29.5481 11.947 32.3685 14.1867 34.4126L14.221 34.7188C14.3033 35.4634 14.2055 36.2268 13.937 36.9259C13.9081 37.0009 13.8639 37.0691 13.8072 37.1261C13.7505 37.1831 13.6825 37.2277 13.6077 37.257L10.948 38.2961C10.7932 38.3566 10.7168 38.531 10.7773 38.6857C10.8378 38.8404 11.0122 38.9167 11.1669 38.8563L11.9624 38.5454C12.7267 39.923 13.8238 41.0536 15.1508 41.8256C16.4692 42.5933 17.9866 42.999 19.5375 42.999C21.0893 42.999 22.6058 42.5933 23.9242 41.8256C25.2512 41.0536 26.3483 39.9221 27.1126 38.5454L27.9635 38.8774C27.9996 38.8911 28.0365 38.898 28.0725 38.898C28.1424 38.8979 28.2102 38.8734 28.264 38.8287C28.3178 38.784 28.3543 38.7219 28.3672 38.6532C28.3801 38.5844 28.3686 38.5133 28.3347 38.4521C28.3008 38.391 28.2466 38.3435 28.1814 38.3181L25.4665 37.257C25.3917 37.2276 25.3239 37.1829 25.2672 37.1259C25.2105 37.069 25.1662 37.0008 25.1371 36.9259C24.868 36.2233 24.7706 35.4666 24.8532 34.7188L24.8875 34.4117C27.1255 32.3685 28.5709 29.5481 28.8865 26.4806H29.1627C30.1801 26.4806 31.0507 25.7884 31.2797 24.7977L31.5148 23.7821C31.6649 23.1327 31.5139 22.4611 31.0987 21.9387C30.6836 21.4163 30.0651 21.1178 29.3986 21.1178ZM10.5316 13.3299C10.5316 11.9729 11.6356 10.8681 12.9935 10.8681C13.4153 10.8683 13.8286 10.7494 14.1858 10.525L15.2606 9.8499C16.4687 9.09115 17.8665 8.68886 19.2931 8.68932H22.1426C23.853 8.68932 25.4614 9.35582 26.67 10.5653C27.8795 11.7756 28.5443 13.384 28.5434 15.0944L28.5391 21.4111L28.5142 21.9515L27.5741 21.4129C27.4846 21.3615 27.4102 21.2874 27.3584 21.1981C27.3066 21.1088 27.2792 21.0074 27.279 20.9042V17.7167C27.279 16.3897 26.1999 15.3106 24.8729 15.3106H14.2012C12.8742 15.3106 11.7952 16.3897 11.7952 17.7167V20.9042C11.7952 21.1135 11.6819 21.3091 11.5001 21.4129L10.5565 21.9533L10.5316 21.4103V13.3299ZM9.91231 25.8802C9.17633 25.8802 8.54586 25.3793 8.37945 24.6621L8.14441 23.6465C8.03547 23.1765 8.14527 22.6901 8.44549 22.3127C8.74572 21.9352 9.19434 21.7182 9.67727 21.7182H9.9449L10.1328 25.7824C10.1345 25.815 10.137 25.8467 10.1388 25.8793L9.91231 25.8802ZM12.5268 38.3241L13.5982 37.9055C13.8556 38.2898 14.1446 38.644 14.462 38.9657C14.1343 39.3723 14.0408 39.9041 14.1738 40.3811C13.5313 39.8038 12.9737 39.1133 12.5268 38.3241ZM24.577 37.1412C24.6516 37.3351 24.776 37.5049 24.9347 37.6336C23.7124 39.4186 21.7163 40.4754 19.5367 40.4754C17.357 40.4754 15.3618 39.4186 14.1386 37.6336C14.2973 37.5049 14.4217 37.3351 14.4963 37.1412C14.7614 36.4524 14.8789 35.7078 14.842 34.971C15.4819 35.4788 16.1767 35.9274 16.9196 36.3057C17.7387 36.7235 18.6368 36.9319 19.5358 36.9319C20.4348 36.9319 21.3329 36.7235 22.152 36.3057C22.8949 35.9274 23.5897 35.4788 24.2296 34.971C24.1944 35.7078 24.3128 36.4524 24.577 37.1412ZM21.881 35.7713C20.4133 36.5193 18.6617 36.5193 17.1915 35.7696C13.4035 33.8396 10.9288 30.0019 10.7324 25.755L10.5882 22.6283L11.7986 21.9344C12.1666 21.7234 12.3956 21.3288 12.3956 20.905V17.7175C12.3956 16.7216 13.2054 15.9119 14.2012 15.9119H24.8747C25.8705 15.9119 26.6803 16.7216 26.6803 17.7175V20.905C26.6803 21.3296 26.9093 21.7234 27.2773 21.9344L28.4851 22.6266L28.3418 25.7532C28.1454 30.001 25.6707 33.8396 21.881 35.7713ZM30.9306 23.6465L30.6956 24.6621C30.5292 25.3793 29.8996 25.8802 29.1627 25.8802H28.9337C28.9354 25.8467 28.9388 25.8141 28.9397 25.7807L29.1258 21.7191H29.3978C29.8798 21.7191 30.3293 21.9361 30.6295 22.3135C30.9298 22.691 31.0396 23.1765 30.9306 23.6465Z" fill="#0166FF"/>
<path d="M29.3986 21.1178H29.1404L29.1439 15.0944C29.1447 13.2236 28.4173 11.4643 27.0946 10.1407C25.7719 8.81798 24.0134 8.08887 22.1426 8.08887H19.2931C17.7516 8.08887 16.2471 8.52205 14.9415 9.34123L13.8667 10.0163C13.6052 10.1808 13.3024 10.268 12.9935 10.2676C11.3054 10.2676 9.93118 11.641 9.93118 13.3299V21.1178H9.67727C9.01078 21.1178 8.3906 21.4171 7.97543 21.9387C7.56026 22.4602 7.40929 23.1327 7.5594 23.7821L7.79444 24.7977C8.02432 25.7884 8.89498 26.4806 9.91145 26.4806H10.1851C10.5008 29.5481 11.947 32.3685 14.1867 34.4126L14.221 34.7188C14.3033 35.4634 14.2055 36.2268 13.937 36.9259C13.9081 37.0009 13.8639 37.0691 13.8072 37.1261C13.7505 37.1831 13.6825 37.2277 13.6077 37.257L10.948 38.2961C10.7932 38.3566 10.7168 38.531 10.7773 38.6857C10.8378 38.8404 11.0122 38.9167 11.1669 38.8563L11.9624 38.5454C12.7267 39.923 13.8238 41.0536 15.1508 41.8256C16.4692 42.5933 17.9866 42.999 19.5375 42.999C21.0893 42.999 22.6058 42.5933 23.9242 41.8256C25.2512 41.0536 26.3483 39.9221 27.1126 38.5454L27.9635 38.8774C27.9996 38.8911 28.0365 38.898 28.0725 38.898C28.1424 38.8979 28.2102 38.8734 28.264 38.8287C28.3178 38.784 28.3543 38.7219 28.3672 38.6532C28.3801 38.5844 28.3686 38.5133 28.3347 38.4521C28.3008 38.391 28.2466 38.3435 28.1814 38.3181L25.4665 37.257C25.3917 37.2276 25.3239 37.1829 25.2672 37.1259C25.2105 37.069 25.1662 37.0008 25.1371 36.9259C24.868 36.2233 24.7706 35.4666 24.8532 34.7188L24.8875 34.4117C27.1255 32.3685 28.5709 29.5481 28.8865 26.4806H29.1627C30.1801 26.4806 31.0507 25.7884 31.2797 24.7977L31.5148 23.7821C31.6649 23.1327 31.5139 22.4611 31.0987 21.9387C30.6836 21.4163 30.0651 21.1178 29.3986 21.1178ZM10.5316 13.3299C10.5316 11.9729 11.6356 10.8681 12.9935 10.8681C13.4153 10.8683 13.8286 10.7494 14.1858 10.525L15.2606 9.8499C16.4687 9.09115 17.8665 8.68886 19.2931 8.68932H22.1426C23.853 8.68932 25.4614 9.35582 26.67 10.5653C27.8795 11.7756 28.5443 13.384 28.5434 15.0944L28.5391 21.4111L28.5142 21.9515L27.5741 21.4129C27.4846 21.3615 27.4102 21.2874 27.3584 21.1981C27.3066 21.1088 27.2792 21.0074 27.279 20.9042V17.7167C27.279 16.3897 26.1999 15.3106 24.8729 15.3106H14.2012C12.8742 15.3106 11.7952 16.3897 11.7952 17.7167V20.9042C11.7952 21.1135 11.6819 21.3091 11.5001 21.4129L10.5565 21.9533L10.5316 21.4103V13.3299ZM9.91231 25.8802C9.17633 25.8802 8.54586 25.3793 8.37945 24.6621L8.14441 23.6465C8.03547 23.1765 8.14527 22.6901 8.44549 22.3127C8.74572 21.9352 9.19434 21.7182 9.67727 21.7182H9.9449L10.1328 25.7824C10.1345 25.815 10.137 25.8467 10.1388 25.8793L9.91231 25.8802ZM12.5268 38.3241L13.5982 37.9055C13.8556 38.2898 14.1446 38.644 14.462 38.9657C14.1343 39.3723 14.0408 39.9041 14.1738 40.3811C13.5313 39.8038 12.9737 39.1133 12.5268 38.3241ZM24.577 37.1412C24.6516 37.3351 24.776 37.5049 24.9347 37.6336C23.7124 39.4186 21.7163 40.4754 19.5367 40.4754C17.357 40.4754 15.3618 39.4186 14.1386 37.6336C14.2973 37.5049 14.4217 37.3351 14.4963 37.1412C14.7614 36.4524 14.8789 35.7078 14.842 34.971C15.4819 35.4788 16.1767 35.9274 16.9196 36.3057C17.7387 36.7235 18.6368 36.9319 19.5358 36.9319C20.4348 36.9319 21.3329 36.7235 22.152 36.3057C22.8949 35.9274 23.5897 35.4788 24.2296 34.971C24.1944 35.7078 24.3128 36.4524 24.577 37.1412ZM21.881 35.7713C20.4133 36.5193 18.6617 36.5193 17.1915 35.7696C13.4035 33.8396 10.9288 30.0019 10.7324 25.755L10.5882 22.6283L11.7986 21.9344C12.1666 21.7234 12.3956 21.3288 12.3956 20.905V17.7175C12.3956 16.7216 13.2054 15.9119 14.2012 15.9119H24.8747C25.8705 15.9119 26.6803 16.7216 26.6803 17.7175V20.905C26.6803 21.3296 26.9093 21.7234 27.2773 21.9344L28.4851 22.6266L28.3418 25.7532C28.1454 30.001 25.6707 33.8396 21.881 35.7713ZM30.9306 23.6465L30.6956 24.6621C30.5292 25.3793 29.8996 25.8802 29.1627 25.8802H28.9337C28.9354 25.8467 28.9388 25.8141 28.9397 25.7807L29.1258 21.7191H29.3978C29.8798 21.7191 30.3293 21.9361 30.6295 22.3135C30.9298 22.691 31.0396 23.1765 30.9306 23.6465Z" stroke="#0166FF" stroke-width="0.5" mask="url(#path-2-outside-2_74545_169655)"/>
<path d="M17.1892 53.7012C17.1892 59.6116 21.4579 64.8654 28.6817 64.8654" stroke="#9A9A9A" stroke-width="1.25" stroke-linecap="round"/>
<path d="M7.53247 51.6719C7.53247 63.4928 16.0698 74.0002 30.5175 74.0002" stroke="#0166FF" stroke-width="1.25" stroke-linecap="round"/>
<path d="M63.4878 26.2988C63.4878 20.3884 59.2191 15.1346 51.9953 15.1346" stroke="#9A9A9A" stroke-width="1.25" stroke-linecap="round"/>
<path d="M73.1443 28.3281C73.1443 16.5072 64.607 5.99977 50.1592 5.99977" stroke="#0166FF" stroke-width="1.25" stroke-linecap="round"/>
</svg>
