<svg width="24" height="24" viewBox="0 0 24 24" fill="none" xmlns="http://www.w3.org/2000/svg">
<path d="M8.81994 16.2477L4.78094 20.2882C4.7112 20.3579 4.62842 20.4132 4.53731 20.451C4.4462 20.4887 4.34855 20.5082 4.24994 20.5082C4.15132 20.5082 4.05367 20.4887 3.96256 20.451C3.87145 20.4132 3.78867 20.3579 3.71894 20.2882C3.6492 20.2185 3.59389 20.1357 3.55615 20.0446C3.51841 19.9535 3.49899 19.8558 3.49899 19.7572C3.49899 19.6586 3.51841 19.5609 3.55615 19.4698C3.59389 19.3787 3.6492 19.2959 3.71894 19.2262L19.2189 3.7262C19.2887 3.65647 19.3715 3.60116 19.4626 3.56342C19.5537 3.52568 19.6513 3.50626 19.7499 3.50626C19.8486 3.50626 19.9462 3.52568 20.0373 3.56342C20.1284 3.60116 20.2112 3.65647 20.2809 3.7262C20.3507 3.79594 20.406 3.87872 20.4437 3.96983C20.4815 4.06094 20.5009 4.15859 20.5009 4.2572C20.5009 4.35582 20.4815 4.45347 20.4437 4.54458C20.406 4.63569 20.3507 4.71847 20.2809 4.7882L17.4359 7.6332C18.0954 8.10034 18.6887 8.65434 19.1999 9.2802C19.9238 10.1684 20.4905 11.1739 20.8754 12.2532C20.9069 12.3447 20.9459 12.4707 20.9459 12.4707L20.9729 12.5637C20.9729 12.5637 21.0869 13.3092 20.4404 13.4802C20.2483 13.531 20.0438 13.5034 19.872 13.4036C19.7002 13.3037 19.575 13.1398 19.5239 12.9477L19.5224 12.9432L19.4579 12.7422C19.131 11.831 18.6517 10.9819 18.0404 10.2312C17.5599 9.64059 16.9912 9.12757 16.3544 8.7102L13.9874 11.0772C14.4651 11.3766 14.8691 11.7798 15.1694 12.2569C15.4697 12.7339 15.6587 13.2726 15.7221 13.8327C15.7855 14.3928 15.7218 14.9601 15.5358 15.4922C15.3498 16.0244 15.0462 16.5077 14.6476 16.9063C14.2489 17.3049 13.7656 17.6085 13.2334 17.7946C12.7013 17.9806 12.1341 18.0443 11.5739 17.9809C11.0138 17.9174 10.4752 17.7285 9.99809 17.4282C9.52103 17.1279 9.11782 16.7239 8.81844 16.2462L8.81994 16.2477ZM9.92994 15.1377C10.0739 15.4767 10.2989 15.7752 10.5852 16.007C10.8714 16.2387 11.2102 16.3966 11.5718 16.4669C11.9333 16.5371 12.3066 16.5175 12.6588 16.4098C13.0111 16.3021 13.3315 16.1096 13.5919 15.8492C13.8523 15.5887 14.0449 15.2683 14.1526 14.9161C14.2603 14.5639 14.2799 14.1906 14.2096 13.8291C14.1394 13.4675 13.9814 13.1287 13.7497 12.8424C13.5179 12.5562 13.2194 12.3312 12.8804 12.1872L9.92694 15.1392L9.92994 15.1377ZM14.5199 6.3072L13.2389 7.5882C12.8489 7.5357 12.4364 7.5072 11.9999 7.5072C8.93394 7.5072 7.07094 8.8752 5.95794 10.2327C5.34657 10.9833 4.86724 11.8324 4.54044 12.7437C4.51494 12.8157 4.49844 12.8712 4.48794 12.9072L4.47594 12.9447V12.9492L4.47444 12.9507C4.41894 13.1379 4.29262 13.2961 4.12234 13.3916C3.95206 13.4871 3.75123 13.5125 3.56255 13.4623C3.37386 13.4121 3.21219 13.2903 3.11189 13.1228C3.01159 12.9553 2.98058 12.7552 3.02544 12.5652V12.5607L3.02694 12.5547L3.03294 12.5352C3.05893 12.4405 3.08896 12.3469 3.12294 12.2547C3.50787 11.1754 4.07454 10.1699 4.79844 9.2817C6.14244 7.6392 8.40594 6.0072 11.9969 6.0072C12.9239 6.0072 13.7624 6.1152 14.5184 6.3057L14.5199 6.3072Z" fill="#5A5E66"/>
</svg>
