<svg width="16" height="16" viewBox="0 0 16 16" fill="none" xmlns="http://www.w3.org/2000/svg">
<path d="M7.33123 10.4923L11.29 6.34556C11.3962 6.23433 11.4558 6.08346 11.4558 5.92615C11.4558 5.76884 11.3962 5.61797 11.29 5.50673C11.1838 5.3955 11.0398 5.33301 10.8896 5.33301C10.7394 5.33301 10.5954 5.3955 10.4892 5.50673L6.93083 9.23525L5.63462 7.8763C5.58204 7.82122 5.51962 7.77753 5.45092 7.74773C5.38222 7.71792 5.30858 7.70257 5.23422 7.70257C5.08404 7.70257 4.94001 7.76507 4.83382 7.8763C4.78124 7.93138 4.73953 7.99677 4.71107 8.06873C4.68262 8.14069 4.66797 8.21782 4.66797 8.29572C4.66797 8.37361 4.68262 8.45074 4.71107 8.5227C4.73953 8.59466 4.78124 8.66005 4.83382 8.71513L6.53043 10.4923C6.58297 10.5475 6.64537 10.5912 6.71408 10.6211C6.78279 10.651 6.85645 10.6663 6.93083 10.6663C7.00522 10.6663 7.07888 10.651 7.14759 10.6211C7.21629 10.5912 7.2787 10.5475 7.33123 10.4923Z" fill="#35D487"/>
<circle cx="8" cy="8" r="6.4" stroke="#35D487" stroke-width="1.2"/>
</svg>
