<svg xmlns="http://www.w3.org/2000/svg" width="18" height="18" fill="none" viewBox="0 0 18 18">
  <path fill="url(#a)" d="M5.201 15.949a2.212 2.212 0 0 0-3.128-3.128c-.616.615-.858 1.568-.935 2.432-.043.489-.04.98.009 1.468a.18.18 0 0 0 .15.154h.006c.05 0 .757.016.975-.672.039-.129.096-.251.17-.364a.239.239 0 0 1 .435.168c-.035.262.019.529.154.756a.147.147 0 0 0 .149.07c.739-.112 1.497-.365 2.015-.884Z"/>
  <path fill="#fff" d="M16.862 2.522c-.046-.768-.595-1.317-1.362-1.363-2.61-.155-5.517.95-7.784 3.218l-.603.603c-.217.217-.424.44-.621.67H4.585a1.183 1.183 0 0 0-.965.592L2.497 8.486a1.16 1.16 0 0 0-.062.249.552.552 0 0 0 .545.545H4.4c-.186.618-.062 1.227.331 1.62l2.393 2.392c.393.393 1.001.516 1.62.332v1.416a.552.552 0 0 0 .545.546c.085-.012.168-.033.249-.063l2.238-1.12a1.186 1.186 0 0 0 .591-.965V11.53c.23-.196.454-.403.672-.62l.604-.602c2.269-2.271 3.375-5.178 3.22-7.787Z"/>
  <path fill="#702FFE" d="M13.383 6.823a1.875 1.875 0 1 0-.732-3.677 1.875 1.875 0 0 0 .732 3.677Z"/>
  <defs>
    <linearGradient id="a" x1="4.763" x2="1.635" y1="16.387" y2="13.259" gradientUnits="userSpaceOnUse">
      <stop stop-color="#FE7838"/>
      <stop offset=".54" stop-color="#FE7636"/>
      <stop offset="1" stop-color="#FFAD8A"/>
    </linearGradient>
  </defs>
</svg>
