<svg width="24" height="24" viewBox="0 0 24 24" fill="none" xmlns="http://www.w3.org/2000/svg">
<path d="M19.9 18.9259L17.4119 16.1607C17.2761 16.0098 17.0903 15.9217 16.8903 15.9146C16.692 15.9074 16.4991 15.9792 16.3526 16.1194L16.3169 16.1535C16.0151 16.441 15.9972 16.9279 16.2758 17.2388L18.764 20.004C18.8998 20.1549 19.0855 20.243 19.2856 20.2502H19.3142C19.5035 20.2502 19.6839 20.1783 19.8232 20.0453L19.859 20.0112C20.0054 19.871 20.0894 19.6824 20.0983 19.4775C20.1055 19.2727 20.0358 19.0769 19.9 18.9259Z" fill="#9A9A9A"/>
<path d="M16.5996 10.002C16.5996 6.90916 14.0928 4.40234 11 4.40234C7.90721 4.40234 5.40039 6.90916 5.40039 10.002C5.40039 13.0947 7.90721 15.6016 11 15.6016V16.3018V17.002C7.13401 17.002 4 13.8679 4 10.002C4 6.13596 7.13401 3.00195 11 3.00195C14.866 3.00195 18 6.13596 18 10.002C18 13.8679 14.866 17.002 11 17.002V16.3018V15.6016C14.0928 15.6016 16.5996 13.0947 16.5996 10.002Z" fill="#9A9A9A"/>
</svg>
