<svg width="24" height="24" viewBox="0 0 24 24" fill="none" xmlns="http://www.w3.org/2000/svg">
<path d="M11.9997 16.5007C12.4417 16.5007 12.8656 16.6762 13.1782 16.9888C13.4907 17.3014 13.6663 17.7253 13.6663 18.1673C13.6663 18.6093 13.4907 19.0333 13.1782 19.3458C12.8656 19.6584 12.4417 19.834 11.9997 19.834C11.5576 19.834 11.1337 19.6584 10.8212 19.3458C10.5086 19.0333 10.333 18.6093 10.333 18.1673C10.333 17.7253 10.5086 17.3014 10.8212 16.9888C11.1337 16.6762 11.5576 16.5007 11.9997 16.5007ZM11.9997 10.6673C12.4417 10.6673 12.8656 10.8429 13.1782 11.1555C13.4907 11.468 13.6663 11.892 13.6663 12.334C13.6663 12.776 13.4907 13.1999 13.1782 13.5125C12.8656 13.8251 12.4417 14.0007 11.9997 14.0007C11.5576 14.0007 11.1337 13.8251 10.8212 13.5125C10.5086 13.1999 10.333 12.776 10.333 12.334C10.333 11.892 10.5086 11.468 10.8212 11.1555C11.1337 10.8429 11.5576 10.6673 11.9997 10.6673ZM11.9997 4.83398C12.4417 4.83398 12.8656 5.00958 13.1782 5.32214C13.4907 5.6347 13.6663 6.05862 13.6663 6.50065C13.6663 6.94268 13.4907 7.3666 13.1782 7.67916C12.8656 7.99172 12.4417 8.16732 11.9997 8.16732C11.5576 8.16732 11.1337 7.99172 10.8212 7.67916C10.5086 7.3666 10.333 6.94268 10.333 6.50065C10.333 6.05862 10.5086 5.6347 10.8212 5.32214C11.1337 5.00958 11.5576 4.83398 11.9997 4.83398Z" fill="white"/>
</svg>
