<svg width="24" height="25" viewBox="0 0 24 25" fill="none" xmlns="http://www.w3.org/2000/svg">
<g clip-path="url(#clip0_66963_454222)">
<path d="M21.5665 16.1484V8.83084C21.5665 8.72508 21.5385 8.62121 21.4854 8.52975C21.4323 8.43829 21.356 8.36249 21.2641 8.31004L14.2703 4.31212C14.3224 4.11796 14.3526 3.91516 14.3526 3.70468C14.3524 2.40628 13.2961 1.35004 11.9977 1.35004C10.6993 1.35004 9.64311 2.40628 9.64311 3.70468C9.64311 3.91516 9.67335 4.11796 9.72543 4.31212L2.73135 8.31004C2.63952 8.36249 2.56318 8.43829 2.51007 8.52975C2.45697 8.62121 2.42898 8.72508 2.42895 8.83084V16.1484C1.42095 16.4148 0.673828 17.3319 0.673828 18.4229C0.673828 19.7213 1.73031 20.7773 3.02847 20.7773C3.34094 20.7774 3.65029 20.7151 3.93837 20.5941C4.22645 20.4731 4.48745 20.2957 4.70607 20.0724L11.7001 24.0708C11.7908 24.1227 11.8935 24.1501 11.998 24.1501C12.1025 24.1501 12.2051 24.1227 12.2958 24.0708L19.2899 20.0724C19.5085 20.2957 19.7695 20.4731 20.0576 20.5942C20.3457 20.7153 20.655 20.7776 20.9675 20.7776C22.2659 20.7776 23.3219 19.7211 23.3219 18.4229C23.3219 17.3319 22.575 16.4146 21.5665 16.1484ZM11.9977 2.55004C12.6345 2.55004 13.1524 3.06796 13.1524 3.70468C13.1524 4.3414 12.6345 4.85932 11.9977 4.85932C11.361 4.85932 10.8431 4.3414 10.8431 3.70468C10.8431 3.06796 11.361 2.55004 11.9977 2.55004ZM3.02823 19.5776C2.39175 19.5776 1.87383 19.0596 1.87383 18.4229C1.87383 17.7862 2.39175 17.2683 3.02823 17.2683C3.66471 17.2683 4.18287 17.7862 4.18287 18.4227C4.18287 19.0592 3.66471 19.5776 3.02823 19.5776ZM18.6126 18.4229C18.6126 18.6332 18.6429 18.836 18.6947 19.0301L11.9977 22.8588L5.30079 19.0301C5.35461 18.8322 5.3822 18.628 5.38287 18.4229C5.38287 17.3324 4.63671 16.4153 3.62895 16.1487V9.17908L10.3201 5.35444C10.7478 5.78884 11.3416 6.05932 11.9977 6.05932C12.6539 6.05932 13.2477 5.78884 13.6753 5.35444L20.3665 9.17884V16.1484C19.3585 16.4151 18.6126 17.3324 18.6126 18.4229ZM20.967 19.5773C20.3305 19.5773 19.8126 19.0596 19.8126 18.4229C19.8126 17.7862 20.3305 17.2683 20.967 17.2683C21.6035 17.2683 22.1219 17.7862 22.1219 18.4227C22.1219 19.0592 21.6035 19.5773 20.967 19.5773Z" fill="#5A5E66"/>
<path d="M19.9149 8.76076C20.2543 8.57569 20.679 8.70068 20.8641 9.04005C21.0492 9.37944 20.9242 9.80416 20.5849 9.98927L12.7001 14.2901V22.875H11.2997V14.2901L3.41493 9.98927C3.07556 9.80416 2.95056 9.37944 3.13563 9.04005C3.32074 8.70068 3.74547 8.57569 4.08485 8.76076L11.9999 13.0772L19.9149 8.76076Z" fill="#5A5E66"/>
</g>
<defs>
<clipPath id="clip0_66963_454222">
<rect width="24" height="24" fill="white" transform="translate(0 0.75)"/>
</clipPath>
</defs>
</svg>
