<svg width="18" height="18" viewBox="0 0 18 18" fill="none" xmlns="http://www.w3.org/2000/svg">
<path d="M11.4781 2.97007C10.6427 2.97007 9.84148 3.30194 9.25074 3.89268C8.66 4.48342 8.32813 5.28464 8.32813 6.12007C8.32813 6.9555 8.66 7.75672 9.25074 8.34746C9.84148 8.9382 10.6427 9.27007 11.4781 9.27007H12.3781C12.4975 9.27007 12.6119 9.31748 12.6963 9.40187C12.7807 9.48626 12.8281 9.60072 12.8281 9.72007C12.8281 9.83942 12.7807 9.95388 12.6963 10.0383C12.6119 10.1227 12.4975 10.1701 12.3781 10.1701H11.4781C10.6771 10.1701 9.89409 9.93254 9.22807 9.48752C8.56205 9.0425 8.04295 8.40998 7.73641 7.66994C7.42988 6.9299 7.34968 6.11558 7.50595 5.32995C7.66222 4.54433 8.04794 3.82269 8.61434 3.25629C9.18075 2.68989 9.90239 2.30416 10.688 2.14789C11.4736 1.99162 12.288 2.07182 13.028 2.37836C13.768 2.68489 14.4006 3.20399 14.8456 3.87001C15.2906 4.53603 15.5281 5.31906 15.5281 6.12007V6.79507C15.5281 7.12784 15.4227 7.45207 15.2271 7.72123C15.0314 7.99039 14.7555 8.19067 14.439 8.29332C14.1224 8.39597 13.7815 8.39572 13.4651 8.29261C13.1487 8.18949 12.8731 7.98882 12.6778 7.71937C12.3115 8.12167 11.8084 8.37007 11.2531 8.37007C10.1344 8.37007 9.22813 7.36207 9.22813 6.12007C9.22813 4.87807 10.1344 3.87007 11.2531 3.87007C11.6716 3.87007 12.0604 4.01137 12.3835 4.25257C12.401 4.14078 12.4599 4.03968 12.5486 3.96939C12.6373 3.89911 12.7492 3.86481 12.862 3.87332C12.9748 3.88183 13.0803 3.93254 13.1574 4.01533C13.2345 4.09812 13.2776 4.20693 13.2781 4.32007V6.79507C13.2781 6.97409 13.3492 7.14578 13.4758 7.27237C13.6024 7.39895 13.7741 7.47007 13.9531 7.47007C14.1321 7.47007 14.3038 7.39895 14.4304 7.27237C14.557 7.14578 14.6281 6.97409 14.6281 6.79507V6.12007C14.6281 5.28464 14.2963 4.48342 13.7055 3.89268C13.1148 3.30194 12.3136 2.97007 11.4781 2.97007ZM11.2531 7.47007C11.7877 7.47007 12.3781 6.95707 12.3781 6.12007C12.3781 5.28307 11.7877 4.77007 11.2531 4.77007C10.7185 4.77007 10.1281 5.28307 10.1281 6.12007C10.1281 6.95707 10.7185 7.47007 11.2531 7.47007Z" fill="white"/>
<path d="M7.76061 15.4696C8.01826 15.8215 8.38969 16.0227 8.77812 16.0227V16.0214C9.16525 16.0214 9.53668 15.8201 9.79564 15.4683L10.6418 14.3195C10.6693 14.2822 10.7138 14.2596 10.7556 14.2596H11.0381C13.0174 14.2596 14.257 13.4136 14.6851 11.7948C14.7527 11.5391 14.5483 11.3023 14.2838 11.3023C14.0755 11.3023 13.9003 11.4524 13.8417 11.6522C13.4956 12.8341 12.5814 13.3933 11.0368 13.3933H10.7543C10.447 13.3933 10.1514 13.5439 9.96174 13.7971L9.11424 14.9486C9.01615 15.0818 8.89583 15.1551 8.77682 15.1551C8.6578 15.1551 8.53748 15.0818 8.43939 14.9486L7.59582 13.8025C7.42711 13.5653 7.0923 13.3933 6.80064 13.3933H6.51815C4.46742 13.3933 3.55323 12.9576 3.55323 10.3722V7.76012C3.55323 5.85176 4.36007 4.88772 6.08473 4.75492C6.32322 4.73655 6.51815 4.54503 6.51815 4.30582C6.51815 4.06662 6.3237 3.8708 6.08504 3.88697C3.87032 4.03704 2.70312 5.36882 2.70312 7.76145V10.3735C2.70312 13.6106 4.16269 14.2609 6.51815 14.2609H6.79803C6.82942 14.2649 6.8935 14.2969 6.91312 14.3182L7.76061 15.4696Z" fill="white"/>
</svg>
