<svg width="24" height="24" viewBox="0 0 24 24" fill="none" xmlns="http://www.w3.org/2000/svg">
<path d="M14.2423 5.03889C14.4167 5.03889 14.5839 4.96963 14.7072 4.84634C14.8305 4.72305 14.8997 4.55584 14.8997 4.38148C14.8997 4.20713 14.8305 4.03991 14.7072 3.91662C14.5839 3.79334 14.4167 3.72407 14.2423 3.72407H11.5733C9.96305 3.72407 8.7017 3.72407 7.69981 3.83276C6.67864 3.94321 5.85031 4.17286 5.14381 4.68652C4.71597 4.99737 4.33971 5.37363 4.02885 5.80148C3.5152 6.50885 3.28554 7.33543 3.1751 8.35748C3.06641 9.35937 3.06641 10.6207 3.06641 12.2309V12.3098C3.06641 13.92 3.06641 15.1814 3.1751 16.1824C3.28554 17.2044 3.5152 18.0319 4.02885 18.7393C4.33971 19.1671 4.71597 19.5434 5.14381 19.8542C5.85118 20.3679 6.67776 20.5975 7.69981 20.708C8.7017 20.8167 9.96305 20.8167 11.5733 20.8167H11.6521C13.2624 20.8167 14.5237 20.8167 15.5256 20.708C16.5468 20.5975 17.3751 20.3679 18.0816 19.8542C18.5094 19.5434 18.8857 19.1671 19.1966 18.7393C19.7102 18.0319 19.9399 17.2053 20.0503 16.1833C20.159 15.1814 20.159 13.92 20.159 12.3098V9.64074C20.159 9.46638 20.0897 9.29917 19.9664 9.17588C19.8432 9.0526 19.6759 8.98333 19.5016 8.98333C19.3272 8.98333 19.16 9.0526 19.0367 9.17588C18.9134 9.29917 18.8442 9.46638 18.8442 9.64074V12.2704C18.8442 13.9288 18.8433 15.1191 18.7434 16.0413C18.6443 16.9511 18.4559 17.5209 18.1324 17.9661C17.9028 18.2817 17.624 18.5604 17.3085 18.7901C16.8632 19.1144 16.2934 19.3029 15.3836 19.401C14.4615 19.501 13.2711 19.5019 11.6127 19.5019C9.95428 19.5019 8.76394 19.501 7.84181 19.401C6.93196 19.302 6.36221 19.1135 5.91692 18.7901C5.60075 18.5604 5.3227 18.2823 5.09297 17.9661C4.76865 17.5209 4.5802 16.9511 4.48202 16.0413C4.3821 15.1191 4.38122 13.9288 4.38122 12.2704C4.38122 10.6119 4.3821 9.4216 4.48202 8.49948C4.5802 7.58963 4.76953 7.01988 5.09297 6.57459C5.32263 6.25904 5.60137 5.9803 5.91692 5.75064C6.36221 5.42632 6.93196 5.23786 7.84181 5.13969C8.76394 5.03976 9.95428 5.03889 11.6127 5.03889H14.2423Z" fill="white"/>
<path d="M6.64007 14.4854C6.57037 14.6409 6.56379 14.8174 6.62171 14.9777C6.67963 15.138 6.79753 15.2695 6.95055 15.3445C7.10357 15.4196 7.27975 15.4322 7.44193 15.3799C7.60411 15.3275 7.73963 15.2142 7.8199 15.0639L9.09965 12.4544C9.49673 11.6463 10.6634 11.6857 11.0044 12.5193C11.7749 14.403 14.4089 14.4915 15.3056 12.6648L16.5853 10.0553C16.655 9.89983 16.6616 9.72332 16.6037 9.56304C16.5458 9.40276 16.4279 9.27124 16.2749 9.19621C16.1218 9.12118 15.9457 9.1085 15.7835 9.16085C15.6213 9.2132 15.4858 9.32649 15.4055 9.47683L14.1258 12.0863C13.7287 12.8945 12.562 12.855 12.221 12.0214C11.4505 10.1377 8.81653 10.0492 7.91983 11.8759L6.64007 14.4854Z" fill="white"/>
<path fill-rule="evenodd" clip-rule="evenodd" d="M16.4337 5.25802C16.4337 5.83921 16.6646 6.39659 17.0755 6.80755C17.4865 7.21851 18.0439 7.44938 18.625 7.44938C19.2062 7.44938 19.7636 7.21851 20.1746 6.80755C20.5855 6.39659 20.8164 5.83921 20.8164 5.25802C20.8164 4.67684 20.5855 4.11946 20.1746 3.7085C19.7636 3.29754 19.2062 3.06667 18.625 3.06667C18.0439 3.06667 17.4865 3.29754 17.0755 3.7085C16.6646 4.11946 16.4337 4.67684 16.4337 5.25802ZM17.7485 5.25802C17.7485 5.4905 17.8409 5.71345 18.0052 5.87783C18.1696 6.04222 18.3926 6.13457 18.625 6.13457C18.8575 6.13457 19.0805 6.04222 19.2449 5.87783C19.4092 5.71345 19.5016 5.4905 19.5016 5.25802C19.5016 5.02555 19.4092 4.8026 19.2449 4.63821C19.0805 4.47383 18.8575 4.38148 18.625 4.38148C18.3926 4.38148 18.1696 4.47383 18.0052 4.63821C17.8409 4.8026 17.7485 5.02555 17.7485 5.25802Z" fill="white"/>
</svg>
