<svg width="16" height="16" viewBox="0 0 16 16" fill="none" xmlns="http://www.w3.org/2000/svg">
<path fill-rule="evenodd" clip-rule="evenodd" d="M2 8C2 12.7666 3.23396 14 8 14C12.766 14 14 12.7666 14 8C14 3.23336 12.766 2 8 2C3.23396 2 2 3.23336 2 8ZM7.96712 4.66667C7.86054 4.66657 7.75511 4.68871 7.65757 4.73166C7.56003 4.77461 7.47252 4.83744 7.40063 4.91612C7.32874 4.9948 7.27405 5.08761 7.24006 5.18863C7.20607 5.28964 7.19352 5.39663 7.20321 5.50277L7.50961 8.86565C7.52149 8.97872 7.57481 9.08337 7.6593 9.15944C7.74378 9.23552 7.85344 9.27761 7.96712 9.27761C8.0808 9.27761 8.19046 9.23552 8.27494 9.15944C8.35942 9.08337 8.41275 8.97872 8.42463 8.86565L8.73019 5.50277C8.73988 5.3967 8.72735 5.28978 8.69341 5.18883C8.65946 5.08787 8.60485 4.9951 8.53305 4.91643C8.46125 4.83776 8.37384 4.77492 8.2764 4.73191C8.17896 4.68891 8.07363 4.66669 7.96712 4.66667ZM7.96712 11.3824C8.14523 11.3824 8.31605 11.3116 8.44199 11.1857C8.56793 11.0597 8.63869 10.8889 8.63869 10.7108C8.63869 10.5327 8.56793 10.3619 8.44199 10.2359C8.31605 10.11 8.14523 10.0392 7.96712 10.0392C7.78901 10.0392 7.61819 10.11 7.49225 10.2359C7.3663 10.3619 7.29555 10.5327 7.29555 10.7108C7.29555 10.8889 7.3663 11.0597 7.49225 11.1857C7.61819 11.3116 7.78901 11.3824 7.96712 11.3824Z" fill="#FD4E4E"/>
</svg>
