<svg width="16" height="16" viewBox="0 0 16 16" fill="none" xmlns="http://www.w3.org/2000/svg">
<path d="M6.75085 14.75C6.61824 14.75 6.49106 14.6973 6.3973 14.6036C6.30353 14.5098 6.25085 14.3826 6.25085 14.25V9.4425L1.61585 4.345C1.43339 4.14394 1.31322 3.89424 1.26991 3.62621C1.2266 3.35818 1.26202 3.08334 1.37188 2.83505C1.48173 2.58676 1.66129 2.37569 1.88876 2.22746C2.11623 2.07923 2.38184 2.00021 2.65335 2H13.3483C13.6199 2.00021 13.8855 2.07923 14.1129 2.22746C14.3404 2.37569 14.52 2.58676 14.6298 2.83505C14.7397 3.08334 14.7751 3.35818 14.7318 3.62621C14.6885 3.89424 14.5683 4.14394 14.3858 4.345L9.75085 9.4425V12.25C9.7508 12.3249 9.73393 12.3988 9.70148 12.4663C9.66902 12.5338 9.62182 12.5932 9.56335 12.64L7.06335 14.64C6.97471 14.7111 6.86449 14.7499 6.75085 14.75ZM2.65335 3C2.57554 3.00019 2.49946 3.02293 2.43431 3.06547C2.36917 3.108 2.31774 3.16851 2.28626 3.23966C2.25479 3.31082 2.24461 3.38957 2.25696 3.46639C2.26931 3.54321 2.30366 3.6148 2.35585 3.6725L7.12085 8.9225C7.20249 9.01227 7.24869 9.12868 7.25085 9.25V13.21L8.75085 12V9.25C8.75055 9.12522 8.79692 9.00484 8.88085 8.9125L13.6459 3.6625C13.6949 3.60454 13.7266 3.53387 13.7372 3.45867C13.7479 3.38346 13.737 3.30679 13.7059 3.2375C13.6748 3.16821 13.6247 3.10914 13.5614 3.06712C13.4981 3.02509 13.4243 3.00182 13.3483 3H2.65335Z" fill="#5A5E66"/>
</svg>
