<svg width="24" height="24" viewBox="0 0 24 24" fill="none" xmlns="http://www.w3.org/2000/svg">
<path d="M11.9969 22.0891C4.11629 22.0891 2.07593 20.0963 2.07593 12.3946C2.07593 4.69282 4.11629 2.70001 11.9969 2.70001C19.8776 2.70001 21.918 4.69282 21.918 12.3946C21.918 20.0963 19.8776 22.0891 11.9969 22.0891ZM11.9969 4.17424C4.97003 4.17424 3.54789 5.55788 3.54789 12.3968C3.54789 19.2358 4.97003 20.6194 11.9969 20.6194C19.0239 20.6194 20.446 19.2358 20.446 12.3968C20.446 5.55788 19.0239 4.17424 11.9969 4.17424Z" fill="#5A5E66"/>
<path d="M9.00781 8.35059L9.25488 8.36328H9.26172L9.4873 8.39551C10.0089 8.49304 10.4935 8.74542 10.874 9.12598C11.371 9.62292 11.6504 10.2971 11.6504 11V15C11.6504 15.359 11.359 15.6504 11 15.6504C10.641 15.6504 10.3496 15.359 10.3496 15V13.6504H7.65039V15C7.65039 15.359 7.35899 15.6504 7 15.6504C6.64101 15.6504 6.34961 15.359 6.34961 15V11C6.34961 10.2971 6.62903 9.62292 7.12598 9.12598C7.62292 8.62903 8.29714 8.34961 9 8.34961L9.00781 8.35059ZM17 8.34961C17.359 8.34961 17.6504 8.64101 17.6504 9V15C17.6504 15.359 17.359 15.6504 17 15.6504H15.5C15.075 15.6504 14.6592 15.5242 14.3057 15.2881C13.9522 15.0519 13.6764 14.7159 13.5137 14.3232C13.351 13.9305 13.3077 13.4972 13.3906 13.0801C13.4737 12.663 13.679 12.28 13.9795 11.9795C14.28 11.679 14.663 11.4737 15.0801 11.3906C15.4972 11.3077 15.9305 11.351 16.3232 11.5137C16.3321 11.5174 16.3408 11.5216 16.3496 11.5254V9C16.3496 8.64101 16.641 8.34961 17 8.34961ZM15.334 12.667C15.1691 12.6998 15.0182 12.7807 14.8994 12.8994C14.8104 12.9884 14.7423 13.0953 14.7002 13.2129L14.667 13.334C14.6342 13.499 14.6506 13.6701 14.7148 13.8252C14.779 13.9801 14.8878 14.1126 15.0273 14.2061C15.1673 14.2996 15.3321 14.3496 15.5 14.3496H16.3496V13.5L16.3408 13.375L16.3223 13.2832C16.2983 13.1929 16.2587 13.1062 16.2061 13.0273C16.1126 12.8878 15.9801 12.779 15.8252 12.7148C15.709 12.6667 15.5839 12.6453 15.459 12.6514L15.334 12.667ZM9 9.65039C8.642 9.65039 8.2991 9.7927 8.0459 10.0459C7.7927 10.2991 7.65039 10.642 7.65039 11V12.3496H10.3496V11L10.3428 10.8662C10.312 10.5572 10.1755 10.2673 9.9541 10.0459C9.73274 9.82453 9.44276 9.688 9.13379 9.65723L9 9.65039Z" fill="#5A5E66"/>
</svg>
