<svg width="15" height="15" viewBox="0 0 15 15" fill="none" xmlns="http://www.w3.org/2000/svg">
<path d="M6.84946 8.90479C6.65898 8.90479 6.504 8.74981 6.504 8.55933C6.50393 8.49139 6.5239 8.42493 6.56142 8.3683C6.59895 8.31166 6.65235 8.26735 6.71494 8.24093C6.86964 8.17543 7.05476 8.23132 7.22297 8.39429C7.36 8.52704 7.5787 8.52358 7.71145 8.38657C7.84422 8.24954 7.84075 8.03084 7.70374 7.89809C7.54777 7.74699 7.3744 7.6402 7.19492 7.57993V7.17749C7.19492 6.9867 7.04025 6.83203 6.84946 6.83203C6.65868 6.83203 6.504 6.9867 6.504 7.17749V7.58216C6.48429 7.58911 6.46478 7.59662 6.44551 7.60471C6.25784 7.68393 6.09773 7.81677 5.98524 7.98658C5.87274 8.15639 5.81285 8.35563 5.81309 8.55933C5.81309 9.13078 6.278 9.5957 6.84946 9.5957C7.03995 9.5957 7.19492 9.75068 7.19492 9.94116C7.19492 10.0859 7.10361 10.2165 6.9677 10.266C6.79025 10.3306 6.58369 10.2429 6.40101 10.0254C6.2783 9.8793 6.06041 9.86035 5.91431 9.98305C5.7682 10.1058 5.74925 10.3237 5.87195 10.4698C6.05871 10.6921 6.27609 10.8446 6.50403 10.9213V11.323C6.50403 11.5138 6.6587 11.6685 6.84949 11.6685C7.04027 11.6685 7.19494 11.5138 7.19494 11.323V10.9183C7.19803 10.9172 7.20112 10.9163 7.20418 10.9151C7.61189 10.7666 7.88584 10.3752 7.88584 9.94116C7.88584 9.3697 7.42092 8.90479 6.84946 8.90479Z" fill="white"/>
<path d="M10.0497 6.79137C9.63914 6.28624 9.16978 5.8838 8.65454 5.5944C8.74089 5.49213 8.80674 5.37419 8.8485 5.24703C9.01722 4.73324 8.77077 4.12293 8.14174 3.9241L9.02356 2.38646C9.13482 2.19241 9.03486 1.94524 8.82033 1.88288C8.18275 1.6975 7.51998 1.60352 6.85034 1.60352C6.1807 1.60352 5.51793 1.6975 4.88035 1.88288C4.66557 1.94531 4.56601 2.19264 4.67713 2.38646L5.55895 3.92412C4.9324 4.12193 4.68284 4.73135 4.85228 5.2473C4.894 5.37439 4.95989 5.49222 5.04633 5.5943C4.53102 5.88371 4.06161 6.28619 3.65098 6.79137C2.83014 7.80119 2.35938 9.07494 2.35938 10.2861C2.35938 12.7985 4.36412 13.3952 6.85034 13.3952C9.33831 13.3952 11.3413 12.7975 11.3413 10.2861C11.3413 9.07494 10.8705 7.80119 10.0497 6.79137ZM5.50296 2.43764C5.94574 2.34224 6.39741 2.29424 6.85034 2.29443C7.30328 2.29424 7.75495 2.34224 8.19772 2.43764L7.43695 3.76425C7.04778 3.70986 6.65293 3.70986 6.26375 3.76427L5.50296 2.43764ZM5.72866 4.5951C6.32319 4.40008 6.94521 4.36311 7.54992 4.484L7.55208 4.48441C7.69397 4.5129 7.83404 4.54981 7.97154 4.59494C8.15258 4.65461 8.25152 4.85044 8.19217 5.03116C8.17156 5.09432 8.13312 5.15016 8.08149 5.19197C8.02986 5.23378 7.96724 5.25976 7.90118 5.26679C7.55674 5.15893 7.2054 5.10417 6.85034 5.10417C6.49599 5.10417 6.14535 5.1587 5.80157 5.26612C5.66553 5.25212 5.55137 5.16133 5.5086 5.03148C5.44916 4.85044 5.5481 4.65459 5.72866 4.5951ZM6.85034 12.7089C4.15125 12.7089 3.05029 12.0037 3.05029 10.2861C3.05029 9.2464 3.47528 8.10291 4.18708 7.22717C4.93777 6.30367 5.88359 5.79508 6.85034 5.79508C7.91449 5.79508 8.84528 6.40498 9.5136 7.22717C10.2254 8.10291 10.6504 9.2464 10.6504 10.2861C10.6504 12.0037 9.54944 12.7089 6.85034 12.7089Z" fill="white"/>
</svg>
