<svg width="35" height="24" viewBox="0 0 35 24" fill="none" xmlns="http://www.w3.org/2000/svg">
<rect width="35" height="24" rx="8" fill="#0166FF"/>
<path d="M19.6 7.2H18.9C18.9 8.58071 17.7807 9.7 16.4 9.7V10.4V11.1C18.5539 11.1 20.3 9.35391 20.3 7.2H19.6ZM16.4 10.4V9.7C15.0193 9.7 13.9 8.58071 13.9 7.2H13.2H12.5C12.5 9.35391 14.2461 11.1 16.4 11.1V10.4ZM13.2 7.2H13.9C13.9 5.81929 15.0193 4.7 16.4 4.7V4V3.3C14.2461 3.3 12.5 5.04609 12.5 7.2H13.2ZM16.4 4V4.7C17.7807 4.7 18.9 5.81929 18.9 7.2H19.6H20.3C20.3 5.04609 18.5539 3.3 16.4 3.3V4ZM22.8 16.4H22.1C22.1 17.4549 22.0624 17.992 21.558 18.4028C21.2788 18.6301 20.8007 18.8611 19.9611 19.031C19.1246 19.2003 17.9759 19.3 16.4 19.3V20V20.7C18.0241 20.7 19.2754 20.5982 20.2389 20.4032C21.1993 20.2088 21.9212 19.9125 22.442 19.4884C23.5376 18.5962 23.5 17.3333 23.5 16.4H22.8ZM16.4 20V19.3C14.8241 19.3 13.6754 19.2003 12.8389 19.031C11.9993 18.8611 11.5212 18.6301 11.242 18.4028C10.7376 17.992 10.7 17.4549 10.7 16.4H10H9.3C9.3 17.3333 9.26237 18.5962 10.358 19.4884C10.8788 19.9125 11.6007 20.2088 12.5611 20.4032C13.5246 20.5982 14.7759 20.7 16.4 20.7V20ZM10 16.4H10.7C10.7 15.7711 11.1606 15.0592 12.2177 14.4645C13.2529 13.8822 14.7301 13.5 16.4 13.5V12.8V12.1C14.5352 12.1 12.8125 12.5237 11.5313 13.2443C10.2721 13.9526 9.3 15.0407 9.3 16.4H10ZM16.4 12.8V13.5C18.0699 13.5 19.5471 13.8822 20.5823 14.4645C21.6394 15.0592 22.1 15.7711 22.1 16.4H22.8H23.5C23.5 15.0407 22.5279 13.9526 21.2687 13.2443C19.9875 12.5237 18.2648 12.1 16.4 12.1V12.8Z" fill="white"/>
<path d="M24.3919 7C24.3919 7 24.6222 8.16617 25.1273 8.6678C25.6323 9.16943 26.8 9.39189 26.8 9.39189C26.8 9.39189 25.6338 9.62224 25.1322 10.1273C24.6306 10.6323 24.4081 11.8 24.4081 11.8C24.4081 11.8 24.1778 10.6338 23.6727 10.1322C23.1677 9.63057 22 9.40811 22 9.40811C22 9.40811 23.1662 9.17776 23.6678 8.67273C24.1694 8.1677 24.3919 7 24.3919 7Z" stroke="white" stroke-width="0.722303" stroke-linejoin="round"/>
<path d="M25.3828 4.39959H27.7656M26.6003 5.58633V3.13867" stroke="white" stroke-width="0.722303" stroke-linecap="round"/>
</svg>
