<svg width="16" height="16" viewBox="0 0 16 16" fill="none" xmlns="http://www.w3.org/2000/svg">
<path d="M4.00034 10.2746C3.15058 9.42425 2.72543 8.99965 2.56758 8.448C2.40918 7.89634 2.54448 7.31059 2.81508 6.13963L2.97073 5.46423C3.19788 4.47862 3.31173 3.98582 3.64888 3.64812C3.98604 3.31041 4.47939 3.19711 5.465 2.96996L6.1404 2.81376C7.31191 2.54371 7.89711 2.40841 8.44877 2.56626C9.00042 2.72466 9.42502 3.14981 10.2748 3.99957L11.2813 5.00608C12.7613 6.48559 13.5 7.22479 13.5 8.1433C13.5 9.06235 12.7608 9.80156 11.2818 11.2805C9.80232 12.76 9.06312 13.4992 8.14406 13.4992C7.22556 13.4992 6.4858 12.76 5.00684 11.2811L4.00034 10.2746Z" stroke="white" stroke-width="0.907506"/>
<path d="M9.22815 9.22736C9.72545 8.72834 9.79261 7.98875 9.37777 7.57304C8.96293 7.15734 8.2225 7.22535 7.72436 7.72351C7.22706 8.22168 6.48664 8.28884 6.0718 7.87398C5.65696 7.45913 5.72411 6.71868 6.22226 6.22137M6.22226 6.22137L5.92133 5.92043M6.22226 6.22137C6.50364 5.93913 6.86237 5.79631 7.19645 5.79886M9.52823 9.52745L9.2273 9.22651C8.88727 9.5674 8.43247 9.70682 8.04654 9.62691" stroke="white" stroke-width="0.907506" stroke-linecap="round"/>
</svg>
