<svg width="16" height="16" viewBox="0 0 16 16" fill="none" xmlns="http://www.w3.org/2000/svg">
<path d="M6.01259 6.00001C5.94451 5.11715 6.14852 4.23463 6.59717 3.47123C7.04582 2.70783 7.71757 2.10019 8.52201 1.73012C9.32644 1.36004 10.2249 1.24528 11.0966 1.40128C11.9682 1.55729 12.7711 1.97658 13.3972 2.6027C14.0233 3.22883 14.4426 4.03174 14.5986 4.90337C14.7546 5.77499 14.6399 6.67349 14.2698 7.47792C13.8997 8.28235 13.2921 8.9541 12.5287 9.40275C11.7653 9.8514 10.8828 10.0554 9.99992 9.98734" stroke="#5A5E66" stroke-linecap="round" stroke-linejoin="round"/>
<path d="M14.6666 11.3335C14.6666 11.8639 14.4559 12.3726 14.0808 12.7477C13.7057 13.1228 13.197 13.3335 12.6666 13.3335H11.3333M11.3333 13.3335L12.6666 12.0002M11.3333 13.3335L12.6666 14.6668M1.33325 4.66683C1.33325 4.1364 1.54397 3.62769 1.91904 3.25262C2.29411 2.87754 2.80282 2.66683 3.33325 2.66683H4.66659M4.66659 2.66683L3.33325 4.00016M4.66659 2.66683L3.33325 1.3335M5.66659 14.6668C4.51731 14.6668 3.41511 14.2103 2.60246 13.3976C1.7898 12.585 1.33325 11.4828 1.33325 10.3335C1.33325 9.18422 1.7898 8.08202 2.60246 7.26937C3.41511 6.45671 4.51731 6.00016 5.66659 6.00016C6.81586 6.00016 7.91806 6.45671 8.73071 7.26937C9.54337 8.08202 9.99992 9.18422 9.99992 10.3335C9.99992 11.4828 9.54337 12.585 8.73071 13.3976C7.91806 14.2103 6.81586 14.6668 5.66659 14.6668Z" stroke="#5A5E66" stroke-linecap="round" stroke-linejoin="round"/>
</svg>
