<svg width="24" height="24" viewBox="0 0 24 24" fill="none" xmlns="http://www.w3.org/2000/svg">
<path d="M15 13L19.9425 9.91C20.2657 9.70801 20.5323 9.42725 20.7172 9.09404C20.9022 8.76084 20.9995 8.3861 21 8.005V6.25C21 5.65326 20.7629 5.08097 20.341 4.65901C19.919 4.23705 19.3467 4 18.75 4H15L14.25 8.5L15 13Z" fill="url(#paint0_linear_69169_5556)"/>
<path d="M9 4H5.25C4.65326 4 4.08097 4.23705 3.65901 4.65901C3.23705 5.08097 3 5.65326 3 6.25V8.0035C3 8.779 3.399 9.5005 4.0575 9.9115L9 13L9.75 8.5L9 4Z" fill="url(#paint1_linear_69169_5556)"/>
<path d="M15 4H9V13L10.8075 14.1295C11.1651 14.353 11.5783 14.4715 12 14.4715C12.4217 14.4715 12.8349 14.353 13.1925 14.1295L15 13V4Z" fill="url(#paint2_linear_69169_5556)"/>
<path d="M18 15.5C18 17.0913 17.3679 18.6174 16.2426 19.7426C15.1174 20.8679 13.5913 21.5 12 21.5C10.4087 21.5 8.88258 20.8679 7.75736 19.7426C6.63214 18.6174 6 17.0913 6 15.5C6 13.9087 6.63214 12.3826 7.75736 11.2574C8.88258 10.1321 10.4087 9.5 12 9.5C13.5913 9.5 15.1174 10.1321 16.2426 11.2574C17.3679 12.3826 18 13.9087 18 15.5Z" fill="url(#paint3_radial_69169_5556)"/>
<path d="M14.0402 18.292H10.2002V17.636L11.6722 16.14C11.9602 15.8467 12.2002 15.5933 12.3922 15.38C12.5842 15.1613 12.7282 14.9533 12.8242 14.756C12.9202 14.5533 12.9682 14.3347 12.9682 14.1C12.9682 13.8067 12.8829 13.588 12.7122 13.444C12.5415 13.2947 12.3202 13.22 12.0482 13.22C11.7869 13.22 11.5522 13.2707 11.3442 13.372C11.1362 13.468 10.9202 13.604 10.6962 13.78L10.2402 13.212C10.3949 13.0787 10.5602 12.9587 10.7362 12.852C10.9175 12.7453 11.1175 12.66 11.3362 12.596C11.5602 12.532 11.8055 12.5 12.0722 12.5C12.4349 12.5 12.7469 12.564 13.0082 12.692C13.2695 12.8147 13.4695 12.9907 13.6082 13.22C13.7522 13.4493 13.8242 13.7187 13.8242 14.028C13.8242 14.2573 13.7895 14.4733 13.7202 14.676C13.6509 14.8733 13.5495 15.068 13.4162 15.26C13.2882 15.452 13.1309 15.6467 12.9442 15.844C12.7575 16.0413 12.5522 16.2493 12.3282 16.468L11.2642 17.5V17.54H14.0402V18.292Z" fill="white"/>
<defs>
<linearGradient id="paint0_linear_69169_5556" x1="21" y1="4.801" x2="14.4555" y2="11.968" gradientUnits="userSpaceOnUse">
<stop stop-color="#0065FF"/>
<stop offset="1" stop-color="#0044AC"/>
</linearGradient>
<linearGradient id="paint1_linear_69169_5556" x1="3" y1="6.424" x2="9.6705" y2="10.99" gradientUnits="userSpaceOnUse">
<stop stop-color="#0065FF"/>
<stop offset="1" stop-color="#0044AC"/>
</linearGradient>
<linearGradient id="paint2_linear_69169_5556" x1="12" y1="2.6905" x2="15.852" y2="13.0375" gradientUnits="userSpaceOnUse">
<stop stop-color="#3284FF"/>
<stop offset="1" stop-color="#0044AC"/>
</linearGradient>
<radialGradient id="paint3_radial_69169_5556" cx="0" cy="0" r="1" gradientUnits="userSpaceOnUse" gradientTransform="translate(-19.9279 -32.4999) rotate(56.615) scale(66.981 57.3662)">
<stop offset="0.772" stop-color="#FBFBFB"/>
<stop offset="0.991" stop-color="#8B8B8B"/>
</radialGradient>
</defs>
</svg>
