<svg width="30" height="30" viewBox="0 0 30 30" fill="none" xmlns="http://www.w3.org/2000/svg">
<path d="M11.4415 6.76C13.0253 3.92 13.8165 2.5 15.0003 2.5C16.184 2.5 16.9753 3.92 18.559 6.76L18.969 7.495C19.419 8.3025 19.644 8.70625 19.994 8.9725C20.344 9.23875 20.7815 9.3375 21.6565 9.535L22.4515 9.715C25.5265 10.4112 27.0628 10.7588 27.429 11.935C27.794 13.11 26.7465 14.3363 24.6503 16.7875L24.1078 17.4213C23.5128 18.1175 23.214 18.4662 23.0803 18.8962C22.9465 19.3275 22.9915 19.7925 23.0815 20.7212L23.164 21.5675C23.4803 24.8387 23.639 26.4738 22.6815 27.2C21.724 27.9263 20.284 27.2638 17.4065 25.9387L16.6603 25.5962C15.8428 25.2188 15.434 25.0312 15.0003 25.0312C14.5665 25.0312 14.1578 25.2188 13.3403 25.5962L12.5953 25.9387C9.71654 27.2638 8.27654 27.9263 7.32029 27.2013C6.36154 26.4737 6.52029 24.8387 6.83654 21.5675L6.91904 20.7225C7.00904 19.7925 7.05404 19.3275 6.91904 18.8975C6.78654 18.4663 6.48779 18.1175 5.89279 17.4225L5.35029 16.7875C3.25404 14.3375 2.20654 13.1112 2.57154 11.935C2.93654 10.7588 4.47529 10.41 7.55029 9.715L8.34529 9.535C9.21904 9.3375 9.65529 9.23875 10.0065 8.9725C10.3578 8.70625 10.5815 8.3025 11.0315 7.495L11.4415 6.76Z" fill="#0166FF" stroke="#0166FF" stroke-width="1.5"/>
</svg>
