<svg width="20" height="20" viewBox="0 0 20 20" fill="none" xmlns="http://www.w3.org/2000/svg">
<path d="M13.7573 8.32565C13.523 8.09134 13.1431 8.09134 12.9087 8.32565C12.6744 8.55997 12.6744 8.93987 12.9087 9.17418L13.333 8.74992L13.7573 8.32565ZM14.9997 10.4166L14.5754 10.8408C14.8097 11.0752 15.1896 11.0752 15.4239 10.8408L14.9997 10.4166ZM18.3406 7.92418C18.5749 7.68987 18.5749 7.30997 18.3406 7.07565C18.1063 6.84134 17.7264 6.84134 17.4921 7.07565L17.9163 7.49992L18.3406 7.92418ZM11.333 5.99992H10.733C10.733 7.14131 9.80773 8.06659 8.66634 8.06659V8.66659V9.26659C10.4705 9.26659 11.933 7.80405 11.933 5.99992H11.333ZM8.66634 8.66659V8.06659C7.52495 8.06659 6.59967 7.14131 6.59967 5.99992H5.99967H5.39967C5.39967 7.80405 6.86221 9.26659 8.66634 9.26659V8.66659ZM5.99967 5.99992H6.59967C6.59967 4.85853 7.52495 3.93325 8.66634 3.93325V3.33325V2.73325C6.86221 2.73325 5.39967 4.19579 5.39967 5.99992H5.99967ZM8.66634 3.33325V3.93325C9.80773 3.93325 10.733 4.85853 10.733 5.99992H11.333H11.933C11.933 4.19579 10.4705 2.73325 8.66634 2.73325V3.33325ZM13.9997 13.6666H13.3997C13.3997 14.5471 13.3674 14.9861 12.9541 15.3227C12.7244 15.5098 12.3289 15.7014 11.6306 15.8428C10.9351 15.9835 9.97905 16.0666 8.66634 16.0666V16.6666V17.2666C10.0203 17.2666 11.0643 17.1817 11.8687 17.0189C12.6705 16.8566 13.275 16.6089 13.7119 16.2532C14.6319 15.5039 14.5997 14.4429 14.5997 13.6666H13.9997ZM8.66634 16.6666V16.0666C7.35363 16.0666 6.3976 15.9835 5.70204 15.8428C5.00383 15.7014 4.6083 15.5098 4.37855 15.3227C3.96526 14.9861 3.93301 14.5471 3.93301 13.6666H3.33301H2.73301C2.73301 14.4429 2.70076 15.5039 3.6208 16.2532C4.05771 16.6089 4.66219 16.8566 5.46398 17.0189C6.26842 17.1817 7.31239 17.2666 8.66634 17.2666V16.6666ZM3.33301 13.6666H3.93301C3.93301 13.1512 4.31072 12.5624 5.18926 12.0682C6.049 11.5846 7.27711 11.2666 8.66634 11.2666V10.6666V10.0666C7.11005 10.0666 5.6715 10.4201 4.60095 11.0223C3.5492 11.6139 2.73301 12.5251 2.73301 13.6666H3.33301ZM8.66634 10.6666V11.2666C10.0556 11.2666 11.2837 11.5846 12.1434 12.0682C13.022 12.5624 13.3997 13.1512 13.3997 13.6666H13.9997H14.5997C14.5997 12.5251 13.7835 11.6139 12.7317 11.0223C11.6612 10.4201 10.2226 10.0666 8.66634 10.0666V10.6666ZM13.333 8.74992L12.9087 9.17418L14.5754 10.8408L14.9997 10.4166L15.4239 9.99232L13.7573 8.32565L13.333 8.74992ZM14.9997 10.4166L15.4239 10.8408L18.3406 7.92418L17.9163 7.49992L17.4921 7.07565L14.5754 9.99232L14.9997 10.4166Z" fill="#0166FF"/>
</svg>
