<svg width="15" height="15" viewBox="0 0 15 15" fill="none" xmlns="http://www.w3.org/2000/svg">
<path d="M7.22646 11.5085C5.44769 11.5085 4.55831 11.5085 4.00572 10.9559C3.45312 10.4033 3.45312 9.51396 3.45312 7.7352V5.84853C3.45312 4.06976 3.45312 3.18038 4.00572 2.62779C4.55831 2.0752 5.44769 2.0752 7.22646 2.0752C9.00523 2.0752 9.89461 2.0752 10.4472 2.62779C10.9998 3.18038 10.9998 4.06976 10.9998 5.84853V6.79186" stroke="white" stroke-width="0.75" stroke-linecap="round"/>
<path d="M10.1292 10.8294L10.7021 11.4024L11.8672 10.2374M12.859 8.95848C13.887 9.98648 13.887 11.6532 12.8591 12.6813C11.8311 13.7093 10.1643 13.7093 9.13628 12.6813C8.10825 11.6533 8.10822 9.98658 9.13621 8.95854C10.1642 7.93051 11.831 7.93048 12.859 8.95848Z" stroke="white" stroke-width="0.75" stroke-miterlimit="10" stroke-linecap="round" stroke-linejoin="round"/>
<path d="M7.99142 4.6977C7.7962 4.58306 7.32601 4.37366 6.96303 4.52428C6.47671 4.72606 6.38918 5.27589 6.73702 5.6269C6.95333 5.84521 7.19131 5.88428 7.58688 6.03441C8.08119 6.22203 8.2595 6.65104 8.14309 7.04693C8.04388 7.38438 7.71876 7.62979 7.28323 7.62979C7.0156 7.62979 6.71953 7.54207 6.47461 7.37722M7.32516 7.6781V8.08939M7.32516 4.04492V4.43548" stroke="white" stroke-width="0.75" stroke-miterlimit="10" stroke-linecap="round" stroke-linejoin="round"/>
</svg>
