<svg width="24" height="24" viewBox="0 0 24 24" fill="none" xmlns="http://www.w3.org/2000/svg">
<g clip-path="url(#clip0_77461_475573)">
<path d="M4.807 13.042L0.75 18L4.5 18.75L6 23.25L9.944 16.992M19.193 13.042L23.25 18L19.5 18.75L18 23.25L14.056 16.992" stroke="#0166FF" stroke-width="1.5" stroke-linecap="round" stroke-linejoin="round"/>
<path d="M3.75 9C3.75 11.188 4.61919 13.2865 6.16637 14.8336C7.71354 16.3808 9.81196 17.25 12 17.25C14.188 17.25 16.2865 16.3808 17.8336 14.8336C19.3808 13.2865 20.25 11.188 20.25 9C20.25 6.81196 19.3808 4.71354 17.8336 3.16637C16.2865 1.61919 14.188 0.75 12 0.75C9.81196 0.75 7.71354 1.61919 6.16637 3.16637C4.61919 4.71354 3.75 6.81196 3.75 9Z" stroke="#0166FF" stroke-width="1.5" stroke-linecap="round" stroke-linejoin="round"/>
<path d="M12.5313 4.29186L13.7793 6.74987H15.9063C16.0233 6.74701 16.1386 6.77954 16.2369 6.84322C16.3352 6.9069 16.412 6.99875 16.4573 7.10678C16.5025 7.21481 16.5141 7.33398 16.4906 7.44871C16.467 7.56344 16.4094 7.6684 16.3253 7.74987L14.3723 9.66787L15.4543 12.1529C15.5027 12.2667 15.5139 12.3929 15.4864 12.5135C15.4589 12.6341 15.3941 12.743 15.3012 12.8247C15.2082 12.9063 15.0919 12.9565 14.9688 12.9683C14.8456 12.98 14.7219 12.9525 14.6153 12.8899L12.0003 11.4189L9.38526 12.8889C9.27858 12.9499 9.15548 12.9762 9.03316 12.9639C8.91085 12.9516 8.79542 12.9015 8.703 12.8204C8.61059 12.7393 8.54581 12.6314 8.51771 12.5117C8.4896 12.3921 8.49959 12.2666 8.54626 12.1529L9.62826 9.66787L7.67526 7.74586C7.5911 7.6644 7.53348 7.55944 7.50993 7.44471C7.48638 7.32997 7.498 7.2108 7.54326 7.10278C7.58853 6.99475 7.66533 6.9029 7.76363 6.83922C7.86194 6.77554 7.97717 6.74301 8.09426 6.74586H10.2213L11.4703 4.29186C11.5212 4.19537 11.5976 4.1146 11.6911 4.05827C11.7845 4.00194 11.8916 3.97217 12.0008 3.97217C12.1099 3.97217 12.217 4.00194 12.3104 4.05827C12.4039 4.1146 12.4803 4.19537 12.5313 4.29186Z" stroke="#0166FF" stroke-width="1.5" stroke-linecap="round" stroke-linejoin="round"/>
</g>
<defs>
<clipPath id="clip0_77461_475573">
<rect width="24" height="24" fill="white"/>
</clipPath>
</defs>
</svg>
