<svg width="24" height="24" viewBox="0 0 24 24" fill="none" xmlns="http://www.w3.org/2000/svg">
<path d="M10.421 3.34323C12.1392 3.0298 13.9123 3.23479 15.5137 3.9321C16.9681 4.56527 18.2243 5.58092 19.1495 6.8696L19.5128 7.37545V4.9692C19.5128 4.7986 19.5805 4.63491 19.7012 4.51413C19.822 4.39337 19.9857 4.32566 20.1563 4.32565C20.3268 4.3257 20.4906 4.39336 20.6114 4.51413C20.732 4.63487 20.7999 4.79861 20.7999 4.9692V8.75045C20.7997 9.19212 20.4417 9.55016 20.0001 9.55026H16.2188C16.0482 9.55025 15.8845 9.48239 15.7637 9.36178C15.643 9.24102 15.5753 9.07723 15.5753 8.9067C15.5753 8.7361 15.643 8.57241 15.7637 8.45163C15.8845 8.33088 16.0482 8.26316 16.2188 8.26315H18.5274L18.3301 7.95456C17.4248 6.53833 16.0699 5.46734 14.4835 4.91159C12.8971 4.35591 11.1703 4.34751 9.57916 4.88913C7.98786 5.43089 6.62394 6.49152 5.70611 7.89987C4.78849 9.30812 4.36973 10.9833 4.51666 12.6577C4.66362 14.3322 5.36769 15.9093 6.51666 17.1362C7.66567 18.363 9.19336 19.1699 10.8546 19.4262C12.5157 19.6824 14.2154 19.3737 15.6807 18.5503C17.1442 17.7278 18.2903 16.4388 18.9356 14.8891V14.8872C19.0037 14.7332 19.1302 14.6117 19.2862 14.5493C19.4422 14.487 19.6165 14.488 19.7715 14.5522C19.9269 14.6167 20.0512 14.7402 20.1172 14.895C20.1831 15.0497 20.1855 15.2234 20.1251 15.3794L20.1241 15.3813C19.4537 16.9918 18.3199 18.3677 16.8663 19.3325C15.4109 20.2982 13.7007 20.8084 11.9542 20.7993C10.2076 20.7901 8.50279 20.2617 7.05768 19.2807C5.61245 18.2995 4.49106 16.9097 3.83795 15.2895C3.18508 13.6696 3.02911 11.892 3.38971 10.1831C3.75041 8.47396 4.61233 6.91089 5.86432 5.69284C7.11634 4.4749 8.70265 3.65677 10.421 3.34323ZM10.3233 8.7817C10.3883 8.78376 10.4523 8.80273 10.5069 8.83737L15.0098 11.6938L15.0206 11.7007L15.0196 11.7016L15.0704 11.7436L15.0801 11.7514C15.0994 11.772 15.1184 11.7976 15.1338 11.8257C15.1633 11.8795 15.1778 11.9401 15.1778 12.0005C15.1778 12.0611 15.163 12.121 15.1338 12.1743C15.1045 12.2278 15.0612 12.2734 15.0098 12.3061L10.5069 15.1635C10.4511 15.199 10.3871 15.2172 10.3233 15.2192C10.259 15.2211 10.1948 15.2066 10.1378 15.1753C10.0812 15.144 10.0332 15.0977 10.0001 15.0415C9.96718 14.9855 9.95013 14.9216 9.95025 14.8569V9.14401C9.95027 9.07986 9.96671 9.01586 10.0001 8.95944C10.033 8.90375 10.0807 8.85701 10.1378 8.82565C10.1946 8.79445 10.2589 8.77976 10.3233 8.7817Z" fill="#0166FF"/>
</svg>
