<svg width="24" height="24" viewBox="0 0 24 24" fill="none" xmlns="http://www.w3.org/2000/svg">
<path d="M16.5015 14.2651C16.1914 15.2509 16.0016 16.4307 16.0016 18C16.0011 18.1975 15.9422 18.3905 15.8322 18.5546C15.7222 18.7187 15.5661 18.8465 15.3836 18.922C15.2616 18.973 15.1986 19.001 15.0016 19C14.8702 18.9993 14.7429 18.9733 14.6196 18.922C14.4977 18.8719 14.3869 18.7981 14.2936 18.705L10.5016 15L6.29556 10.707C6.15562 10.5672 6.06032 10.389 6.02169 10.1949C5.98306 10.0009 6.00285 9.79978 6.07856 9.617C6.15532 9.43525 6.28365 9.27996 6.44768 9.17031C6.61171 9.06066 6.80426 9.00145 7.00156 9C8.49414 9 9.63437 8.82789 10.5952 8.5438M13.7333 6.73356C14.2217 6.19492 14.6675 5.50678 15.0916 4.622C15.1406 4.48907 15.2173 4.36806 15.3166 4.267C15.5046 4.08006 15.7592 3.97547 16.0244 3.97622C16.2896 3.97697 16.5436 4.083 16.7306 4.271L20.7276 8.291C20.9156 8.478 21.0216 8.73201 21.0223 8.99718C21.0231 9.26234 20.9185 9.51695 20.7316 9.705C20.6308 9.80419 20.5101 9.88087 20.3776 9.93C19.5372 10.3325 18.8742 10.7547 18.3484 11.2143" stroke="black" stroke-linecap="round"/>
<path d="M20.5015 16L8.66062 4.15915" stroke="black" stroke-linecap="round"/>
<path d="M4.64791 19.6464C4.45265 19.8417 4.45265 20.1583 4.64791 20.3536C4.84317 20.5488 5.15976 20.5488 5.35502 20.3536L4.64791 19.6464ZM5.35502 20.3536L10.855 14.8536L10.1479 14.1464L4.64791 19.6464L5.35502 20.3536Z" fill="black"/>
</svg>
