<svg width="20" height="20" viewBox="0 0 20 20" fill="none" xmlns="http://www.w3.org/2000/svg">
<path d="M17.498 5.2002L17.6211 5.21387C17.6612 5.22234 17.7004 5.23483 17.7383 5.25098H17.7402C17.895 5.31524 18.0178 5.439 18.082 5.59375L18.083 5.59473C18.0992 5.63279 18.1116 5.6726 18.1201 5.71289L18.1338 5.83594V10C18.1338 10.168 18.067 10.3295 17.9482 10.4482C17.8295 10.5669 17.6679 10.6338 17.5 10.6338C17.3323 10.6337 17.1714 10.5667 17.0527 10.4482C16.934 10.3295 16.8672 10.168 16.8672 10V7.3584L11.2842 12.9502C11.2253 13.0096 11.1543 13.0577 11.0771 13.0898C11.0001 13.1219 10.9174 13.1376 10.834 13.1377C10.7504 13.1377 10.667 13.122 10.5898 13.0898C10.5127 13.0577 10.4426 13.0105 10.3838 12.9512L7.6416 10.2002L7.5 10.0586L2.9502 14.6172C2.89141 14.6765 2.82118 14.7237 2.74414 14.7559C2.66696 14.788 2.58361 14.8047 2.5 14.8047C2.41649 14.8047 2.33392 14.788 2.25684 14.7559C2.17966 14.7237 2.10966 14.6765 2.05078 14.6172L2.0498 14.6162C1.99045 14.5573 1.94329 14.4873 1.91113 14.4102C1.87902 14.3331 1.86235 14.2505 1.8623 14.167C1.8623 14.0834 1.87898 14 1.91113 13.9229C1.94328 13.8458 1.99053 13.7756 2.0498 13.7168L7.05078 8.71582C7.10964 8.6565 7.1797 8.60928 7.25684 8.57715C7.33389 8.54507 7.41653 8.52836 7.5 8.52832C7.58361 8.52832 7.66696 8.54499 7.74414 8.57715C7.82123 8.6093 7.89138 8.65652 7.9502 8.71582L10.6924 11.4658L10.833 11.6084L15.9746 6.4668H13.334C13.166 6.4668 13.0045 6.40001 12.8857 6.28125C12.767 6.16248 12.7002 6.00098 12.7002 5.83301C12.7003 5.66522 12.7671 5.50443 12.8857 5.38574C13.0045 5.26697 13.166 5.2002 13.334 5.2002H17.498Z" fill="white"/>
</svg>
