<svg width="24" height="24" viewBox="0 0 24 24" fill="none" xmlns="http://www.w3.org/2000/svg">
<path d="M14.4773 6.53213L14.4825 6.52929M14.4773 6.53213L14.4806 6.52993M14.4773 6.53213L14.4825 6.52929M14.4773 6.53213L14.4806 6.52993M14.4825 6.52929L14.4806 6.52993M14.4825 6.52929L14.4806 6.52993M12.7468 6.26213C12.7489 6.2666 12.7511 6.27097 12.7534 6.27532C12.7552 6.27836 12.7568 6.28128 12.7585 6.2839L12.7594 6.28358C12.7551 6.27657 12.7526 6.26869 12.7486 6.26148M12.7468 6.26213L12.7486 6.26148M12.7468 6.26213L12.7486 6.26148M12.7468 6.26213L12.7426 6.25013C12.7446 6.25397 12.7466 6.2577 12.7486 6.26148M6.01837 4.26081C6.17131 4.16614 6.38283 4.12123 6.53175 4.09889C6.65866 4.07986 6.80712 4.06822 6.95332 4.07435L7.098 4.08608L7.32301 4.12366C7.85293 4.22475 8.42216 4.42781 8.95986 4.65368C9.58005 4.9142 10.1921 5.21985 10.6946 5.47121L11.332 5.78517C11.5124 5.87137 11.6632 5.94007 11.7927 5.99206C11.9204 6.04333 12.0123 6.07233 12.079 6.08692C12.1416 6.10059 12.1672 6.09808 12.1696 6.0978C12.3271 6.07424 12.4813 6.05451 12.63 6.03909C12.5498 5.83885 12.5178 5.62109 12.5394 5.40373C12.5704 5.09165 12.7094 4.79982 12.9318 4.57873C13.1543 4.35769 13.4464 4.22018 13.7586 4.19105C14.0506 4.16382 14.3421 4.23455 14.591 4.38763C14.5985 4.38673 14.6074 4.38596 14.6178 4.3845C14.6326 4.38242 14.6485 4.38032 14.668 4.37737C14.7525 4.36465 14.8716 4.34439 15.0151 4.31981L15.016 4.31949C15.336 4.26504 15.7908 4.18803 16.1984 4.14005L16.1993 4.13973C16.3323 4.12307 16.4456 4.11331 16.538 4.10574C16.769 4.08681 16.9829 4.22887 17.0545 4.44936C17.1259 4.66977 17.0369 4.9105 16.8389 5.03088C16.7485 5.08587 16.6392 5.14836 16.5081 5.21826C16.3221 5.31735 16.1235 5.41473 15.9379 5.50229L15.4457 5.72817C15.3458 5.77318 15.2645 5.80899 15.209 5.83528L15.2102 5.83589C15.205 5.83837 15.2004 5.84081 15.1961 5.84286C15.1602 5.99559 15.0998 6.14146 15.0138 6.27325C14.9379 6.38964 14.8441 6.49269 14.737 6.58038C14.7556 6.65773 14.7544 6.72225 14.7519 6.75407C14.748 6.80357 14.7382 6.84895 14.7271 6.88781C14.7045 6.96614 14.6684 7.04421 14.6229 7.12047C14.5317 7.27317 14.3851 7.44725 14.162 7.6446L14.1623 7.64552C13.3545 8.35853 11.8057 9.14193 10.144 9.71958C8.55759 10.271 6.9644 10.6068 5.88014 10.5907C5.52362 10.5855 5.26178 10.542 5.07077 10.4782C4.97533 10.4463 4.88855 10.4058 4.81441 10.3564C4.77766 10.3319 4.73745 10.301 4.70018 10.2627C4.67354 10.2353 4.62259 10.1749 4.5858 10.0854C4.58158 10.0835 4.5759 10.0813 4.56904 10.0788C4.54966 10.0717 4.52262 10.0646 4.48599 10.057C4.2604 10.0101 4.09603 9.81459 4.08802 9.58432C4.08004 9.35409 4.23049 9.14797 4.45224 9.08551L4.83143 8.98368L5.22108 8.87925C5.61631 8.76985 6.02368 8.6422 6.40451 8.46476C6.88626 8.24029 7.28559 7.95068 7.54888 7.55725C7.54031 7.53863 7.53024 7.51329 7.51272 7.48297C7.48437 7.43392 7.45002 7.3822 7.40712 7.31601C7.28105 7.12127 7.10081 6.86437 6.90016 6.58035C6.73487 6.34612 6.49658 6.00887 6.28812 5.69409C6.18397 5.53683 6.08386 5.38013 6.00283 5.2422C5.92882 5.11623 5.84795 4.9684 5.80652 4.84106L5.78693 4.75792C5.75873 4.56375 5.84707 4.3669 6.01837 4.26081Z" stroke="#5A5E66" stroke-linejoin="round"/>
<path d="M8.4123 15.3636C8.56561 15.2682 8.77756 15.2227 8.92628 15.2005C9.05323 15.1814 9.20169 15.1698 9.34785 15.1759L9.49253 15.1876L9.49286 15.1886C10.084 15.269 10.7398 15.4971 11.3544 15.7552C11.9746 16.0158 12.5866 16.3214 13.0891 16.5728L13.7266 16.8867C13.9069 16.973 14.0578 17.0416 14.1872 17.0936C14.315 17.1449 14.4068 17.1739 14.4735 17.1885C14.5394 17.2029 14.5642 17.1994 14.5641 17.1994C14.7227 17.1757 14.8779 17.1561 15.0276 17.1406C15.0197 17.1209 15.01 17.102 15.003 17.0819C14.9098 16.8137 14.9036 16.5228 14.985 16.2508C15.0665 15.9786 15.2317 15.7385 15.4571 15.5656C15.6824 15.3929 15.9564 15.2953 16.2401 15.2872C16.5044 15.2796 16.7644 15.3507 16.9886 15.4891C16.9954 15.4883 17.0033 15.4873 17.0123 15.4861C17.0273 15.484 17.0438 15.4816 17.0635 15.4786C17.144 15.4664 17.2546 15.448 17.3902 15.425L17.4105 15.4211L17.4114 15.4207C17.7325 15.3661 18.1894 15.2888 18.5979 15.2409C18.7287 15.2256 18.8415 15.2144 18.9387 15.2072C19.169 15.1903 19.3812 15.3332 19.4518 15.553C19.5223 15.7729 19.4327 16.0125 19.2356 16.1327C19.1452 16.1877 19.0364 16.2511 18.9051 16.321C18.5353 16.5181 18.1148 16.7074 17.847 16.8284L17.8427 16.8309L17.8418 16.8313L17.6029 16.9381C17.5991 16.9399 17.5954 16.9413 17.5921 16.9429C17.5563 17.0961 17.4967 17.2429 17.4105 17.3751C17.3343 17.4919 17.2395 17.595 17.1319 17.6829C17.1502 17.7598 17.1489 17.8239 17.1464 17.8556C17.1425 17.9052 17.1328 17.9505 17.1216 17.9894C17.099 18.0678 17.0629 18.1457 17.0174 18.222C16.9262 18.3748 16.7798 18.5488 16.5565 18.7462L16.5568 18.7471C15.7492 19.4601 14.2005 20.2434 12.5385 20.8211C10.9523 21.3725 9.35898 21.7083 8.27467 21.6923C7.91812 21.687 7.65631 21.6436 7.4653 21.5798C7.36997 21.5479 7.28335 21.5082 7.20926 21.4589C7.17247 21.4344 7.13237 21.4036 7.09503 21.3652C7.06852 21.338 7.01731 21.2769 6.98033 21.1869C6.97609 21.185 6.97046 21.1829 6.96357 21.1804C6.94409 21.1732 6.91703 21.1653 6.8802 21.1576C6.65469 21.1106 6.4905 20.9161 6.48255 20.6859C6.47461 20.4557 6.62505 20.2495 6.84677 20.1871L7.22596 20.0852L7.61562 19.9808C8.01079 19.8714 8.41824 19.7438 8.79904 19.5663C9.28069 19.3419 9.67999 19.0522 9.94341 18.6588C9.93484 18.6402 9.92385 18.6152 9.90633 18.5849L9.80165 18.4176C9.67891 18.228 9.50441 17.9799 9.30949 17.7037L9.29469 17.6819L9.29345 17.6813C9.12809 17.447 8.88974 17.1096 8.68141 16.7951C8.5774 16.638 8.47829 16.4816 8.39736 16.3438C8.32335 16.2178 8.24208 16.0693 8.20073 15.9417L8.18146 15.8595C8.15335 15.6657 8.24157 15.4698 8.4123 15.3636ZM15.2963 17.1165C15.2913 17.1169 15.2861 17.1171 15.2812 17.1176C15.2795 17.1178 15.2779 17.118 15.2762 17.1183C15.2827 17.1178 15.2897 17.1167 15.2963 17.1165Z" stroke="#5A5E66" stroke-linejoin="round"/>
</svg>
