<svg width="24" height="24" viewBox="0 0 24 24" fill="none" xmlns="http://www.w3.org/2000/svg">
<g id="icon/profile_delegateaccess">
<g id="Vector">
<path fill-rule="evenodd" clip-rule="evenodd" d="M10.4906 2.66699C12.8818 2.66699 14.8202 4.59469 14.8202 6.97262C14.8202 9.35055 12.8818 11.2782 10.4906 11.2782C8.0994 11.2782 6.16101 9.35055 6.16101 6.97262C6.16101 4.59469 8.0994 2.66699 10.4906 2.66699ZM13.453 6.97262C13.453 5.34561 12.1267 4.02666 10.4906 4.02666C8.85458 4.02666 7.52826 5.34561 7.52826 6.97262C7.52826 8.59963 8.85458 9.91857 10.4906 9.91857C12.1267 9.91857 13.453 8.59963 13.453 6.97262Z" fill="#0166FF"/>
<path d="M15.2685 5.15518C15.2685 4.77972 15.5746 4.47534 15.9522 4.47534C17.7179 4.47534 19.3703 5.6835 19.3703 7.42129C19.3703 9.15909 17.7179 10.3672 15.9522 10.3672C15.5746 10.3672 15.2685 10.0629 15.2685 9.68741C15.2685 9.31195 15.5746 9.00758 15.9522 9.00758C17.2068 9.00758 18.003 8.18658 18.003 7.42129C18.003 6.65601 17.2068 5.83501 15.9522 5.83501C15.5746 5.83501 15.2685 5.53064 15.2685 5.15518Z" fill="#0166FF"/>
<path fill-rule="evenodd" clip-rule="evenodd" d="M10.4845 12.6327C12.1109 12.6327 13.6141 13.0685 14.7308 13.8088C15.8427 14.546 16.6371 15.639 16.6371 16.9383C16.6371 18.2376 15.8427 19.3306 14.7308 20.0678C13.6141 20.8081 12.1109 21.2439 10.4845 21.2439C8.85808 21.2439 7.35484 20.8081 6.23807 20.0678C5.12623 19.3306 4.33186 18.2376 4.33186 16.9383C4.33186 15.639 5.12623 14.546 6.23807 13.8088C7.35484 13.0685 8.85808 12.6327 10.4845 12.6327ZM15.2698 16.9383C15.2698 16.2351 14.8399 15.5152 13.9724 14.9401C13.1097 14.3681 11.8785 13.9923 10.4845 13.9923C9.09042 13.9923 7.85917 14.3681 6.99653 14.9401C6.12906 15.5152 5.6991 16.2351 5.6991 16.9383C5.6991 17.6415 6.12906 18.3613 6.99653 18.9365C7.85917 19.5084 9.09042 19.8842 10.4845 19.8842C11.8785 19.8842 13.1097 19.5084 13.9724 18.9365C14.8399 18.3613 15.2698 17.6415 15.2698 16.9383Z" fill="#0166FF"/>
<path d="M17.9393 13.5583C17.5705 13.4779 17.2059 13.7099 17.1251 14.0767C17.0442 14.4434 17.2776 14.806 17.6464 14.8864C18.3686 15.0439 18.9458 15.3144 19.3268 15.6244C19.7082 15.9348 19.8437 16.238 19.8437 16.4885C19.8437 16.7389 19.7082 17.0421 19.3268 17.3525C18.9458 17.6625 18.3686 17.933 17.6464 18.0905C17.2776 18.1709 17.0442 18.5335 17.1251 18.9002C17.2059 19.267 17.5705 19.499 17.9393 19.4186C18.816 19.2275 19.6061 18.8821 20.1926 18.4048C20.7787 17.9279 21.2109 17.2723 21.2109 16.4885C21.2109 15.7046 20.7787 15.049 20.1926 14.5721C19.6061 14.0948 18.816 13.7494 17.9393 13.5583Z" fill="#0166FF"/>
</g>
</g>
</svg>
