<svg width="22" height="19" viewBox="0 0 22 19" fill="none" xmlns="http://www.w3.org/2000/svg">
<path d="M18.6581 8.46998H19.2581H18.6581ZM18.6581 10.0441L19.1073 10.4418C18.9991 10.5641 18.8457 10.6369 18.6826 10.6436C18.5195 10.6502 18.3607 10.5901 18.2429 10.4772L18.6581 10.0441ZM15.4848 7.83271C15.2456 7.60337 15.2376 7.22356 15.4669 6.98437C15.6962 6.74517 16.0761 6.73718 16.3152 6.96651L15.9 7.39961L15.4848 7.83271ZM20.5508 7.00182C20.7705 6.75375 21.1497 6.73073 21.3978 6.95043C21.6459 7.17012 21.6689 7.54932 21.4492 7.7974L21 7.39961L20.5508 7.00182ZM5.32065 3.55705C5.09563 3.8003 4.71602 3.81508 4.47277 3.59005C4.22952 3.36503 4.21474 2.98542 4.43977 2.74217L4.88021 3.14961L5.32065 3.55705ZM2.94817 8.15517L2.49962 7.75666C2.60799 7.63468 2.76137 7.5621 2.92441 7.55564C3.08746 7.54918 3.2461 7.6094 3.36378 7.72242L2.94817 8.15517ZM6.1157 10.3654C6.3547 10.5949 6.36237 10.9747 6.13284 11.2137C5.9033 11.4527 5.52348 11.4604 5.28448 11.2309L5.70009 10.7981L6.1157 10.3654ZM1.04864 11.1966C0.828556 11.4444 0.449318 11.4668 0.201591 11.2467C-0.0461349 11.0266 -0.0685425 10.6474 0.151545 10.3996L0.600094 10.7981L1.04864 11.1966ZM16.3126 14.6697C16.5394 14.4281 16.9191 14.4161 17.1607 14.6428C17.4023 14.8696 17.4144 15.2493 17.1876 15.4909L16.7501 15.0803L16.3126 14.6697ZM10.7257 0.599609V-0.000390649C15.4336 -0.000390649 19.2581 3.78749 19.2581 8.46998H18.6581H18.0581C18.0581 4.4591 14.7797 1.19961 10.7257 1.19961V0.599609ZM18.6581 8.46998H19.2581L19.2581 10.0441H18.6581H18.0581L18.0581 8.46998L18.6581 8.46998ZM18.6581 10.0441L18.2429 10.4772L15.4848 7.83271L15.9 7.39961L16.3152 6.96651L19.0734 9.61096L18.6581 10.0441ZM18.6581 10.0441L18.209 9.64627L20.5508 7.00182L21 7.39961L21.4492 7.7974L19.1073 10.4418L18.6581 10.0441ZM4.88021 3.14961L4.43977 2.74217C5.99912 1.05651 8.23897 -0.000390649 10.7257 -0.000390649V0.599609V1.19961C8.58564 1.19961 6.6613 2.10782 5.32065 3.55705L4.88021 3.14961ZM10.9109 17.5996V18.1996C6.18847 18.1996 2.34817 14.4139 2.34817 9.72924H2.94817H3.54817C3.54817 13.738 6.83797 16.9996 10.9109 16.9996V17.5996ZM2.94817 9.72924H2.34817V8.15517H2.94817H3.54817V9.72924H2.94817ZM2.94817 8.15517L3.36378 7.72242L6.1157 10.3654L5.70009 10.7981L5.28448 11.2309L2.53256 8.58791L2.94817 8.15517ZM2.94817 8.15517L3.39672 8.55367L1.04864 11.1966L0.600094 10.7981L0.151545 10.3996L2.49962 7.75666L2.94817 8.15517ZM16.7501 15.0803L17.1876 15.4909C15.6239 17.1571 13.3894 18.1996 10.9109 18.1996V17.5996V16.9996C13.0466 16.9996 14.9678 16.1026 16.3126 14.6697L16.7501 15.0803Z" fill="white"/>
</svg>
