<svg width="24" height="24" viewBox="0 0 24 24" fill="none" xmlns="http://www.w3.org/2000/svg">
<path d="M6.9351 21.2653C7.48821 20.7122 7.79895 19.962 7.79895 19.1798C7.79895 18.3976 7.48821 17.6474 6.9351 17.0943C6.66123 16.8204 6.3361 16.6032 5.97827 16.455C5.62043 16.3068 5.23691 16.2305 4.8496 16.2305C4.06738 16.2305 3.31721 16.5412 2.7641 17.0943C1.94326 17.9145 1.62036 19.1857 1.51768 20.3375C1.45936 20.9889 1.46309 21.6445 1.52882 22.2952C1.53593 22.3465 1.55939 22.3941 1.59572 22.431C1.63205 22.4679 1.6793 22.4921 1.73047 22.5H1.73789C1.80408 22.5 2.74678 22.5216 3.03688 21.6037C3.08917 21.4322 3.16583 21.269 3.26452 21.1193C3.30481 21.0594 3.36429 21.0149 3.4332 20.9932C3.5021 20.9715 3.57634 20.9738 3.64373 20.9999C3.71112 21.0259 3.76766 21.0741 3.80407 21.1365C3.84048 21.1989 3.8546 21.2718 3.84412 21.3433C3.79696 21.6927 3.86934 22.0478 4.04948 22.3509C4.06937 22.3845 4.09883 22.4114 4.13409 22.4281C4.16936 22.4449 4.20882 22.4507 4.24742 22.4449C5.2328 22.2946 6.24354 21.9569 6.9351 21.2653Z" fill="url(#paint0_linear_47249_172407)"/>
<path d="M22.4829 3.3629C22.4211 2.33855 21.6899 1.60678 20.6662 1.54555C17.1855 1.33833 13.3108 2.81299 10.2879 5.83655L9.48374 6.64069C9.19507 6.92936 8.91898 7.2273 8.65547 7.53452H6.11316C5.84989 7.54805 5.5942 7.62731 5.36945 7.76508C5.1447 7.90285 4.95805 8.09473 4.82654 8.3232L3.3296 11.3146C3.28955 11.4219 3.26154 11.5333 3.24609 11.6468C3.24834 11.8388 3.32564 12.0224 3.46146 12.1582C3.59728 12.294 3.78085 12.3713 3.97291 12.3736H5.86573C5.6183 13.1981 5.78408 14.0091 6.30801 14.533L9.49858 17.7236C10.0225 18.2475 10.8335 18.4108 11.658 18.1659V20.0543C11.6603 20.2464 11.7375 20.43 11.8734 20.5658C12.0092 20.7016 12.1928 20.7789 12.3848 20.7812C12.4982 20.7656 12.6096 20.7378 12.717 20.6983L15.701 19.2044C15.9294 19.0727 16.1212 18.886 16.259 18.6611C16.3968 18.4363 16.476 18.1805 16.4896 17.9172V15.3755C16.7956 15.1132 17.0944 14.8378 17.3859 14.5491L18.1901 13.7449C21.2155 10.7177 22.6908 6.84111 22.4829 3.3629Z" fill="url(#paint1_linear_47249_172407)"/>
<path d="M17.8433 9.09842C18.3283 9.00193 18.7737 8.7638 19.1234 8.41413C19.3555 8.18202 19.5397 7.90645 19.6654 7.60316C19.791 7.29986 19.8557 6.97478 19.8557 6.64648C19.8557 6.31819 19.791 5.99311 19.6654 5.68981C19.5397 5.38652 19.3555 5.11094 19.1234 4.87884C18.7737 4.52917 18.3283 4.29104 17.8433 4.19455C17.3584 4.09806 16.8557 4.14755 16.3988 4.33675C15.942 4.52596 15.5515 4.84639 15.2768 5.25752C15.0021 5.66865 14.8555 6.15202 14.8555 6.64648C14.8555 7.14095 15.0021 7.62431 15.2768 8.03544C15.5515 8.44657 15.942 8.76701 16.3988 8.95621C16.8557 9.14542 17.3584 9.19491 17.8433 9.09842Z" fill="white"/>
<defs>
<linearGradient id="paint0_linear_47249_172407" x1="6.35117" y1="21.8492" x2="2.18017" y2="17.6782" gradientUnits="userSpaceOnUse">
<stop stop-color="#FE7838"/>
<stop offset="0.54" stop-color="#FE7636"/>
<stop offset="1" stop-color="#FFAD8A"/>
</linearGradient>
<linearGradient id="paint1_linear_47249_172407" x1="20.5" y1="14.999" x2="4.5" y2="2.99902" gradientUnits="userSpaceOnUse">
<stop stop-color="#6F2EFE"/>
<stop offset="0.52" stop-color="#6F2EFE"/>
<stop offset="1" stop-color="#AE90FF"/>
</linearGradient>
</defs>
</svg>
