<svg width="36" height="36" viewBox="0 0 36 36" fill="none" xmlns="http://www.w3.org/2000/svg">
<g clip-path="url(#clip0_80803_354703)">
<rect width="36" height="36" rx="10" fill="#B8BCCA"/>
<rect width="36" height="36" rx="10" fill="#E1EAF8"/>
<path d="M23 24.875C23 26.6016 19.6406 28 15.5 28C11.3594 28 8 26.6016 8 24.875V23.4922C8.48828 23.8945 9.07812 24.2227 9.71484 24.4883C11.2578 25.1328 13.3047 25.5 15.5 25.5C17.6953 25.5 19.7422 25.1328 21.2852 24.4883C21.9219 24.2227 22.5156 23.8945 23 23.4922V24.875ZM23 21.125C23 21.8281 22.4414 22.4766 21.5 23C21.4297 23.0391 21.3594 23.0742 21.2852 23.1133C19.9102 23.8086 17.8281 24.25 15.5 24.25C13.0469 24.25 10.8672 23.7578 9.5 23C8.55859 22.4766 8 21.8281 8 21.125V19.7422C8.48828 20.1445 9.07812 20.4727 9.71484 20.7383C11.2578 21.3828 13.3047 21.75 15.5 21.75C17.6953 21.75 19.7422 21.3828 21.2852 20.7383C21.5898 20.6133 21.8828 20.4688 22.1602 20.3125C22.3984 20.1797 22.6211 20.0312 22.832 19.875C22.8906 19.832 22.9453 19.7852 23 19.7422V21.125ZM15.5 14.25C15.668 14.25 15.8348 14.2523 16 14.2568V15.0225C16 17.219 17.781 19 19.9775 19H21.9004C21.7906 19.0746 21.6746 19.1486 21.5508 19.2188C21.5469 19.2227 21.5391 19.2227 21.5352 19.2266C21.5234 19.2344 21.5117 19.2383 21.5 19.2461C20.1328 20.0039 17.9531 20.4961 15.5 20.4961C13.1719 20.4961 11.0898 20.0547 9.71094 19.3594C9.63672 19.3242 9.56641 19.2852 9.49609 19.2461C8.55859 18.7266 8 18.0781 8 17.375C8 16.0156 10.0859 14.8555 13 14.4297C13.4102 14.3711 13.8359 14.3242 14.2773 14.293C14.6758 14.2656 15.0859 14.25 15.5 14.25Z" fill="white"/>
<path d="M25.4231 8.76962C25.5902 8.76964 25.6262 8.9174 25.5505 9.02317C25.0899 9.66436 24.3179 9.96393 24.3176 10.3605V12.3889C24.3176 12.996 25.4255 13.3237 25.9165 13.9177C26.1144 14.1571 26.0452 14.4967 25.7357 14.4969H22.2718C21.9616 14.4968 21.874 14.139 22.0915 13.9171C22.6181 13.3833 23.6812 13.001 23.6812 12.3889V10.3605C23.6808 9.96593 22.9256 9.66457 22.4582 9.02441C22.381 8.91882 22.3889 8.76962 22.585 8.76962H25.4231Z" fill="white"/>
<path fill-rule="evenodd" clip-rule="evenodd" d="M27.0227 4C29.2193 4 31 5.78069 31 7.97727V14.0227C31 16.2193 29.2193 18 27.0227 18H20.9773C18.7807 18 17 16.2193 17 14.0227V7.97727C17 5.78069 18.7807 4 20.9773 4H27.0227ZM21.8044 6.54235C21.6646 6.54191 21.526 6.57118 21.398 6.62749C21.2699 6.68386 21.1547 6.76636 21.0605 6.86985C20.9728 6.96678 20.9063 7.08123 20.8654 7.20543C20.8246 7.3295 20.8102 7.46076 20.8232 7.59073C20.984 9.1355 21.6879 9.7627 22.2015 10.2201C22.556 10.5358 22.7265 10.7006 22.7267 10.9969C22.7267 11.2971 22.5556 11.4655 22.1997 11.7874C21.6926 12.2468 20.9968 12.8763 20.8238 14.4006C20.8098 14.5301 20.8229 14.6613 20.8629 14.7852C20.903 14.9092 20.969 15.0234 21.0562 15.1202C21.1506 15.2249 21.266 15.3086 21.3949 15.3657C21.5238 15.4228 21.6635 15.4518 21.8044 15.4514H26.195C26.3358 15.4518 26.4751 15.4227 26.6039 15.3657C26.7327 15.3086 26.8482 15.2249 26.9426 15.1202C27.0298 15.0234 27.0957 14.9092 27.1358 14.7852C27.1759 14.6613 27.189 14.5301 27.175 14.4006C27.0012 12.8717 26.3038 12.2377 25.7941 11.7756C25.4417 11.4548 25.2721 11.2874 25.2721 10.9969C25.2722 10.7105 25.441 10.5466 25.7923 10.2325C26.3079 9.77175 27.0141 9.14043 27.1756 7.59073C27.1885 7.46069 27.1738 7.3295 27.1327 7.20543C27.0916 7.08122 27.025 6.96665 26.937 6.86985C26.843 6.76654 26.7285 6.68385 26.6008 6.62749C26.473 6.57115 26.3346 6.54207 26.195 6.54235H21.8044Z" fill="white"/>
</g>
<defs>
<clipPath id="clip0_80803_354703">
<rect width="36" height="36" fill="white"/>
</clipPath>
</defs>
</svg>
