<svg width="20" height="20" viewBox="0 0 20 20" fill="none" xmlns="http://www.w3.org/2000/svg">
<path d="M15.393 6.19238H15.3949C15.8954 6.33694 16.335 6.64114 16.6478 7.05762C16.9572 7.46969 17.1265 7.97041 17.1293 8.48535L16.6293 14.4443L16.5932 14.6914C16.4833 15.261 16.1943 15.7831 15.765 16.1797C15.2745 16.6328 14.6349 16.891 13.9672 16.9043H6.49062C5.85738 16.8916 5.24924 16.6587 4.7697 16.2481L3.87831 17.0615C4.58455 17.7138 5.50598 18.0843 6.46718 18.1035H13.9906C14.8918 18.0856 15.7581 17.7589 16.4447 17.1807L16.5795 17.0615C17.2857 16.4091 17.7285 15.5202 17.8236 14.5635L17.8246 14.5537L18.3266 8.55371C18.3279 8.53749 18.3285 8.52116 18.3285 8.50488C18.3299 7.72329 18.077 6.962 17.6078 6.33691C17.271 5.88842 16.8358 5.5275 16.3394 5.27928L15.393 6.19238Z" fill="#0F1419"/>
<path d="M12.5432 8.80404C13.0622 9.36566 13.3793 10.1165 13.3793 10.9414C13.3793 12.6811 11.9686 14.0918 10.2289 14.0918C9.35725 14.0917 8.5699 13.7363 8.00014 13.1635L7.13799 14C7.92609 14.7968 9.01947 15.2909 10.2289 15.291C12.6313 15.291 14.5785 13.3438 14.5785 10.9414C14.5785 9.80701 14.1444 8.77428 13.4332 8L12.5432 8.80404Z" fill="#0F1419"/>
<path d="M9.4789 1.9043C8.92014 1.90435 8.36838 2.0343 7.86855 2.28418C7.37003 2.53357 6.93584 2.89528 6.60097 3.34082L5.96327 4.18066L5.96034 4.18555C5.69177 4.54657 5.32528 4.82198 4.90663 4.97949L4.72402 5.03906L4.72109 5.04004C3.97201 5.2586 3.31351 5.71494 2.84609 6.33984C2.3786 6.96479 2.12731 7.72544 2.12929 8.50586C2.12934 8.52182 2.12992 8.5378 2.13124 8.55371L2.6332 14.5537L2.63417 14.5635C2.63759 14.5978 2.64354 14.6319 2.64784 14.666L3.76112 13.6338L3.32948 8.48535C3.33183 7.9711 3.4988 7.47065 3.80702 7.05859C4.11857 6.6421 4.55763 6.33811 5.05702 6.19238C5.80349 5.97858 6.45976 5.52535 6.92323 4.90234L7.55702 4.06641L7.55898 4.06348C7.78247 3.76559 8.07266 3.52398 8.40566 3.35742C8.73886 3.19085 9.1064 3.10357 9.4789 3.10352H10.9789C11.3514 3.10352 11.719 3.19089 12.0521 3.35742C12.3852 3.52395 12.6753 3.76561 12.8988 4.06348L13.3861 4.71289L14.2709 3.89258L13.8588 3.34375C13.5236 2.89691 13.0889 2.53406 12.5892 2.28418C12.0894 2.03432 11.5377 1.9043 10.9789 1.9043H9.4789Z" fill="#0F1419"/>
<path d="M10.2289 6.5918C7.82665 6.59199 5.8793 8.53911 5.87929 10.9414C5.87929 11.1724 5.8993 11.3989 5.93398 11.6201L7.10683 10.5332C7.30009 9.04096 8.53609 7.87521 10.0609 7.79492L11.2328 6.70898C10.9106 6.63288 10.5744 6.5918 10.2289 6.5918Z" fill="#0F1419"/>
<path d="M18.0958 2.98958C17.9059 2.78918 17.5892 2.78034 17.3887 2.97005L1.55574 17.97C1.35529 18.1599 1.34635 18.4766 1.53621 18.6771C1.7261 18.8775 2.04277 18.8864 2.24324 18.6966L18.0762 3.69661C18.2766 3.50676 18.2855 3.19006 18.0958 2.98958Z" fill="#0F1419"/>
</svg>
