<svg width="25" height="24" viewBox="0 0 25 24" fill="none" xmlns="http://www.w3.org/2000/svg">
<path d="M4.25 12C4.25 8.22876 4.25 6.34315 5.42157 5.17157C6.59315 4 8.47876 4 12.25 4C16.0212 4 17.9069 4 19.0784 5.17157C20.25 6.34315 20.25 8.22876 20.25 12C20.25 15.7712 20.25 17.6569 19.0784 18.8284C17.9069 20 16.0212 20 12.25 20C8.47876 20 6.59315 20 5.42157 18.8284C4.25 17.6569 4.25 15.7712 4.25 12Z" stroke="white" stroke-width="1.2"/>
<path d="M12.25 15.75C13.6307 15.75 14.75 14.9105 14.75 13.875C14.75 12.8395 13.6307 12 12.25 12C10.8693 12 9.75 11.1605 9.75 10.125C9.75 9.08947 10.8693 8.25 12.25 8.25M12.25 15.75C10.8693 15.75 9.75 14.9105 9.75 13.875M12.25 15.75V16.5M12.25 7.5V8.25M12.25 8.25C13.6307 8.25 14.75 9.08947 14.75 10.125" stroke="white" stroke-width="1.2" stroke-linecap="round"/>
</svg>
