<svg width="24" height="24" viewBox="0 0 24 24" fill="none" xmlns="http://www.w3.org/2000/svg">
<path d="M7.75305 8.50969C7.66756 9.42167 7.60756 11.0356 8.14605 11.7226C8.14605 11.7226 7.89255 9.94967 10.165 7.7252C11.08 6.82972 11.2915 5.61174 10.972 4.69825C10.7905 4.18076 10.459 3.75327 10.171 3.45477C10.003 3.27927 10.132 2.98978 10.3765 3.00028C11.8555 3.06628 14.2524 3.47727 15.2709 6.03323C15.7179 7.15521 15.7509 8.31469 15.5379 9.49367C15.4029 10.2467 14.9229 11.9206 16.0179 12.1261C16.7994 12.2731 17.1774 11.6521 17.3469 11.2051C17.4174 11.0191 17.6619 10.9727 17.7939 11.1211C19.1139 12.6226 19.2264 14.3911 18.9534 15.9136C18.4254 18.8565 15.4449 20.9985 12.484 20.9985C8.78504 20.9985 5.84058 18.882 5.0771 15.0511C4.7696 13.5046 4.9256 10.4447 7.31056 8.28469C7.48756 8.1227 7.77705 8.26669 7.75305 8.50969Z" fill="url(#paint0_radial_80446_62561)"/>
<path d="M13.8359 14.0123C12.4724 12.2573 13.0829 10.2549 13.4174 9.45688C13.4624 9.35188 13.3424 9.25288 13.2479 9.31738C12.6614 9.71638 11.4599 10.6554 10.9004 11.9768C10.1429 13.7633 10.1969 14.6378 10.6454 15.7058C10.9154 16.3493 10.6019 16.4858 10.4444 16.5098C10.2914 16.5338 10.1504 16.4318 10.0379 16.3253C9.71434 16.0145 9.48372 15.6198 9.37192 15.1853C9.34793 15.0923 9.22643 15.0668 9.17093 15.1433C8.75093 15.7238 8.53344 16.6553 8.52294 17.3138C8.48994 19.3492 10.1714 20.9992 12.2054 20.9992C14.7688 20.9992 16.6363 18.1642 15.1633 15.7943C14.7358 15.1043 14.3338 14.6528 13.8359 14.0123Z" fill="url(#paint1_radial_80446_62561)"/>
<defs>
<radialGradient id="paint0_radial_80446_62561" cx="0" cy="0" r="1" gradientTransform="matrix(-10.5879 -0.0459514 -0.0754916 17.3726 11.7514 21.0451)" gradientUnits="userSpaceOnUse">
<stop offset="0.314" stop-color="#FF9800"/>
<stop offset="0.662" stop-color="#FF6D00"/>
<stop offset="0.972" stop-color="#F44336"/>
</radialGradient>
<radialGradient id="paint1_radial_80446_62561" cx="0" cy="0" r="1" gradientTransform="matrix(-0.111896 11.0777 8.33681 0.084199 12.3464 10.5081)" gradientUnits="userSpaceOnUse">
<stop offset="0.214" stop-color="#FFF176"/>
<stop offset="0.328" stop-color="#FFF27D"/>
<stop offset="0.487" stop-color="#FFF48F"/>
<stop offset="0.672" stop-color="#FFF7AD"/>
<stop offset="0.793" stop-color="#FFF9C4"/>
<stop offset="0.822" stop-color="#FFF8BD" stop-opacity="0.804"/>
<stop offset="0.863" stop-color="#FFF6AB" stop-opacity="0.529"/>
<stop offset="0.91" stop-color="#FFF38D" stop-opacity="0.209"/>
<stop offset="0.941" stop-color="#FFF176" stop-opacity="0"/>
</radialGradient>
</defs>
</svg>
