<svg width="24" height="24" viewBox="0 0 24 24" fill="none" xmlns="http://www.w3.org/2000/svg">
<path d="M16.7306 4.271C16.5436 4.083 16.2896 3.97697 16.0244 3.97622C15.7592 3.97547 15.5046 4.08006 15.3166 4.267C15.2173 4.36806 15.1406 4.48907 15.0916 4.622C14.2596 6.358 13.3436 7.337 12.1876 7.915C10.8906 8.555 9.40156 9 7.00156 9C6.80426 9.00145 6.61171 9.06066 6.44768 9.17031C6.28365 9.27996 6.15532 9.43525 6.07856 9.617C6.00285 9.79978 5.98306 10.0009 6.02169 10.1949C6.06032 10.389 6.15562 10.5672 6.29556 10.707L10.5016 15L14.2936 18.705C14.3869 18.7981 14.4977 18.8719 14.6196 18.922C14.7429 18.9733 14.8702 18.9993 15.0016 19C15.1986 19.001 15.2616 18.973 15.3836 18.922C15.5661 18.8465 15.7222 18.7187 15.8322 18.5546C15.9422 18.3905 16.0011 18.1975 16.0016 18C16.0016 15.6 16.4456 14.111 17.0846 12.834C17.6616 11.678 18.6406 10.762 20.3776 9.93C20.5101 9.88087 20.6308 9.80419 20.7316 9.705C20.9185 9.51695 21.0231 9.26234 21.0223 8.99718C21.0216 8.73201 20.9156 8.478 20.7276 8.291L16.7306 4.271Z" stroke="black"/>
<path d="M4.64791 19.6464C4.45265 19.8417 4.45265 20.1583 4.64791 20.3536C4.84317 20.5488 5.15976 20.5488 5.35502 20.3536L4.64791 19.6464ZM5.35502 20.3536L10.855 14.8536L10.1479 14.1464L4.64791 19.6464L5.35502 20.3536Z" fill="black"/>
</svg>
