<svg width="48" height="48" viewBox="0 0 48 48" fill="none" xmlns="http://www.w3.org/2000/svg">
<rect x="0.5" y="0.5" width="47" height="47" rx="13.5" fill="#F5F7FF"/>
<rect x="0.5" y="0.5" width="47" height="47" rx="13.5" stroke="#E1EAF8"/>
<path d="M33.5328 20.8666V18.7332M33.5328 18.7332V16.5999M33.5328 18.7332H35.6661M33.5328 18.7332H31.3995M23.9328 18.7332C23.9328 21.0897 22.0226 22.9999 19.6661 22.9999C17.3097 22.9999 15.3995 21.0897 15.3995 18.7332C15.3995 16.3768 17.3097 14.4666 19.6661 14.4666C22.0226 14.4666 23.9328 16.3768 23.9328 18.7332ZM28.1995 30.9999C28.1995 33.6509 28.1995 35.7999 19.6661 35.7999C11.1328 35.7999 11.1328 33.6509 11.1328 30.9999C11.1328 28.3489 14.9533 26.1999 19.6661 26.1999C24.379 26.1999 28.1995 28.3489 28.1995 30.9999ZM38.8661 18.7332C38.8661 21.6788 36.4783 24.0666 33.5328 24.0666C32.6796 24.0666 31.8733 23.8662 31.1582 23.5101C30.9681 23.4154 30.7509 23.3839 30.5458 23.4388L29.3586 23.7564C28.8432 23.8943 28.3717 23.4228 28.5096 22.9074L28.8273 21.7202C28.8821 21.5151 28.8506 21.2979 28.756 21.1079C28.3998 20.3928 28.1995 19.5864 28.1995 18.7332C28.1995 15.7877 30.5873 13.3999 33.5328 13.3999C36.4783 13.3999 38.8661 15.7877 38.8661 18.7332Z" stroke="#0166FF" stroke-width="1.2" stroke-linecap="round"/>
</svg>
