<svg width="24" height="24" viewBox="0 0 24 24" fill="none" xmlns="http://www.w3.org/2000/svg">
<path d="M16.7305 4.271C16.5435 4.083 16.2895 3.97697 16.0243 3.97622C15.7591 3.97547 15.5045 4.08006 15.3165 4.267C15.2172 4.36806 15.1405 4.48907 15.0915 4.622C14.2595 6.358 13.3435 7.337 12.1875 7.915C10.8905 8.555 9.40146 9 7.00146 9C6.80417 9.00145 6.61161 9.06066 6.44758 9.17031C6.28355 9.27996 6.15523 9.43525 6.07846 9.617C6.00276 9.79978 5.98297 10.0009 6.0216 10.1949C6.06022 10.389 6.15553 10.5672 6.29546 10.707L9.53846 13.95L5.00146 20L11.0515 15.463L14.2935 18.705C14.3868 18.7981 14.4976 18.8719 14.6195 18.922C14.7428 18.9733 14.8701 18.9993 15.0015 19C15.1985 19.001 15.2615 18.973 15.3835 18.922C15.566 18.8465 15.7221 18.7187 15.8321 18.5546C15.9421 18.3905 16.001 18.1975 16.0015 18C16.0015 15.6 16.4455 14.111 17.0845 12.834C17.6615 11.678 18.6405 10.762 20.3775 9.93C20.51 9.88087 20.6307 9.80419 20.7315 9.705C20.9184 9.51695 21.023 9.26234 21.0223 8.99718C21.0215 8.73201 20.9155 8.478 20.7275 8.291L16.7305 4.271Z" fill="#0E0E0E"/>
</svg>
