<svg width="25" height="24" viewBox="0 0 25 24" fill="none" xmlns="http://www.w3.org/2000/svg">
<path d="M12.5 3.59961C16.0746 3.59961 18.0899 4.07635 19.2568 5.24316C20.4236 6.40999 20.9004 8.42517 20.9004 12C20.9004 15.5748 20.4236 17.59 19.2568 18.7568C18.0899 19.9237 16.0746 20.4004 12.5 20.4004C8.92545 20.4004 6.91008 19.9237 5.74316 18.7568C4.57638 17.59 4.09961 15.5748 4.09961 12C4.09961 8.42517 4.57638 6.40999 5.74316 5.24316C6.91008 4.07635 8.92545 3.59961 12.5 3.59961Z" stroke="#0166FF" stroke-width="1.2"/>
<path d="M11 9.5C11 8.94772 10.5523 8.5 10 8.5C9.44772 8.5 9 8.94772 9 9.5C9 10.0523 9.44772 10.5 10 10.5C10.5523 10.5 11 10.0523 11 9.5ZM9 14.5C9 13.9477 9.44772 13.5 10 13.5C10.5523 13.5 11 13.9477 11 14.5C11 15.0523 10.5523 15.5 10 15.5C9.44772 15.5 9 15.0523 9 14.5ZM16 9.5C16 8.94772 15.5523 8.5 15 8.5C14.4477 8.5 14 8.94772 14 9.5C14 10.0523 14.4477 10.5 15 10.5C15.5523 10.5 16 10.0523 16 9.5Z" fill="#0166FF"/>
<path d="M16 14.5C16 15.0523 15.5523 15.5 15 15.5C14.4477 15.5 14 15.0523 14 14.5C14 13.9477 14.4477 13.5 15 13.5C15.5523 13.5 16 13.9477 16 14.5Z" fill="#0166FF"/>
</svg>
