<svg width="24" height="24" viewBox="0 0 24 24" fill="none" xmlns="http://www.w3.org/2000/svg">
<path d="M12.6 7.2H12C12 8.63594 10.8359 9.8 9.4 9.8V10.4V11C11.4987 11 13.2 9.29868 13.2 7.2H12.6ZM9.4 10.4V9.8C7.96406 9.8 6.8 8.63594 6.8 7.2H6.2H5.6C5.6 9.29868 7.30132 11 9.4 11V10.4ZM6.2 7.2H6.8C6.8 5.76406 7.96406 4.6 9.4 4.6V4V3.4C7.30132 3.4 5.6 5.10132 5.6 7.2H6.2ZM9.4 4V4.6C10.8359 4.6 12 5.76406 12 7.2H12.6H13.2C13.2 5.10132 11.4987 3.4 9.4 3.4V4ZM15.8 16.4H15.2C15.2 17.4462 15.1677 18.0352 14.6211 18.4803C14.3247 18.7217 13.8292 18.9573 12.981 19.129C12.1354 19.3002 10.9794 19.4 9.4 19.4V20V20.6C11.0206 20.6 12.2646 20.4984 13.219 20.3052C14.1708 20.1125 14.8753 19.8209 15.3789 19.4108C16.4323 18.553 16.4 17.342 16.4 16.4H15.8ZM9.4 20V19.4C7.82062 19.4 6.66459 19.3002 5.81903 19.129C4.97082 18.9573 4.4753 18.7217 4.17887 18.4803C3.63225 18.0352 3.6 17.4462 3.6 16.4H3H2.4C2.4 17.342 2.36775 18.553 3.42113 19.4108C3.9247 19.8209 4.62918 20.1125 5.58097 20.3052C6.53541 20.4984 7.77938 20.6 9.4 20.6V20ZM3 16.4H3.6C3.6 15.7189 4.0971 14.9801 5.16867 14.3774C6.22144 13.7852 7.71622 13.4 9.4 13.4V12.8V12.2C7.54916 12.2 5.84394 12.6207 4.58036 13.3315C3.33559 14.0317 2.4 15.0928 2.4 16.4H3ZM9.4 12.8V13.4C11.0838 13.4 12.5786 13.7852 13.6313 14.3774C14.7029 14.9801 15.2 15.7189 15.2 16.4H15.8H16.4C16.4 15.0928 15.4644 14.0317 14.2196 13.3315C12.9561 12.6207 11.2508 12.2 9.4 12.2V12.8Z" fill="#0166FF"/>
<path fill-rule="evenodd" clip-rule="evenodd" d="M15 8.92785C15 8.30912 16.4916 7.5 18.3317 7.5C20.1717 7.5 21.6633 8.30912 21.6633 8.92785V11.3557C21.6633 11.9744 20.1717 12.7836 18.3317 12.7836C16.4916 12.7836 15 11.9744 15 11.3557V8.92785Z" stroke="#0166FF" stroke-linecap="round" stroke-linejoin="round"/>
<path fill-rule="evenodd" clip-rule="evenodd" d="M18.3317 10.3481C20.1717 10.3481 21.6633 9.58371 21.6633 8.9269C21.6633 8.27009 20.1717 7.5 18.3317 7.5C16.4916 7.5 15 8.26961 15 8.9269C15 9.58371 16.4916 10.3481 18.3317 10.3481Z" stroke="#0166FF" stroke-linecap="round" stroke-linejoin="round"/>
</svg>
