<svg width="24" height="24" viewBox="0 0 24 24" fill="none" xmlns="http://www.w3.org/2000/svg">
<path d="M5.23376 10.606C3.832 11.3297 2.98145 12.2066 2.98145 12.9749V16.836C2.98145 18.5091 7.01503 20.6971 11.9907 20.6971C16.9664 20.6971 21 18.5091 21 16.836V12.9749C21 12.2066 20.1494 11.3297 18.7477 10.606" stroke="#0166FF" stroke-width="1.2" stroke-linecap="round" stroke-linejoin="round"/>
<path d="M4.67068 10.876C3.60754 11.5247 2.98145 12.2721 2.98145 12.9724C2.98145 14.7485 7.01503 16.8155 11.9907 16.8155C16.9664 16.8155 21 14.7485 21 12.9724C21 12.2724 20.3735 11.5249 19.3098 10.876" stroke="#0166FF" stroke-width="1.2" stroke-linecap="round" stroke-linejoin="round"/>
<path d="M7.74513 7.50464H7.14513V7.50464H7.74513ZM7.74513 8.40557L7.30197 8.81005C7.41565 8.9346 7.5765 9.00557 7.74513 9.00557C7.91377 9.00557 8.07462 8.9346 8.1883 8.81005L7.74513 8.40557ZM9.01058 7.90912C9.23397 7.66436 9.21665 7.28486 8.97189 7.06147C8.72714 6.83809 8.34763 6.85541 8.12425 7.10016L8.56741 7.50464L9.01058 7.90912ZM7.36602 7.10016C7.14263 6.85541 6.76313 6.83809 6.51837 7.06147C6.27362 7.28486 6.2563 7.66436 6.47969 7.90912L6.92285 7.50464L7.36602 7.10016ZM16.236 6.60371L16.6792 6.19923C16.5655 6.07468 16.4046 6.00371 16.236 6.00371C16.0674 6.00371 15.9065 6.07468 15.7928 6.19923L16.236 6.60371ZM14.9706 7.10016C14.7472 7.34491 14.7645 7.72442 15.0092 7.9478C15.254 8.17119 15.6335 8.15387 15.8569 7.90912L15.4137 7.50464L14.9706 7.10016ZM16.6151 7.90912C16.8385 8.15387 17.218 8.17119 17.4628 7.9478C17.7075 7.72442 17.7248 7.34491 17.5015 7.10016L17.0583 7.50464L16.6151 7.90912ZM9.6424 10.2654C9.42078 10.019 9.04141 9.99896 8.79506 10.2206C8.5487 10.4422 8.52865 10.8216 8.75027 11.0679L9.19634 10.6666L9.6424 10.2654ZM14.4784 4.90839C14.6857 5.16693 15.0633 5.20848 15.3219 5.0012C15.5804 4.79392 15.622 4.41631 15.4147 4.15777L14.9466 4.53308L14.4784 4.90839ZM11.8565 3V2.4C9.20409 2.4 7.14513 4.73818 7.14513 7.50464H7.74513H8.34513C8.34513 5.29541 9.96765 3.6 11.8565 3.6V3ZM7.74513 7.50464H7.14513L7.14513 8.40557H7.74513L8.34513 8.40557L8.34513 7.50464H7.74513ZM7.74513 8.40557L8.1883 8.81005L9.01058 7.90912L8.56741 7.50464L8.12425 7.10016L7.30197 8.00109L7.74513 8.40557ZM7.74513 8.40557L8.1883 8.00109L7.36602 7.10016L6.92285 7.50464L6.47969 7.90912L7.30197 8.81005L7.74513 8.40557ZM12.1246 12.0093V12.6093C14.777 12.6093 16.836 10.2711 16.836 7.50464H16.236H15.636C15.636 9.71387 14.0135 11.4093 12.1246 11.4093V12.0093ZM16.236 7.50464H16.836V6.60371H16.236H15.636V7.50464H16.236ZM16.236 6.60371L15.7928 6.19923L14.9706 7.10016L15.4137 7.50464L15.8569 7.90912L16.6792 7.00819L16.236 6.60371ZM16.236 6.60371L15.7928 7.00819L16.6151 7.90912L17.0583 7.50464L17.5015 7.10016L16.6792 6.19923L16.236 6.60371ZM9.19634 10.6666L8.75027 11.0679C9.59844 12.0107 10.7923 12.6093 12.1246 12.6093V12.0093V11.4093C11.1648 11.4093 10.2855 10.9802 9.6424 10.2654L9.19634 10.6666ZM14.9466 4.53308L15.4147 4.15777C14.5596 3.09118 13.2888 2.4 11.8565 2.4V3V3.6C12.8872 3.6 13.8265 4.09527 14.4784 4.90839L14.9466 4.53308Z" fill="#0166FF"/>
</svg>
