<svg width="20" height="20" viewBox="0 0 20 20" fill="none" xmlns="http://www.w3.org/2000/svg">
<path d="M7.91602 6.08203H9.99926" stroke="#0166FF" stroke-linecap="round"/>
<path d="M16.0732 6.07847C16.3813 6.0198 16.6668 6.25602 16.6668 6.56967V14.9985C16.6668 16.3811 15.5455 17.5023 14.1628 17.5023C13.6317 17.5022 13.1224 17.2911 12.7468 16.9156L10.5586 14.7276C10.2503 14.4193 9.75045 14.4193 9.44213 14.7276L7.25391 16.9156L7.10662 17.0491C6.94656 17.1802 6.6734 17.2843 6.42109 17.3592C6.12772 17.4464 5.85779 17.2021 5.88234 16.897C5.90083 16.6673 6.092 16.4955 6.29707 16.3903C6.3884 16.3435 6.47276 16.2825 6.54674 16.2085L8.73497 14.0204C9.39011 13.3654 10.427 13.3244 11.1299 13.8976L11.2658 14.0204L13.454 16.2085C13.642 16.3965 13.897 16.5022 14.1628 16.5023C14.9932 16.5023 15.6666 15.8289 15.6666 14.9985V6.56967C15.6666 6.32958 15.8373 6.12337 16.0732 6.07847Z" fill="#0166FF"/>
<path d="M12.226 2.50726C12.6627 2.50753 12.8879 3.02945 12.5884 3.34732C12.4943 3.44729 12.363 3.50396 12.2257 3.50396H6.79576C5.43634 3.50396 4.33411 4.60613 4.33411 5.96546V11.6008C4.33411 11.877 4.11022 12.1009 3.83405 12.1009C3.55787 12.1009 3.33398 11.877 3.33398 11.6008V5.96546C3.33398 4.11355 4.78852 2.60136 6.61754 2.50879L6.79576 2.50391L12.226 2.50726Z" fill="#0166FF"/>
<path d="M15.3122 2.70288C15.5175 2.48544 15.8604 2.47577 16.078 2.68091C16.2954 2.88613 16.3051 3.22904 16.1 3.44661L3.42958 16.8835C3.22436 17.1011 2.88147 17.1115 2.66382 16.9063C2.44638 16.7011 2.4367 16.3582 2.64185 16.1406L15.3122 2.70288Z" fill="#0166FF"/>
</svg>
