<svg width="30" height="30" viewBox="0 0 30 30" fill="none" xmlns="http://www.w3.org/2000/svg">
<rect width="30" height="30" rx="10" fill="#0166FF"/>
<path d="M15 15.4375C17.3263 15.4375 19.2188 13.5451 19.2188 11.2188C19.2188 8.89241 17.3263 7 15 7C12.6737 7 10.7812 8.89241 10.7812 11.2188C10.7812 13.5451 12.6737 15.4375 15 15.4375ZM14.5312 8.96134V8.40625C14.5312 8.14716 14.7409 7.9375 15 7.9375C15.2591 7.9375 15.4688 8.14716 15.4688 8.40625V8.96016C15.664 9.02922 15.8446 9.13662 15.9952 9.28747C16.1774 9.47056 16.1774 9.76766 15.9943 9.95031C15.8112 10.1325 15.5136 10.1334 15.3305 9.94941C15.0623 9.67928 14.5312 9.89719 14.5312 10.2812C14.5312 10.5399 14.7418 10.75 15 10.75C15.7754 10.75 16.4062 11.3808 16.4062 12.1562C16.4062 12.7666 16.0132 13.282 15.4688 13.4762V14.0312C15.4688 14.2903 15.2591 14.5 15 14.5C14.7409 14.5 14.5312 14.2903 14.5312 14.0312V13.4773C14.336 13.4083 14.1554 13.3009 14.0048 13.15C13.8226 12.9669 13.8226 12.6698 14.0057 12.4872C14.1888 12.305 14.4864 12.3041 14.6695 12.4881C14.9378 12.7578 15.4688 12.5403 15.4688 12.1562C15.4688 11.8976 15.2582 11.6875 15 11.6875C14.2246 11.6875 13.5938 11.0567 13.5938 10.2812C13.5938 9.67094 13.9868 9.1555 14.5312 8.96134ZM22.5312 22.0625H22.0312V21.5938C22.0312 21.3347 21.8216 21.125 21.5625 21.125H8.4375C8.17841 21.125 7.96875 21.3347 7.96875 21.5938V22.0625H7.46875C7.20966 22.0625 7 22.2722 7 22.5312C7 22.7903 7.20966 23 7.46875 23H22.5312C22.7903 23 23 22.7903 23 22.5312C23 22.2722 22.7903 22.0625 22.5312 22.0625ZM18.2812 16.375H21.0938V20.1875H18.2812V16.375ZM13.5938 16.375H16.4062V20.1875H13.5938V16.375ZM8.90625 16.375H11.7188V20.1875H8.90625V16.375ZM17.9551 15.4375H22.5312C22.6933 15.4375 22.8444 15.3533 22.9304 15.215C22.9722 15.147 22.996 15.0694 22.9995 14.9897C23.0031 14.9099 22.9862 14.8305 22.9506 14.7591L21.0443 11.0091C21.0054 10.9312 20.9455 10.8658 20.8714 10.82C20.7974 10.7743 20.7121 10.75 20.625 10.75H20.1325C20.1465 10.9046 20.1562 11.0605 20.1562 11.2188C20.1562 12.9624 19.2839 14.5038 17.9551 15.4375ZM7.46875 15.4375H12.0449C10.7161 14.5038 9.84375 12.9624 9.84375 11.2188C9.84375 11.0605 9.85347 10.9046 9.8675 10.75H9.375C9.28795 10.75 9.20261 10.7743 9.12856 10.82C9.0545 10.8658 8.99464 10.9312 8.95569 11.0091L7.04944 14.7591C7.01379 14.8305 6.99694 14.9099 7.00047 14.9897C7.00399 15.0694 7.02778 15.147 7.06959 15.215C7.15563 15.3533 7.30669 15.4375 7.46875 15.4375Z" fill="white"/>
</svg>
