<svg width="24" height="24" viewBox="0 0 24 24" fill="none" xmlns="http://www.w3.org/2000/svg">
<path d="M18.2222 12.8889V13.7778C18.2222 16.7111 18.2222 18.1778 17.3111 19.0889C16.4 20 14.9333 20 12 20H10.2222C7.28889 20 5.82222 20 4.91111 19.0889C4 18.1778 4 16.7111 4 13.7778V12C4 9.06667 4 7.6 4.91111 6.68889C5.82222 5.77778 7.28889 5.77778 10.2222 5.77778H11.1111M13.7778 4H17.3333C18.5902 4 19.2187 4 19.6089 4.39111C20 4.78044 20 5.40889 20 6.66667V10.2222M19.1111 4.88889L11.1111 12.8889" stroke="#727689" stroke-width="1.5" stroke-linecap="round" stroke-linejoin="round"/>
</svg>
