<svg width="24" height="24" viewBox="0 0 24 24" fill="none" xmlns="http://www.w3.org/2000/svg">
<path d="M6.62161 16.8784V14.1622M11.1486 16.8784V8.72977M15.6756 16.8784V13.2568M20.199 10.9933C20.199 10.9933 20.2026 11.3011 20.2026 11.8987C20.2026 15.9531 20.2026 17.9812 18.9432 19.2406C17.6838 20.5 15.6566 20.5 11.6013 20.5C7.54693 20.5 5.51883 20.5 4.25941 19.2406C3 17.9812 3 15.954 3 11.8987C3 7.84429 3 5.81709 4.25941 4.55677C5.51883 3.29736 7.54602 3.29736 11.6013 3.29736H12.5067M17.9394 5.56086V3M17.9394 5.56086H15.3785M17.9394 5.56086H20.5003M17.9394 5.56086V8.12173" stroke="white" stroke-width="1.5" stroke-linecap="round" stroke-linejoin="round"/>
</svg>
