<svg width="24" height="24" viewBox="0 0 24 24" fill="none" xmlns="http://www.w3.org/2000/svg">
<path fill-rule="evenodd" clip-rule="evenodd" d="M21.7471 16.1183C21.7471 15.3349 19.8586 14.3105 17.529 14.3105C15.1995 14.3105 13.311 15.3349 13.311 16.1183V19.1921C13.311 19.9754 15.1995 20.9998 17.529 20.9998C19.8586 20.9998 21.7471 19.9754 21.7471 19.1921V16.1183Z" stroke="#0166FF" stroke-width="1.1" stroke-linecap="round" stroke-linejoin="round"/>
<path fill-rule="evenodd" clip-rule="evenodd" d="M17.529 17.9164C15.1995 17.9164 13.311 16.9486 13.311 16.1171C13.311 15.2855 15.1995 14.3105 17.529 14.3105C19.8586 14.3105 21.7471 15.2849 21.7471 16.1171C21.7471 16.9486 19.8586 17.9164 17.529 17.9164Z" stroke="#0166FF" stroke-width="1.1" stroke-linecap="round" stroke-linejoin="round"/>
<path d="M9.56139 14.5451H5.10902C4.54967 14.5451 4.01324 14.7673 3.61772 15.1628C3.2222 15.5583 3 16.0948 3 16.6541V18.7631C3 19.3225 3.2222 19.8589 3.61772 20.2544C4.01324 20.65 4.54967 20.8722 5.10902 20.8722H9.56139M3 6.10902C3 5.54967 3.2222 5.01324 3.61772 4.61772C4.01324 4.2222 4.54967 4 5.10902 4H17.7631C18.3225 4 18.8589 4.2222 19.2544 4.61772C19.65 5.01324 19.8722 5.54967 19.8722 6.10902V8.21804C19.8722 8.77738 19.65 9.31382 19.2544 9.70934C18.8589 10.1049 18.3225 10.3271 17.7631 10.3271H5.10902C4.54967 10.3271 4.01324 10.1049 3.61772 9.70934C3.2222 9.31382 3 8.77738 3 8.21804V6.10902Z" stroke="#0166FF" stroke-width="1.2" stroke-linecap="round" stroke-linejoin="round"/>
</svg>
