<svg width="25" height="24" viewBox="0 0 25 24" fill="none" xmlns="http://www.w3.org/2000/svg">
<path d="M10.3333 13.7778C10.3333 15.2507 12.7209 16.4444 15.6667 16.4444C18.6124 16.4444 21 15.2507 21 13.7778M10.3333 13.7778C10.3333 12.3049 12.7209 11.1111 15.6667 11.1111C18.6124 11.1111 21 12.3049 21 13.7778M10.3333 13.7778V17.3333C10.3333 18.8053 12.7209 20 15.6667 20C18.6124 20 21 18.8053 21 17.3333V13.7778M5 6.66667C5 7.61956 6.01689 8.49956 7.66667 8.976C9.31644 9.45244 11.3502 9.45244 13 8.976C14.6498 8.49956 15.6667 7.61956 15.6667 6.66667C15.6667 5.71378 14.6498 4.83378 13 4.35733C11.3502 3.88089 9.31644 3.88089 7.66667 4.35733C6.01689 4.83378 5 5.71378 5 6.66667ZM5 6.66667V15.5556C5 16.3449 5.68622 16.8444 6.77778 17.3333M5 11.1111C5 11.9004 5.68622 12.4 6.77778 12.8889" stroke="white" stroke-width="1.1" stroke-linecap="round" stroke-linejoin="round"/>
</svg>
