<svg width="24" height="24" viewBox="0 0 24 24" fill="none" xmlns="http://www.w3.org/2000/svg">
<path d="M10.2632 14.0658H6.01316C5.47924 14.0658 4.96718 14.2779 4.58964 14.6554C4.2121 15.033 4 15.545 4 16.0789V18.0921C4 18.626 4.2121 19.1381 4.58964 19.5156C4.96718 19.8932 5.47924 20.1053 6.01316 20.1053H10.2632M4 6.01316C4 5.47924 4.2121 4.96718 4.58964 4.58964C4.96718 4.2121 5.47924 4 6.01316 4H18.0921C18.626 4 19.1381 4.2121 19.5156 4.58964C19.8932 4.96718 20.1053 5.47924 20.1053 6.01316V8.02632C20.1053 8.56024 19.8932 9.07229 19.5156 9.44983C19.1381 9.82737 18.626 10.0395 18.0921 10.0395H6.01316C5.47924 10.0395 4.96718 9.82737 4.58964 9.44983C4.2121 9.07229 4 8.56024 4 8.02632V6.01316Z" stroke="#0166FF" stroke-width="1.2" stroke-linecap="round" stroke-linejoin="round"/>
<path d="M15.1466 18.2346V13.8423M15.1466 13.8423L13.8418 15.0624M15.1466 13.8423L16.4514 15.0624M19.6949 15.7131V20.1054M19.6949 20.1054L18.39 18.8853M19.6949 20.1054L20.9997 18.8853" stroke="#0166FF" stroke-width="1.2" stroke-linecap="round" stroke-linejoin="round"/>
</svg>
