<svg width="12" height="12" viewBox="0 0 12 12" fill="none" xmlns="http://www.w3.org/2000/svg">
<path d="M6.00003 6.5077C5.80916 6.5077 5.65388 6.35241 5.65388 6.16154C5.6538 6.09346 5.67381 6.02688 5.71141 5.97013C5.74901 5.91337 5.80252 5.86898 5.86524 5.8425C6.02024 5.77687 6.20574 5.83288 6.37429 5.99617C6.5116 6.12919 6.73074 6.12573 6.86375 5.98844C6.99679 5.85113 6.99331 5.632 6.85602 5.49898C6.69974 5.34757 6.52602 5.24056 6.34618 5.18017V4.77693C6.34618 4.58576 6.1912 4.43077 6.00003 4.43077C5.80886 4.43077 5.65388 4.58576 5.65388 4.77693V5.18241C5.63412 5.18937 5.61457 5.1969 5.59526 5.205C5.40722 5.28438 5.24679 5.41749 5.13406 5.58764C5.02134 5.7578 4.96133 5.95743 4.96157 6.16154C4.96157 6.73415 5.42742 7.2 6.00003 7.2C6.1909 7.2 6.34618 7.35529 6.34618 7.54616C6.34618 7.69122 6.25468 7.82202 6.11851 7.87161C5.9407 7.93634 5.73372 7.84853 5.55068 7.63057C5.42772 7.48417 5.20939 7.46518 5.06299 7.58813C4.91659 7.71109 4.8976 7.92944 5.02055 8.07582C5.20768 8.29863 5.42551 8.45142 5.6539 8.52831V8.93077C5.6539 9.12194 5.80888 9.27693 6.00005 9.27693C6.19122 9.27693 6.34621 9.12194 6.34621 8.93077V8.52524C6.3493 8.52416 6.35239 8.52321 6.35546 8.5221C6.76399 8.3733 7.03849 7.98109 7.03849 7.54616C7.03849 6.97355 6.57264 6.5077 6.00003 6.5077Z" fill="#5A5E66"/>
<path d="M9.20582 4.39059C8.79441 3.88445 8.3241 3.4812 7.80782 3.19122L8.67758 1.78452C8.78907 1.59008 8.68892 1.34242 8.47395 1.27992C7.83509 1.09418 6.67098 1 6 1C5.32902 1 4.16491 1.09418 3.52605 1.27992C3.31083 1.34248 3.21107 1.59031 3.32242 1.78452L4.19236 3.19112C3.67602 3.48111 3.20566 3.8844 2.7942 4.39059C1.97172 5.40245 1.5 6.67876 1.5 7.89231C1.5 10.4098 3.50878 11.0077 6 11.0077C8.49298 11.0077 10.5 10.4088 10.5 7.89231C10.5 6.67876 10.0283 5.40245 9.20582 4.39059ZM4.14991 1.8358C4.59357 1.74021 5.54615 1.6498 6 1.65C6.45385 1.6498 7.40643 1.74021 7.85009 1.8358L7.25 2.9C6.93776 2.84444 6.46554 2.75067 6.00003 2.75C5.56575 2.74938 5.1373 2.83773 4.85 2.9L4.14991 1.8358ZM6 10.32C3.29548 10.32 2.19231 9.61339 2.19231 7.89231C2.19231 6.85057 2.61815 5.70478 3.33138 4.82728C4.08358 3.90192 5.0313 3.39231 6 3.39231C7.06629 3.39231 7.99895 4.00343 8.66862 4.82728C9.38185 5.70478 9.80769 6.85057 9.80769 7.89231C9.80769 9.61339 8.70452 10.32 6 10.32Z" fill="#5A5E66"/>
</svg>
