<svg width="24" height="24" viewBox="0 0 24 24" fill="none" xmlns="http://www.w3.org/2000/svg">
<path d="M17.0551 5.6001H2.40008M8.14555 14.6909H2.39941M8.58263 10.1454H2.40019" stroke="#0166FF" stroke-linecap="round"/>
<path d="M21.6005 11.2932C21.6005 12.3691 19.5655 13.2412 17.0551 13.2412C14.5448 13.2412 12.5098 12.3691 12.5098 11.2932M21.6005 11.2932C21.6005 10.2174 19.5655 9.34521 17.0551 9.34521C14.5448 9.34521 12.5098 10.2174 12.5098 11.2932M21.6005 11.2932V16.4879C21.6005 17.5918 19.5803 18.436 17.0551 18.436C14.5299 18.436 12.5098 17.5918 12.5098 16.4879V11.2932M12.5098 13.8906C12.5098 14.9945 14.5299 15.8386 17.0551 15.8386C19.5803 15.8386 21.6005 14.9945 21.6005 13.8906" stroke="#0166FF" stroke-width="1.2" stroke-linecap="round" stroke-linejoin="round"/>
</svg>
