<svg width="24" height="24" viewBox="0 0 24 24" fill="none" xmlns="http://www.w3.org/2000/svg">
<path d="M15 13L19.9425 9.91C20.2657 9.70801 20.5323 9.42725 20.7172 9.09404C20.9022 8.76084 20.9995 8.3861 21 8.005V6.25C21 5.65326 20.7629 5.08097 20.341 4.65901C19.919 4.23705 19.3467 4 18.75 4H15L14.25 8.5L15 13Z" fill="url(#paint0_linear_69169_82694)"/>
<path d="M9 4H5.25C4.65326 4 4.08097 4.23705 3.65901 4.65901C3.23705 5.08097 3 5.65326 3 6.25V8.0035C3 8.779 3.399 9.5005 4.0575 9.9115L9 13L9.75 8.5L9 4Z" fill="url(#paint1_linear_69169_82694)"/>
<path d="M15 4H9V13L10.8075 14.1295C11.1651 14.353 11.5783 14.4715 12 14.4715C12.4217 14.4715 12.8349 14.353 13.1925 14.1295L15 13V4Z" fill="url(#paint2_linear_69169_82694)"/>
<path d="M18 15.5C18 17.0913 17.3679 18.6174 16.2426 19.7426C15.1174 20.8679 13.5913 21.5 12 21.5C10.4087 21.5 8.88258 20.8679 7.75736 19.7426C6.63214 18.6174 6 17.0913 6 15.5C6 13.9087 6.63214 12.3826 7.75736 11.2574C8.88258 10.1321 10.4087 9.5 12 9.5C13.5913 9.5 15.1174 10.1321 16.2426 11.2574C17.3679 12.3826 18 13.9087 18 15.5Z" fill="url(#paint3_radial_69169_82694)"/>
<path d="M13.8402 13.9996C13.8402 14.2556 13.7895 14.4796 13.6882 14.6716C13.5922 14.8583 13.4535 15.0103 13.2722 15.1276C13.0909 15.2449 12.8829 15.3303 12.6482 15.3836V15.4156C13.1069 15.4689 13.4482 15.6129 13.6722 15.8476C13.9015 16.0769 14.0162 16.3809 14.0162 16.7596C14.0162 17.0903 13.9362 17.3863 13.7762 17.6476C13.6215 17.9036 13.3789 18.1063 13.0482 18.2556C12.7229 18.3996 12.3042 18.4716 11.7922 18.4716C11.4882 18.4716 11.2055 18.4476 10.9442 18.3996C10.6829 18.3516 10.4349 18.2716 10.2002 18.1596V17.3916C10.4402 17.5143 10.6962 17.6076 10.9682 17.6716C11.2455 17.7356 11.5095 17.7676 11.7602 17.7676C12.2455 17.7676 12.5949 17.6769 12.8082 17.4956C13.0215 17.3089 13.1282 17.0503 13.1282 16.7196C13.1282 16.5063 13.0722 16.3329 12.9602 16.1996C12.8482 16.0609 12.6775 15.9596 12.4482 15.8956C12.2189 15.8263 11.9335 15.7916 11.5922 15.7916H11.0722V15.0956H11.6002C11.9255 15.0956 12.1895 15.0556 12.3922 14.9756C12.5949 14.8903 12.7442 14.7729 12.8402 14.6236C12.9362 14.4743 12.9842 14.3036 12.9842 14.1116C12.9842 13.8556 12.8989 13.6583 12.7282 13.5196C12.5629 13.3756 12.3229 13.3036 12.0082 13.3036C11.8162 13.3036 11.6375 13.3249 11.4722 13.3676C11.3122 13.4103 11.1655 13.4663 11.0322 13.5356C10.8989 13.6049 10.7682 13.6823 10.6402 13.7676L10.2242 13.1836C10.3682 13.0769 10.5282 12.9783 10.7042 12.8876C10.8855 12.7969 11.0855 12.7276 11.3042 12.6796C11.5282 12.6263 11.7709 12.5996 12.0322 12.5996C12.6242 12.5996 13.0722 12.7303 13.3762 12.9916C13.6855 13.2476 13.8402 13.5836 13.8402 13.9996Z" fill="white"/>
<defs>
<linearGradient id="paint0_linear_69169_82694" x1="21" y1="4.801" x2="14.4555" y2="11.968" gradientUnits="userSpaceOnUse">
<stop stop-color="#0065FF"/>
<stop offset="1" stop-color="#0044AC"/>
</linearGradient>
<linearGradient id="paint1_linear_69169_82694" x1="3" y1="6.424" x2="9.6705" y2="10.99" gradientUnits="userSpaceOnUse">
<stop stop-color="#0065FF"/>
<stop offset="1" stop-color="#0044AC"/>
</linearGradient>
<linearGradient id="paint2_linear_69169_82694" x1="12" y1="2.6905" x2="15.852" y2="13.0375" gradientUnits="userSpaceOnUse">
<stop stop-color="#0065FF"/>
<stop offset="1" stop-color="#004ABA"/>
</linearGradient>
<radialGradient id="paint3_radial_69169_82694" cx="0" cy="0" r="1" gradientUnits="userSpaceOnUse" gradientTransform="translate(-19.9279 -32.4999) rotate(56.615) scale(66.981 57.3662)">
<stop offset="0.772" stop-color="#E06A20"/>
<stop offset="0.991" stop-color="#9F3000"/>
</radialGradient>
</defs>
</svg>
