<svg width="24" height="24" viewBox="0 0 24 24" fill="none" xmlns="http://www.w3.org/2000/svg">
<path d="M12.5 3.5C12.2045 3.5 11.9119 3.5582 11.639 3.67127C11.366 3.78434 11.1179 3.95008 10.909 4.15901C10.7001 4.36794 10.5343 4.61598 10.4213 4.88896C10.3082 5.16194 10.25 5.45453 10.25 5.75C10.25 6.04547 10.3082 6.33806 10.4213 6.61104C10.5343 6.88402 10.7001 7.13206 10.909 7.34099C11.1179 7.54992 11.366 7.71566 11.639 7.82873C11.9119 7.9418 12.2045 8 12.5 8C13.0967 8 13.669 7.76295 14.091 7.34099C14.5129 6.91903 14.75 6.34674 14.75 5.75C14.75 5.15326 14.5129 4.58097 14.091 4.15901C13.669 3.73705 13.0967 3.5 12.5 3.5ZM8.75 5.75C8.75 4.75544 9.14509 3.80161 9.84835 3.09835C10.5516 2.39509 11.5054 2 12.5 2C13.4946 2 14.4484 2.39509 15.1517 3.09835C15.8549 3.80161 16.25 4.75544 16.25 5.75C16.25 6.74456 15.8549 7.69839 15.1517 8.40165C14.4484 9.10491 13.4946 9.5 12.5 9.5C11.5054 9.5 10.5516 9.10491 9.84835 8.40165C9.14509 7.69839 8.75 6.74456 8.75 5.75ZM6.5 13.25C6.501 12.976 6.529 12.711 6.584 12.455L3.668 13.235C3.38254 13.3116 3.11496 13.4436 2.88055 13.6236C2.64614 13.8037 2.44949 14.0281 2.30184 14.2841C2.15419 14.5401 2.05842 14.8227 2.02001 15.1158C1.98161 15.4088 2.00131 15.7066 2.078 15.992L2.66 18.1655C2.81647 18.7487 3.08872 19.2944 3.46052 19.7702C3.83233 20.246 4.29608 20.6421 4.82417 20.9349C5.35225 21.2277 5.93386 21.4112 6.53436 21.4746C7.13486 21.5379 7.74196 21.4797 8.3195 21.3035C7.91833 20.9144 7.57349 20.4711 7.295 19.9865C6.58838 20.0547 5.88047 19.8701 5.29711 19.4656C4.71376 19.061 4.29277 18.4627 4.109 17.777L3.5255 15.602C3.47421 15.4099 3.50134 15.2052 3.60091 15.033C3.70049 14.8609 3.86437 14.7353 4.0565 14.684L6.5 14.03V13.25ZM16.829 21.347L16.679 21.305C17.0795 20.915 17.426 20.4725 17.705 19.9865C18.4116 20.0547 19.1195 19.8701 19.7029 19.4656C20.2862 19.061 20.7072 18.4627 20.891 17.777L21.473 15.602C21.5243 15.4101 21.4974 15.2056 21.3981 15.0335C21.2989 14.8614 21.1354 14.7357 20.9435 14.684L18.5 14.03V13.25C18.499 12.976 18.471 12.711 18.416 12.455L21.3305 13.235C21.6161 13.3114 21.8838 13.4434 22.1184 13.6233C22.353 13.8032 22.5498 14.0276 22.6976 14.2837C22.8454 14.5397 22.9413 14.8224 22.9798 15.1155C23.0183 15.4086 22.9987 15.7065 22.922 15.992L22.34 18.1655C22.0307 19.3179 21.2764 20.3002 20.2429 20.8965C19.2095 21.4929 17.9815 21.6559 16.829 21.347ZM3.5 8C3.5 7.60218 3.65804 7.22064 3.93934 6.93934C4.22064 6.65804 4.60218 6.5 5 6.5C5.39782 6.5 5.77936 6.65804 6.06066 6.93934C6.34196 7.22064 6.5 7.60218 6.5 8C6.5 8.39782 6.34196 8.77936 6.06066 9.06066C5.77936 9.34196 5.39782 9.5 5 9.5C4.60218 9.5 4.22064 9.34196 3.93934 9.06066C3.65804 8.77936 3.5 8.39782 3.5 8ZM5 5C4.20435 5 3.44129 5.31607 2.87868 5.87868C2.31607 6.44129 2 7.20435 2 8C2 8.79565 2.31607 9.55871 2.87868 10.1213C3.44129 10.6839 4.20435 11 5 11C5.79565 11 6.55871 10.6839 7.12132 10.1213C7.68393 9.55871 8 8.79565 8 8C8 7.20435 7.68393 6.44129 7.12132 5.87868C6.55871 5.31607 5.79565 5 5 5ZM20 6.5C19.6022 6.5 19.2206 6.65804 18.9393 6.93934C18.658 7.22064 18.5 7.60218 18.5 8C18.5 8.39782 18.658 8.77936 18.9393 9.06066C19.2206 9.34196 19.6022 9.5 20 9.5C20.3978 9.5 20.7794 9.34196 21.0607 9.06066C21.342 8.77936 21.5 8.39782 21.5 8C21.5 7.60218 21.342 7.22064 21.0607 6.93934C20.7794 6.65804 20.3978 6.5 20 6.5ZM17 8C17 7.20435 17.3161 6.44129 17.8787 5.87868C18.4413 5.31607 19.2044 5 20 5C20.7956 5 21.5587 5.31607 22.1213 5.87868C22.6839 6.44129 23 7.20435 23 8C23 8.79565 22.6839 9.55871 22.1213 10.1213C21.5587 10.6839 20.7956 11 20 11C19.2044 11 18.4413 10.6839 17.8787 10.1213C17.3161 9.55871 17 8.79565 17 8ZM10.25 11C9.65326 11 9.08097 11.2371 8.65901 11.659C8.23705 12.081 8 12.6533 8 13.25V17C8 18.1935 8.47411 19.3381 9.31802 20.182C10.1619 21.0259 11.3065 21.5 12.5 21.5C13.6935 21.5 14.8381 21.0259 15.682 20.182C16.5259 19.3381 17 18.1935 17 17V13.25C17 12.6533 16.7629 12.081 16.341 11.659C15.919 11.2371 15.3467 11 14.75 11H10.25ZM9.5 13.25C9.5 13.0511 9.57902 12.8603 9.71967 12.7197C9.86032 12.579 10.0511 12.5 10.25 12.5H14.75C14.9489 12.5 15.1397 12.579 15.2803 12.7197C15.421 12.8603 15.5 13.0511 15.5 13.25V17C15.5 17.7956 15.1839 18.5587 14.6213 19.1213C14.0587 19.6839 13.2956 20 12.5 20C11.7044 20 10.9413 19.6839 10.3787 19.1213C9.81607 18.5587 9.5 17.7956 9.5 17V13.25Z" fill="#0166FF"/>
</svg>
