<svg width="24" height="24" viewBox="0 0 24 24" fill="none" xmlns="http://www.w3.org/2000/svg">
<mask id="path-1-inside-1_84168_574313" fill="white">
<path d="M15.5 9.63516C15.5 9.28438 15.7844 9 16.1352 9H18.9101C19.2609 9 19.5453 9.28438 19.5453 9.63516C19.5453 9.98593 19.2609 10.2703 18.9101 10.2703H16.1352C15.7844 10.2703 15.5 9.98593 15.5 9.63516Z"/>
<path fill-rule="evenodd" clip-rule="evenodd" d="M8.5934 3C6.46644 3 4.74219 4.72426 4.74219 6.85123C4.74219 8.97821 6.46644 10.7025 8.5934 10.7025C10.7204 10.7025 12.4446 8.97821 12.4446 6.85123C12.4446 4.72426 10.7204 3 8.5934 3ZM5.95837 6.85123C5.95837 5.39593 7.13812 4.21618 8.5934 4.21618C10.0488 4.21618 11.2285 5.39593 11.2285 6.85123C11.2285 8.30654 10.0488 9.48629 8.5934 9.48629C7.13812 9.48629 5.95837 8.30654 5.95837 6.85123Z"/>
<path fill-rule="evenodd" clip-rule="evenodd" d="M8.59446 11.9224C6.71869 11.9224 4.99048 12.3488 3.70986 13.0691C2.44831 13.7787 1.5001 14.8542 1.5001 16.179L1.50006 16.2617C1.49914 17.2037 1.49799 18.386 2.53501 19.2304C3.04537 19.646 3.75934 19.9415 4.72396 20.1368C5.69128 20.3326 6.95202 20.4356 8.59446 20.4356C10.2369 20.4356 11.4977 20.3326 12.465 20.1368C13.4297 19.9415 14.1436 19.646 14.6539 19.2304C15.6909 18.386 15.6898 17.2037 15.6889 16.2617L15.6888 16.179C15.6888 14.8542 14.7407 13.7787 13.4791 13.0691C12.1985 12.3488 10.4703 11.9224 8.59446 11.9224ZM2.71628 16.179C2.71628 15.4888 3.22009 14.7399 4.30611 14.1291C5.37307 13.5289 6.888 13.1385 8.59446 13.1385C10.301 13.1385 11.8159 13.5289 12.8829 14.1291C13.9689 14.7399 14.4727 15.4888 14.4727 16.179C14.4727 17.2393 14.44 17.8362 13.886 18.2874C13.5856 18.5321 13.0834 18.7708 12.2237 18.9448C11.3668 19.1183 10.1952 19.2194 8.59446 19.2194C6.9938 19.2194 5.82219 19.1183 4.96524 18.9448C4.10559 18.7708 3.60338 18.5321 3.30296 18.2874C2.74897 17.8362 2.71628 17.2393 2.71628 16.179Z"/>
<path d="M17.7 17.3264C19.0341 17.3202 20.2396 16.9955 21.1168 16.2142C22.011 15.4179 22.4661 14.2354 22.4661 12.7182V10.1082C22.4661 8.59116 22.011 7.40862 21.1168 6.61231C20.2311 5.82348 19.0108 5.5 17.6612 5.5H14.5V6.70215H17.6612C18.8186 6.70215 19.6873 6.97974 20.264 7.49324C20.8321 7.99925 21.2127 8.82029 21.2127 10.1082V12.7182C21.2127 14.0061 20.8321 14.8272 20.264 15.3332C19.6938 15.841 18.838 16.1181 17.7 16.1242V17.3264Z"/>
<path d="M15.0984 6.1C15.0984 6.43137 14.8298 6.7 14.4984 6.7C14.1671 6.7 13.8984 6.43137 13.8984 6.1C13.8984 5.76863 14.1671 5.5 14.4984 5.5C14.8298 5.5 15.0984 5.76863 15.0984 6.1Z"/>
<path d="M18.3016 16.725C18.3016 17.0564 18.0329 17.325 17.7016 17.325C17.3702 17.325 17.1016 17.0564 17.1016 16.725C17.1016 16.3936 17.3702 16.125 17.7016 16.125C18.0329 16.125 18.3016 16.3936 18.3016 16.725Z"/>
<path d="M16.5 12.8344C16.5 12.4836 16.7844 12.1992 17.1352 12.1992H18.9101C19.2609 12.1992 19.5453 12.4836 19.5453 12.8344C19.5453 13.1851 19.2609 13.4695 18.9101 13.4695H17.1352C16.7844 13.4695 16.5 13.1851 16.5 12.8344Z"/>
</mask>
<path d="M15.5 9.63516C15.5 9.28438 15.7844 9 16.1352 9H18.9101C19.2609 9 19.5453 9.28438 19.5453 9.63516C19.5453 9.98593 19.2609 10.2703 18.9101 10.2703H16.1352C15.7844 10.2703 15.5 9.98593 15.5 9.63516Z" fill="#494949"/>
<path fill-rule="evenodd" clip-rule="evenodd" d="M8.5934 3C6.46644 3 4.74219 4.72426 4.74219 6.85123C4.74219 8.97821 6.46644 10.7025 8.5934 10.7025C10.7204 10.7025 12.4446 8.97821 12.4446 6.85123C12.4446 4.72426 10.7204 3 8.5934 3ZM5.95837 6.85123C5.95837 5.39593 7.13812 4.21618 8.5934 4.21618C10.0488 4.21618 11.2285 5.39593 11.2285 6.85123C11.2285 8.30654 10.0488 9.48629 8.5934 9.48629C7.13812 9.48629 5.95837 8.30654 5.95837 6.85123Z" fill="#494949"/>
<path fill-rule="evenodd" clip-rule="evenodd" d="M8.59446 11.9224C6.71869 11.9224 4.99048 12.3488 3.70986 13.0691C2.44831 13.7787 1.5001 14.8542 1.5001 16.179L1.50006 16.2617C1.49914 17.2037 1.49799 18.386 2.53501 19.2304C3.04537 19.646 3.75934 19.9415 4.72396 20.1368C5.69128 20.3326 6.95202 20.4356 8.59446 20.4356C10.2369 20.4356 11.4977 20.3326 12.465 20.1368C13.4297 19.9415 14.1436 19.646 14.6539 19.2304C15.6909 18.386 15.6898 17.2037 15.6889 16.2617L15.6888 16.179C15.6888 14.8542 14.7407 13.7787 13.4791 13.0691C12.1985 12.3488 10.4703 11.9224 8.59446 11.9224ZM2.71628 16.179C2.71628 15.4888 3.22009 14.7399 4.30611 14.1291C5.37307 13.5289 6.888 13.1385 8.59446 13.1385C10.301 13.1385 11.8159 13.5289 12.8829 14.1291C13.9689 14.7399 14.4727 15.4888 14.4727 16.179C14.4727 17.2393 14.44 17.8362 13.886 18.2874C13.5856 18.5321 13.0834 18.7708 12.2237 18.9448C11.3668 19.1183 10.1952 19.2194 8.59446 19.2194C6.9938 19.2194 5.82219 19.1183 4.96524 18.9448C4.10559 18.7708 3.60338 18.5321 3.30296 18.2874C2.74897 17.8362 2.71628 17.2393 2.71628 16.179Z" fill="#494949"/>
<path d="M17.7 17.3264C19.0341 17.3202 20.2396 16.9955 21.1168 16.2142C22.011 15.4179 22.4661 14.2354 22.4661 12.7182V10.1082C22.4661 8.59116 22.011 7.40862 21.1168 6.61231C20.2311 5.82348 19.0108 5.5 17.6612 5.5H14.5V6.70215H17.6612C18.8186 6.70215 19.6873 6.97974 20.264 7.49324C20.8321 7.99925 21.2127 8.82029 21.2127 10.1082V12.7182C21.2127 14.0061 20.8321 14.8272 20.264 15.3332C19.6938 15.841 18.838 16.1181 17.7 16.1242V17.3264Z" fill="#494949"/>
<path d="M15.0984 6.1C15.0984 6.43137 14.8298 6.7 14.4984 6.7C14.1671 6.7 13.8984 6.43137 13.8984 6.1C13.8984 5.76863 14.1671 5.5 14.4984 5.5C14.8298 5.5 15.0984 5.76863 15.0984 6.1Z" fill="#494949"/>
<path d="M18.3016 16.725C18.3016 17.0564 18.0329 17.325 17.7016 17.325C17.3702 17.325 17.1016 17.0564 17.1016 16.725C17.1016 16.3936 17.3702 16.125 17.7016 16.125C18.0329 16.125 18.3016 16.3936 18.3016 16.725Z" fill="#494949"/>
<path d="M16.5 12.8344C16.5 12.4836 16.7844 12.1992 17.1352 12.1992H18.9101C19.2609 12.1992 19.5453 12.4836 19.5453 12.8344C19.5453 13.1851 19.2609 13.4695 18.9101 13.4695H17.1352C16.7844 13.4695 16.5 13.1851 16.5 12.8344Z" fill="#494949"/>
<path d="M3.70986 13.0691L3.02353 11.8488L3.02345 11.8489L3.70986 13.0691ZM1.5001 16.179L2.9001 16.1798V16.179H1.5001ZM1.50006 16.2617L2.90005 16.2631L2.90005 16.2625L1.50006 16.2617ZM2.53501 19.2304L3.41904 18.1448L3.41901 18.1448L2.53501 19.2304ZM4.72396 20.1368L4.44612 21.509L4.44631 21.509L4.72396 20.1368ZM12.465 20.1368L12.7426 21.509L12.7428 21.509L12.465 20.1368ZM14.6539 19.2304L13.7699 18.1448L13.7699 18.1448L14.6539 19.2304ZM15.6889 16.2617L17.0889 16.2604V16.2603L15.6889 16.2617ZM15.6888 16.179H14.2888L14.2888 16.1804L15.6888 16.179ZM13.4791 13.0691L14.1655 11.8489L14.1654 11.8488L13.4791 13.0691ZM4.30611 14.1291L4.99244 15.3493L4.99246 15.3493L4.30611 14.1291ZM12.8829 14.1291L12.1965 15.3493L12.1965 15.3493L12.8829 14.1291ZM13.886 18.2874L13.002 17.2017L13.0018 17.2019L13.886 18.2874ZM12.2237 18.9448L12.5014 20.317L12.5014 20.317L12.2237 18.9448ZM4.96524 18.9448L4.68751 20.317L4.68754 20.317L4.96524 18.9448ZM3.30296 18.2874L4.1871 17.2019L4.18698 17.2018L3.30296 18.2874ZM17.7 17.3264H16.3V18.7329L17.7065 18.7264L17.7 17.3264ZM21.1168 16.2142L20.1858 15.1686L20.1857 15.1687L21.1168 16.2142ZM21.1168 6.61231L20.1857 7.65777L20.1857 7.65783L21.1168 6.61231ZM14.5 5.5V4.1H13.1V5.5H14.5ZM14.5 6.70215H13.1V8.10215H14.5V6.70215ZM20.264 7.49324L21.1951 6.44777L21.195 6.44768L20.264 7.49324ZM20.264 15.3332L21.195 16.3788L21.1951 16.3787L20.264 15.3332ZM17.7 16.1242L17.6924 14.7242L16.3 14.7318V16.1242H17.7ZM15.5 9.63516H16.9C16.9 10.0576 16.5576 10.4 16.1352 10.4V9V7.6C15.0112 7.6 14.1 8.51119 14.1 9.63516H15.5ZM16.1352 9V10.4H18.9101V9V7.6H16.1352V9ZM18.9101 9V10.4C18.4877 10.4 18.1453 10.0576 18.1453 9.63516H19.5453H20.9453C20.9453 8.51118 20.0341 7.6 18.9101 7.6V9ZM19.5453 9.63516H18.1453C18.1453 9.21273 18.4877 8.87031 18.9101 8.87031V10.2703V11.6703C20.0341 11.6703 20.9453 10.7591 20.9453 9.63516H19.5453ZM18.9101 10.2703V8.87031H16.1352V10.2703V11.6703H18.9101V10.2703ZM16.1352 10.2703V8.87031C16.5576 8.87031 16.9 9.21274 16.9 9.63516H15.5H14.1C14.1 10.7591 15.0112 11.6703 16.1352 11.6703V10.2703ZM8.5934 3V1.6C5.69324 1.6 3.34219 3.95106 3.34219 6.85123H4.74219H6.14219C6.14219 5.49745 7.23965 4.4 8.5934 4.4V3ZM4.74219 6.85123H3.34219C3.34219 9.7514 5.69324 12.1025 8.5934 12.1025V10.7025V9.30247C7.23965 9.30247 6.14219 8.20501 6.14219 6.85123H4.74219ZM8.5934 10.7025V12.1025C11.4936 12.1025 13.8446 9.7514 13.8446 6.85123H12.4446H11.0446C11.0446 8.20502 9.9472 9.30247 8.5934 9.30247V10.7025ZM12.4446 6.85123H13.8446C13.8446 3.95107 11.4936 1.6 8.5934 1.6V3V4.4C9.9472 4.4 11.0446 5.49745 11.0446 6.85123H12.4446ZM5.95837 6.85123H7.35837C7.35837 6.16912 7.91132 5.61618 8.5934 5.61618V4.21618V2.81618C6.36491 2.81618 4.55837 4.62274 4.55837 6.85123H5.95837ZM8.5934 4.21618V5.61618C9.27554 5.61618 9.82845 6.16911 9.82845 6.85123H11.2285H12.6285C12.6285 4.62275 10.822 2.81618 8.5934 2.81618V4.21618ZM11.2285 6.85123H9.82845C9.82845 7.53336 9.27554 8.08629 8.5934 8.08629V9.48629V10.8863C10.822 10.8863 12.6285 9.07972 12.6285 6.85123H11.2285ZM8.5934 9.48629V8.08629C7.91132 8.08629 7.35837 7.53335 7.35837 6.85123H5.95837H4.55837C4.55837 9.07973 6.36491 10.8863 8.5934 10.8863V9.48629ZM8.59446 11.9224V10.5224C6.52383 10.5224 4.55012 10.9902 3.02353 11.8488L3.70986 13.0691L4.39619 14.2893C5.43084 13.7073 6.91354 13.3224 8.59446 13.3224V11.9224ZM3.70986 13.0691L3.02345 11.8489C1.56358 12.6701 0.100104 14.121 0.100104 16.179H1.5001H2.9001C2.9001 15.5875 3.33304 14.8874 4.39627 14.2892L3.70986 13.0691ZM1.5001 16.179L0.100104 16.1782L0.100055 16.2609L1.50006 16.2617L2.90005 16.2625L2.9001 16.1798L1.5001 16.179ZM1.50006 16.2617L0.100056 16.2603C0.0992109 17.129 0.0365742 19.0014 1.65101 20.316L2.53501 19.2304L3.41901 18.1448C2.9594 17.7705 2.89907 17.2783 2.90005 16.2631L1.50006 16.2617ZM2.53501 19.2304L1.65098 20.316C2.40302 20.9284 3.36075 21.2892 4.44612 21.509L4.72396 20.1368L5.0018 18.7647C4.15793 18.5938 3.68773 18.3636 3.41904 18.1448L2.53501 19.2304ZM4.72396 20.1368L4.44631 21.509C5.54056 21.7304 6.90382 21.8356 8.59446 21.8356V20.4356V19.0356C7.00021 19.0356 5.842 18.9347 5.0016 18.7646L4.72396 20.1368ZM8.59446 20.4356V21.8356C10.2851 21.8356 11.6484 21.7304 12.7426 21.509L12.465 20.1368L12.1873 18.7647C11.347 18.9347 10.1888 19.0356 8.59446 19.0356V20.4356ZM12.465 20.1368L12.7428 21.509C13.8282 21.2892 14.786 20.9284 15.538 20.3159L14.6539 19.2304L13.7699 18.1448C13.5013 18.3636 13.0311 18.5938 12.1872 18.7647L12.465 20.1368ZM14.6539 19.2304L15.538 20.316C17.1523 19.0014 17.0897 17.1291 17.0889 16.2604L15.6889 16.2617L14.2889 16.263C14.2899 17.2783 14.2295 17.7705 13.7699 18.1448L14.6539 19.2304ZM15.6889 16.2617L17.0889 16.2603L17.0888 16.1776L15.6888 16.179L14.2888 16.1804L14.2889 16.2631L15.6889 16.2617ZM15.6888 16.179H17.0888C17.0888 14.121 15.6255 12.6701 14.1655 11.8489L13.4791 13.0691L12.7927 14.2892C13.8559 14.8873 14.2888 15.5875 14.2888 16.179H15.6888ZM13.4791 13.0691L14.1654 11.8488C12.6388 10.9902 10.6651 10.5224 8.59446 10.5224V11.9224V13.3224C10.2754 13.3224 11.7581 13.7073 12.7928 14.2893L13.4791 13.0691ZM2.71628 16.179H4.11628C4.11628 16.1789 4.11596 16.1641 4.12791 16.1312C4.14027 16.0972 4.16731 16.04 4.22498 15.9629C4.34311 15.805 4.5754 15.5839 4.99244 15.3493L4.30611 14.1291L3.61978 12.9089C2.32608 13.6365 1.31628 14.7626 1.31628 16.179H2.71628ZM4.30611 14.1291L4.99246 15.3493C5.81354 14.8875 7.08299 14.5385 8.59446 14.5385V13.1385V11.7385C6.69302 11.7385 4.9326 12.1704 3.61976 12.9089L4.30611 14.1291ZM8.59446 13.1385V14.5385C10.106 14.5385 11.3754 14.8875 12.1965 15.3493L12.8829 14.1291L13.5692 12.9089C12.2563 12.1704 10.496 11.7385 8.59446 11.7385V13.1385ZM12.8829 14.1291L12.1965 15.3493C12.6136 15.5839 12.8459 15.805 12.964 15.9628C13.0216 16.0399 13.0487 16.0971 13.061 16.1312C13.073 16.1641 13.0727 16.1789 13.0727 16.179H14.4727H15.8727C15.8727 14.7627 14.863 13.6365 13.5692 12.9088L12.8829 14.1291ZM14.4727 16.179H13.0727C13.0727 16.4428 13.0704 16.6451 13.061 16.8151C13.0517 16.9845 13.0368 17.0864 13.0224 17.1492C13.0094 17.2058 13.0007 17.2136 13.0085 17.2004C13.018 17.1844 13.0238 17.1839 13.002 17.2017L13.886 18.2874L14.77 19.373C15.9178 18.4383 15.8727 17.1086 15.8727 16.179H14.4727ZM13.886 18.2874L13.0018 17.2019C12.9432 17.2497 12.6848 17.4231 11.946 17.5726L12.2237 18.9448L12.5014 20.317C13.4819 20.1186 14.228 19.8144 14.77 19.3728L13.886 18.2874ZM12.2237 18.9448L11.946 17.5726C11.2161 17.7204 10.1471 17.8194 8.59446 17.8194V19.2194V20.6194C10.2433 20.6194 11.5175 20.5161 12.5014 20.317L12.2237 18.9448ZM8.59446 19.2194V17.8194C7.0419 17.8194 5.97287 17.7204 5.24294 17.5726L4.96524 18.9448L4.68754 20.317C5.67151 20.5161 6.94571 20.6194 8.59446 20.6194V19.2194ZM4.96524 18.9448L5.24297 17.5726C4.50414 17.4231 4.24579 17.2497 4.1871 17.2019L3.30296 18.2874L2.41882 19.3729C2.96097 19.8144 3.70704 20.1186 4.68751 20.317L4.96524 18.9448ZM3.30296 18.2874L4.18698 17.2018C4.16512 17.184 4.17094 17.1844 4.18045 17.2004C4.18828 17.2136 4.17952 17.2057 4.16657 17.1492C4.15218 17.0863 4.13727 16.9845 4.12791 16.8151C4.11852 16.645 4.11628 16.4428 4.11628 16.179H2.71628H1.31628C1.31628 17.1086 1.27114 18.4383 2.41894 19.373L3.30296 18.2874ZM17.7 17.3264L17.7065 18.7264C19.2416 18.7193 20.8279 18.3463 22.048 17.2596L21.1168 16.2142L20.1857 15.1687C19.6513 15.6446 18.8266 15.9212 17.6935 15.9264L17.7 17.3264ZM21.1168 16.2142L22.0479 17.2597C23.3172 16.1293 23.8661 14.5188 23.8661 12.7182H22.4661H21.0661C21.0661 13.9519 20.7048 14.7064 20.1858 15.1686L21.1168 16.2142ZM22.4661 12.7182H23.8661V10.1082H22.4661H21.0661V12.7182H22.4661ZM22.4661 10.1082H23.8661C23.8661 8.30769 23.3172 6.69719 22.0479 5.56678L21.1168 6.61231L20.1857 7.65783C20.7048 8.12006 21.0661 8.87464 21.0661 10.1082H22.4661ZM21.1168 6.61231L22.0479 5.56684C20.8161 4.46976 19.2112 4.1 17.6612 4.1V5.5V6.9C18.8103 6.9 19.6461 7.1772 20.1857 7.65777L21.1168 6.61231ZM17.6612 5.5V4.1H14.5V5.5V6.9H17.6612V5.5ZM14.5 5.5H13.1V6.70215H14.5H15.9V5.5H14.5ZM14.5 6.70215V8.10215H17.6612V6.70215V5.30215H14.5V6.70215ZM17.6612 6.70215V8.10215C18.6164 8.10215 19.1014 8.33264 19.3329 8.5388L20.264 7.49324L21.195 6.44768C20.2732 5.62684 19.0208 5.30215 17.6612 5.30215V6.70215ZM20.264 7.49324L19.3328 8.53871C19.5273 8.71188 19.8127 9.10614 19.8127 10.1082H21.2127H22.6127C22.6127 8.53444 22.1369 7.28661 21.1951 6.44777L20.264 7.49324ZM21.2127 10.1082H19.8127V12.7182H21.2127H22.6127V10.1082H21.2127ZM21.2127 12.7182H19.8127C19.8127 13.7203 19.5273 14.1146 19.3328 14.2878L20.264 15.3332L21.1951 16.3787C22.1369 15.5398 22.6127 14.292 22.6127 12.7182H21.2127ZM20.264 15.3332L19.333 14.2877C19.1041 14.4915 18.6275 14.7192 17.6924 14.7242L17.7 16.1242L17.7076 17.5242C19.0485 17.517 20.2834 17.1904 21.195 16.3788L20.264 15.3332ZM17.7 16.1242H16.3V17.3264H17.7H19.1V16.1242H17.7ZM15.0984 6.1H13.6984C13.6984 5.65817 14.0566 5.3 14.4984 5.3V6.7V8.1C15.603 8.1 16.4984 7.20457 16.4984 6.1H15.0984ZM14.4984 6.7V5.3C14.9403 5.3 15.2984 5.65817 15.2984 6.1H13.8984H12.4984C12.4984 7.20457 13.3939 8.1 14.4984 8.1V6.7ZM13.8984 6.1H15.2984C15.2984 6.54183 14.9403 6.9 14.4984 6.9V5.5V4.1C13.3939 4.1 12.4984 4.99543 12.4984 6.1H13.8984ZM14.4984 5.5V6.9C14.0566 6.9 13.6984 6.54183 13.6984 6.1H15.0984H16.4984C16.4984 4.99543 15.603 4.1 14.4984 4.1V5.5ZM18.3016 16.725H16.9016C16.9016 16.2832 17.2597 15.925 17.7016 15.925V17.325V18.725C18.8061 18.725 19.7016 17.8296 19.7016 16.725H18.3016ZM17.7016 17.325V15.925C18.1434 15.925 18.5016 16.2832 18.5016 16.725H17.1016H15.7016C15.7016 17.8296 16.597 18.725 17.7016 18.725V17.325ZM17.1016 16.725H18.5016C18.5016 17.1668 18.1434 17.525 17.7016 17.525V16.125V14.725C16.597 14.725 15.7016 15.6204 15.7016 16.725H17.1016ZM17.7016 16.125V17.525C17.2597 17.525 16.9016 17.1668 16.9016 16.725H18.3016H19.7016C19.7016 15.6204 18.8061 14.725 17.7016 14.725V16.125ZM16.5 12.8344H17.9C17.9 13.2568 17.5576 13.5992 17.1352 13.5992V12.1992V10.7992C16.0112 10.7992 15.1 11.7104 15.1 12.8344H16.5ZM17.1352 12.1992V13.5992H18.9101V12.1992V10.7992H17.1352V12.1992ZM18.9101 12.1992V13.5992C18.4877 13.5992 18.1453 13.2568 18.1453 12.8344H19.5453H20.9453C20.9453 11.7104 20.0341 10.7992 18.9101 10.7992V12.1992ZM19.5453 12.8344H18.1453C18.1453 12.4119 18.4877 12.0695 18.9101 12.0695V13.4695V14.8695C20.0341 14.8695 20.9453 13.9584 20.9453 12.8344H19.5453ZM18.9101 13.4695V12.0695H17.1352V13.4695V14.8695H18.9101V13.4695ZM17.1352 13.4695V12.0695C17.5576 12.0695 17.9 12.412 17.9 12.8344H16.5H15.1C15.1 13.9583 16.0112 14.8695 17.1352 14.8695V13.4695Z" fill="#0166FF" mask="url(#path-1-inside-1_84168_574313)"/>
</svg>
<svg xmlns="http://www.w3.org/2000/svg" width="24" height="24" fill="none"><path fill="#494949" d="M15.5 9.635c0-.35.284-.635.635-.635h2.775a.635.635 0 1 1 0 1.27h-2.775a.635.635 0 0 1-.635-.635"/><path fill="#494949" fill-rule="evenodd" d="M8.593 3a3.851 3.851 0 1 0 0 7.702 3.851 3.851 0 0 0 0-7.702M5.958 6.851a2.635 2.635 0 1 1 5.27 0 2.635 2.635 0 0 1-5.27 0M8.594 11.922c-1.875 0-3.604.427-4.884 1.147-1.262.71-2.21 1.785-2.21 3.11v.083c0 .942-.002 2.124 1.035 2.968.51.416 1.224.712 2.189.907.967.196 2.228.299 3.87.299 1.643 0 2.904-.103 3.871-.3.965-.194 1.679-.49 2.189-.906 1.037-.844 1.036-2.026 1.035-2.968v-.083c0-1.325-.948-2.4-2.21-3.11-1.28-.72-3.009-1.147-4.885-1.147M2.716 16.18c0-.69.504-1.44 1.59-2.05 1.067-.6 2.582-.99 4.288-.99s3.222.39 4.289.99c1.086.61 1.59 1.36 1.59 2.05 0 1.06-.033 1.657-.587 2.108-.3.245-.803.484-1.662.658-.857.173-2.029.274-3.63.274s-2.772-.1-3.629-.274c-.86-.174-1.362-.413-1.662-.658-.554-.45-.587-1.048-.587-2.108" clip-rule="evenodd"/><path fill="#494949" d="M17.7 17.326c1.334-.006 2.54-.33 3.417-1.112.894-.796 1.35-1.979 1.35-3.496v-2.61c0-1.517-.456-2.7-1.35-3.496C20.23 5.823 19.01 5.5 17.66 5.5H14.5v1.202h3.161c1.158 0 2.026.278 2.603.791.568.506.949 1.327.949 2.615v2.61c0 1.288-.38 2.11-.949 2.615-.57.508-1.426.785-2.564.791z"/><path fill="#494949" d="M15.098 6.1a.6.6 0 1 1-1.2 0 .6.6 0 0 1 1.2 0M18.302 16.725a.6.6 0 1 1-1.2 0 .6.6 0 0 1 1.2 0M16.5 12.834c0-.35.284-.635.635-.635h1.775a.635.635 0 0 1 0 1.27h-1.775a.635.635 0 0 1-.635-.635"/></svg>