<svg width="20" height="20" viewBox="0 0 20 20" fill="none" xmlns="http://www.w3.org/2000/svg">
<path d="M16.5834 15.7716L14.5099 13.4673C14.3968 13.3415 14.242 13.2681 14.0752 13.2621C13.91 13.2561 13.7493 13.316 13.6272 13.4328L13.5974 13.4613C13.3459 13.7008 13.331 14.1066 13.5632 14.3656L15.6367 16.67C15.7498 16.7958 15.9046 16.8691 16.0713 16.8751H16.0951C16.2529 16.8751 16.4033 16.8152 16.5194 16.7044L16.5491 16.676C16.6712 16.5592 16.7411 16.402 16.7486 16.2313C16.7545 16.0606 16.6965 15.8974 16.5834 15.7716Z" fill="#9A9A9A"/>
<path d="M13.8356 8.33529C13.8356 5.75796 11.7466 3.66895 9.16927 3.66895C6.59194 3.66895 4.50293 5.75796 4.50293 8.33529C4.50293 10.9126 6.59194 13.0016 9.16927 13.0016V13.5851V14.1686C5.94761 14.1686 3.33594 11.5569 3.33594 8.33529C3.33594 5.11363 5.94761 2.50195 9.16927 2.50195C12.3909 2.50195 15.0026 5.11363 15.0026 8.33529C15.0026 11.5569 12.3909 14.1686 9.16927 14.1686V13.5851V13.0016C11.7466 13.0016 13.8356 10.9126 13.8356 8.33529Z" fill="#9A9A9A"/>
<path d="M7.5 8.33398H10.8333" stroke="#9A9A9A" stroke-width="1.5" stroke-linecap="round"/>
</svg>
