<svg width="24" height="24" viewBox="0 0 24 24" fill="none" xmlns="http://www.w3.org/2000/svg">
<path fill-rule="evenodd" clip-rule="evenodd" d="M11.6553 3.56471C11.7642 3.52201 11.8815 3.5 12 3.5C12.1185 3.5 12.2358 3.52201 12.3448 3.56471L17.9395 5.75733C18.2544 5.88073 18.5227 6.0859 18.7112 6.3474C18.8997 6.6089 19.0001 6.91523 19 7.22842V12.716C18.9999 13.703 18.7144 14.6725 18.1724 15.5262C17.6305 16.3799 16.8513 17.0875 15.9139 17.5772L12.434 19.3947C12.3018 19.4637 12.1522 19.5 12 19.5C11.8478 19.5 11.6982 19.4637 11.566 19.3947L8.08613 17.5772C7.14845 17.0874 6.36911 16.3795 5.82713 15.5255C5.28515 14.6715 4.9998 13.7017 5 12.7144V7.22842C5.00004 6.91537 5.10053 6.60921 5.28904 6.34786C5.47754 6.08652 5.74577 5.88148 6.0605 5.75813L11.6553 3.56471Z" fill="url(#paint0_linear_76810_100257)"/>
<path d="M15.3229 9.33586C15.3248 9.55436 15.2408 9.76486 15.089 9.92203L11.7557 13.2554C11.5994 13.4116 11.3875 13.4993 11.1665 13.4993C10.9455 13.4993 10.7336 13.4116 10.5774 13.2554L8.91068 11.5887C8.75889 11.4315 8.67489 11.221 8.67679 11.0025C8.67869 10.784 8.76633 10.575 8.92084 10.4205C9.07534 10.266 9.28435 10.1784 9.50285 10.1765C9.72135 10.1746 9.93185 10.2586 10.089 10.4104L11.1665 11.4879L13.9107 8.74369C14.0679 8.59189 14.2784 8.5079 14.4969 8.5098C14.7153 8.5117 14.9244 8.59934 15.0789 8.75384C15.2334 8.90835 15.321 9.11736 15.3229 9.33586Z" fill="white"/>
<defs>
<linearGradient id="paint0_linear_76810_100257" x1="9" y1="6" x2="13.4595" y2="20.1434" gradientUnits="userSpaceOnUse">
<stop stop-color="#52D17C"/>
<stop offset="1" stop-color="#1A7F7C"/>
</linearGradient>
</defs>
</svg>
