<svg width="20" height="20" viewBox="0 0 20 20" fill="none" xmlns="http://www.w3.org/2000/svg">
<path d="M15.625 10H15.875C16.4273 10 16.875 9.55228 16.875 9V7.875C16.875 7.32272 16.4273 6.875 15.875 6.875H12.875C12.3227 6.875 11.875 6.42728 11.875 5.875V3.5C11.875 2.94772 11.4273 2.5 10.875 2.5H9.125C8.57272 2.5 8.125 2.94772 8.125 3.5V5.875C8.125 6.42728 7.67728 6.875 7.125 6.875H4.125C3.57272 6.875 3.125 7.32272 3.125 7.875V9C3.125 9.55228 3.57272 10 4.125 10H4.375M15.625 10L16.6607 15.6961C16.7723 16.31 16.3007 16.875 15.6768 16.875H12.5M15.625 10H4.375M4.375 10L3.33934 15.6961C3.22774 16.31 3.69931 16.875 4.32321 16.875H7.5M7.5 16.875V13.75M7.5 16.875H12.5M12.5 16.875V13.75" stroke="#0166FF" stroke-width="1.2" stroke-linejoin="round"/>
</svg>
