<svg width="25" height="25" viewBox="0 0 25 25" fill="none" xmlns="http://www.w3.org/2000/svg">
<path d="M20.1097 14.1598C20.1097 15.7429 19.6403 17.2904 18.7608 18.6067C17.8813 19.9229 16.6312 20.9488 15.1687 21.5546C13.7061 22.1604 12.0968 22.319 10.5441 22.0101C8.99149 21.7013 7.5653 20.939 6.44591 19.8196C5.32652 18.7002 4.5642 17.274 4.25536 15.7213C3.94652 14.1687 4.10503 12.5593 4.71084 11.0968C5.31665 9.63424 6.34256 8.38417 7.65882 7.50467C8.97509 6.62517 10.5226 6.15574 12.1057 6.15574L21.177 6.15574M21.177 6.15574L17.9753 2.9541M21.177 6.15574L17.9753 9.35737" stroke="white" stroke-width="1.44" stroke-linecap="round" stroke-linejoin="round"/>
</svg>
