<svg width="24" height="24" viewBox="0 0 24 24" fill="none" xmlns="http://www.w3.org/2000/svg">
<path d="M11.0338 11.9815C13.652 11.9815 15.7745 9.85898 15.7745 7.24074C15.7745 4.6225 13.652 2.5 11.0338 2.5C8.41554 2.5 6.29304 4.6225 6.29304 7.24074C6.29304 9.85898 8.41554 11.9815 11.0338 11.9815ZM11.0338 11.9815C10.027 11.9815 3.33008 12.8111 3.33008 18.5" stroke="white" stroke-width="1.1" stroke-linecap="round"/>
<path fill-rule="evenodd" clip-rule="evenodd" d="M9.77441 16.8333C9.77441 15.8222 12.212 14.5 15.2189 14.5C18.2257 14.5 20.6633 15.8222 20.6633 16.8333V19.1667C20.6633 20.1778 18.2257 21.5 15.2189 21.5C12.212 21.5 9.77441 20.1778 9.77441 19.1667V16.8333Z" stroke="white" stroke-width="1.1" stroke-linecap="round" stroke-linejoin="round"/>
<path fill-rule="evenodd" clip-rule="evenodd" d="M15.2189 19.1542C18.2257 19.1542 20.6633 17.9051 20.6633 16.8318C20.6633 15.7584 18.2257 14.5 15.2189 14.5C12.212 14.5 9.77441 15.7577 9.77441 16.8318C9.77441 17.9051 12.212 19.1542 15.2189 19.1542Z" stroke="white" stroke-width="1.1" stroke-linecap="round" stroke-linejoin="round"/>
</svg>
