<svg width="375" height="440" viewBox="0 0 375 440" fill="none" xmlns="http://www.w3.org/2000/svg">
<g style="mix-blend-mode:overlay" opacity="0.2">
<path d="M418 -20H403.819L187.533 211.064L187.739 211.183L187.804 211.172L418 10.1623V-20Z" fill="url(#paint0_linear_68608_359259)"/>
<path d="M185.115 210.619L185.256 210.533L185.245 210.467V210.478L149.846 -20H125.365L185.104 210.576L184.985 210.652L99.5067 -20H71.6537L184.855 210.739L184.757 210.814L184.865 210.749L184.887 210.782L185.104 210.587L185.115 210.619Z" fill="url(#paint1_linear_68608_359259)"/>
<path d="M270.679 -20L186.828 210.63L186.741 210.576L244.962 -20H220.535L186.589 210.467L186.6 210.478L186.589 210.533L186.73 210.619V210.598L186.817 210.663L186.925 210.76L186.947 210.739L187.045 210.793L186.947 210.717L298.413 -20H270.679Z" fill="url(#paint2_linear_68608_359259)"/>
<path d="M418 162.752L188.79 211.01L188.606 211.085L418 186.875V162.752Z" fill="url(#paint3_linear_68608_359259)"/>
<path d="M418 81.1555V48.2067L188.107 211.14L188.183 211.129L187.923 211.27L188.432 211.107L188.573 211.096L188.693 211.031H188.682L188.703 211.02L418 81.1555Z" fill="url(#paint4_linear_68608_359259)"/>
<path d="M418 110.613L188.899 210.955L418 137.544V110.613Z" fill="url(#paint5_linear_68608_359259)"/>
<path d="M-43 339.129L183.196 211.693L182.936 211.747L-43 310.159V339.129Z" fill="url(#paint6_linear_68608_359259)"/>
<path d="M183.89 211.27L183.727 211.161L183.315 211.075L183.651 211.107L-43 52.5435V84.8309L183.087 211.02L-43 113.67V140.114L183.098 211.02L183.12 211.031L-43 164.888V188.643L183.163 211.064L183.738 211.389L183.825 211.335L183.185 211.064L183.89 211.27Z" fill="url(#paint7_linear_68608_359259)"/>
<path d="M363.508 -20H328.977L187.186 210.869L187.316 210.945L363.508 -20Z" fill="url(#paint8_linear_68608_359259)"/>
<path d="M184.063 211.562L184.258 211.671L-31.2582 441H8.87876L184.508 211.812L184.714 211.931L43.2803 441H73.6703L184.844 211.996L184.985 212.083L101.22 441H126.828L185.126 212.159L185.256 212.235L185.126 212.148L185.158 212.04L185.288 212.148L151.082 441H174.566L185.679 211.454L185.711 212.018C185.787 212.018 185.971 212.018 186.134 212.018L186.177 211.15L197.756 441H221.251L186.578 212.235C186.578 212.235 186.578 212.235 186.578 212.246L186.741 212.137L245.526 441H271.146L186.893 212.126H187.023L298.728 441H329.161L187.207 212.126H187.576L363.649 441H403.916L187.836 212.115H188.454L417.967 410.903V373.086L188.888 212.105H189.365L417.967 340.289V310.962L189.712 212.094H189.939L417.967 284.084V258.942L190.666 212.094H193.019L417.967 234.851V210.37L188.064 211.357L188.487 211.118L187.999 211.335L188.042 211.367H187.836L187.793 211.335L187.608 211.367L187.706 211.4H187.641L187.663 211.432L187.608 211.476L187.467 211.443L187.511 211.411H187.467L187.543 211.378H186.925H186.936H186.828L186.806 211.411L186.719 211.378H186.633L186.654 211.411L186.589 211.378L186.568 211.302H186.6L186.611 211.324L186.676 211.291H186.643L186.654 211.248L186.6 211.15L186.568 211.226L186.589 211.259H186.524V211.216L186.459 211.042V211.248H186.427L186.416 211.324H186.481V211.346L186.513 211.313L186.492 211.378L186.459 211.422V211.389H186.394V211.422L186.372 211.389H186.221C186.221 211.389 186.221 211.357 186.221 211.346H186.372L186.362 211.237L186.253 211.216C186.275 211.129 186.286 211.053 186.307 210.988H186.318L186.275 210.706L186.437 211.031H186.459V211.053L186.524 211.194L186.546 211.118L186.503 211.042L186.568 211.064L186.611 210.912L186.654 210.977L186.611 211.085L186.709 211.118L186.73 211.085L186.893 211.183L186.752 211.031L186.817 210.89L186.698 210.836L186.665 210.934L186.611 210.879L186.633 210.814L186.503 210.76L186.459 210.739L186.503 210.782L186.47 210.999L186.318 210.684L186.351 210.804L186.286 210.695C186.286 210.695 186.188 210.706 186.134 210.706L196.878 -20H173.514L185.635 210.684C185.57 210.684 185.516 210.684 185.494 210.673L185.451 210.955C185.483 211.042 185.494 211.129 185.516 211.216L185.407 211.237V211.291L185.548 211.302C185.548 211.324 185.548 211.357 185.538 211.411H185.321V211.432H185.386V211.508H185.342L185.364 211.595V211.671L185.288 211.508L185.267 211.454L185.31 211.422H185.18L185.201 211.454H185.212V211.465L185.169 211.573L185.093 211.454H185.147L185.104 211.443L185.126 211.411L185.05 211.378L184.974 211.422H184.8L184.822 211.4L184.432 211.422L184.453 211.443H184.41L184.453 211.465L184.378 211.541L184.54 211.519L184.649 211.606L184.703 211.541L184.985 211.476L184.909 211.606L185.017 211.638L185.061 211.541L185.147 211.649V211.682L185.223 211.758V211.714H185.245V211.693L185.267 211.584L185.418 211.888C185.418 211.888 185.408 211.92 185.397 211.942L185.332 211.834V211.866L185.397 211.953C185.397 211.975 185.386 211.996 185.375 212.007L185.31 211.975L185.288 212.137L185.169 212.007L185.191 211.92L185.071 211.866V211.888L184.941 211.801V211.768L184.865 211.671L184.833 211.725L184.887 211.768L184.822 211.736L184.757 211.844L184.573 211.714L184.627 211.649L184.378 211.541L184.356 211.562L184.291 211.519H184.312L184.204 211.465H184.193L184.128 211.443L184.15 211.422L184.009 211.389L184.074 211.367L184.02 211.335L183.965 211.378L183.868 211.335L183.77 211.378L183.803 211.4L183.673 211.422L183.705 211.4L-42.9892 211.801V235.024L183.152 211.649L183.001 211.714L183.868 211.443L183.662 211.595H183.586H183.651L-43 371.557V408.94L183.976 211.562H184.063Z" fill="url(#paint9_linear_68608_359259)"/>
<path d="M-43 258.79V283.629L182.892 211.758L-43 258.79Z" fill="url(#paint10_linear_68608_359259)"/>
<path d="M184.714 210.836L40.9167 -20H6.10322L184.584 210.912L184.714 210.836Z" fill="url(#paint11_linear_68608_359259)"/>
<path d="M-34.6517 -20H-43V15.3665L184.139 211.161H184.15L184.28 211.085L-34.6517 -20Z" fill="url(#paint12_linear_68608_359259)"/>
<path d="M187.63 211.367L187.608 211.346L187.598 211.357L187.413 211.291L187.522 211.27L187.446 211.216H187.392L187.424 211.194L187.24 211.031L187.11 211.205L187.001 211.172L187.121 210.977L187.218 211.01L187.142 210.945L187.175 210.879L187.294 210.966L187.251 211.02L187.478 211.129L187.5 211.107L187.63 211.194H187.619L187.684 211.237L187.717 211.226L187.739 211.237L187.706 211.259L187.793 211.313L187.63 211.367Z" fill="url(#paint13_linear_68608_359259)"/>
<path d="M184.15 211.357L184.041 211.324L184.15 211.248L184.269 211.27L184.204 211.205L184.258 211.172L184.323 211.118L184.334 211.14L184.616 211.01L184.421 211.183H184.378L184.399 211.205L184.312 211.281L184.356 211.291L184.312 211.302L184.302 211.291L184.15 211.357Z" fill="url(#paint14_linear_68608_359259)"/>
<path d="M184.941 211.237L184.833 211.226L184.779 211.15L184.724 211.172L184.757 211.129L184.659 210.999L184.779 210.945L184.844 211.042L184.952 210.923L184.93 210.879L185.05 210.825L185.158 210.782L185.136 210.728L185.256 210.598L185.277 210.728L185.364 210.695L185.288 210.782L185.31 210.945L185.483 210.673L185.321 210.988V210.999L185.256 211.15L185.234 211.075L185.277 210.999L185.212 211.02L185.191 210.912L185.115 211.01L185.126 211.042L185.039 211.107L185.028 211.075L184.887 211.118L184.952 211.216L184.941 211.237Z" fill="url(#paint15_linear_68608_359259)"/>
</g>
<defs>
<linearGradient id="paint0_linear_68608_359259" x1="187.5" y1="-20" x2="187.5" y2="441" gradientUnits="userSpaceOnUse">
<stop stop-color="white" stop-opacity="0"/>
<stop offset="1" stop-color="white"/>
</linearGradient>
<linearGradient id="paint1_linear_68608_359259" x1="187.5" y1="-20" x2="187.5" y2="441" gradientUnits="userSpaceOnUse">
<stop stop-color="white" stop-opacity="0"/>
<stop offset="1" stop-color="white"/>
</linearGradient>
<linearGradient id="paint2_linear_68608_359259" x1="187.5" y1="-20" x2="187.5" y2="441" gradientUnits="userSpaceOnUse">
<stop stop-color="white" stop-opacity="0"/>
<stop offset="1" stop-color="white"/>
</linearGradient>
<linearGradient id="paint3_linear_68608_359259" x1="187.5" y1="-20" x2="187.5" y2="441" gradientUnits="userSpaceOnUse">
<stop stop-color="white" stop-opacity="0"/>
<stop offset="1" stop-color="white"/>
</linearGradient>
<linearGradient id="paint4_linear_68608_359259" x1="187.5" y1="-20" x2="187.5" y2="441" gradientUnits="userSpaceOnUse">
<stop stop-color="white" stop-opacity="0"/>
<stop offset="1" stop-color="white"/>
</linearGradient>
<linearGradient id="paint5_linear_68608_359259" x1="187.5" y1="-20" x2="187.5" y2="441" gradientUnits="userSpaceOnUse">
<stop stop-color="white" stop-opacity="0"/>
<stop offset="1" stop-color="white"/>
</linearGradient>
<linearGradient id="paint6_linear_68608_359259" x1="187.5" y1="-20" x2="187.5" y2="441" gradientUnits="userSpaceOnUse">
<stop stop-color="white" stop-opacity="0"/>
<stop offset="1" stop-color="white"/>
</linearGradient>
<linearGradient id="paint7_linear_68608_359259" x1="187.5" y1="-20" x2="187.5" y2="441" gradientUnits="userSpaceOnUse">
<stop stop-color="white" stop-opacity="0"/>
<stop offset="1" stop-color="white"/>
</linearGradient>
<linearGradient id="paint8_linear_68608_359259" x1="187.5" y1="-20" x2="187.5" y2="441" gradientUnits="userSpaceOnUse">
<stop stop-color="white" stop-opacity="0"/>
<stop offset="1" stop-color="white"/>
</linearGradient>
<linearGradient id="paint9_linear_68608_359259" x1="187.5" y1="-20" x2="187.5" y2="441" gradientUnits="userSpaceOnUse">
<stop stop-color="white" stop-opacity="0"/>
<stop offset="1" stop-color="white"/>
</linearGradient>
<linearGradient id="paint10_linear_68608_359259" x1="187.5" y1="-20" x2="187.5" y2="441" gradientUnits="userSpaceOnUse">
<stop stop-color="white" stop-opacity="0"/>
<stop offset="1" stop-color="white"/>
</linearGradient>
<linearGradient id="paint11_linear_68608_359259" x1="187.5" y1="-20" x2="187.5" y2="441" gradientUnits="userSpaceOnUse">
<stop stop-color="white" stop-opacity="0"/>
<stop offset="1" stop-color="white"/>
</linearGradient>
<linearGradient id="paint12_linear_68608_359259" x1="187.5" y1="-20" x2="187.5" y2="441" gradientUnits="userSpaceOnUse">
<stop stop-color="white" stop-opacity="0"/>
<stop offset="1" stop-color="white"/>
</linearGradient>
<linearGradient id="paint13_linear_68608_359259" x1="187.5" y1="-20" x2="187.5" y2="441" gradientUnits="userSpaceOnUse">
<stop stop-color="white" stop-opacity="0"/>
<stop offset="1" stop-color="white"/>
</linearGradient>
<linearGradient id="paint14_linear_68608_359259" x1="187.5" y1="-20" x2="187.5" y2="441" gradientUnits="userSpaceOnUse">
<stop stop-color="white" stop-opacity="0"/>
<stop offset="1" stop-color="white"/>
</linearGradient>
<linearGradient id="paint15_linear_68608_359259" x1="187.5" y1="-20" x2="187.5" y2="441" gradientUnits="userSpaceOnUse">
<stop stop-color="white" stop-opacity="0"/>
<stop offset="1" stop-color="white"/>
</linearGradient>
</defs>
</svg>
