<svg width="80" height="80" viewBox="0 0 80 80" fill="none" xmlns="http://www.w3.org/2000/svg">
<path d="M47.8453 15.8148H37.775C37.9827 15.1219 38.4084 14.5144 38.9888 14.0825C39.5692 13.6507 40.2735 13.4177 40.9969 13.418H44.6234C46.1078 13.418 47.4172 14.393 47.8453 15.8148ZM36.7938 20.3898H48.8235C48.5718 21.0916 48.1095 21.6985 47.4998 22.1275C46.8901 22.5565 46.1627 22.7868 45.4172 22.7867H40.1984C38.6734 22.7867 37.3094 21.8273 36.7938 20.3898Z" fill="#E1EAF8"/>
<path d="M42.6391 36.9404C36.7766 36.9404 31.8859 41.092 30.7422 46.6139C31.0875 46.8232 31.4297 47.0436 31.7641 47.2826C36.25 50.4779 38.6734 55.4889 38.7531 60.6029C40.0055 61.0264 41.3186 61.2423 42.6406 61.242C49.3516 61.242 54.7922 55.8014 54.7922 49.0904C54.7922 42.3795 49.35 36.9404 42.6391 36.9404ZM46.4297 52.7826C46.2359 53.2514 45.9516 53.6514 45.5781 53.9857C45.2047 54.3201 44.7453 54.5795 44.2031 54.7623C43.9844 54.8357 43.7547 54.8951 43.5125 54.9389V56.1529C43.5125 56.3326 43.3656 56.4795 43.1859 56.4795H41.5359C41.3562 56.4795 41.2094 56.3326 41.2094 56.1529V54.9436C40.3672 54.8014 39.5656 54.4982 38.8031 54.0342C38.6912 53.9668 38.6094 53.8591 38.5745 53.7333C38.5397 53.6074 38.5544 53.473 38.6156 53.3576L39.3641 51.9514C39.5078 51.6795 39.8609 51.5951 40.1094 51.7764C40.3922 51.9842 40.675 52.1498 40.9531 52.2732C41.3813 52.4623 41.8047 52.5576 42.2234 52.5576C42.7016 52.5576 43.0578 52.4482 43.2922 52.2295C43.5266 52.0107 43.6438 51.7607 43.6438 51.4826C43.6438 51.3139 43.6141 51.167 43.5547 51.042C43.4953 50.917 43.3953 50.8029 43.2562 50.6982C43.1172 50.5936 42.9344 50.4967 42.7109 50.4061C42.4875 50.317 42.2156 50.217 41.8969 50.1076C41.5188 49.9873 41.1469 49.8561 40.7828 49.7107C40.4188 49.567 40.0953 49.3748 39.8109 49.1357C39.5266 48.8967 39.2969 48.5951 39.1234 48.2311C38.9484 47.867 38.8625 47.4061 38.8625 46.8482C38.8625 46.2904 38.9547 45.7842 39.1391 45.3311C39.3234 44.8779 39.5828 44.4889 39.9156 44.1654C40.25 43.842 40.6578 43.5904 41.1406 43.4107C41.1641 43.4014 41.1875 43.3951 41.2109 43.3857V42.0279C41.2109 41.8482 41.3578 41.7014 41.5375 41.7014H43.1875C43.3672 41.7014 43.5141 41.8482 43.5141 42.0279V43.1873C43.8391 43.2248 44.1703 43.2873 44.5109 43.3732C44.9453 43.4842 45.3688 43.6311 45.7781 43.8154C46.0438 43.9357 46.1578 44.2514 46.025 44.5123L45.3672 45.8014C45.2281 46.0748 44.8859 46.1654 44.6234 46.0061C44.4684 45.9111 44.3053 45.83 44.1359 45.7639C43.8172 45.6389 43.5078 45.5764 43.2094 45.5764C42.8313 45.5764 42.5219 45.6654 42.2828 45.8451C42.0437 46.0248 41.9234 46.2592 41.9234 46.5482C41.9234 46.7482 41.9828 46.9123 42.1031 47.042C42.2234 47.1717 42.3797 47.2842 42.5734 47.3779C42.7672 47.4732 42.9875 47.5545 43.2312 47.6248C43.475 47.6951 43.7172 47.7701 43.9563 47.8482C44.9125 48.167 45.6125 48.5936 46.0563 49.1264C46.5 49.6592 46.7219 50.3545 46.7219 51.2107C46.7219 51.792 46.625 52.3139 46.4297 52.7826Z" fill="#0166FF"/>
<path d="M15.1344 32.7389C15.1031 32.7389 15.0719 32.7358 15.0406 32.7311L11.0328 32.0342C10.962 32.022 10.8942 31.9959 10.8335 31.9575C10.7727 31.9191 10.7202 31.869 10.6788 31.8102C10.6374 31.7514 10.6081 31.6851 10.5924 31.6149C10.5767 31.5447 10.5751 31.4722 10.5875 31.4014C10.6391 31.1045 10.9219 30.9045 11.2203 30.9561L15.2281 31.6529C15.5266 31.7045 15.725 31.9873 15.6734 32.2858C15.6266 32.5514 15.3953 32.7389 15.1344 32.7389ZM22.6328 22.8795C22.5329 22.8798 22.4348 22.8525 22.3494 22.8007C22.2639 22.7489 22.1944 22.6745 22.1484 22.5858L20.2578 18.9826C20.1172 18.7154 20.2203 18.3842 20.4875 18.2436C20.7547 18.1029 21.0859 18.2061 21.2266 18.4733L23.1172 22.0764C23.2578 22.3436 23.1547 22.6748 22.8875 22.8154C22.8047 22.8592 22.7188 22.8795 22.6328 22.8795ZM64.0797 24.6842C63.9828 24.6842 63.8844 24.6576 63.7953 24.6045C63.6716 24.5289 63.5829 24.4074 63.5487 24.2665C63.5144 24.1256 63.5374 23.9769 63.6125 23.8529L65.7297 20.3779C65.8053 20.2543 65.9268 20.1656 66.0677 20.1313C66.2086 20.097 66.3573 20.12 66.4813 20.1951C66.6049 20.2707 66.6936 20.3923 66.7279 20.5332C66.7622 20.674 66.7392 20.8227 66.6641 20.9467L64.5469 24.4217C64.4981 24.5019 64.4294 24.5681 64.3476 24.6141C64.2658 24.66 64.1735 24.6842 64.0797 24.6842ZM70.5047 35.2748C70.2297 35.2748 69.9922 35.067 69.9609 34.7873C69.9453 34.6431 69.9875 34.4986 70.0783 34.3855C70.1692 34.2725 70.3011 34.2 70.4453 34.1842L74.4906 33.7467C74.7938 33.7154 75.0609 33.9311 75.0938 34.2311C75.1266 34.5311 74.9094 34.8014 74.6094 34.8342L70.5641 35.2717C70.5438 35.2733 70.5234 35.2748 70.5047 35.2748Z" fill="#0166FF"/>
<path d="M72.2625 58.9168L68.9141 42.1809C67.1828 33.523 61.8469 25.9512 54.2766 21.4059C53.1349 20.7206 51.9349 20.1376 50.6906 19.6637C50.9875 19.2152 51.1625 18.6793 51.1625 18.1012C51.1625 16.5387 49.8906 15.2668 48.3281 15.2668H36.9844L33.8922 6.94336C33.7734 6.62148 33.8219 6.2793 34.0266 6.0043C34.2313 5.7293 34.5438 5.58398 34.8875 5.60586L37.325 5.76211C37.8797 5.79805 38.4141 5.61523 38.8313 5.25117L40.3797 3.89805C41.6672 2.77305 43.6094 2.77305 44.8969 3.89805L46.4453 5.25273C46.8625 5.61836 47.3984 5.79961 47.9516 5.76367L50.3891 5.60742C50.7328 5.58555 51.0453 5.73086 51.25 6.00586C51.4547 6.28086 51.5031 6.62305 51.3844 6.94492L49.1031 13.084C48.9984 13.3668 49.1422 13.6824 49.425 13.7871C49.7078 13.8918 50.0234 13.748 50.1281 13.4652L52.4094 7.32617C52.6563 6.66055 52.5516 5.92305 52.1281 5.3543C51.7047 4.78398 51.0281 4.47305 50.3203 4.5168L47.8828 4.67305C47.6219 4.69023 47.3641 4.60273 47.1656 4.4293L45.6172 3.07617C43.9188 1.5918 41.3578 1.5918 39.6609 3.07617L38.1125 4.4293C37.9148 4.60166 37.6571 4.68922 37.3953 4.67305L34.9578 4.5168C34.2469 4.46992 33.5734 4.78398 33.15 5.3543C32.7266 5.92461 32.6203 6.66055 32.8688 7.32617L35.8969 15.4746C34.8547 15.8934 34.1172 16.9137 34.1172 18.1027C34.1172 18.6793 34.2906 19.2168 34.5891 19.6652C33.35 20.1371 32.15 20.7184 31.0031 21.4074C23.4328 25.9512 18.0984 33.523 16.3656 42.1824L15.8359 44.8309C14.7922 45.2371 13.7813 45.7512 12.8219 46.3668L11.9156 46.9887C11.3448 47.4076 10.8005 47.8616 10.2859 48.348C10.1808 48.448 10.1196 48.5856 10.1158 48.7306C10.112 48.8756 10.1659 49.0162 10.2656 49.1215C10.3656 49.2266 10.5031 49.2878 10.6481 49.2916C10.7932 49.2954 10.9337 49.2415 11.0391 49.1418C16.6063 43.8652 25.1906 43.2715 31.4484 47.7293C38.6813 52.8809 40.3734 62.9559 35.2219 70.1887C30.0703 77.4215 19.9953 79.1137 12.7625 73.9621C5.83125 69.0246 3.93751 59.5121 8.45157 52.309C8.6125 52.0527 8.53438 51.7152 8.27813 51.5559C8.21734 51.5176 8.1496 51.4918 8.07879 51.4798C8.00798 51.4678 7.93551 51.4699 7.86552 51.4861C7.79554 51.5022 7.72943 51.532 7.671 51.5737C7.61256 51.6154 7.56295 51.6683 7.525 51.7293C2.70469 59.423 4.72657 69.5809 12.1281 74.8543C15.1469 77.0059 18.6313 78.0387 22.0828 78.0387C27.4609 78.0387 32.7625 75.5293 36.1141 70.8246C41.6156 63.1012 39.8078 52.3418 32.0844 46.8402C29.2516 44.8215 25.9719 43.7777 22.6797 43.6684L21.5859 43.6637C20.0453 43.7105 18.5141 43.9637 17.0359 44.4184L17.4391 42.398C19.1109 34.0418 24.2609 26.734 31.5672 22.3465C32.8078 21.6027 34.1141 20.9902 35.4656 20.5121C35.8984 20.7809 36.4078 20.9387 36.9531 20.9387H48.3328C48.8797 20.9387 49.3875 20.7809 49.8203 20.5121C51.1734 20.9902 52.4797 21.6027 53.7188 22.3465C61.025 26.7324 66.175 34.0402 67.8469 42.398L71.1953 59.134C71.7719 62.0184 71.0328 64.9777 69.1688 67.2527C67.3031 69.5277 64.5469 70.8324 61.6063 70.8324H39.8328C39.5313 70.8324 39.2859 71.0777 39.2859 71.3793C39.2859 71.6809 39.5313 71.9262 39.8328 71.9262H61.6016C64.8719 71.9262 67.9375 70.4762 70.0109 67.9465C72.0828 65.4152 72.9047 62.1246 72.2625 58.9168ZM48.3281 19.8434H36.9484C35.9891 19.8434 35.2078 19.0621 35.2078 18.1027C35.2078 17.1434 35.9891 16.3621 36.9484 16.3621H48.3281C49.2875 16.3621 50.0688 17.1434 50.0688 18.1027C50.0688 19.0621 49.2891 19.8434 48.3281 19.8434Z" fill="#9A9A9A"/>
<path d="M10.3746 63.9692C11.7582 69.3874 16.6487 73 21.9999 73C22.9793 73 23.975 72.8787 24.9679 72.6254C28.0719 71.8317 30.6829 69.8765 32.3171 67.1209C33.9513 64.364 34.4147 61.1354 33.6225 58.0308C31.9856 51.6208 25.4394 47.7374 19.0306 49.3745C12.6204 51.0117 8.73767 57.5592 10.3746 63.9692ZM19.2637 50.2881C20.1569 50.0596 21.0752 49.9437 21.9972 49.9432C26.9268 49.9432 31.4333 53.2728 32.7078 58.2639C33.438 61.1246 33.0109 64.0999 31.5047 66.6399C29.9985 69.1799 27.5936 70.9815 24.7335 71.7118C23.8402 71.9403 22.9219 72.0562 21.9999 72.0568C17.0704 72.0568 12.5638 68.7271 11.2893 63.736C9.78043 57.83 13.3574 51.7973 19.2637 50.2881Z" fill="#9A9A9A"/>
</svg>
