<svg width="80" height="80" viewBox="0 0 80 80" fill="none" xmlns="http://www.w3.org/2000/svg">
<path d="M43.0611 11.2998C49.6854 11.2998 55.0758 16.6901 55.0758 23.3145C55.0757 29.9387 49.6854 35.3291 43.0611 35.3291C41.0287 35.329 39.0597 34.8246 37.3024 33.8623L36.9537 33.6631L36.7535 33.5439L27.6822 42.6152C27.1413 43.1547 26.431 43.4247 25.7203 43.4248C25.0094 43.4247 24.2998 43.1546 23.7604 42.6152C22.711 41.5658 22.6919 39.8192 23.7272 38.7266L23.8678 38.5771L23.8717 38.5811L32.8297 29.6211L32.7125 29.4219C31.6212 27.5779 31.0465 25.4825 31.0465 23.3145C31.0465 16.6901 36.437 11.3 43.0611 11.2998ZM43.0611 12.6074C37.1571 12.6076 32.354 17.4103 32.3541 23.3145C32.3542 25.4779 32.9956 27.5622 34.2086 29.3398C34.2729 29.434 34.3117 29.5427 34.3209 29.6553L34.3199 29.7686C34.3058 29.9197 34.2395 30.0629 34.1315 30.1709L24.6734 39.6279L24.6744 39.6289L24.6686 39.6357C24.1288 40.215 24.1261 41.1316 24.6852 41.6904C25.249 42.2542 26.1936 42.2526 26.7584 41.6895L36.2047 32.2441C36.3122 32.1369 36.4547 32.0699 36.6061 32.0557C36.758 32.0415 36.9104 32.0817 37.0358 32.167C38.8132 33.3801 40.8975 34.0214 43.0611 34.0215C48.9652 34.0215 53.768 29.2186 53.7682 23.3145L53.7545 22.7646C53.4674 17.1149 48.7809 12.6074 43.0611 12.6074Z" fill="#9A9A9A"/>
<path d="M43 14.2998C47.9706 14.2998 52 18.3292 52 23.2998C52 28.2704 47.9706 32.2998 43 32.2998C38.0294 32.2998 34 28.2704 34 23.2998C34 18.3292 38.0294 14.2998 43 14.2998ZM42.9521 27.6338C42.5862 27.6339 42.2852 27.9356 42.2852 28.3037C42.2855 28.6729 42.5877 28.9716 42.9521 28.9717C43.3165 28.9713 43.6178 28.6727 43.6182 28.3037C43.6181 27.9807 43.3876 27.7112 43.0859 27.6484L43.0762 27.6465L43.0664 27.6455L42.9736 27.6348L42.9629 27.6338H42.9521ZM42.9521 17.7998C41.0498 17.7999 39.5002 19.3525 39.5 21.2607C39.4997 21.647 39.5638 22.031 39.6904 22.3965C39.7486 22.5642 39.8714 22.7022 40.0303 22.7793C40.1891 22.8562 40.3725 22.8666 40.5391 22.8086C40.7056 22.7504 40.8429 22.6277 40.9199 22.4688L40.9209 22.4678C40.9784 22.3482 40.9983 22.2146 40.9805 22.085L40.9502 21.957L40.8994 21.7881C40.8555 21.616 40.833 21.4384 40.833 21.2598C40.8332 20.0898 41.7826 19.1378 42.9521 19.1377C44.1216 19.1379 45.0711 20.0898 45.0713 21.2598C45.0712 22.4298 44.1206 23.3826 42.9512 23.3828C42.8192 23.383 42.6906 23.4226 42.582 23.4951L42.5664 23.5068L42.4951 23.5654L42.4873 23.5723L42.4805 23.5791C42.3561 23.7041 42.2854 23.8737 42.2852 24.0508V25.6611C42.2852 25.8379 42.355 26.0089 42.4805 26.1348C42.6057 26.2602 42.7763 26.3299 42.9521 26.3301C43.1282 26.3299 43.2979 26.2598 43.4229 26.1348C43.5484 26.0089 43.6181 25.8379 43.6182 25.6611V24.668L43.9004 24.5879C45.3444 24.1735 46.4032 22.8373 46.4033 21.2598C46.4032 19.3515 44.8543 17.8 42.9521 17.7998Z" fill="#FD4E4E"/>
<path d="M68.8372 59.4778C68.9206 59.4918 69.0026 59.5224 69.0764 59.5686C69.1484 59.6137 69.2118 59.673 69.262 59.7434C69.3122 59.8141 69.3475 59.8935 69.3664 59.9758L70.2551 63.843C70.2839 63.9693 70.2749 64.1014 70.2297 64.2209L70.1721 64.3362C70.1031 64.4464 70.0033 64.5326 69.887 64.5852L69.8674 64.593L69.7737 64.6243L69.7639 64.6262L65.8967 65.5149C65.7281 65.5534 65.5513 65.5237 65.4045 65.4319C65.2947 65.3631 65.2075 65.2636 65.1545 65.1467L65.1135 65.0237C65.0751 64.8554 65.1048 64.6782 65.1965 64.5315C65.2887 64.3843 65.4363 64.2802 65.6047 64.2414L67.9729 63.6965L65.7424 62.0754C65.451 61.8635 65.3861 61.4554 65.5979 61.1633L65.6858 61.0647C65.9101 60.8595 66.2553 60.8329 66.511 61.0188L68.6155 62.5481L68.092 60.2688C68.0533 60.1001 68.0831 59.9226 68.175 59.7756C68.2673 59.6284 68.4147 59.5243 68.5832 59.4856L68.6008 59.4817L68.6887 59.47L68.6995 59.469H68.7092C68.7552 59.4676 68.7986 59.4713 68.8372 59.4778ZM61.926 57.7454C61.9676 57.7555 62.0083 57.7703 62.0471 57.7883L62.1584 57.8538L62.1692 57.8625L63.8372 59.0754L63.844 59.0793L63.8498 59.0832C63.9212 59.1338 63.9803 59.1984 64.0256 59.2707C64.0709 59.3432 64.1032 59.4247 64.1174 59.511C64.1317 59.5977 64.1273 59.686 64.1077 59.7688C64.0878 59.852 64.0513 59.9319 64.0002 60.0022C63.9748 60.0372 63.9458 60.069 63.9143 60.0979L63.8118 60.175C63.7387 60.2195 63.656 60.2508 63.5696 60.2639C63.4833 60.277 63.3963 60.2718 63.3137 60.2512C63.2303 60.2304 63.1508 60.1935 63.0813 60.1418L63.0754 60.137L61.3909 58.9133L61.3782 58.9045L61.3713 58.8977L61.3079 58.842L61.3 58.8352L61.2932 58.8274C61.2641 58.7963 61.2371 58.7619 61.2141 58.7248C61.1684 58.651 61.1388 58.5691 61.1252 58.4856C61.1118 58.4022 61.1138 58.3148 61.134 58.2297L61.177 58.1067C61.1952 58.0676 61.2175 58.0307 61.2424 57.9963C61.2926 57.9275 61.3562 57.8685 61.4299 57.8235C61.5027 57.779 61.5842 57.7479 61.6702 57.7346C61.7554 57.7214 61.8426 57.725 61.926 57.7454ZM67.9368 33.4045C68.0231 33.4077 68.107 33.4282 68.1838 33.4631C68.2617 33.4988 68.3326 33.55 68.3909 33.6125C68.4481 33.6741 68.4951 33.7475 68.5256 33.8293C68.5556 33.9097 68.5697 33.9957 68.5666 34.0813L68.4241 38.0442C68.4166 38.2168 68.3414 38.3805 68.2151 38.4973C68.0882 38.6146 67.9197 38.6764 67.7473 38.6702C67.5744 38.6639 67.4118 38.5888 67.2942 38.4631C67.178 38.3389 67.1133 38.1733 67.1174 38.0012V37.9993L67.2034 35.595L50.8498 50.6047C50.7381 50.7073 50.5943 50.7671 50.4446 50.7756C50.294 50.7842 50.1454 50.74 50.0237 50.6516L37.5676 41.5989L37.3918 41.844L25.0598 58.9709C24.9987 59.0558 24.9178 59.1243 24.8264 59.1711C24.7327 59.219 24.6299 59.2414 24.5286 59.2414C24.442 59.2413 24.3536 59.2243 24.2707 59.1887C24.1901 59.154 24.1157 59.1035 24.0539 59.0383L15.1106 49.5891C14.9915 49.4633 14.9272 49.2955 14.9319 49.1223C14.9366 48.9492 15.01 48.7846 15.136 48.6653C15.2616 48.5467 15.4296 48.4818 15.6028 48.4866C15.776 48.4914 15.9401 48.5646 16.0588 48.6897L24.2092 57.302L24.4592 57.5647L36.8899 40.303C36.9399 40.2336 37.0038 40.1736 37.0774 40.1282C37.1516 40.0824 37.2338 40.0528 37.3176 40.0393C37.4028 40.0257 37.4896 40.0294 37.5725 40.0491L37.6936 40.0911C37.7326 40.109 37.7702 40.1304 37.8049 40.1555L50.3586 49.2795L66.2961 34.6536L63.9241 34.5686C63.8377 34.5654 63.7533 34.5453 63.676 34.51C63.5982 34.4744 63.5284 34.4233 63.47 34.3606C63.4114 34.2977 63.3661 34.2238 63.3362 34.1438C63.3062 34.0634 63.2921 33.9777 63.2952 33.8918L63.3127 33.76C63.3836 33.4665 63.6502 33.2536 63.9622 33.262H63.9719L67.9368 33.4045ZM57.5745 54.5832C57.616 54.5934 57.6567 54.6081 57.6955 54.6262L57.8069 54.6916L57.8176 54.7004L59.4954 55.9192L59.5032 55.9241L59.5071 55.928C59.5746 55.9775 59.6305 56.0389 59.6741 56.1086C59.6968 56.145 59.7163 56.1835 59.7317 56.2239L59.7659 56.3489L59.7737 56.4788C59.7719 56.5216 59.7659 56.5644 59.7561 56.6057C59.7362 56.6892 59.6997 56.7689 59.6487 56.8391C59.6236 56.8736 59.5951 56.9057 59.5637 56.9348L59.4602 57.0129C59.3854 57.0585 59.3024 57.088 59.218 57.1008C59.1339 57.1136 59.0469 57.1102 58.9622 57.0891C58.8833 57.0694 58.8107 57.0337 58.7463 56.9885L58.7414 56.9866L58.7336 56.9817L58.7268 56.9768L57.0539 55.761L57.0422 55.7551L57.0227 55.7375L56.9553 55.678L56.9416 55.6643C56.9148 55.6356 56.8868 55.6018 56.8625 55.5627C56.8394 55.5253 56.8207 55.4859 56.8059 55.4455L56.7737 55.3225C56.7603 55.2392 56.7621 55.152 56.7825 55.0666C56.8029 54.981 56.8415 54.9022 56.8909 54.8342C56.9411 54.7652 57.0048 54.7064 57.0784 54.6614C57.1512 54.6169 57.2327 54.5858 57.3186 54.5725C57.4039 54.5593 57.4911 54.5629 57.5745 54.5832ZM53.2229 51.4202C53.2974 51.4384 53.3662 51.4718 53.428 51.5129L53.4426 51.5207L53.4563 51.5305L55.1438 52.7571L55.1516 52.762L55.1555 52.7659C55.2229 52.8153 55.2789 52.8768 55.3225 52.9465C55.3672 53.0181 55.4 53.099 55.4143 53.1858L55.4221 53.3157C55.4204 53.3589 55.4144 53.4021 55.4045 53.4436C55.3847 53.527 55.3482 53.6067 55.2971 53.677C55.2469 53.7459 55.1832 53.8054 55.1086 53.8508C55.0338 53.8963 54.9508 53.9259 54.8664 53.9387C54.7802 53.9518 54.6933 53.9466 54.6106 53.926C54.5272 53.9052 54.4478 53.8685 54.3782 53.8166L54.3723 53.8118L52.6877 52.5881L52.675 52.5793L52.6682 52.5725L52.6047 52.5168L52.5969 52.51L52.5901 52.5022C52.5611 52.4712 52.5339 52.4367 52.511 52.3997C52.4654 52.3258 52.4357 52.2441 52.4221 52.1604C52.4083 52.0748 52.4121 51.9877 52.4319 51.9045C52.4519 51.8206 52.4888 51.7416 52.5393 51.6721L52.6233 51.5764C52.6545 51.5472 52.6893 51.5212 52.7268 51.4983C52.8014 51.4527 52.8833 51.4234 52.967 51.4104C53.0501 51.3975 53.1375 51.3993 53.2229 51.4202Z" fill="#9A9A9A"/>
<path d="M9.88867 11.4121C11.026 11.5281 11.917 12.4918 11.917 13.6592V70.9268H69.1855C70.4303 70.927 71.4434 71.9407 71.4434 73.1855C71.4431 74.4303 70.4303 75.4431 69.1855 75.4434H9.6582C8.41352 75.4431 7.40054 74.4302 7.40039 73.1855V13.6592C7.40039 12.4141 8.41331 11.4006 9.6582 11.4004L9.88867 11.4121ZM9.6582 12.5068C9.02328 12.507 8.50684 13.0239 8.50684 13.6592V73.1855L8.5127 73.2988C8.53909 73.5622 8.65576 73.8101 8.84473 73.999C9.06058 74.2149 9.35318 74.3366 9.6582 74.3369H69.1807L69.2998 74.3311L69.3975 74.3174C69.6236 74.2748 69.8339 74.1649 69.999 74C70.1879 73.8112 70.3046 73.5625 70.3311 73.2988L70.3369 73.1855C70.3365 72.8805 70.2154 72.5867 70 72.3711C69.8111 72.1822 69.5625 72.0655 69.2988 72.0391L69.1855 72.0332H11.3633C11.2166 72.0331 11.0764 71.9748 10.9727 71.8711C10.8689 71.7674 10.8107 71.6271 10.8105 71.4805V13.6592C10.8105 13.0238 10.2934 12.5068 9.6582 12.5068Z" fill="#9A9A9A"/>
<path d="M26.6366 13.2822C26.5567 13.2677 26.4785 13.2344 26.4083 13.1836L23.1425 10.7541C23.029 10.6665 22.9545 10.5379 22.9349 10.3958C22.9153 10.2538 22.9524 10.1097 23.038 9.9947C23.1236 9.87968 23.2509 9.80288 23.3926 9.78084C23.5343 9.7588 23.679 9.79329 23.7955 9.87687L27.06 12.3045C27.1763 12.3911 27.2535 12.5204 27.2745 12.6638C27.2956 12.8073 27.2588 12.9533 27.1722 13.0696C27.1116 13.1515 27.0294 13.2148 26.9347 13.2524C26.8401 13.2899 26.7368 13.3002 26.6366 13.2822ZM20.736 26.6184C20.5377 26.5824 20.3656 26.4369 20.3064 26.2292C20.2669 26.0898 20.2844 25.9404 20.355 25.8139C20.4255 25.6874 20.5435 25.594 20.6828 25.5543L24.5983 24.4445C24.7377 24.405 24.8871 24.4225 25.0137 24.4931C25.1402 24.5637 25.2336 24.6816 25.2732 24.8209C25.3127 24.9603 25.2952 25.1097 25.2246 25.2363C25.1541 25.3628 25.0361 25.4562 24.8968 25.4958L20.9828 26.606C20.899 26.6305 20.8144 26.6326 20.736 26.6184Z" fill="#FD4E4E"/>
<path d="M59.7686 20.1984C59.7487 20.4011 59.8416 20.5883 59.9955 20.6981C60.0706 20.7517 60.1617 20.788 60.2595 20.7963L64.3082 21.1937C64.4519 21.2067 64.595 21.1624 64.7062 21.0704C64.8174 20.9783 64.8877 20.8461 64.9018 20.7024C64.9159 20.5588 64.8727 20.4154 64.7816 20.3035C64.6904 20.1916 64.5587 20.1202 64.4152 20.105L60.3665 19.7075C60.295 19.7004 60.2228 19.7075 60.154 19.7284C60.0853 19.7492 60.0213 19.7834 59.9658 19.829C59.9103 19.8746 59.8643 19.9307 59.8304 19.9941C59.7966 20.0575 59.7756 20.1269 59.7686 20.1984Z" fill="#FD4E4E"/>
<path d="M55.2419 9.02549C55.2811 9.09287 55.3342 9.15109 55.3978 9.19621C55.5055 9.27272 55.6373 9.30764 55.7687 9.29452C55.9002 9.2814 56.0224 9.22113 56.1129 9.12484L58.8954 6.1561C59.1018 5.93676 59.0911 5.59129 58.8705 5.38397C58.6521 5.17628 58.3057 5.18826 58.0984 5.40886L55.3158 8.37761C55.2625 8.43444 55.2219 8.50204 55.1969 8.57585C55.1719 8.64967 55.1629 8.72799 55.1707 8.80555C55.1784 8.88311 55.2027 8.9581 55.2419 9.02549Z" fill="#FD4E4E"/>
</svg>
