<svg width="375" height="261" viewBox="0 0 375 261" fill="none" xmlns="http://www.w3.org/2000/svg">
<g clip-path="url(#clip0_69307_351173)">
<g style="mix-blend-mode:soft-light" opacity="0.1">
<path d="M376 -116H364.403L187.527 72.961L187.695 73.0586L187.748 73.0497L376 -91.3336V-116Z" fill="url(#paint0_linear_69307_351173)"/>
<path d="M185.549 72.5975L185.665 72.5266L185.656 72.4734V72.4823L156.707 -116H136.687L185.541 72.5621L185.443 72.6241L115.54 -116H92.7623L185.337 72.6951L185.257 72.7571L185.345 72.7039L185.363 72.7305L185.541 72.5709L185.549 72.5975Z" fill="url(#paint1_linear_69307_351173)"/>
<path d="M255.523 -116L186.95 72.6064L186.879 72.5621L234.492 -116H214.516L186.755 72.4734L186.764 72.4823L186.755 72.5266L186.87 72.5975V72.5798L186.941 72.633L187.03 72.7128L187.048 72.6951L187.128 72.7394L187.048 72.6773L278.203 -116H255.523Z" fill="url(#paint2_linear_69307_351173)"/>
<path d="M376 33.4523L188.555 72.9167L188.404 72.9788L376 53.1801V33.4523Z" fill="url(#paint3_linear_69307_351173)"/>
<path d="M376 -33.2763V-60.2214L187.997 73.0231L188.059 73.0142L187.846 73.1295L188.263 72.9965L188.378 72.9876L188.475 72.9344H188.466L188.484 72.9256L376 -33.2763Z" fill="url(#paint4_linear_69307_351173)"/>
<path d="M376 -9.18629L188.644 72.8724L376 12.8379V-9.18629Z" fill="url(#paint5_linear_69307_351173)"/>
<path d="M-1 177.691L183.98 73.4753L183.767 73.5196L-1 154V177.691Z" fill="url(#paint6_linear_69307_351173)"/>
<path d="M184.547 73.1295L184.414 73.0409L184.078 72.9699L184.352 72.9965L-1 -56.6748V-30.2706L183.891 72.9256L-1 -6.68596V14.9392L183.9 72.9256L183.918 72.9344L-1 35.199V54.6253L183.953 72.961L184.423 73.227L184.494 73.1827L183.971 72.961L184.547 73.1295Z" fill="url(#paint7_linear_69307_351173)"/>
<path d="M331.437 -116H303.198L187.243 72.8015L187.349 72.8635L331.437 -116Z" fill="url(#paint8_linear_69307_351173)"/>
<path d="M184.689 73.3689L184.849 73.4576L8.60233 261H41.4258L185.053 73.5728L185.221 73.6704L69.5589 261H94.4115L185.328 73.7236L185.443 73.7945L116.941 261H137.884L185.558 73.8566L185.665 73.9186L185.558 73.8477L185.585 73.759L185.691 73.8477L157.718 261H176.922L186.01 73.2802L186.037 73.7413C186.099 73.7413 186.25 73.7413 186.383 73.7413L186.418 73.032L195.888 261H215.101L186.746 73.9186C186.746 73.9186 186.746 73.9186 186.746 73.9275L186.879 73.8388L234.953 261H255.904L187.003 73.83H187.11L278.461 261H303.349L187.261 73.83H187.562L331.553 261H364.483L187.775 73.8211H188.28L375.973 236.387V205.461L188.635 73.8122H189.025L375.973 178.64V154.656L189.309 73.8034H189.495L375.973 132.676V112.115L190.089 73.8034H192.013L375.973 92.414V72.3936L187.961 73.2004L188.307 73.0054L187.908 73.1827L187.943 73.2093H187.775L187.739 73.1827L187.589 73.2093L187.668 73.2359H187.615L187.633 73.2625L187.589 73.298L187.473 73.2714L187.509 73.2448H187.473L187.535 73.2182H187.03H187.039H186.95L186.933 73.2448L186.862 73.2182H186.791L186.808 73.2448L186.755 73.2182L186.737 73.1561H186.764L186.773 73.1738L186.826 73.1472H186.8L186.808 73.1118L186.764 73.032L186.737 73.094L186.755 73.1206H186.702V73.0852L186.649 72.9433V73.1118H186.622L186.613 73.1738H186.667V73.1916L186.693 73.165L186.675 73.2182L186.649 73.2536V73.227H186.596V73.2536L186.578 73.227H186.454C186.454 73.227 186.454 73.2004 186.454 73.1916H186.578L186.569 73.1029L186.48 73.0852C186.498 73.0142 186.507 72.9522 186.525 72.899H186.534L186.498 72.6685L186.631 72.9344H186.649V72.9522L186.702 73.0675L186.72 73.0054L186.684 72.9433L186.737 72.961L186.773 72.8369L186.808 72.8901L186.773 72.9788L186.853 73.0054L186.87 72.9788L187.003 73.0586L186.888 72.9344L186.941 72.8192L186.844 72.7749L186.817 72.8547L186.773 72.8103L186.791 72.7571L186.684 72.7128L186.649 72.6951L186.684 72.7305L186.658 72.9078L186.534 72.6507L186.56 72.7483L186.507 72.6596C186.507 72.6596 186.427 72.6685 186.383 72.6685L195.169 -116H176.062L185.975 72.6507C185.922 72.6507 185.877 72.6507 185.86 72.6419L185.824 72.8724C185.851 72.9433 185.86 73.0142 185.877 73.0852L185.789 73.1029V73.1472L185.904 73.1561C185.904 73.1738 185.904 73.2004 185.895 73.2448H185.718V73.2625H185.771V73.3246H185.736L185.753 73.3955V73.4576L185.691 73.3246L185.674 73.2802L185.709 73.2536H185.603L185.62 73.2802H185.629V73.2891L185.594 73.3778L185.532 73.2802H185.576L185.541 73.2714L185.558 73.2448L185.496 73.2182L185.434 73.2536H185.292L185.31 73.2359L184.991 73.2536L185.009 73.2714H184.973L185.009 73.2891L184.946 73.3512L185.079 73.3334L185.168 73.4044L185.212 73.3512L185.443 73.298L185.381 73.4044L185.47 73.431L185.505 73.3512L185.576 73.4398V73.4664L185.638 73.5285V73.493H185.656V73.4753L185.674 73.3866L185.798 73.6349C185.798 73.6349 185.789 73.6615 185.78 73.6792L185.727 73.5906V73.6172L185.78 73.6881C185.78 73.7058 185.771 73.7236 185.762 73.7324L185.709 73.7058L185.691 73.8388L185.594 73.7324L185.611 73.6615L185.514 73.6172V73.6349L185.408 73.564V73.5374L185.345 73.4576L185.319 73.5019L185.363 73.5374L185.31 73.5108L185.257 73.5994L185.106 73.493L185.15 73.4398L184.946 73.3512L184.929 73.3689L184.876 73.3334H184.893L184.805 73.2891H184.796L184.743 73.2714L184.76 73.2536L184.645 73.227L184.698 73.2093L184.654 73.1827L184.61 73.2182L184.53 73.1827L184.45 73.2182L184.477 73.2359L184.37 73.2536L184.397 73.2359L-0.991134 73.564V92.5558L183.945 73.4398L183.82 73.493L184.53 73.2714L184.361 73.3955H184.299H184.352L-1 204.211V234.782L184.618 73.3689H184.689Z" fill="url(#paint9_linear_69307_351173)"/>
<path d="M-1 111.991V132.304L183.732 73.5285L-1 111.991Z" fill="url(#paint10_linear_69307_351173)"/>
<path d="M185.221 72.7749L67.6261 -116H39.156L185.115 72.8369L185.221 72.7749Z" fill="url(#paint11_linear_69307_351173)"/>
<path d="M5.82714 -116H-1V-87.0778L184.751 73.0409H184.76L184.867 72.9788L5.82714 -116Z" fill="url(#paint12_linear_69307_351173)"/>
<path d="M187.606 73.2093L187.589 73.1916L187.58 73.2004L187.429 73.1472L187.518 73.1295L187.456 73.0852H187.411L187.438 73.0675L187.287 72.9344L187.181 73.0763L187.092 73.0497L187.19 72.8901L187.269 72.9167L187.207 72.8635L187.234 72.8103L187.332 72.8813L187.296 72.9256L187.482 73.0142L187.5 72.9965L187.606 73.0675H187.598L187.651 73.1029L187.677 73.094L187.695 73.1029L187.668 73.1206L187.739 73.165L187.606 73.2093Z" fill="url(#paint13_linear_69307_351173)"/>
<path d="M184.76 73.2004L184.672 73.1738L184.76 73.1118L184.858 73.1295L184.805 73.0763L184.849 73.0497L184.902 73.0054L184.911 73.0231L185.142 72.9167L184.982 73.0586H184.946L184.964 73.0763L184.893 73.1384L184.929 73.1472L184.893 73.1561L184.884 73.1472L184.76 73.2004Z" fill="url(#paint14_linear_69307_351173)"/>
<path d="M185.408 73.1029L185.319 73.094L185.275 73.032L185.23 73.0497L185.257 73.0142L185.177 72.9078L185.275 72.8635L185.328 72.9433L185.416 72.8458L185.399 72.8103L185.496 72.766L185.585 72.7305L185.567 72.6862L185.665 72.5798L185.682 72.6862L185.753 72.6596L185.691 72.7305L185.709 72.8635L185.851 72.6419L185.718 72.899V72.9078L185.665 73.032L185.647 72.9699L185.682 72.9078L185.629 72.9256L185.611 72.8369L185.549 72.9167L185.558 72.9433L185.487 72.9965L185.478 72.9699L185.363 73.0054L185.416 73.0852L185.408 73.1029Z" fill="url(#paint15_linear_69307_351173)"/>
</g>
</g>
<defs>
<linearGradient id="paint0_linear_69307_351173" x1="187" y1="66" x2="187" y2="239.5" gradientUnits="userSpaceOnUse">
<stop stop-color="white"/>
<stop offset="1" stop-color="white" stop-opacity="0"/>
</linearGradient>
<linearGradient id="paint1_linear_69307_351173" x1="187" y1="66" x2="187" y2="239.5" gradientUnits="userSpaceOnUse">
<stop stop-color="white"/>
<stop offset="1" stop-color="white" stop-opacity="0"/>
</linearGradient>
<linearGradient id="paint2_linear_69307_351173" x1="187" y1="66" x2="187" y2="239.5" gradientUnits="userSpaceOnUse">
<stop stop-color="white"/>
<stop offset="1" stop-color="white" stop-opacity="0"/>
</linearGradient>
<linearGradient id="paint3_linear_69307_351173" x1="187" y1="66" x2="187" y2="239.5" gradientUnits="userSpaceOnUse">
<stop stop-color="white"/>
<stop offset="1" stop-color="white" stop-opacity="0"/>
</linearGradient>
<linearGradient id="paint4_linear_69307_351173" x1="187" y1="66" x2="187" y2="239.5" gradientUnits="userSpaceOnUse">
<stop stop-color="white"/>
<stop offset="1" stop-color="white" stop-opacity="0"/>
</linearGradient>
<linearGradient id="paint5_linear_69307_351173" x1="187" y1="66" x2="187" y2="239.5" gradientUnits="userSpaceOnUse">
<stop stop-color="white"/>
<stop offset="1" stop-color="white" stop-opacity="0"/>
</linearGradient>
<linearGradient id="paint6_linear_69307_351173" x1="187" y1="66" x2="187" y2="239.5" gradientUnits="userSpaceOnUse">
<stop stop-color="white"/>
<stop offset="1" stop-color="white" stop-opacity="0"/>
</linearGradient>
<linearGradient id="paint7_linear_69307_351173" x1="187" y1="66" x2="187" y2="239.5" gradientUnits="userSpaceOnUse">
<stop stop-color="white"/>
<stop offset="1" stop-color="white" stop-opacity="0"/>
</linearGradient>
<linearGradient id="paint8_linear_69307_351173" x1="187" y1="66" x2="187" y2="239.5" gradientUnits="userSpaceOnUse">
<stop stop-color="white"/>
<stop offset="1" stop-color="white" stop-opacity="0"/>
</linearGradient>
<linearGradient id="paint9_linear_69307_351173" x1="187" y1="66" x2="187" y2="239.5" gradientUnits="userSpaceOnUse">
<stop stop-color="white"/>
<stop offset="1" stop-color="white" stop-opacity="0"/>
</linearGradient>
<linearGradient id="paint10_linear_69307_351173" x1="187" y1="66" x2="187" y2="239.5" gradientUnits="userSpaceOnUse">
<stop stop-color="white"/>
<stop offset="1" stop-color="white" stop-opacity="0"/>
</linearGradient>
<linearGradient id="paint11_linear_69307_351173" x1="187" y1="66" x2="187" y2="239.5" gradientUnits="userSpaceOnUse">
<stop stop-color="white"/>
<stop offset="1" stop-color="white" stop-opacity="0"/>
</linearGradient>
<linearGradient id="paint12_linear_69307_351173" x1="187" y1="66" x2="187" y2="239.5" gradientUnits="userSpaceOnUse">
<stop stop-color="white"/>
<stop offset="1" stop-color="white" stop-opacity="0"/>
</linearGradient>
<linearGradient id="paint13_linear_69307_351173" x1="187" y1="66" x2="187" y2="239.5" gradientUnits="userSpaceOnUse">
<stop stop-color="white"/>
<stop offset="1" stop-color="white" stop-opacity="0"/>
</linearGradient>
<linearGradient id="paint14_linear_69307_351173" x1="187" y1="66" x2="187" y2="239.5" gradientUnits="userSpaceOnUse">
<stop stop-color="white"/>
<stop offset="1" stop-color="white" stop-opacity="0"/>
</linearGradient>
<linearGradient id="paint15_linear_69307_351173" x1="187" y1="66" x2="187" y2="239.5" gradientUnits="userSpaceOnUse">
<stop stop-color="white"/>
<stop offset="1" stop-color="white" stop-opacity="0"/>
</linearGradient>
<clipPath id="clip0_69307_351173">
<rect width="375" height="261" fill="white"/>
</clipPath>
</defs>
</svg>
