<svg width="15" height="15" viewBox="0 0 15 15" fill="none" xmlns="http://www.w3.org/2000/svg">
<g clip-path="url(#clip0_68681_388194)">
<path d="M6.99609 4.43652H7.43359C7.54963 4.43652 7.66091 4.48262 7.74295 4.56466C7.825 4.64671 7.87109 4.75799 7.87109 4.87402V7.93652M6.99609 7.93652H8.74609M3.18518 8.17044L0.871094 10.9996L3.05859 11.4371L3.93359 14.0621L6.26109 10.3684M11.682 8.17044L13.9961 10.9996L11.8086 11.4371L10.9336 14.0621L8.60609 10.3684" stroke="#0E0E0E" stroke-width="0.8" stroke-linecap="round" stroke-linejoin="round"/>
<path d="M7.70795 1.03356L8.78537 1.89981L10.1673 1.83097C10.267 1.82604 10.3654 1.85534 10.4461 1.91401C10.5269 1.97269 10.5851 2.05721 10.6112 2.15356L10.9729 3.48881L12.1314 4.24714C12.2149 4.3018 12.2772 4.38339 12.308 4.47836C12.3388 4.57332 12.3361 4.67596 12.3005 4.76922L11.8082 6.06247L12.3005 7.35514C12.3361 7.4484 12.3388 7.55104 12.308 7.646C12.2772 7.74097 12.2149 7.82256 12.1314 7.87722L10.9729 8.63555L10.6112 9.97139C10.5851 10.0677 10.5269 10.1523 10.4461 10.2109C10.3654 10.2696 10.267 10.2989 10.1673 10.294L8.78537 10.2251L7.70795 11.0931C7.63015 11.1559 7.53318 11.1902 7.4332 11.1902C7.33322 11.1902 7.23626 11.1559 7.15845 11.0931L6.08104 10.2234L4.69912 10.2922C4.59943 10.2972 4.50105 10.2679 4.4203 10.2092C4.33955 10.1505 4.2813 10.066 4.2552 9.96964L3.89354 8.6338L2.73504 7.87547C2.65151 7.82081 2.58918 7.73922 2.55841 7.64425C2.52764 7.54929 2.53027 7.44665 2.56587 7.35339L3.0582 6.06247L2.56587 4.76922C2.53027 4.67596 2.52764 4.57332 2.55841 4.47836C2.58918 4.38339 2.65151 4.3018 2.73504 4.24714L3.89354 3.48881L4.2552 2.15297C4.28141 2.05674 4.33971 1.97235 4.42045 1.91379C4.50118 1.85522 4.59951 1.826 4.69912 1.83097L6.08104 1.89981L7.15845 1.03356C7.23626 0.970768 7.33322 0.936523 7.4332 0.936523C7.53318 0.936523 7.63015 0.970768 7.70795 1.03356Z" stroke="#0E0E0E" stroke-width="0.8" stroke-linecap="round" stroke-linejoin="round"/>
</g>
<defs>
<clipPath id="clip0_68681_388194">
<rect width="14" height="14" fill="white" transform="translate(0.433594 0.5)"/>
</clipPath>
</defs>
</svg>
