<svg width="15" height="15" viewBox="0 0 15 15" fill="none" xmlns="http://www.w3.org/2000/svg">
<path fill-rule="evenodd" clip-rule="evenodd" d="M0 7.5C0 13.4583 1.54246 15 7.5 15C13.4575 15 15 13.4583 15 7.5C15 1.5417 13.4575 0 7.5 0C1.54246 0 0 1.5417 0 7.5ZM7.4589 3.33333C7.32567 3.33321 7.19389 3.36088 7.07196 3.41457C6.95004 3.46826 6.84065 3.54679 6.75079 3.64515C6.66093 3.7435 6.59257 3.85952 6.55007 3.98578C6.50758 4.11205 6.49189 4.24579 6.50401 4.37846L6.88702 8.58207C6.90186 8.72339 6.96852 8.85422 7.07412 8.94931C7.17972 9.04439 7.31679 9.09701 7.4589 9.09701C7.601 9.09701 7.73807 9.04439 7.84368 8.94931C7.94928 8.85422 8.01593 8.72339 8.03078 8.58207L8.41274 4.37846C8.42485 4.24588 8.40919 4.11223 8.36676 3.98603C8.32433 3.85984 8.25606 3.74387 8.16631 3.64554C8.07657 3.5472 7.9673 3.46865 7.8455 3.41489C7.7237 3.36114 7.59203 3.33336 7.4589 3.33333ZM7.4589 11.7279C7.68154 11.7279 7.89506 11.6395 8.05249 11.4821C8.20992 11.3246 8.29836 11.1111 8.29836 10.8885C8.29836 10.6658 8.20992 10.4523 8.05249 10.2949C7.89506 10.1375 7.68154 10.049 7.4589 10.049C7.23626 10.049 7.02274 10.1375 6.86531 10.2949C6.70788 10.4523 6.61944 10.6658 6.61944 10.8885C6.61944 11.1111 6.70788 11.3246 6.86531 11.4821C7.02274 11.6395 7.23626 11.7279 7.4589 11.7279Z" fill="#FD4E4E"/>
</svg>
