<svg width="80" height="80" viewBox="0 0 80 80" fill="none" xmlns="http://www.w3.org/2000/svg">
<path d="M48.5649 57.2256C48.0911 56.6555 47.9661 55.8725 48.2397 55.1836C48.5133 54.4947 49.1416 54.0105 49.8774 53.9209L50.4926 53.8457V31.8027C50.4926 30.201 51.7913 28.9023 53.393 28.9023H55.7934C57.3949 28.9026 58.6928 30.2011 58.6928 31.8027V53.8457L59.308 53.9209C60.044 54.0106 60.6723 54.4954 60.9457 55.1846C61.2191 55.8736 61.0946 56.6567 60.6205 57.2266L56.1655 62.5762C55.7732 63.0374 55.1988 63.3038 54.5932 63.3047C53.9923 63.3048 53.4211 63.0426 53.0297 62.5869L48.5639 57.2266L48.5649 57.2256ZM49.0932 55.9473C49.0971 56.1808 49.181 56.4057 49.3315 56.584L53.7885 61.9326L53.7934 61.9395L53.7993 61.9453C53.9994 62.1745 54.2891 62.3055 54.5932 62.3047C54.9054 62.304 55.2029 62.1658 55.4037 61.9268L55.4057 61.9238L59.853 56.583C60.1048 56.285 60.1607 55.8709 60.0024 55.5156L60.0043 55.5146C60.002 55.5092 59.998 55.5044 59.9955 55.499C59.9935 55.4947 59.9928 55.4897 59.9907 55.4854L59.9887 55.4863C59.8216 55.1283 59.4623 54.9016 59.0668 54.9062V54.9043H58.1928C57.9168 54.9041 57.6928 54.6804 57.6928 54.4043V31.8027C57.6928 30.7535 56.8426 29.9026 55.7934 29.9023H53.393C52.3436 29.9023 51.4926 30.7534 51.4926 31.8027V54.4043C51.4926 54.6805 51.2688 54.9043 50.9926 54.9043H50.1186V54.9062C49.716 54.9021 49.3504 55.137 49.1879 55.5059L49.187 55.5049C49.1854 55.5083 49.1836 55.5122 49.1821 55.5156C49.1811 55.5179 49.1801 55.5211 49.1791 55.5234C49.1255 55.6487 49.0963 55.7835 49.0932 55.9199L49.0922 55.9336L49.0932 55.9473Z" fill="#0166FF"/>
<path d="M61.2419 14.8213C60.9687 14.1325 61.0934 13.3501 61.5671 12.7803L66.0183 7.43262L66.1726 7.26855C66.5525 6.90679 67.0596 6.70058 67.5896 6.69922C68.1925 6.6978 68.7655 6.96145 69.158 7.41895L73.6228 12.7812L73.6257 12.7852C74.1006 13.3535 74.2271 14.1357 73.9539 14.8242C73.6971 15.4706 73.1272 15.9372 72.45 16.0645L72.3123 16.085L71.7839 16.1465L71.6951 16.1572V44.2031C71.6951 45.8048 70.3962 47.1043 68.7947 47.1045H66.3943C64.7928 47.1043 63.4949 45.8048 63.4949 44.2031V16.1602L62.8796 16.085C62.1437 15.9953 61.5154 15.5105 61.2419 14.8213ZM62.3347 13.4238C62.0823 13.7214 62.0247 14.1365 62.1843 14.4912L62.1863 14.4961C62.1871 14.4982 62.1887 14.5015 62.1902 14.5049L62.1912 14.5068C62.1914 14.5074 62.1916 14.5085 62.1921 14.5098C62.1932 14.5126 62.1957 14.5187 62.199 14.5254C62.3529 14.8505 62.6677 15.063 63.0212 15.0938V15.1016H63.9939C64.2358 15.1016 64.4385 15.2732 64.4851 15.501L64.4949 15.6016V44.2031C64.4949 45.2523 65.345 46.1033 66.3943 46.1035H68.7947C69.8439 46.1033 70.6951 45.2523 70.6951 44.2031V15.6016L70.7048 15.501C70.7513 15.2734 70.9527 15.1019 71.1941 15.1016H72.0652L72.2127 15.0918C72.5504 15.0441 72.8465 14.8298 72.9949 14.5156L73.0476 14.3779C73.1475 14.0514 73.0785 13.6923 72.8562 13.4248L68.4002 8.07422L68.3914 8.06348L68.3894 8.06152C68.1885 7.83131 67.8963 7.69929 67.5906 7.70117H67.5847L67.4783 7.70801H67.4724L67.3728 7.72461C67.143 7.77459 66.9345 7.901 66.782 8.08496L62.3347 13.4238Z" fill="#0166FF"/>
<path d="M7 35.5L17.9055 22.8496C18.8341 21.7724 20.3915 21.4953 21.6347 22.1859L30.6787 27.2104C32.004 27.9466 33.6702 27.5785 34.5619 26.3524L43.0635 14.6626C44.1027 13.2338 46.1453 13.0079 47.4716 14.175L57.5 23" stroke="#9A9A9A" stroke-linecap="round"/>
<path d="M22.99 19.3199C23.1482 19.5527 23.4552 19.6256 23.6984 19.4972C23.715 19.4885 23.7322 19.4776 23.7494 19.4668L27.1228 17.1916C27.3728 17.0226 27.4387 16.6821 27.2697 16.4321C27.1006 16.1821 26.7637 16.1161 26.5102 16.2853L23.1368 18.5604C23.0167 18.6417 22.9338 18.7674 22.9062 18.9098C22.8787 19.0522 22.9088 19.1997 22.99 19.3199Z" fill="#0166FF"/>
<path d="M9.77546 18.8172C9.89172 18.5609 10.1819 18.4368 10.4434 18.5219C10.4612 18.5277 10.48 18.5354 10.4989 18.5432L14.2102 20.2111C14.4854 20.3351 14.6082 20.6593 14.4842 20.9345C14.3602 21.2096 14.0394 21.3319 13.7608 21.2084L10.0494 19.5406C9.91723 19.4809 9.81412 19.3712 9.76275 19.2356C9.71139 19.0999 9.71595 18.9494 9.77546 18.8172Z" fill="#0166FF"/>
<path d="M17.1236 13.1617C17.397 13.0951 17.6737 13.2469 17.768 13.5052C17.7744 13.5228 17.7799 13.5424 17.7854 13.5621L18.762 17.512C18.834 17.8051 18.6546 18.1018 18.3616 18.1739C18.0685 18.246 17.7743 18.0689 17.6997 17.7735L16.7232 13.8235C16.6886 13.6827 16.7114 13.5338 16.7864 13.4097C16.8615 13.2856 16.9828 13.1964 17.1236 13.1617Z" fill="#0166FF"/>
<path fill-rule="evenodd" clip-rule="evenodd" d="M28.8278 36.8699C34.746 36.8699 38.8726 38.6891 38.8726 40.3309C38.8726 41.9672 34.746 43.792 28.8333 43.792C22.9096 43.792 18.7829 41.9672 18.7829 40.3309C18.7829 38.6891 22.9096 36.8699 28.8278 36.8699ZM28.8278 44.6794C31.6787 44.6794 34.3744 44.2635 36.3988 43.5091C38.5676 42.6993 39.7601 41.5678 39.7601 40.3309C39.7601 39.0885 38.5676 37.957 36.3988 37.1527C34.3688 36.3984 31.6843 35.9824 28.8278 35.9824C25.9768 35.9824 23.2812 36.3984 21.2567 37.1472C19.088 37.957 17.8955 39.0885 17.8955 40.3309C17.8955 41.5734 19.088 42.6993 21.2567 43.5091C23.2868 44.2635 25.9713 44.6794 28.8278 44.6794Z" fill="#9A9A9A"/>
<path fill-rule="evenodd" clip-rule="evenodd" d="M28.8278 47.9423C31.6732 47.9423 34.3466 47.6206 36.3711 47.0271C38.5897 46.3837 39.7601 45.4852 39.7601 44.4369V40.3324C39.7601 40.2147 39.7133 40.1019 39.6301 40.0186C39.5469 39.9354 39.434 39.8887 39.3163 39.8887C39.1987 39.8887 39.0858 39.9354 39.0026 40.0186C38.9194 40.1019 38.8726 40.2147 38.8726 40.3324V44.4369C38.8726 45.5295 35.051 47.0548 28.8333 47.0548C22.6045 47.0548 18.7829 45.5295 18.7829 44.4369V40.3324C18.7829 40.2147 18.7362 40.1019 18.653 40.0186C18.5698 39.9354 18.4569 39.8887 18.3392 39.8887C18.2215 39.8887 18.1087 39.9354 18.0255 40.0186C17.9422 40.1019 17.8955 40.2147 17.8955 40.3324V44.4369C17.8955 45.4852 19.0658 46.3782 21.2844 47.0271C23.3089 47.6206 25.9824 47.9423 28.8278 47.9423Z" fill="#9A9A9A"/>
<path fill-rule="evenodd" clip-rule="evenodd" d="M23.5362 52.2827C26.3816 52.2827 29.0606 51.9555 31.0796 51.3675C33.2982 50.7186 34.4685 49.8256 34.4685 48.7773C34.4685 48.0673 33.9416 47.4295 32.8988 46.8915C32.8471 46.8575 32.7888 46.8347 32.7277 46.8246C32.6666 46.8145 32.6041 46.8173 32.5441 46.8328C32.4842 46.8483 32.4282 46.8762 32.3796 46.9147C32.3311 46.9532 32.2912 47.0014 32.2624 47.0562C32.2336 47.111 32.2167 47.1713 32.2126 47.233C32.2085 47.2948 32.2174 47.3568 32.2386 47.4149C32.2599 47.4731 32.2931 47.5261 32.3361 47.5706C32.3792 47.6152 32.431 47.6502 32.4884 47.6735C33.1817 48.0396 33.5811 48.4389 33.5811 48.7773C33.5811 49.87 29.7595 51.3953 23.5418 51.3953C17.313 51.3953 13.4914 49.87 13.4914 48.7773C13.4914 47.9619 15.6767 46.836 19.7202 46.3701C19.8371 46.3568 19.944 46.2977 20.0174 46.2056C20.0907 46.1136 20.1244 45.9962 20.1112 45.8792C20.098 45.7623 20.0388 45.6554 19.9468 45.582C19.8547 45.5087 19.7373 45.4749 19.6203 45.4882C17.973 45.6823 12.6039 46.481 12.6039 48.7773C12.6039 49.8256 13.7742 50.7186 15.9984 51.3675C18.0174 51.9555 20.6908 52.2827 23.5362 52.2827Z" fill="#9A9A9A"/>
<path fill-rule="evenodd" clip-rule="evenodd" d="M23.5362 55.5445C26.3816 55.5445 29.0606 55.2228 31.0796 54.6293C33.2982 53.9804 34.4685 53.0874 34.4685 52.0391V48.7777C34.4685 48.66 34.4218 48.5472 34.3385 48.4639C34.2553 48.3807 34.1425 48.334 34.0248 48.334C33.9071 48.334 33.7942 48.3807 33.711 48.4639C33.6278 48.5472 33.5811 48.66 33.5811 48.7777V52.0391C33.5811 53.1318 29.7595 54.6571 23.5418 54.6571C17.313 54.6571 13.4914 53.1318 13.4914 52.0391V48.7777C13.4914 48.66 13.4446 48.5472 13.3614 48.4639C13.2782 48.3807 13.1653 48.334 13.0476 48.334C12.93 48.334 12.8171 48.3807 12.7339 48.4639C12.6507 48.5472 12.6039 48.66 12.6039 48.7777V52.0391C12.6039 53.0874 13.7742 53.9804 15.9984 54.6293C18.0174 55.2173 20.6908 55.5445 23.5362 55.5445Z" fill="#9A9A9A"/>
<path fill-rule="evenodd" clip-rule="evenodd" d="M31.5678 59.6099C34.4132 59.6099 37.0866 59.2827 39.1111 58.6948C41.3297 58.0458 42.5001 57.1528 42.5001 56.1045C42.5001 54.0356 37.9408 52.8764 33.4148 52.649C33.2971 52.6431 33.1819 52.6842 33.0945 52.7633C33.0071 52.8423 32.9547 52.9528 32.9489 53.0705C32.943 53.1882 32.9841 53.3034 33.0631 53.3908C33.1422 53.4782 33.2527 53.5306 33.3704 53.5364C35.7277 53.6529 37.8798 54.0134 39.4273 54.5459C41.0358 55.1006 41.6126 55.7107 41.6126 56.1045C41.6126 57.1972 37.791 58.7225 31.5733 58.7225C25.3445 58.7225 21.5229 57.1972 21.5229 56.1045C21.5229 55.8272 21.7781 55.572 21.9888 55.4001C22.0344 55.3637 22.0723 55.3186 22.1004 55.2676C22.1285 55.2165 22.1463 55.1604 22.1527 55.1025C22.1592 55.0445 22.1541 54.9859 22.1379 54.9299C22.1217 54.8739 22.0946 54.8216 22.0582 54.7761C22.0218 54.7306 21.9767 54.6927 21.9257 54.6646C21.8746 54.6364 21.8185 54.6186 21.7605 54.6122C21.7026 54.6058 21.644 54.6108 21.588 54.627C21.532 54.6433 21.4797 54.6704 21.4342 54.7068C20.9017 55.1339 20.6355 55.5998 20.6355 56.1045C20.6355 57.1528 21.8058 58.0458 24.0244 58.6948C26.0489 59.2827 28.7279 59.6099 31.5678 59.6099Z" fill="#9A9A9A"/>
<path fill-rule="evenodd" clip-rule="evenodd" d="M31.5678 62.8717C34.4132 62.8717 37.0866 62.55 39.1111 61.9565C41.3297 61.3131 42.5001 60.4145 42.5001 59.3662V56.1049C42.5001 56.0466 42.4886 55.9889 42.4663 55.9351C42.444 55.8812 42.4113 55.8323 42.3701 55.7911C42.3289 55.7499 42.28 55.7172 42.2261 55.6949C42.1723 55.6726 42.1146 55.6611 42.0563 55.6611C41.9981 55.6611 41.9404 55.6726 41.8865 55.6949C41.8327 55.7172 41.7838 55.7499 41.7426 55.7911C41.7014 55.8323 41.6687 55.8812 41.6464 55.9351C41.6241 55.9889 41.6126 56.0466 41.6126 56.1049V59.3662C41.6126 60.4589 37.791 61.9842 31.5733 61.9842C25.3445 61.9842 21.5229 60.4589 21.5229 59.3662V56.1049C21.5229 55.9872 21.4762 55.8743 21.393 55.7911C21.3097 55.7079 21.1969 55.6611 21.0792 55.6611C20.9615 55.6611 20.8487 55.7079 20.7654 55.7911C20.6822 55.8743 20.6355 55.9872 20.6355 56.1049V59.3662C20.6355 60.4145 21.8058 61.3075 24.0244 61.9565C26.0489 62.55 28.7279 62.8717 31.5678 62.8717Z" fill="#9A9A9A"/>
<path fill-rule="evenodd" clip-rule="evenodd" d="M22.4324 66.7372C25.2778 66.7372 27.9568 66.41 29.9757 65.822C32.1944 65.1731 33.3647 64.2801 33.3647 63.2318C33.3647 62.838 33.1983 62.4608 32.8655 62.1114C32.8262 62.0663 32.7781 62.0296 32.7243 62.0036C32.6704 61.9776 32.6119 61.9627 32.5521 61.9599C32.4924 61.957 32.4326 61.9663 32.3766 61.9872C32.3205 62.008 32.2692 62.04 32.2258 62.0811C32.1824 62.1223 32.1478 62.1718 32.124 62.2267C32.1002 62.2816 32.0878 62.3407 32.0874 62.4005C32.0871 62.4603 32.0988 62.5196 32.122 62.5748C32.1451 62.6299 32.1792 62.6798 32.2221 62.7215C32.3885 62.899 32.4772 63.0709 32.4772 63.2318C32.4772 64.3245 28.6556 65.8498 22.4379 65.8498C16.2091 65.8498 12.3875 64.3245 12.3875 63.2318C12.3875 62.8102 13.031 62.1613 14.8336 61.5845C16.5586 61.0353 18.9159 60.697 21.4673 60.6249C21.585 60.622 21.6967 60.5724 21.7778 60.4871C21.8589 60.4018 21.9029 60.2878 21.8999 60.1701C21.897 60.0524 21.8474 59.9407 21.7621 59.8596C21.6768 59.7784 21.5628 59.7345 21.4451 59.7374C16.6529 59.8706 11.5001 61.0132 11.5001 63.2318C11.5001 64.2801 12.6704 65.1731 14.8891 65.822C16.9135 66.41 19.5925 66.7372 22.4324 66.7372Z" fill="#9A9A9A"/>
<path fill-rule="evenodd" clip-rule="evenodd" d="M22.4326 69.9991C25.278 69.9991 27.957 69.6774 29.976 69.0839C32.1946 68.435 33.3649 67.542 33.3649 66.4937V63.2323C33.3649 63.1146 33.3182 63.0018 33.2349 62.9185C33.1517 62.8353 33.0389 62.7886 32.9212 62.7886C32.8035 62.7886 32.6906 62.8353 32.6074 62.9185C32.5242 63.0018 32.4775 63.1146 32.4775 63.2323V66.4937C32.4775 67.5864 28.6559 69.1117 22.4382 69.1117C16.2094 69.1117 12.3878 67.5864 12.3878 66.4937V63.2323C12.3878 63.1146 12.341 63.0018 12.2578 62.9185C12.1746 62.8353 12.0617 62.7886 11.9441 62.7886C11.8264 62.7886 11.7135 62.8353 11.6303 62.9185C11.5471 63.0018 11.5003 63.1146 11.5003 63.2323V66.4937C11.5003 67.542 12.6707 68.435 14.8893 69.0839C16.9138 69.6774 19.5928 69.9991 22.4326 69.9991ZM34.0749 47.5355C34.1926 47.5355 34.3054 47.4888 34.3886 47.4055C34.4719 47.3223 34.5186 47.2095 34.5186 47.0918V43.7084C34.5186 43.5907 34.4719 43.4778 34.3886 43.3946C34.3054 43.3114 34.1926 43.2646 34.0749 43.2646C33.9572 43.2646 33.8443 43.3114 33.7611 43.3946C33.6779 43.4778 33.6311 43.5907 33.6311 43.7084V47.0918C33.6311 47.1501 33.6426 47.2078 33.6649 47.2616C33.6872 47.3154 33.7199 47.3643 33.7611 47.4055C33.8023 47.4467 33.8512 47.4794 33.9051 47.5017C33.9589 47.524 34.0166 47.5355 34.0749 47.5355ZM28.8278 47.9404C28.8861 47.9404 28.9438 47.9289 28.9976 47.9066C29.0515 47.8843 29.1004 47.8516 29.1416 47.8104C29.1828 47.7692 29.2155 47.7203 29.2378 47.6665C29.2601 47.6127 29.2715 47.555 29.2715 47.4967V44.2353C29.2715 44.1176 29.2248 44.0048 29.1416 43.9215C29.0584 43.8383 28.9455 43.7916 28.8278 43.7916C28.7101 43.7916 28.5973 43.8383 28.5141 43.9215C28.4308 44.0048 28.3841 44.1176 28.3841 44.2353V47.4967C28.3841 47.6144 28.4308 47.7272 28.5141 47.8104C28.5973 47.8937 28.7101 47.9404 28.8278 47.9404ZM23.5808 47.5355C23.6984 47.5355 23.8113 47.4888 23.8945 47.4055C23.9777 47.3223 24.0245 47.2095 24.0245 47.0918V43.7084C24.0245 43.5907 23.9777 43.4778 23.8945 43.3946C23.8113 43.3114 23.6984 43.2646 23.5808 43.2646C23.4631 43.2646 23.3502 43.3114 23.267 43.3946C23.1838 43.4778 23.137 43.5907 23.137 43.7084V47.0918C23.137 47.2095 23.1838 47.3223 23.267 47.4055C23.3502 47.4888 23.4631 47.5355 23.5808 47.5355ZM28.7834 55.1343C28.9011 55.1343 29.014 55.0876 29.0972 55.0043C29.1804 54.9211 29.2272 54.8083 29.2272 54.6906V51.4292C29.2272 51.3115 29.1804 51.1987 29.0972 51.1154C29.014 51.0322 28.9011 50.9855 28.7834 50.9855C28.6658 50.9855 28.5529 51.0322 28.4697 51.1154C28.3865 51.1987 28.3397 51.3115 28.3397 51.4292V54.6906C28.3397 54.8083 28.3865 54.9211 28.4697 55.0043C28.5529 55.0876 28.6658 55.1343 28.7834 55.1343ZM23.5364 55.5448C23.6541 55.5448 23.7669 55.498 23.8502 55.4148C23.9334 55.3316 23.9801 55.2187 23.9801 55.101V51.8396C23.9801 51.722 23.9334 51.6091 23.8502 51.5259C23.7669 51.4427 23.6541 51.3959 23.5364 51.3959C23.4187 51.3959 23.3058 51.4427 23.2226 51.5259C23.1394 51.6091 23.0927 51.722 23.0927 51.8396V55.101C23.0927 55.2187 23.1394 55.3316 23.2226 55.4148C23.3058 55.498 23.4187 55.5448 23.5364 55.5448ZM18.2949 55.1343C18.4126 55.1343 18.5254 55.0876 18.6086 55.0043C18.6919 54.9211 18.7386 54.8083 18.7386 54.6906V51.4292C18.7386 51.3115 18.6919 51.1987 18.6086 51.1154C18.5254 51.0322 18.4126 50.9855 18.2949 50.9855C18.1772 50.9855 18.0643 51.0322 17.9811 51.1154C17.8979 51.1987 17.8512 51.3115 17.8512 51.4292V54.6906C17.8512 54.8083 17.8979 54.9211 17.9811 55.0043C18.0643 55.0876 18.1772 55.1343 18.2949 55.1343ZM36.8149 62.4613C36.9326 62.4613 37.0454 62.4146 37.1286 62.3314C37.2119 62.2482 37.2586 62.1353 37.2586 62.0176V58.7562C37.2586 58.6385 37.2119 58.5257 37.1286 58.4425C37.0454 58.3592 36.9326 58.3125 36.8149 58.3125C36.6972 58.3125 36.5843 58.3592 36.5011 58.4425C36.4179 58.5257 36.3712 58.6385 36.3712 58.7562V62.0176C36.3712 62.1353 36.4179 62.2482 36.5011 62.3314C36.5843 62.4146 36.6972 62.4613 36.8149 62.4613Z" fill="#9A9A9A"/>
<path fill-rule="evenodd" clip-rule="evenodd" d="M31.5675 62.8724C31.6852 62.8724 31.7981 62.8256 31.8813 62.7424C31.9645 62.6592 32.0112 62.5463 32.0112 62.4286V59.1672C32.0112 59.0496 31.9645 58.9367 31.8813 58.8535C31.7981 58.7703 31.6852 58.7235 31.5675 58.7235C31.4498 58.7235 31.337 58.7703 31.2537 58.8535C31.1705 58.9367 31.1238 59.0496 31.1238 59.1672V62.4286C31.1238 62.5463 31.1705 62.6592 31.2537 62.7424C31.337 62.8256 31.4498 62.8724 31.5675 62.8724ZM26.326 62.4619C26.4437 62.4619 26.5565 62.4152 26.6398 62.3319C26.723 62.2487 26.7697 62.1359 26.7697 62.0182V58.7568C26.7697 58.6391 26.723 58.5262 26.6398 58.443C26.5565 58.3598 26.4437 58.3131 26.326 58.3131C26.2083 58.3131 26.0954 58.3598 26.0122 58.443C25.929 58.5262 25.8823 58.6391 25.8823 58.7568V62.0182C25.8823 62.1359 25.929 62.2487 26.0122 62.3319C26.0954 62.4152 26.2083 62.4619 26.326 62.4619ZM27.6794 69.5893C27.797 69.5893 27.9099 69.5425 27.9931 69.4593C28.0763 69.3761 28.1231 69.2632 28.1231 69.1455V65.8841C28.1231 65.7665 28.0763 65.6536 27.9931 65.5704C27.9099 65.4872 27.797 65.4404 27.6794 65.4404C27.5617 65.4404 27.4488 65.4872 27.3656 65.5704C27.2824 65.6536 27.2356 65.7665 27.2356 65.8841V69.1455C27.2356 69.2038 27.2471 69.2615 27.2694 69.3153C27.2917 69.3692 27.3244 69.4181 27.3656 69.4593C27.4068 69.5005 27.4557 69.5332 27.5096 69.5555C27.5634 69.5778 27.6211 69.5893 27.6794 69.5893ZM22.4323 69.9997C22.55 69.9997 22.6629 69.9529 22.7461 69.8697C22.8293 69.7865 22.876 69.6737 22.876 69.556V66.2946C22.876 66.1769 22.8293 66.064 22.7461 65.9808C22.6629 65.8976 22.55 65.8509 22.4323 65.8509C22.3146 65.8509 22.2018 65.8976 22.1185 65.9808C22.0353 66.064 21.9886 66.1769 21.9886 66.2946V69.556C21.9886 69.6142 22.0001 69.6719 22.0224 69.7258C22.0447 69.7796 22.0773 69.8285 22.1185 69.8697C22.1597 69.9109 22.2087 69.9436 22.2625 69.9659C22.3163 69.9882 22.374 69.9997 22.4323 69.9997ZM17.1908 69.5893C17.3085 69.5893 17.4213 69.5425 17.5046 69.4593C17.5878 69.3761 17.6345 69.2632 17.6345 69.1455V65.8841C17.6345 65.7665 17.5878 65.6536 17.5046 65.5704C17.4213 65.4872 17.3085 65.4404 17.1908 65.4404C17.0731 65.4404 16.9602 65.4872 16.877 65.5704C16.7938 65.6536 16.7471 65.7665 16.7471 65.8841V69.1455C16.7471 69.2632 16.7938 69.3761 16.877 69.4593C16.9602 69.5425 17.0731 69.5893 17.1908 69.5893ZM29.6096 42.6107C30.1597 42.6272 30.7079 42.5368 31.2236 42.3445C31.9447 42.0228 31.9946 41.457 31.8226 41.0799C31.7741 40.9725 31.6849 40.8888 31.5746 40.8472C31.4644 40.8056 31.3421 40.8095 31.2347 40.858C31.1273 40.9066 31.0436 40.9958 31.002 41.106C30.9604 41.2163 30.9643 41.3386 31.0128 41.4459C30.8853 41.5846 30.2363 41.7787 29.2546 41.7122C28.2451 41.6401 27.5795 41.335 27.463 41.0799L27.4519 41.0521C27.6516 40.9079 28.4392 40.8247 28.8719 40.7748C29.837 40.675 30.6745 40.5862 30.9796 40.0482C31.0794 39.8818 31.1571 39.6045 30.9907 39.2329C30.6412 38.4563 29.2158 38.0459 27.9955 38.0459C26.9583 38.0459 26.1873 38.3121 25.8878 38.7836C25.7214 39.0332 25.7048 39.3216 25.8324 39.5934C25.887 39.6861 25.9735 39.7557 26.0757 39.7894C26.1779 39.823 26.2889 39.8184 26.388 39.7763C26.487 39.7343 26.5674 39.6576 26.6141 39.5607C26.6609 39.4638 26.6709 39.3532 26.6422 39.2495C26.7309 39.1497 27.1413 38.9333 27.9955 38.9333C29.2158 38.9333 30.081 39.3715 30.1809 39.5989C30.1849 39.6062 30.1886 39.6136 30.192 39.6211C29.9978 39.7653 29.2102 39.8485 28.7776 39.8985C27.8125 39.9983 26.9749 40.087 26.6699 40.6195C26.57 40.7915 26.4868 41.0688 26.6532 41.4404C27.0304 42.2724 28.4004 42.6052 29.6096 42.6052V42.6107Z" fill="#9A9A9A"/>
<path fill-rule="evenodd" clip-rule="evenodd" d="M29.9759 43.3438C30.0501 43.3439 30.1232 43.3254 30.1885 43.2899C30.2537 43.2545 30.309 43.2032 30.3493 43.1409C30.3896 43.0785 30.4136 43.007 30.4191 42.933C30.4246 42.8589 30.4114 42.7847 30.3808 42.717L30.048 41.9904C30.0292 41.9307 29.998 41.8755 29.9564 41.8287C29.9148 41.7819 29.8637 41.7444 29.8066 41.7187C29.7495 41.693 29.6875 41.6797 29.6249 41.6796C29.5622 41.6796 29.5003 41.6928 29.4431 41.7185C29.386 41.7441 29.3349 41.7815 29.2932 41.8283C29.2515 41.8751 29.2203 41.9302 29.2014 41.99C29.1826 42.0497 29.1766 42.1128 29.1839 42.175C29.1912 42.2372 29.2116 42.2972 29.2437 42.351L29.571 43.0831C29.6062 43.1609 29.6632 43.2269 29.735 43.2732C29.8068 43.3194 29.8905 43.3439 29.9759 43.3438ZM27.9958 38.9343C28.07 38.9344 28.1431 38.9159 28.2083 38.8804C28.2736 38.845 28.3289 38.7937 28.3692 38.7313C28.4094 38.669 28.4334 38.5975 28.4389 38.5234C28.4444 38.4494 28.4313 38.3752 28.4007 38.3075L28.0734 37.5809C28.0221 37.4791 27.9336 37.401 27.8262 37.3627C27.7188 37.3244 27.6008 37.3289 27.4967 37.3753C27.3926 37.4216 27.3103 37.5063 27.2669 37.6117C27.2235 37.7171 27.2223 37.8352 27.2636 37.9414L27.5909 38.6736C27.6261 38.7514 27.683 38.8174 27.7549 38.8636C27.8267 38.9099 27.9103 38.9344 27.9958 38.9343Z" fill="#9A9A9A"/>
</svg>
