<svg width="80" height="80" viewBox="0 0 80 80" fill="none" xmlns="http://www.w3.org/2000/svg">
<rect x="25" y="14" width="32" height="19" rx="3.2332" fill="#E1EAF8"/>
<rect x="25" y="42" width="32" height="19" rx="3.2332" fill="#E1EAF8"/>
<path d="M46.0984 8.05312H34.6156C33.675 8.05312 32.8391 7.45156 32.5406 6.55781L31.1875 2.5H49.5281L48.175 6.55781C48.0293 6.99328 47.7504 7.37195 47.3778 7.64028C47.0052 7.90861 46.5576 8.05303 46.0984 8.05312ZM56.3547 68.1021V70.5203C56.3547 72.8641 54.4547 74.7641 52.1109 74.7641H33.3516C31.8422 74.7641 30.6172 75.9891 30.6172 77.4984H52.1109C55.9656 77.4984 59.0891 74.3734 59.0891 70.5203V69.188L56.3547 68.1021Z" fill="#E1EAF8"/>
<path d="M52.1109 78.0467H28.6031C24.4531 78.0467 21.0781 74.6702 21.0781 70.5217V50.7905C21.0781 50.4889 21.3234 50.2436 21.625 50.2436C21.9266 50.2436 22.1719 50.4889 22.1719 50.7905V70.5217C22.1719 74.0686 25.0578 76.953 28.6031 76.953H52.1109C55.6578 76.953 58.5422 74.0671 58.5422 70.5217V46.1895C58.5422 45.8879 58.7875 45.6426 59.0891 45.6426C59.3906 45.6426 59.6359 45.8879 59.6359 46.1895V70.5217C59.6359 74.6702 56.2609 78.0467 52.1109 78.0467Z" fill="#9A9A9A"/>
<path d="M58.5422 9.47812V19.6906C58.5422 19.9922 58.7875 20.2375 59.0891 20.2375C59.3906 20.2375 59.6359 19.9922 59.6359 19.6906V9.47812C59.6359 5.32812 56.2594 1.95312 52.1109 1.95312H28.6031C24.4531 1.95312 21.0781 5.32969 21.0781 9.47812V26.5375C21.0781 26.8391 21.3234 27.0844 21.625 27.0844C21.9266 27.0844 22.1719 26.8391 22.1719 26.5375V9.47812C22.1719 5.93125 25.0578 3.04688 28.6031 3.04688H52.1109C55.6578 3.04688 58.5422 5.93281 58.5422 9.47812Z" fill="#9A9A9A"/>
<path d="M65.0502 41.1245C64.9115 40.996 64.843 40.7985 64.8884 40.6C64.9044 40.5299 64.9341 40.4637 64.9757 40.4052C65.0173 40.3466 65.07 40.2968 65.1308 40.2586C65.1917 40.2204 65.2595 40.1946 65.3303 40.1826C65.4012 40.1706 65.4737 40.1727 65.5437 40.1888L69.5094 41.0961C69.6499 41.1294 69.7714 41.2168 69.8477 41.3394C69.9239 41.462 69.9486 41.6097 69.9164 41.7504C69.8842 41.8911 69.7977 42.0134 69.6758 42.0906C69.5538 42.1678 69.4063 42.1936 69.2653 42.1625L65.2996 41.2553C65.2037 41.2346 65.1179 41.1871 65.0502 41.1245ZM61.9469 29.1327C61.8896 29.0799 61.8443 29.0154 61.8139 28.9436C61.7836 28.8718 61.769 28.7943 61.7711 28.7164C61.7733 28.6385 61.7921 28.5619 61.8262 28.4919C61.8604 28.4218 61.9092 28.3599 61.9694 28.3103L65.1056 25.718C65.3392 25.5255 65.6843 25.5575 65.8747 25.7912C66.0672 26.0248 66.0341 26.3688 65.8015 26.5602L62.6653 29.1525C62.5634 29.2365 62.4344 29.2808 62.3024 29.2772C62.1703 29.2735 62.0441 29.2222 61.9469 29.1327Z" fill="#0166FF"/>
<path d="M15.1014 30.8845C15.1791 30.9229 15.2617 30.9426 15.3429 30.9435C15.4447 30.9445 15.5448 30.9171 15.6319 30.8642C15.7189 30.8113 15.7894 30.7352 15.8354 30.6443C15.9013 30.5151 15.9131 30.3651 15.8684 30.2271C15.8236 30.0892 15.7259 29.9747 15.5968 29.9088L11.972 28.0616C11.8432 27.9987 11.6948 27.9889 11.5588 28.0343C11.4228 28.0797 11.3101 28.1768 11.2449 28.3045C11.1798 28.4322 11.1674 28.5804 11.2104 28.7172C11.2535 28.854 11.3485 28.9683 11.4751 29.0357L15.1014 30.8845Z" fill="#0166FF"/>
<path d="M11.2682 44.7672C11.3614 44.962 11.5554 45.0767 11.757 45.079C11.8366 45.0799 11.9196 45.0636 11.9982 45.0254L15.6713 43.2761C15.802 43.2136 15.9026 43.1019 15.9511 42.9653C15.9995 42.8287 15.9917 42.6785 15.9295 42.5477C15.867 42.4169 15.7553 42.3163 15.6187 42.2679C15.4821 42.2195 15.3319 42.2272 15.2011 42.2895L11.5265 44.0388C11.3957 44.1013 11.2951 44.213 11.2467 44.3496C11.1982 44.4862 11.206 44.6364 11.2682 44.7672Z" fill="#0166FF"/>
<rect x="31" y="27" width="20" height="20" rx="10" fill="#0166FF"/>
<path d="M39.8646 34.7077L37.5729 32.416M37.5729 32.416L35.2812 34.7077M37.5729 32.416V41.5827M41.0104 39.291L43.3021 41.5827M43.3021 41.5827L45.5938 39.291M43.3021 41.5827V32.416" stroke="white" stroke-width="1.15" stroke-linecap="round" stroke-linejoin="round"/>
</svg>
