<svg width="80" height="80" viewBox="0 0 80 80" fill="none" xmlns="http://www.w3.org/2000/svg">
<g clip-path="url(#clip0_76852_220977)">
<path d="M40.0984 6.05312H28.6156C27.675 6.05312 26.8391 5.45156 26.5406 4.55781L25.1875 2.5H43.5281L42.175 4.55781C42.0293 4.99328 41.7504 5.37195 41.3778 5.64028C41.0052 5.90861 40.5576 6.05303 40.0984 6.05312ZM52.6022 68.9947C51.5244 68.5666 50.3547 69.3607 50.3547 70.5203C50.3547 72.8641 48.4547 74.7641 46.1109 74.7641H27.3516C25.8422 74.7641 24.6172 75.9891 24.6172 77.4984H46.1109C49.9656 77.4984 53.0891 74.3734 53.0891 70.5203V69.188L52.6022 68.9947Z" fill="#E1EAF8"/>
<path d="M53.1912 69.6735C53.1912 69.3714 52.9455 69.1251 52.6434 69.125C52.3412 69.125 52.0955 69.3713 52.0955 69.6735V71.0079C52.0955 74.56 49.2055 77.4515 45.6518 77.4516L22.8605 77.4491C22.3827 77.4491 21.9954 77.8367 21.9958 78.3145L21.996 78.5435C21.996 78.5445 21.9951 78.5453 21.9941 78.5453L45.6518 78.5479C49.8098 78.5477 53.1912 75.1643 53.1912 71.0079V69.6735Z" fill="#9A9A9A"/>
<path d="M52.5441 9.47813V33.024C52.5441 33.3255 52.7895 33.5708 53.091 33.5708C53.3926 33.5708 53.6379 33.3255 53.6379 33.024V9.47813C53.6379 5.32812 50.2613 1.95312 46.1129 1.95312H22.6051C18.4551 1.95312 15.0801 5.32969 15.0801 9.47813V57.5375C15.0801 57.8391 15.3254 58.0844 15.627 58.0844C15.9285 58.0844 16.1738 57.8391 16.1738 57.5375V9.47813C16.1738 5.93125 19.0598 3.04688 22.6051 3.04688H46.1129C49.6598 3.04688 52.5441 5.93281 52.5441 9.47813Z" fill="#9A9A9A"/>
<rect x="18.832" y="11.1338" width="31.3026" height="17.1659" rx="2.01952" fill="#E1EAF8"/>
<rect x="18.832" y="30.3193" width="31.3026" height="2.01952" rx="1.00976" fill="#E1EAF8"/>
<rect x="18.832" y="34.3584" width="16.1562" height="2.01952" rx="1.00976" fill="#E1EAF8"/>
<path fill-rule="evenodd" clip-rule="evenodd" d="M32.0739 16.4426C33.4423 16.3238 34.8184 16.3238 36.1868 16.4426L36.843 16.5C37.148 16.5267 37.4352 16.6552 37.6583 16.8649C37.8814 17.0745 38.0276 17.3531 38.0732 17.6559C38.2703 18.9667 38.2703 20.2995 38.0732 21.6103C38.0555 21.7253 38.0248 21.8345 37.9811 21.9379C37.9524 22.0061 37.8637 22.0166 37.8133 21.9618L35.8922 19.8482C35.8497 19.8015 35.7946 19.7681 35.7335 19.7521C35.6724 19.7361 35.608 19.7383 35.5481 19.7582L34.4482 20.125L32.853 18.3303C32.8235 18.2971 32.7875 18.2703 32.7473 18.2515C32.707 18.2327 32.6633 18.2224 32.619 18.2211C32.5746 18.2198 32.5304 18.2275 32.4891 18.2439C32.4478 18.2603 32.4103 18.285 32.3789 18.3164L30.2435 20.4518C30.229 20.4667 30.2105 20.477 30.1902 20.4816C30.1699 20.4861 30.1487 20.4846 30.1292 20.4773C30.1098 20.4699 30.0929 20.4571 30.0806 20.4403C30.0683 20.4235 30.0612 20.4035 30.0602 20.3827C30.0088 19.4717 30.0513 18.5578 30.1871 17.6555C30.2327 17.3527 30.3788 17.0741 30.602 16.8644C30.8251 16.6548 31.1122 16.5263 31.4173 16.4996L32.0739 16.4426ZM34.9992 18.3294C34.9992 18.1566 35.0679 17.9908 35.1901 17.8685C35.3124 17.7463 35.4782 17.6776 35.651 17.6776C35.8239 17.6776 35.9897 17.7463 36.1119 17.8685C36.2342 17.9908 36.3029 18.1566 36.3029 18.3294C36.3029 18.5023 36.2342 18.6681 36.1119 18.7903C35.9897 18.9126 35.8239 18.9813 35.651 18.9813C35.4782 18.9813 35.3124 18.9126 35.1901 18.7903C35.0679 18.6681 34.9992 18.5023 34.9992 18.3294Z" fill="white"/>
<path d="M30.1994 21.4147C30.1877 21.4265 30.1788 21.4409 30.1735 21.4568C30.1683 21.4726 30.1667 21.4894 30.169 21.5059L30.1842 21.6102C30.2298 21.913 30.376 22.1916 30.5991 22.4012C30.8222 22.6109 31.1094 22.7394 31.4144 22.7661L32.0706 22.823C33.4394 22.9421 34.8152 22.9421 36.184 22.823L36.8401 22.7661C37.0202 22.7509 37.1953 22.6996 37.3551 22.6153C37.4146 22.5845 37.4246 22.5058 37.3794 22.4563L35.5978 20.4965C35.5836 20.4808 35.5652 20.4695 35.5447 20.4641C35.5243 20.4587 35.5027 20.4594 35.4826 20.4661L34.4475 20.8111C34.387 20.8313 34.3219 20.8333 34.2603 20.8169C34.1986 20.8004 34.1432 20.7662 34.1008 20.7185L32.6689 19.1077C32.6591 19.0966 32.6471 19.0877 32.6336 19.0814C32.6202 19.0752 32.6056 19.0717 32.5908 19.0713C32.576 19.0709 32.5612 19.0736 32.5475 19.0791C32.5337 19.0846 32.5212 19.0928 32.5108 19.1033L30.1994 21.4147Z" fill="white"/>
<path d="M36.3094 44.7314C36.2281 44.7314 36.1453 44.7127 36.0672 44.6752L32.4203 42.8674C32.293 42.8014 32.1967 42.6881 32.1521 42.5518C32.1075 42.4155 32.1182 42.2672 32.182 42.1388C32.2457 42.0103 32.3573 41.912 32.4928 41.8651C32.6282 41.8181 32.7767 41.8262 32.9063 41.8877L36.5516 43.6939C36.6815 43.7584 36.7805 43.8718 36.8268 44.0092C36.8731 44.1466 36.8629 44.2968 36.7985 44.4267C36.7535 44.5181 36.6839 44.595 36.5974 44.6489C36.511 44.7027 36.4112 44.7313 36.3094 44.7314ZM32.8828 58.9064C32.6813 58.9064 32.486 58.7939 32.3906 58.6002C32.3269 58.47 32.3175 58.3199 32.3644 58.1828C32.4112 58.0457 32.5106 57.9328 32.6406 57.8689L36.2953 56.0783C36.4255 56.0146 36.5756 56.0051 36.7127 56.052C36.8498 56.0989 36.9627 56.1982 37.0266 56.3283C37.0903 56.4584 37.0997 56.6085 37.0529 56.7456C37.006 56.8827 36.9066 56.9956 36.7766 57.0595L33.1235 58.8502C33.0453 58.8892 32.9625 58.9064 32.8828 58.9064ZM70.3047 42.1694C70.1157 42.1694 69.9313 42.071 69.8297 41.8944C69.7939 41.8322 69.7706 41.7635 69.7614 41.6922C69.7521 41.621 69.757 41.5486 69.7757 41.4792C69.7944 41.4099 69.8266 41.3449 69.8705 41.288C69.9143 41.231 69.969 41.1833 70.0313 41.1476L73.5578 39.1194C73.6835 39.0485 73.8322 39.0301 73.9714 39.0682C74.1106 39.1064 74.2291 39.198 74.301 39.3231C74.373 39.4483 74.3925 39.5968 74.3555 39.7363C74.3184 39.8758 74.2277 39.995 74.1031 40.0679L70.5766 42.096C70.4922 42.146 70.3969 42.1694 70.3047 42.1694ZM59.8813 35.4772C59.8033 35.4774 59.7262 35.4609 59.6552 35.4288C59.5842 35.3967 59.5209 35.3498 59.4695 35.2912C59.4181 35.2325 59.3799 35.1636 59.3574 35.089C59.3349 35.0143 59.3287 34.9357 59.3391 34.8585L59.8797 30.8257C59.9203 30.5257 60.1953 30.3147 60.4938 30.3569C60.7938 30.3976 61.0032 30.6726 60.9625 30.971L60.4219 35.0038C60.4042 35.1347 60.3397 35.2548 60.2403 35.3418C60.1409 35.4289 60.0134 35.477 59.8813 35.4772Z" fill="#0166FF"/>
<circle cx="52.7418" cy="50.7379" r="10.6597" fill="#0166FF"/>
<path d="M55.1724 44.92C55.0283 45.0705 55.0283 45.3126 55.0283 45.797V52.4754C55.0283 52.9597 55.0283 53.2019 55.1724 53.3523C55.3165 53.5028 55.5484 53.5028 56.0123 53.5028C56.4761 53.5028 56.7081 53.5028 56.8522 53.3523C56.9963 53.2019 56.9963 52.9597 56.9963 52.4754V45.797C56.9963 45.3126 56.9963 45.0705 56.8522 44.92C56.7081 44.7695 56.4761 44.7695 56.0123 44.7695C55.5484 44.7695 55.3165 44.7695 55.1724 44.92Z" stroke="white" stroke-width="0.999351"/>
<path d="M51.5844 47.3381C51.5844 46.8538 51.5844 46.6116 51.7285 46.4612C51.8726 46.3107 52.1045 46.3107 52.5684 46.3107C53.0322 46.3107 53.2641 46.3107 53.4082 46.4612C53.5523 46.6116 53.5523 46.8538 53.5523 47.3381V52.4754C53.5523 52.9597 53.5523 53.2019 53.4082 53.3523C53.2641 53.5028 53.0322 53.5028 52.5684 53.5028C52.1045 53.5028 51.8726 53.5028 51.7285 53.3523C51.5844 53.2019 51.5844 52.9597 51.5844 52.4754V47.3381Z" stroke="white" stroke-width="0.999351"/>
<path d="M48.2846 48.5161C48.1405 48.6665 48.1405 48.9087 48.1405 49.393V52.4754C48.1405 52.9597 48.1405 53.2019 48.2846 53.3523C48.4287 53.5028 48.6606 53.5028 49.1245 53.5028C49.5883 53.5028 49.8202 53.5028 49.9643 53.3523C50.1084 53.2019 50.1084 52.9597 50.1084 52.4754V49.393C50.1084 48.9087 50.1084 48.6665 49.9643 48.5161C49.8202 48.3656 49.5883 48.3656 49.1245 48.3656C48.6606 48.3656 48.4287 48.3656 48.2846 48.5161Z" stroke="white" stroke-width="0.999351"/>
<path d="M48.1405 55.6587C47.9367 55.6587 47.7715 55.8312 47.7715 56.044C47.7715 56.2568 47.9367 56.4293 48.1405 56.4293H56.9963C57.2 56.4293 57.3653 56.2568 57.3653 56.044C57.3653 55.8312 57.2 55.6587 56.9963 55.6587H48.1405Z" stroke="white" stroke-width="0.999351"/>
<path d="M9.41146 71.589C9.41146 73.1999 12.0228 74.5056 15.2448 74.5056C18.4667 74.5056 21.0781 73.1999 21.0781 71.589M9.41146 71.589C9.41146 69.978 12.0228 68.6723 15.2448 68.6723C18.4667 68.6723 21.0781 69.978 21.0781 71.589M9.41146 71.589V75.4779C9.41146 77.0879 12.0228 78.3945 15.2448 78.3945C18.4667 78.3945 21.0781 77.0879 21.0781 75.4779V71.589M3.57812 63.8112C3.57812 64.8534 4.69035 65.8159 6.49479 66.337C8.29924 66.8581 10.5237 66.8581 12.3281 66.337C14.1326 65.8159 15.2448 64.8534 15.2448 63.8112C15.2448 62.769 14.1326 61.8065 12.3281 61.2854C10.5237 60.7643 8.29924 60.7643 6.49479 61.2854C4.69035 61.8065 3.57812 62.769 3.57812 63.8112ZM3.57812 63.8112V73.5334C3.57812 74.3968 4.32868 74.9431 5.52257 75.4779M3.57812 68.6723C3.57812 69.5356 4.32868 70.082 5.52257 70.6168" stroke="#9A9A9A" stroke-width="1.00195" stroke-linecap="round" stroke-linejoin="round"/>
<mask id="path-14-inside-1_76852_220977" fill="white">
<path d="M63.9533 19.4456C63.7166 19.4456 63.5745 19.3028 63.5272 19.0647C63.3378 18.2552 62.959 17.4933 62.3435 16.8742C61.7279 16.2552 61.0177 15.8742 60.2128 15.6837C59.976 15.6837 59.834 15.4933 59.834 15.3028C59.834 15.1123 59.976 14.9218 60.2128 14.8742C61.0177 14.7313 61.7753 14.3028 62.3908 13.6837C63.0063 13.0647 63.3851 12.3504 63.5745 11.4933C63.6219 11.2552 63.8113 11.1123 64.0007 11.1123C64.19 11.1123 64.3794 11.2552 64.4268 11.4933C64.6162 12.3028 64.995 13.0647 65.6105 13.6837C66.226 14.3028 66.9363 14.6837 67.7885 14.8742C68.0253 14.9218 68.1673 15.1123 68.1673 15.3028C68.1673 15.4933 68.0253 15.6837 67.7885 15.7314C66.1313 16.0647 64.8056 17.398 64.4741 19.0647C64.3321 19.3028 64.19 19.4456 63.9533 19.4456ZM61.2071 15.3028C61.8226 15.5409 62.3908 15.9218 62.8643 16.398C63.3378 16.8742 63.7166 17.4456 63.9533 18.0647C64.4741 16.779 65.4685 15.779 66.6995 15.2552C66.084 15.0171 65.5158 14.6361 65.0423 14.1599C64.5688 13.6837 64.19 13.1123 63.9533 12.4933C63.7166 13.1123 63.3378 13.6837 62.8643 14.1599C62.3908 14.6837 61.8226 15.0647 61.2071 15.3028Z"/>
</mask>
<path d="M63.9533 19.4456C63.7166 19.4456 63.5745 19.3028 63.5272 19.0647C63.3378 18.2552 62.959 17.4933 62.3435 16.8742C61.7279 16.2552 61.0177 15.8742 60.2128 15.6837C59.976 15.6837 59.834 15.4933 59.834 15.3028C59.834 15.1123 59.976 14.9218 60.2128 14.8742C61.0177 14.7313 61.7753 14.3028 62.3908 13.6837C63.0063 13.0647 63.3851 12.3504 63.5745 11.4933C63.6219 11.2552 63.8113 11.1123 64.0007 11.1123C64.19 11.1123 64.3794 11.2552 64.4268 11.4933C64.6162 12.3028 64.995 13.0647 65.6105 13.6837C66.226 14.3028 66.9363 14.6837 67.7885 14.8742C68.0253 14.9218 68.1673 15.1123 68.1673 15.3028C68.1673 15.4933 68.0253 15.6837 67.7885 15.7314C66.1313 16.0647 64.8056 17.398 64.4741 19.0647C64.3321 19.3028 64.19 19.4456 63.9533 19.4456ZM61.2071 15.3028C61.8226 15.5409 62.3908 15.9218 62.8643 16.398C63.3378 16.8742 63.7166 17.4456 63.9533 18.0647C64.4741 16.779 65.4685 15.779 66.6995 15.2552C66.084 15.0171 65.5158 14.6361 65.0423 14.1599C64.5688 13.6837 64.19 13.1123 63.9533 12.4933C63.7166 13.1123 63.3378 13.6837 62.8643 14.1599C62.3908 14.6837 61.8226 15.0647 61.2071 15.3028Z" fill="#9A9A9A"/>
<path d="M63.5272 19.0647L68.319 18.1118L68.3031 18.0314L68.2844 17.9517L63.5272 19.0647ZM60.2128 15.6837L61.3378 10.9293L60.783 10.798H60.2128V15.6837ZM60.2128 14.8742L59.359 10.0637L59.3041 10.0734L59.2493 10.0844L60.2128 14.8742ZM63.5745 11.4933L68.3452 12.5474L68.3563 12.4969L68.3664 12.4462L63.5745 11.4933ZM64.4268 11.4933L59.6349 12.4462L59.6509 12.5265L59.6695 12.6062L64.4268 11.4933ZM67.7885 14.8742L66.7229 19.6423L66.7739 19.6537L66.8251 19.664L67.7885 14.8742ZM67.7885 15.7314L68.752 20.5211L67.7885 15.7314ZM64.4741 19.0647L68.6699 21.5678L69.1017 20.8441L69.266 20.0176L64.4741 19.0647ZM61.2071 15.3028L59.4445 10.7461L47.6644 15.3028L59.4445 19.8595L61.2071 15.3028ZM63.9533 18.0647L59.3899 19.8099L63.8225 31.4004L68.4816 19.8991L63.9533 18.0647ZM66.6995 15.2552L68.6124 19.7508L79.6848 15.0396L68.4621 10.6985L66.6995 15.2552ZM63.9533 12.4933L68.5167 10.7481L63.9533 -1.18455L59.3899 10.7481L63.9533 12.4933ZM62.8643 14.1599L59.3997 10.7151L59.3178 10.7975L59.2398 10.8837L62.8643 14.1599ZM63.9533 19.4456V14.5599C64.8774 14.5599 66.0224 14.8688 66.9808 15.7523C67.8744 16.5761 68.203 17.5281 68.319 18.1118L63.5272 19.0647L58.7353 20.0176C58.8987 20.8393 59.322 21.9818 60.3576 22.9366C61.458 23.9511 62.7925 24.3314 63.9533 24.3314V19.4456ZM63.5272 19.0647L68.2844 17.9517C67.9196 16.3925 67.1519 14.7809 65.808 13.4293L62.3435 16.8742L58.8789 20.3191C58.8295 20.2694 58.7958 20.2192 58.7769 20.1834C58.7594 20.1505 58.7622 20.1446 58.7699 20.1777L63.5272 19.0647ZM62.3435 16.8742L65.808 13.4293C64.5261 12.1401 62.9959 11.3217 61.3378 10.9293L60.2128 15.6837L59.0877 20.4381C59.0878 20.4382 59.0454 20.4273 58.9843 20.3935C58.9221 20.3591 58.8857 20.3259 58.8789 20.3191L62.3435 16.8742ZM60.2128 15.6837V10.798C63.0908 10.798 64.7197 13.2311 64.7197 15.3028H59.834H54.9483C54.9483 17.7554 56.8613 20.5694 60.2128 20.5694V15.6837ZM59.834 15.3028H64.7197C64.7197 17.5503 63.11 19.275 61.1762 19.664L60.2128 14.8742L59.2493 10.0844C56.842 10.5686 54.9483 12.6744 54.9483 15.3028H59.834ZM60.2128 14.8742L61.0665 19.6847C63.0047 19.3408 64.6408 18.3501 65.8554 17.1286L62.3908 13.6837L58.9263 10.2389C58.9267 10.2385 58.9326 10.2325 58.9457 10.2226C58.9587 10.2126 58.9808 10.1973 59.0133 10.1793C59.0776 10.1439 59.1926 10.0932 59.359 10.0637L60.2128 14.8742ZM62.3908 13.6837L65.8554 17.1286C67.1548 15.8217 67.9655 14.2657 68.3452 12.5474L63.5745 11.4933L58.8039 10.4391C58.797 10.4703 58.8022 10.4332 58.8397 10.3633C58.857 10.3312 58.876 10.3019 58.8943 10.2773C58.9124 10.2531 58.9248 10.2403 58.9263 10.2389L62.3908 13.6837ZM63.5745 11.4933L68.3664 12.4462C67.9887 14.3454 66.2907 15.998 64.0007 15.998V11.1123V6.22659C61.3318 6.22659 59.255 8.16491 58.7826 10.5403L63.5745 11.4933ZM64.0007 11.1123V15.998C61.7106 15.998 60.0126 14.3454 59.6349 12.4462L64.4268 11.4933L69.2187 10.5403C68.7463 8.16492 66.6695 6.22659 64.0007 6.22659V11.1123ZM64.4268 11.4933L59.6695 12.6062C60.0343 14.1654 60.8021 15.7771 62.1459 17.1286L65.6105 13.6837L69.075 10.2389C69.1244 10.2885 69.1581 10.3387 69.1771 10.3746C69.1945 10.4074 69.1918 10.4134 69.184 10.3803L64.4268 11.4933ZM65.6105 13.6837L62.1459 17.1286C63.4459 18.436 64.9998 19.2572 66.7229 19.6423L67.7885 14.8742L68.8542 10.1061C68.8296 10.1006 68.872 10.1079 68.9457 10.148C68.9796 10.1665 69.0102 10.1866 69.0355 10.2057C69.0606 10.2246 69.0736 10.2375 69.075 10.2389L65.6105 13.6837ZM67.7885 14.8742L66.8251 19.664C64.8913 19.275 63.2816 17.5503 63.2816 15.3028H68.1673H73.053C73.053 12.6743 71.1593 10.5686 68.752 10.0844L67.7885 14.8742ZM68.1673 15.3028H63.2816C63.2816 13.0553 64.8913 11.3305 66.8251 10.9416L67.7885 15.7314L68.752 20.5211C71.1593 20.0369 73.053 17.9312 73.053 15.3028H68.1673ZM67.7885 15.7314L66.8251 10.9416C63.2208 11.6665 60.3957 14.5241 59.6823 18.1118L64.4741 19.0647L69.266 20.0176C69.2369 20.164 69.17 20.2712 69.0987 20.3429C69.0275 20.4146 68.9139 20.4886 68.752 20.5211L67.7885 15.7314ZM64.4741 19.0647L60.2784 16.5615C60.3112 16.5066 60.6048 15.9973 61.2201 15.5111C61.985 14.9067 62.9536 14.5599 63.9533 14.5599V19.4456V24.3314C65.1898 24.3314 66.3478 23.9131 67.2784 23.1778C68.0594 22.5606 68.4951 21.8609 68.6699 21.5678L64.4741 19.0647ZM61.2071 15.3028L59.4445 19.8595C59.4075 19.8452 59.3902 19.8338 59.3882 19.8325C59.3862 19.8312 59.3915 19.8346 59.3997 19.8429L62.8643 16.398L66.3288 12.9532C65.4058 12.0249 64.2672 11.248 62.9697 10.7461L61.2071 15.3028ZM62.8643 16.398L59.3997 19.8429C59.4034 19.8466 59.4066 19.8502 59.409 19.8532C59.4115 19.8562 59.4124 19.8577 59.4121 19.8572C59.4117 19.8566 59.4094 19.853 59.4057 19.8458C59.402 19.8386 59.3964 19.8267 59.3899 19.8099L63.9533 18.0647L68.5167 16.3195C68.021 15.0233 67.252 13.8816 66.3288 12.9532L62.8643 16.398ZM63.9533 18.0647L68.4816 19.8991C68.5182 19.8087 68.5737 19.7673 68.6124 19.7508L66.6995 15.2552L64.7866 10.7595C62.3632 11.7907 60.4301 13.7493 59.425 16.2303L63.9533 18.0647ZM66.6995 15.2552L68.4621 10.6985C68.4991 10.7128 68.5164 10.7241 68.5184 10.7254C68.5204 10.7268 68.5151 10.7234 68.5069 10.7151L65.0423 14.1599L61.5778 17.6048C62.5008 18.5331 63.6394 19.31 64.9369 19.8119L66.6995 15.2552ZM65.0423 14.1599L68.5069 10.7151C68.5032 10.7113 68.5 10.7078 68.4976 10.7048C68.4951 10.7018 68.4942 10.7002 68.4945 10.7008C68.4949 10.7013 68.4972 10.7049 68.5009 10.7122C68.5046 10.7194 68.5102 10.7312 68.5167 10.7481L63.9533 12.4933L59.3899 14.2384C59.8856 15.5346 60.6546 16.6764 61.5778 17.6048L65.0423 14.1599ZM63.9533 12.4933L59.3899 10.7481C59.3964 10.7312 59.402 10.7194 59.4057 10.7122C59.4094 10.7049 59.4117 10.7013 59.4121 10.7008C59.4124 10.7002 59.4115 10.7018 59.409 10.7048C59.4066 10.7078 59.4034 10.7113 59.3997 10.7151L62.8643 14.1599L66.3288 17.6048C67.252 16.6764 68.021 15.5346 68.5167 14.2384L63.9533 12.4933ZM62.8643 14.1599L59.2398 10.8837C59.2875 10.831 59.3607 10.7785 59.4445 10.7461L61.2071 15.3028L62.9697 19.8595C64.2846 19.3509 65.4941 18.5365 66.4887 17.4361L62.8643 14.1599Z" fill="#9A9A9A" mask="url(#path-14-inside-1_76852_220977)"/>
<mask id="path-16-inside-2_76852_220977" fill="white">
<path d="M4.19744 41.7201C3.9607 41.7201 3.81866 41.5772 3.77131 41.3391C3.58191 40.5296 3.20312 39.7677 2.58759 39.1486C1.97206 38.5296 1.26184 38.1486 0.456913 37.9581C0.220171 37.9581 0.078125 37.7677 0.078125 37.5772C0.078125 37.3867 0.220171 37.1962 0.456913 37.1486C1.26184 37.0058 2.01941 36.5772 2.63494 35.9581C3.25047 35.3391 3.62926 34.6248 3.81865 33.7677C3.866 33.5296 4.0554 33.3867 4.24479 33.3867C4.43419 33.3867 4.62358 33.5296 4.67093 33.7677C4.86032 34.5772 5.23911 35.3391 5.85464 35.9581C6.47017 36.5772 7.1804 36.9581 8.03267 37.1486C8.26941 37.1962 8.41146 37.3867 8.41146 37.5772C8.41146 37.7677 8.26941 37.9581 8.03267 38.0058C6.37547 38.3391 5.04972 39.6724 4.71828 41.3391C4.57623 41.5772 4.43419 41.7201 4.19744 41.7201ZM1.45123 37.5772C2.06676 37.8153 2.63494 38.1962 3.10843 38.6724C3.58191 39.1486 3.9607 39.7201 4.19744 40.3391C4.71828 39.0534 5.71259 38.0534 6.94366 37.5296C6.32812 37.2915 5.75994 36.9105 5.28646 36.4343C4.81297 35.9581 4.43419 35.3867 4.19744 34.7677C3.9607 35.3867 3.58191 35.9581 3.10843 36.4343C2.63494 36.9581 2.06676 37.3391 1.45123 37.5772Z"/>
</mask>
<path d="M4.19744 41.7201C3.9607 41.7201 3.81866 41.5772 3.77131 41.3391C3.58191 40.5296 3.20312 39.7677 2.58759 39.1486C1.97206 38.5296 1.26184 38.1486 0.456913 37.9581C0.220171 37.9581 0.078125 37.7677 0.078125 37.5772C0.078125 37.3867 0.220171 37.1962 0.456913 37.1486C1.26184 37.0058 2.01941 36.5772 2.63494 35.9581C3.25047 35.3391 3.62926 34.6248 3.81865 33.7677C3.866 33.5296 4.0554 33.3867 4.24479 33.3867C4.43419 33.3867 4.62358 33.5296 4.67093 33.7677C4.86032 34.5772 5.23911 35.3391 5.85464 35.9581C6.47017 36.5772 7.1804 36.9581 8.03267 37.1486C8.26941 37.1962 8.41146 37.3867 8.41146 37.5772C8.41146 37.7677 8.26941 37.9581 8.03267 38.0058C6.37547 38.3391 5.04972 39.6724 4.71828 41.3391C4.57623 41.5772 4.43419 41.7201 4.19744 41.7201ZM1.45123 37.5772C2.06676 37.8153 2.63494 38.1962 3.10843 38.6724C3.58191 39.1486 3.9607 39.7201 4.19744 40.3391C4.71828 39.0534 5.71259 38.0534 6.94366 37.5296C6.32812 37.2915 5.75994 36.9105 5.28646 36.4343C4.81297 35.9581 4.43419 35.3867 4.19744 34.7677C3.9607 35.3867 3.58191 35.9581 3.10843 36.4343C2.63494 36.9581 2.06676 37.3391 1.45123 37.5772Z" fill="#9A9A9A"/>
<path d="M3.77131 41.3391L8.56319 40.3862L8.54722 40.3058L8.52856 40.2261L3.77131 41.3391ZM0.456913 37.9581L1.58199 33.2037L1.02711 33.0724H0.456913V37.9581ZM0.456913 37.1486L-0.396857 32.3381L-0.451806 32.3478L-0.506517 32.3588L0.456913 37.1486ZM3.81865 33.7677L8.5893 34.8218L8.60045 34.7713L8.61054 34.7206L3.81865 33.7677ZM4.67093 33.7677L-0.120954 34.7206L-0.104981 34.8009L-0.0863249 34.8807L4.67093 33.7677ZM8.03267 37.1486L6.96704 41.9167L7.01802 41.9281L7.06924 41.9384L8.03267 37.1486ZM8.03267 38.0058L8.9961 42.7955L8.03267 38.0058ZM4.71828 41.3391L8.91404 43.8423L9.34579 43.1186L9.51016 42.292L4.71828 41.3391ZM1.45123 37.5772L-0.311359 33.0205L-12.0915 37.5772L-0.311359 42.1339L1.45123 37.5772ZM4.19744 40.3391L-0.36595 42.0843L4.06661 53.6748L8.72572 42.1735L4.19744 40.3391ZM6.94366 37.5296L8.85654 42.0252L19.929 37.314L8.70625 32.9729L6.94366 37.5296ZM4.19744 34.7677L8.76084 33.0225L4.19744 21.0899L-0.36595 33.0225L4.19744 34.7677ZM3.10843 36.4343L-0.356123 32.9895L-0.438073 33.0719L-0.516012 33.1581L3.10843 36.4343ZM4.19744 41.7201V36.8343C5.12155 36.8343 6.26658 37.1432 7.22497 38.0267C8.11855 38.8505 8.44713 39.8025 8.56319 40.3862L3.77131 41.3391L-1.02057 42.292C-0.857165 43.1137 -0.433887 44.2562 0.601732 45.211C1.70217 46.2255 3.03659 46.6058 4.19744 46.6058V41.7201ZM3.77131 41.3391L8.52856 40.2261C8.16378 38.6669 7.396 37.0553 6.05215 35.7038L2.58759 39.1486L-0.876956 42.5935C-0.926342 42.5438 -0.960052 42.4936 -0.979001 42.4578C-0.99641 42.4249 -0.99369 42.419 -0.985946 42.4521L3.77131 41.3391ZM2.58759 39.1486L6.05215 35.7038C4.77024 34.4145 3.23999 33.5961 1.58199 33.2037L0.456913 37.9581L-0.668164 42.7126C-0.66809 42.7126 -0.710447 42.7017 -0.77155 42.6679C-0.833786 42.6335 -0.870182 42.6003 -0.876956 42.5935L2.58759 39.1486ZM0.456913 37.9581V33.0724C3.33491 33.0724 4.96384 35.5055 4.96384 37.5772H0.078125H-4.80759C-4.80759 40.0298 -2.89457 42.8439 0.456913 42.8439V37.9581ZM0.078125 37.5772H4.96384C4.96384 39.8247 3.35418 41.5494 1.42034 41.9384L0.456913 37.1486L-0.506517 32.3588C-2.91384 32.8431 -4.80759 34.9488 -4.80759 37.5772H0.078125ZM0.456913 37.1486L1.31068 41.9592C3.24889 41.6152 4.88495 40.6245 6.09949 39.403L2.63494 35.9581L-0.829608 32.5133C-0.829196 32.5129 -0.823284 32.5069 -0.810205 32.497C-0.797139 32.487 -0.775087 32.4717 -0.742561 32.4538C-0.678268 32.4183 -0.563285 32.3676 -0.396857 32.3381L0.456913 37.1486ZM2.63494 35.9581L6.09949 39.403C7.39896 38.0961 8.20963 36.5401 8.5893 34.8218L3.81865 33.7677L-0.951989 32.7135C-0.958877 32.7447 -0.953699 32.7076 -0.916121 32.6377C-0.898861 32.6056 -0.879881 32.5763 -0.861553 32.5517C-0.843432 32.5275 -0.831024 32.5147 -0.829608 32.5133L2.63494 35.9581ZM3.81865 33.7677L8.61054 34.7206C8.23285 36.6198 6.53484 38.2724 4.24479 38.2724V33.3867V28.501C1.57595 28.501 -0.500844 30.4393 -0.973227 32.8147L3.81865 33.7677ZM4.24479 33.3867V38.2724C1.95474 38.2724 0.256731 36.6198 -0.120954 34.7206L4.67093 33.7677L9.46281 32.8147C8.99043 30.4393 6.91363 28.501 4.24479 28.501V33.3867ZM4.67093 33.7677L-0.0863249 34.8807C0.278455 36.4398 1.04624 38.0515 2.39009 39.403L5.85464 35.9581L9.31919 32.5133C9.36858 32.5629 9.40229 32.6132 9.42124 32.649C9.43864 32.6819 9.43592 32.6878 9.42818 32.6547L4.67093 33.7677ZM5.85464 35.9581L2.39009 39.403C3.69008 40.7104 5.24395 41.5316 6.96704 41.9167L8.03267 37.1486L9.0983 32.3805C9.0737 32.375 9.11612 32.3824 9.18985 32.4225C9.22375 32.4409 9.25436 32.461 9.27968 32.4801C9.3047 32.499 9.31779 32.5119 9.31919 32.5133L5.85464 35.9581ZM8.03267 37.1486L7.06924 41.9384C5.13541 41.5494 3.52574 39.8247 3.52574 37.5772H8.41146H13.2972C13.2972 34.9488 11.4034 32.8431 8.9961 32.3588L8.03267 37.1486ZM8.41146 37.5772H3.52574C3.52574 35.3297 5.13541 33.605 7.06924 33.216L8.03267 38.0058L8.9961 42.7955C11.4034 42.3113 13.2972 40.2056 13.2972 37.5772H8.41146ZM8.03267 38.0058L7.06924 33.216C3.46497 33.941 0.63985 36.7985 -0.0736053 40.3862L4.71828 41.3391L9.51016 42.292C9.48104 42.4384 9.41411 42.5456 9.34286 42.6173C9.2716 42.689 9.15802 42.763 8.9961 42.7955L8.03267 38.0058ZM4.71828 41.3391L0.522513 38.8359C0.555308 38.781 0.848914 38.2717 1.46423 37.7855C2.2291 37.1811 3.1977 36.8343 4.19744 36.8343V41.7201V46.6058C5.43393 46.6058 6.59193 46.1876 7.52251 45.4522C8.30355 44.835 8.7392 44.1353 8.91404 43.8423L4.71828 41.3391ZM1.45123 37.5772L-0.311359 42.1339C-0.348367 42.1196 -0.365676 42.1082 -0.36764 42.1069C-0.369626 42.1056 -0.364386 42.109 -0.356123 42.1173L3.10843 38.6724L6.57298 35.2276C5.64998 34.2993 4.51131 33.5224 3.21382 33.0205L1.45123 37.5772ZM3.10843 38.6724L-0.356123 42.1173C-0.352435 42.121 -0.349273 42.1246 -0.346826 42.1276C-0.344377 42.1306 -0.343412 42.1321 -0.34377 42.1316C-0.344128 42.131 -0.346457 42.1274 -0.350175 42.1202C-0.353897 42.113 -0.359499 42.1011 -0.36595 42.0843L4.19744 40.3391L8.76084 38.5939C8.26512 37.2977 7.49613 36.156 6.57298 35.2276L3.10843 38.6724ZM4.19744 40.3391L8.72572 42.1735C8.76234 42.0831 8.81787 42.0417 8.85654 42.0252L6.94366 37.5296L5.03077 33.0339C2.60732 34.0651 0.674215 36.0237 -0.330834 38.5047L4.19744 40.3391ZM6.94366 37.5296L8.70625 32.9729C8.74325 32.9872 8.76056 32.9985 8.76253 32.9998C8.76451 33.0012 8.75927 32.9978 8.75101 32.9895L5.28646 36.4343L1.82191 39.8792C2.74491 40.8075 3.88357 41.5844 5.18106 42.0863L6.94366 37.5296ZM5.28646 36.4343L8.75101 32.9895C8.74732 32.9858 8.74416 32.9822 8.74171 32.9792C8.73926 32.9762 8.7383 32.9747 8.73866 32.9752C8.73901 32.9757 8.74134 32.9793 8.74506 32.9866C8.74878 32.9938 8.75438 33.0056 8.76084 33.0225L4.19744 34.7677L-0.36595 36.5128C0.129761 37.8091 0.898754 38.9508 1.82191 39.8792L5.28646 36.4343ZM4.19744 34.7677L-0.36595 33.0225C-0.359499 33.0056 -0.353897 32.9938 -0.350175 32.9866C-0.346457 32.9793 -0.344128 32.9757 -0.34377 32.9752C-0.343412 32.9747 -0.344377 32.9762 -0.346826 32.9792C-0.349273 32.9822 -0.352435 32.9858 -0.356123 32.9895L3.10843 36.4343L6.57298 39.8792C7.49613 38.9508 8.26512 37.8091 8.76084 36.5128L4.19744 34.7677ZM3.10843 36.4343L-0.516012 33.1581C-0.46835 33.1054 -0.395189 33.0529 -0.311359 33.0205L1.45123 37.5772L3.21382 42.1339C4.52871 41.6253 5.73824 40.8109 6.73287 39.7106L3.10843 36.4343Z" fill="#0166FF" mask="url(#path-16-inside-2_76852_220977)"/>
</g>
<defs>
<clipPath id="clip0_76852_220977">
<rect width="80" height="80" fill="white"/>
</clipPath>
</defs>
</svg>
