<svg width="80" height="81" viewBox="0 0 80 81" fill="none" xmlns="http://www.w3.org/2000/svg">
<path d="M40.1023 8.60684H28.6195C27.6789 8.60684 26.843 8.00527 26.5445 7.11152L25.1914 3.05371H43.532L42.1789 7.11152C42.0332 7.54699 41.7544 7.92566 41.3817 8.19399C41.0091 8.46232 40.5615 8.60674 40.1023 8.60684ZM50.3586 68.6558V71.074C50.3586 73.4178 48.4586 75.3178 46.1148 75.3178H27.3555C25.8461 75.3178 24.6211 76.5428 24.6211 78.0521H46.1148C49.9695 78.0521 53.093 74.9271 53.093 71.074V69.7417L50.3586 68.6558Z" fill="#E1EAF8"/>
<path d="M46.1148 78.601H22.607C18.457 78.601 15.082 75.2244 15.082 71.076V62.3447C15.082 62.0432 15.3273 61.7979 15.6289 61.7979C15.9305 61.7979 16.1758 62.0432 16.1758 62.3447V71.076C16.1758 74.6229 19.0617 77.5072 22.607 77.5072H46.1148C49.6617 77.5072 52.5461 74.6213 52.5461 71.076V69.7437C52.5461 69.4421 52.7914 69.1968 53.093 69.1968C53.3945 69.1968 53.6398 69.4421 53.6398 69.7437V71.076C53.6398 75.2244 50.2648 78.601 46.1148 78.601Z" fill="#9A9A9A"/>
<path d="M52.5461 10.0318V33.5777C52.5461 33.8792 52.7914 34.1245 53.093 34.1245C53.3945 34.1245 53.6398 33.8792 53.6398 33.5777V10.0318C53.6398 5.88184 50.2633 2.50684 46.1148 2.50684H22.607C18.457 2.50684 15.082 5.8834 15.082 10.0318V58.0912C15.082 58.3928 15.3273 58.6381 15.6289 58.6381C15.9305 58.6381 16.1758 58.3928 16.1758 58.0912V10.0318C16.1758 6.48496 19.0617 3.60059 22.607 3.60059H46.1148C49.6617 3.60059 52.5461 6.48652 52.5461 10.0318Z" fill="#9A9A9A"/>
<path d="M36.3133 45.2851C36.2321 45.2851 36.1492 45.2664 36.0711 45.2289L32.4242 43.4211C32.2969 43.3551 32.2006 43.2418 32.156 43.1055C32.1114 42.9692 32.1222 42.8209 32.1859 42.6925C32.2496 42.564 32.3612 42.4657 32.4967 42.4188C32.6321 42.3718 32.7806 42.3799 32.9102 42.4414L36.5555 44.2476C36.6854 44.3121 36.7844 44.4255 36.8307 44.5629C36.877 44.7003 36.8668 44.8505 36.8024 44.9804C36.7574 45.0718 36.6878 45.1488 36.6013 45.2026C36.5149 45.2565 36.4151 45.285 36.3133 45.2851ZM32.8867 59.4601C32.6852 59.4601 32.4899 59.3476 32.3946 59.1539C32.3309 59.0237 32.3214 58.8736 32.3683 58.7365C32.4151 58.5994 32.5145 58.4865 32.6446 58.4226L36.2992 56.632C36.4294 56.5683 36.5795 56.5588 36.7166 56.6057C36.8537 56.6526 36.9666 56.752 37.0305 56.882C37.0942 57.0121 37.1036 57.1622 37.0568 57.2993C37.0099 57.4365 36.9105 57.5493 36.7805 57.6133L33.1274 59.4039C33.0492 59.4429 32.9664 59.4601 32.8867 59.4601ZM70.3086 42.7231C70.1195 42.7231 69.9352 42.6247 69.8336 42.4481C69.7978 42.3859 69.7745 42.3172 69.7653 42.2459C69.756 42.1747 69.7609 42.1023 69.7796 42.0329C69.7983 41.9636 69.8305 41.8986 69.8744 41.8417C69.9182 41.7848 69.9729 41.7371 70.0352 41.7013L73.5617 39.6731C73.6874 39.6022 73.8361 39.5838 73.9753 39.6219C74.1145 39.6601 74.233 39.7517 74.3049 39.8768C74.3769 40.002 74.3964 40.1505 74.3594 40.29C74.3223 40.4295 74.2316 40.5487 74.107 40.6216L70.5805 42.6497C70.4961 42.6997 70.4008 42.7231 70.3086 42.7231ZM59.8852 36.031C59.8072 36.0311 59.7301 36.0146 59.6591 35.9825C59.5881 35.9504 59.5248 35.9035 59.4734 35.8449C59.422 35.7862 59.3838 35.7173 59.3613 35.6427C59.3388 35.568 59.3326 35.4895 59.343 35.4122L59.8836 31.3794C59.9242 31.0794 60.1992 30.8685 60.4977 30.9106C60.7977 30.9513 61.007 31.2263 60.9664 31.5247L60.4258 35.5575C60.4081 35.6884 60.3436 35.8085 60.2442 35.8955C60.1448 35.9826 60.0173 36.0307 59.8852 36.031Z" fill="#0166FF"/>
<path d="M45.668 15.5537H24.8977C24.0352 15.5537 23.3352 16.2537 23.3352 17.1162V29.8943C23.3352 30.7568 24.0352 31.4568 24.8977 31.4568H28.7477H45.668C46.5305 31.4568 47.2305 30.7568 47.2305 29.8943V17.1162C47.2305 16.2537 46.5305 15.5537 45.668 15.5537Z" fill="#E1EAF8"/>
<path d="M28.6219 18.9648H41.9406C42.2422 18.9648 42.4875 19.2102 42.4875 19.5117C42.4875 19.8133 42.2422 20.0586 41.9406 20.0586H28.6219C28.3203 20.0586 28.075 19.8133 28.075 19.5117C28.075 19.2102 28.3203 18.9648 28.6219 18.9648Z" fill="white"/>
<path d="M41.9406 27.6227H28.6219C28.3187 27.6227 28.075 27.3773 28.075 27.0758C28.075 26.7742 28.3203 26.5289 28.6219 26.5289H41.9406C42.2422 26.5289 42.4875 26.7742 42.4875 27.0758C42.4875 27.3773 42.2422 27.6227 41.9406 27.6227Z" fill="white"/>
<path d="M43.5312 23.8414H27.0312C26.7281 23.8414 26.4844 23.5961 26.4844 23.2945C26.4844 22.993 26.7297 22.7477 27.0312 22.7477H43.5312C43.8328 22.7477 44.0781 22.993 44.0781 23.2945C44.0781 23.5961 43.8328 23.8414 43.5312 23.8414Z" fill="white"/>
<path d="M53 40.5537C59.6276 40.5537 65 45.9261 65 52.5537C65 59.1813 59.6276 64.5537 53 64.5537C46.3724 64.5537 41 59.1813 41 52.5537C41 45.9261 46.3724 40.5537 53 40.5537ZM52.998 46.8545C52.7595 46.8546 52.531 46.9495 52.3623 47.1182C52.1936 47.2869 52.0987 47.5153 52.0986 47.7539V52.5547C52.099 52.7931 52.1936 53.0219 52.3623 53.1904L55.3623 56.1904C55.4446 56.2787 55.544 56.3493 55.6543 56.3984C55.7647 56.4476 55.8841 56.4744 56.0049 56.4766C56.1256 56.4787 56.2455 56.4563 56.3574 56.4111C56.4695 56.3659 56.5718 56.2984 56.6572 56.2129C56.7426 56.1275 56.8102 56.026 56.8555 55.9141C56.9007 55.802 56.923 55.6814 56.9209 55.5605C56.9187 55.4398 56.8919 55.3203 56.8428 55.21C56.7936 55.0998 56.723 55.0002 56.6348 54.918L53.8984 52.1826V47.7539C53.8983 47.5154 53.8034 47.2868 53.6348 47.1182C53.466 46.9494 53.2367 46.8545 52.998 46.8545Z" fill="#0166FF"/>
</svg>
