<svg width="80" height="80" viewBox="0 0 80 80" fill="none" xmlns="http://www.w3.org/2000/svg">
<path d="M44.275 12.2672C44.2003 12.3361 44.1027 12.3751 44.001 12.3766H34.3864C34.045 12.3766 33.873 11.9866 34.109 11.7579L35.6877 10.2352C35.7611 10.1641 35.8589 10.1238 35.961 10.1226H45.6137C45.9584 10.1226 46.127 10.5159 45.887 10.7452L44.275 12.2672ZM44.275 19.7719C44.2004 19.8405 44.1024 19.8781 44.001 19.8772H34.3864C34.045 19.8772 33.873 19.4906 34.109 19.2619L35.6877 17.7359C35.7617 17.6663 35.8594 17.6274 35.961 17.6272H45.6137C45.9584 17.6272 46.127 18.0172 45.887 18.2459L44.275 19.7719ZM44.275 13.9819C44.2003 13.9136 44.1023 13.8762 44.001 13.8772H34.3864C34.045 13.8772 33.873 14.2639 34.109 14.4919L35.6877 16.0186C35.7624 16.0871 35.8597 16.1257 35.961 16.1272H45.6137C45.9584 16.1272 46.127 15.7372 45.887 15.5086L44.275 13.9819Z" fill="#9A9A9A"/>
<circle cx="40" cy="15" r="13.5" stroke="#9A9A9A"/>
<circle cx="56" cy="38" r="17.5" fill="#FAFBFF" stroke="#9A9A9A"/>
<path d="M55.7742 23.3496C48.7914 23.3496 42.9742 28.3434 41.6992 34.9543C47.2055 38.6293 51.0508 44.5934 51.8773 51.4855C53.1456 51.842 54.4568 52.0223 55.7742 52.0215C63.6914 52.0215 70.1102 45.6027 70.1102 37.6855C70.1102 29.7684 63.693 23.3496 55.7742 23.3496Z" fill="#0166FF"/>
<circle cx="30" cy="54" r="23.4" fill="#FAFBFF" stroke="#9A9A9A" stroke-width="1.2"/>
<mask id="path-6-inside-1_69744_106969" fill="white">
<path d="M12.3274 61.8978C12.0032 62.0427 11.6219 61.8976 11.4875 61.5689C9.67421 57.1341 9.51081 52.1875 11.0408 47.6321C12.6392 42.8733 15.9688 38.8895 20.3684 36.472C24.768 34.0544 29.916 33.3798 34.79 34.5821C39.664 35.7844 43.9076 38.7757 46.6782 42.962C49.4488 47.1483 50.5437 52.2235 49.7456 57.1798C48.9475 62.136 46.3146 66.6109 42.3699 69.7158C38.4251 72.8207 33.457 74.3286 28.4519 73.94C23.6609 73.568 19.1715 71.4844 15.7981 68.0821C15.5481 67.83 15.5636 67.4223 15.8236 67.1805C16.0837 66.9387 16.4898 66.9544 16.7404 67.206C19.8936 70.3722 24.0823 72.311 28.5515 72.6579C33.2347 73.0215 37.8834 71.6106 41.5746 68.7053C45.2657 65.8 47.7292 61.6129 48.4761 56.9753C49.2229 52.3377 48.1983 47.5889 45.6059 43.6717C43.0134 39.7545 39.0426 36.9556 34.482 35.8306C29.9214 34.7055 25.1044 35.3368 20.9877 37.5989C16.8709 39.8611 13.7554 43.5887 12.2598 48.0416C10.8326 52.2909 10.9801 56.9042 12.6622 61.044C12.7959 61.373 12.6516 61.753 12.3274 61.8978Z"/>
</mask>
<path d="M12.3274 61.8978C12.0032 62.0427 11.6219 61.8976 11.4875 61.5689C9.67421 57.1341 9.51081 52.1875 11.0408 47.6321C12.6392 42.8733 15.9688 38.8895 20.3684 36.472C24.768 34.0544 29.916 33.3798 34.79 34.5821C39.664 35.7844 43.9076 38.7757 46.6782 42.962C49.4488 47.1483 50.5437 52.2235 49.7456 57.1798C48.9475 62.136 46.3146 66.6109 42.3699 69.7158C38.4251 72.8207 33.457 74.3286 28.4519 73.94C23.6609 73.568 19.1715 71.4844 15.7981 68.0821C15.5481 67.83 15.5636 67.4223 15.8236 67.1805C16.0837 66.9387 16.4898 66.9544 16.7404 67.206C19.8936 70.3722 24.0823 72.311 28.5515 72.6579C33.2347 73.0215 37.8834 71.6106 41.5746 68.7053C45.2657 65.8 47.7292 61.6129 48.4761 56.9753C49.2229 52.3377 48.1983 47.5889 45.6059 43.6717C43.0134 39.7545 39.0426 36.9556 34.482 35.8306C29.9214 34.7055 25.1044 35.3368 20.9877 37.5989C16.8709 39.8611 13.7554 43.5887 12.2598 48.0416C10.8326 52.2909 10.9801 56.9042 12.6622 61.044C12.7959 61.373 12.6516 61.753 12.3274 61.8978Z" stroke="#9A9A9A" stroke-width="2.4" mask="url(#path-6-inside-1_69744_106969)"/>
<path d="M31.3419 67.5816C29.9091 68.4722 30.5513 70.6831 32.2372 70.6659C35.9091 70.6284 39.5685 69.2097 42.37 66.4081C46.445 62.3331 47.5966 56.4409 45.8216 51.3394C45.1372 49.3706 42.2731 49.5894 41.9247 51.6441C40.7716 58.4628 37.3481 63.8488 31.3419 67.5816Z" fill="#E1EAF8"/>
<path d="M30.0412 41.1784L30.0385 41.1665V41.1903L28.2103 49.1077L30.0385 53.0258V53.0375L30.0412 53.0317L30.0439 53.0375V53.0258L31.8721 49.1077L30.044 41.1903V41.1665L30.0412 41.1784Z" fill="#9A9A9A"/>
<path d="M29.9656 66.8213L29.9683 66.8332V66.8094L31.7965 58.892L29.9683 54.9739V54.9622L29.9656 54.968L29.9629 54.9622V54.9739L28.1347 58.892L29.9628 66.8094V66.8332L29.9656 66.8213Z" fill="#9A9A9A"/>
<path d="M41.0708 47.3224L41.0817 47.3117L41.0563 47.3273L33.3121 49.9505L30.9171 53.552L30.9054 53.5592L30.9129 53.5583L30.9083 53.5652L30.9212 53.5573L35.2392 53.0376L41.0604 47.3326L41.0846 47.3177L41.0708 47.3224Z" fill="#9A9A9A"/>
<path d="M18.9312 60.6778L18.9209 60.6879L18.9448 60.6732L26.6905 58.0495L29.086 54.4472L29.0972 54.4404L29.09 54.4412L29.0943 54.4347L29.0822 54.4422L24.7634 54.962L18.9411 60.6681L18.918 60.6823L18.9312 60.6778Z" fill="#9A9A9A"/>
<path d="M18.9565 47.2798L18.9453 47.276L18.9649 47.2881L24.7681 53.0202L29.0875 53.5571L29.0969 53.5629L29.0935 53.5578L29.0998 53.5586L29.0901 53.5526L26.7074 49.9389L18.9675 47.2836L18.9482 47.2716L18.9565 47.2798Z" fill="#9A9A9A"/>
<path d="M41.0469 60.7213L41.0584 60.7252L41.0383 60.7128L35.2354 54.981L30.9163 54.4441L30.9068 54.4382L30.9102 54.4433L30.9037 54.4425L30.9138 54.4488L33.2963 58.0623L41.0358 60.7175L41.0553 60.7295L41.0469 60.7213Z" fill="#9A9A9A"/>
<path d="M56.5017 29L51.2812 37.6558L56.5017 40.7399L61.7221 37.6558L56.5017 29ZM56.5017 46L51.2812 38.6454L56.5017 41.75L61.7221 38.6454L56.5017 46Z" fill="white"/>
</svg>
