<svg width="48" height="48" viewBox="0 0 48 48" fill="none" xmlns="http://www.w3.org/2000/svg">
<path d="M24.0612 4.83188H17.1715C16.6071 4.83188 16.1056 4.47094 15.9265 3.93469L15.1146 1.5H26.119L25.3071 3.93469C25.2197 4.19597 25.0524 4.42317 24.8288 4.58417C24.6053 4.74517 24.3367 4.83182 24.0612 4.83188ZM30.215 40.8612V42.3122C30.215 43.7184 29.075 44.8584 27.6687 44.8584H16.4131C15.5075 44.8584 14.7725 45.5934 14.7725 46.4991H27.6687C29.9815 46.4991 31.8556 44.6241 31.8556 42.3122V41.5128L30.215 40.8612Z" fill="#E1EAF8"/>
<path d="M27.6695 46.828H13.5648C11.0748 46.828 9.0498 44.8021 9.0498 42.313V37.0743C9.0498 36.8934 9.19699 36.7462 9.37793 36.7462C9.55887 36.7462 9.70605 36.8934 9.70605 37.0743V42.313C9.70605 44.4412 11.4376 46.1718 13.5648 46.1718H27.6695C29.7976 46.1718 31.5282 44.4402 31.5282 42.313V32.5137C31.5282 32.3327 31.6754 32.1855 31.8564 32.1855C32.0373 32.1855 32.1845 32.3327 32.1845 32.5137V42.313C32.1845 44.8021 30.1595 46.828 27.6695 46.828Z" fill="#9A9A9A"/>
<path d="M31.5273 5.68687V11.8144C31.5273 11.9953 31.6745 12.1425 31.8554 12.1425C32.0363 12.1425 32.1835 11.9953 32.1835 11.8144V5.68687C32.1835 3.19687 30.1576 1.17188 27.6685 1.17188H13.5638C11.0738 1.17188 9.04883 3.19781 9.04883 5.68687V34.5225C9.04883 34.7034 9.19602 34.8506 9.37695 34.8506C9.55789 34.8506 9.70508 34.7034 9.70508 34.5225V5.68687C9.70508 3.55875 11.4366 1.82812 13.5638 1.82812H27.6685C29.7966 1.82812 31.5273 3.55969 31.5273 5.68687Z" fill="#9A9A9A"/>
<path d="M21.7885 18.8393C21.7397 18.8393 21.69 18.8281 21.6432 18.8056L19.455 17.7209C19.3786 17.6813 19.3209 17.6133 19.2941 17.5316C19.2673 17.4498 19.2738 17.3608 19.312 17.2837C19.3502 17.2067 19.4172 17.1477 19.4985 17.1195C19.5798 17.0913 19.6689 17.0962 19.7466 17.1331L21.9338 18.2168C22.0117 18.2555 22.0711 18.3236 22.0989 18.406C22.1267 18.4885 22.1206 18.5786 22.0819 18.6565C22.0549 18.7113 22.0131 18.7575 21.9613 18.7898C21.9094 18.8221 21.8496 18.8393 21.7885 18.8393ZM19.7325 27.3443C19.6116 27.3443 19.4944 27.2768 19.4372 27.1606C19.399 27.0825 19.3933 26.9924 19.4215 26.9102C19.4496 26.8279 19.5092 26.7602 19.5872 26.7218L21.78 25.6475C21.8581 25.6092 21.9482 25.6036 22.0304 25.6317C22.1127 25.6598 22.1804 25.7194 22.2188 25.7975C22.257 25.8755 22.2627 25.9656 22.2346 26.0479C22.2064 26.1301 22.1468 26.1979 22.0688 26.2362L19.8769 27.3106C19.83 27.334 19.7803 27.3443 19.7325 27.3443ZM42.1857 17.3021C42.0722 17.3021 41.9616 17.2431 41.9007 17.1371C41.8791 17.0998 41.8652 17.0586 41.8597 17.0158C41.8541 16.9731 41.857 16.9296 41.8682 16.888C41.8795 16.8464 41.8988 16.8074 41.9251 16.7733C41.9514 16.7391 41.9842 16.7105 42.0216 16.689L44.1375 15.4721C44.2129 15.4296 44.3021 15.4185 44.3857 15.4414C44.4692 15.4643 44.5403 15.5193 44.5834 15.5944C44.6266 15.6694 44.6383 15.7585 44.6161 15.8422C44.5939 15.9259 44.5395 15.9975 44.4647 16.0412L42.3488 17.2581C42.2982 17.2881 42.241 17.3021 42.1857 17.3021ZM35.9316 13.2868C35.8848 13.2869 35.8386 13.277 35.796 13.2578C35.7533 13.2385 35.7153 13.2104 35.6845 13.1752C35.6537 13.14 35.6308 13.0986 35.6173 13.0539C35.6038 13.0091 35.6 12.9619 35.6063 12.9156L35.9307 10.4959C35.955 10.3159 36.12 10.1893 36.2991 10.2146C36.4791 10.239 36.6047 10.404 36.5803 10.5831L36.256 13.0028C36.2453 13.0813 36.2066 13.1534 36.147 13.2056C36.0874 13.2578 36.0109 13.2867 35.9316 13.2868Z" fill="#0166FF"/>
<path d="M38.5049 19.334C38.5049 18.2293 36.4155 17.334 33.838 17.334C31.2606 17.334 29.1712 18.2293 29.1712 19.334M38.5049 19.334V22.0007C38.5049 22.6807 37.7142 23.2807 36.5048 23.642C35.7488 23.8687 34.8294 24.0007 33.838 24.0007C32.8467 24.0007 31.9273 23.868 31.1713 23.642C29.9625 23.2807 29.1712 22.6807 29.1712 22.0007V19.334M38.5049 19.334C38.5049 20.014 37.7142 20.614 36.5048 20.9753C35.7488 21.202 34.8294 21.334 33.838 21.334C32.8467 21.334 31.9273 21.2013 31.1713 20.9753C29.9625 20.614 29.1712 20.014 29.1712 19.334M26.5044 22.0007V24.6673C26.5044 25.3473 27.2958 25.9473 28.5045 26.3087C29.2605 26.5353 30.1799 26.6673 31.1713 26.6673C32.1626 26.6673 33.082 26.5347 33.838 26.3087C35.0468 25.9473 35.8381 25.3473 35.8381 24.6673V24.0007M26.5044 22.0007C26.5044 21.2027 27.5944 20.514 29.1712 20.1933M26.5044 22.0007C26.5044 22.6807 27.2958 23.2807 28.5045 23.642C29.2605 23.8687 30.1799 24.0007 31.1713 24.0007C31.6346 24.0007 32.082 23.972 32.5046 23.918" stroke="#0166FF" stroke-width="0.8" stroke-linecap="round" stroke-linejoin="round"/>
</svg>
