<svg width="60" height="60" viewBox="0 0 60 60" fill="none" xmlns="http://www.w3.org/2000/svg">
<path d="M30.0768 6.03984H21.4646C20.7592 6.03984 20.1322 5.58867 19.9084 4.91836L18.8936 1.875H32.649L31.6342 4.91836C31.5249 5.24496 31.3158 5.52896 31.0363 5.73021C30.7568 5.93146 30.4212 6.03977 30.0768 6.03984ZM37.7689 51.0766V52.8902C37.7689 54.648 36.3439 56.073 34.5861 56.073H20.5166C19.3846 56.073 18.4658 56.9918 18.4658 58.1238H34.5861C37.4771 58.1238 39.8197 55.7801 39.8197 52.8902V51.891L37.7689 51.0766Z" fill="#E1EAF8"/>
<path d="M34.5866 58.535H16.9558C13.8433 58.535 11.312 56.0025 11.312 52.8912V46.3428C11.312 46.1166 11.496 45.9326 11.7222 45.9326C11.9483 45.9326 12.1323 46.1166 12.1323 46.3428V52.8912C12.1323 55.5514 14.2968 57.7146 16.9558 57.7146H34.5866C37.2468 57.7146 39.4101 55.5502 39.4101 52.8912V51.892C39.4101 51.6658 39.594 51.4818 39.8202 51.4818C40.0464 51.4818 40.2304 51.6658 40.2304 51.892V52.8912C40.2304 56.0025 37.6991 58.535 34.5866 58.535Z" fill="#9A9A9A"/>
<path d="M39.4091 7.10859V24.768C39.4091 24.9941 39.5931 25.1781 39.8192 25.1781C40.0454 25.1781 40.2294 24.9941 40.2294 24.768V7.10859C40.2294 3.99609 37.697 1.46484 34.5856 1.46484H16.9548C13.8423 1.46484 11.311 3.99727 11.311 7.10859V43.1531C11.311 43.3793 11.495 43.5633 11.7212 43.5633C11.9474 43.5633 12.1313 43.3793 12.1313 43.1531V7.10859C12.1313 4.44844 14.2958 2.28516 16.9548 2.28516H34.5856C37.2458 2.28516 39.4091 4.44961 39.4091 7.10859Z" fill="#9A9A9A"/>
<path d="M27.2355 33.5486C27.1745 33.5486 27.1124 33.5345 27.0538 33.5064L24.3187 32.1505C24.2232 32.1011 24.1509 32.0161 24.1175 31.9139C24.0841 31.8117 24.0921 31.7004 24.1399 31.6041C24.1877 31.5077 24.2714 31.434 24.373 31.3988C24.4746 31.3636 24.586 31.3697 24.6831 31.4157L27.4171 32.7704C27.5145 32.8188 27.5888 32.9038 27.6235 33.0069C27.6582 33.11 27.6506 33.2226 27.6023 33.32C27.5685 33.3886 27.5163 33.4463 27.4515 33.4867C27.3867 33.5271 27.3118 33.5485 27.2355 33.5486ZM24.6655 44.1798C24.5144 44.1798 24.3679 44.0954 24.2964 43.9501C24.2486 43.8525 24.2415 43.7399 24.2767 43.6371C24.3118 43.5343 24.3864 43.4496 24.4839 43.4017L27.2249 42.0587C27.3225 42.0109 27.4351 42.0039 27.5379 42.039C27.6408 42.0742 27.7254 42.1487 27.7734 42.2462C27.8211 42.3438 27.8282 42.4564 27.7931 42.5592C27.7579 42.6621 27.6834 42.7467 27.5859 42.7947L24.846 44.1376C24.7874 44.1669 24.7253 44.1798 24.6655 44.1798ZM52.7319 31.6271C52.5902 31.6271 52.4519 31.5532 52.3757 31.4208C52.3488 31.3741 52.3314 31.3226 52.3244 31.2692C52.3175 31.2157 52.3211 31.1614 52.3352 31.1094C52.3492 31.0574 52.3734 31.0086 52.4063 30.966C52.4392 30.9233 52.4801 30.8875 52.5269 30.8607L55.1718 29.3396C55.2661 29.2864 55.3775 29.2725 55.4819 29.3012C55.5864 29.3298 55.6752 29.3985 55.7292 29.4923C55.7831 29.5862 55.7978 29.6976 55.77 29.8022C55.7422 29.9068 55.6742 29.9962 55.5808 30.0509L52.9359 31.572C52.8726 31.6095 52.8011 31.6271 52.7319 31.6271ZM44.9144 26.6079C44.8559 26.6081 44.7981 26.5957 44.7448 26.5716C44.6916 26.5475 44.6441 26.5123 44.6055 26.4684C44.567 26.4244 44.5383 26.3727 44.5215 26.3167C44.5046 26.2607 44.4999 26.2018 44.5077 26.1439L44.9132 23.1193C44.9437 22.8943 45.1499 22.7361 45.3737 22.7677C45.5987 22.7982 45.7558 23.0044 45.7253 23.2282L45.3198 26.2529C45.3066 26.351 45.2582 26.4411 45.1836 26.5064C45.1091 26.5716 45.0135 26.6077 44.9144 26.6079Z" fill="#0166FF"/>
<path d="M39.3386 47.425C40.8446 47.425 42.2954 47.0707 43.5976 46.4014L44.1842 46.9879C44.4058 47.2096 44.696 47.3199 44.987 47.3199C45.2781 47.3199 45.5682 47.2096 45.7899 46.9879L47.9866 44.7913L52.7262 49.5308C53.262 50.0666 53.262 50.9389 52.7262 51.4756C52.4663 51.7354 52.1209 51.8779 51.7542 51.8779C51.3875 51.8779 51.0422 51.7346 50.7823 51.4756L46.8918 47.5852C46.7698 47.4632 46.5731 47.4632 46.4512 47.5852C46.3293 47.7071 46.3293 47.9038 46.4512 48.0257L50.3408 51.9152C50.7182 52.2926 51.2202 52.5 51.7533 52.5C52.2874 52.5 52.7885 52.2926 53.1659 51.9143C53.9447 51.1356 53.9447 49.8681 53.1659 49.0893L48.4076 44.3312C48.6897 43.8924 48.639 43.2996 48.2554 42.916L47.6635 42.3241C48.3248 41.0282 48.6755 39.5845 48.6755 38.0875C48.6755 35.5936 47.7044 33.2492 45.9403 31.4851C44.1771 29.7219 41.8317 28.75 39.3377 28.75C36.8438 28.75 34.4993 29.721 32.7352 31.4851C30.972 33.2483 30 35.5936 30 38.0875C30 40.5814 30.9711 42.9258 32.7352 44.6898C34.4993 46.453 36.8447 47.425 39.3386 47.425ZM47.8148 43.3566C47.9105 43.4526 47.9643 43.5827 47.9643 43.7184C47.9643 43.854 47.9105 43.9841 47.8148 44.0802L45.3484 46.5465C45.2523 46.6422 45.1222 46.696 44.9866 46.696C44.8509 46.696 44.7208 46.6422 44.6248 46.5465L44.1628 46.0845C44.8019 45.6974 45.3991 45.231 45.9403 44.689C46.4877 44.1416 46.9594 43.5372 47.3484 42.8902L47.8148 43.3566ZM33.1767 31.9257C34.8224 30.28 37.0111 29.373 39.3386 29.373C41.6662 29.373 43.8549 30.2791 45.5006 31.9257C47.1463 33.5714 48.0533 35.76 48.0533 38.0875C48.0533 40.4149 47.1472 42.6036 45.5006 44.2493C43.8549 45.895 41.6662 46.8019 39.3386 46.8019C37.0111 46.8019 34.8224 45.8959 33.1767 44.2493C31.5309 42.6036 30.6239 40.4149 30.6239 38.0875C30.6239 35.76 31.5309 33.5723 33.1767 31.9257Z" fill="#9A9A9A"/>
<path d="M34.2505 11.25H18.6728C18.0259 11.25 17.5009 11.775 17.5009 12.4219V22.0055C17.5009 22.6523 18.0259 23.1773 18.6728 23.1773H21.5603H34.2505C34.8974 23.1773 35.4224 22.6523 35.4224 22.0055V12.4219C35.4224 11.775 34.8974 11.25 34.2505 11.25Z" fill="#0166FF"/>
<path d="M21.4669 13.8086H31.456C31.6821 13.8086 31.8661 13.9926 31.8661 14.2188C31.8661 14.4449 31.6821 14.6289 31.456 14.6289H21.4669C21.2407 14.6289 21.0567 14.4449 21.0567 14.2188C21.0567 13.9926 21.2407 13.8086 21.4669 13.8086Z" fill="white"/>
<path d="M31.456 20.302H21.4669C21.2396 20.302 21.0567 20.118 21.0567 19.8918C21.0567 19.6656 21.2407 19.4816 21.4669 19.4816H31.456C31.6821 19.4816 31.8661 19.6656 31.8661 19.8918C31.8661 20.118 31.6821 20.302 31.456 20.302Z" fill="white"/>
<path d="M32.6489 17.466H20.2739C20.0466 17.466 19.8638 17.282 19.8638 17.0559C19.8638 16.8297 20.0478 16.6457 20.2739 16.6457H32.6489C32.8751 16.6457 33.0591 16.8297 33.0591 17.0559C33.0591 17.282 32.8751 17.466 32.6489 17.466Z" fill="white"/>
<path d="M44.2363 33.2637C41.5513 30.5788 37.1987 30.5788 34.5137 33.2637C31.8288 35.9487 31.8288 40.3013 34.5137 42.9863C37.1987 45.6712 41.5513 45.6712 44.2363 42.9863C46.9212 40.3013 46.9212 35.9479 44.2363 33.2637ZM43.6971 34.2152C43.67 34.2422 43.6379 34.2637 43.6025 34.2783C43.5671 34.2929 43.5292 34.3004 43.4909 34.3003C43.4158 34.3003 43.3415 34.272 43.284 34.2144C42.3851 33.3155 41.1949 32.7504 39.9329 32.6236C39.8948 32.6198 39.8577 32.6085 39.8239 32.5904C39.7902 32.5723 39.7603 32.5476 39.736 32.518C39.7117 32.4883 39.6936 32.4541 39.6825 32.4173C39.6715 32.3806 39.6678 32.3421 39.6717 32.3039C39.6755 32.2658 39.6868 32.2287 39.7049 32.1949C39.723 32.1611 39.7476 32.1312 39.7773 32.107C39.807 32.0827 39.8412 32.0645 39.8779 32.0535C39.9147 32.0425 39.9532 32.0388 39.9914 32.0427C41.3869 32.1837 42.7031 32.808 43.6971 33.8021C43.7243 33.8292 43.7458 33.8614 43.7606 33.8968C43.7753 33.9323 43.7828 33.9703 43.7828 34.0086C43.7828 34.047 43.7753 34.085 43.7606 34.1205C43.7458 34.1559 43.7243 34.1881 43.6971 34.2152ZM44.737 35.8369C44.6961 35.8569 44.6519 35.8661 44.6093 35.8661C44.5008 35.8661 44.3973 35.806 44.3464 35.7017C44.2589 35.5221 44.1616 35.3474 44.0551 35.1784C43.9692 35.0423 44.0101 34.8612 44.1461 34.7752C44.2822 34.6893 44.4633 34.7302 44.5492 34.8662C44.6669 35.0523 44.7754 35.2476 44.8714 35.4446C44.9424 35.5915 44.8823 35.7659 44.737 35.8369Z" fill="#E1EAF8"/>
</svg>
