<svg width="80" height="80" viewBox="0 0 80 80" fill="none" xmlns="http://www.w3.org/2000/svg">
<path d="M59.7996 23.7937V66.1843C59.7996 69.3062 57.2684 71.8375 54.1465 71.8375H25.3699C23.6043 71.8375 21.9668 72.7609 21.0527 74.2734H60.2777C61.2152 74.2734 61.9762 73.514 61.9762 72.575V19.6421L61.834 19.7484C61.2028 20.2172 60.6901 20.8273 60.3369 21.5297C59.9836 22.2321 59.7996 23.0075 59.7996 23.7937Z" fill="#E1EAF8"/>
<path d="M28.5723 33.8086H23.291C22.7426 33.8086 22.2988 33.3648 22.2988 32.8164V27.5352C22.2988 26.9867 22.7426 26.543 23.291 26.543H28.5723C29.1207 26.543 29.5645 26.9867 29.5645 27.5352V32.8164C29.5645 33.3633 29.1207 33.8086 28.5723 33.8086ZM28.5723 46.1117H23.291C22.7426 46.1117 22.2988 45.668 22.2988 45.1195V39.8383C22.2988 39.2898 22.7426 38.8461 23.291 38.8461H28.5723C29.1207 38.8461 29.5645 39.2898 29.5645 39.8383V45.1195C29.5645 45.6664 29.1207 46.1117 28.5723 46.1117ZM28.5723 58.4133H23.291C22.7426 58.4133 22.2988 57.9695 22.2988 57.4211V52.1398C22.2988 51.5914 22.7426 51.1477 23.291 51.1477H28.5723C29.1207 51.1477 29.5645 51.5914 29.5645 52.1398V57.4211C29.5645 57.9695 29.1207 58.4133 28.5723 58.4133Z" fill="#0166FF"/>
<path d="M50.0525 7.05312H63.0135C64.5213 7.05312 65.7479 8.27968 65.7479 9.7875V75.3125C65.7479 76.8203 64.5213 78.0469 63.0135 78.0469H16.9854C15.4775 78.0469 14.251 76.8203 14.251 75.3125V22.6016C14.251 22.3 14.4963 22.0547 14.7979 22.0547C15.0994 22.0547 15.3447 22.3 15.3447 22.6016V75.3125C15.3447 76.2172 16.0807 76.9531 16.9854 76.9531H63.0135C63.9182 76.9531 64.6541 76.2172 64.6541 75.3125V9.7875C64.6541 8.88281 63.9182 8.14687 63.0135 8.14687H50.0525H29.9479H16.9869C16.0822 8.14687 15.3463 8.88281 15.3463 9.7875V18.3906C15.3463 18.6922 15.101 18.9375 14.7994 18.9375C14.4979 18.9375 14.2525 18.6922 14.2525 18.3906V9.7875C14.2525 8.27968 15.4791 7.05312 16.9869 7.05312H29.9479H50.0525Z" fill="#9A9A9A"/>
<path d="M18.4369 10.2781H29.9479H47.7869C48.0885 10.2781 48.333 10.5226 48.333 10.8242C48.333 11.1258 48.0885 11.3703 47.7869 11.3703H29.9463H18.5697V73.7281H61.4291V11.3703H53.0838C52.7822 11.3703 52.5369 11.125 52.5369 10.8234C52.5369 10.5219 52.7822 10.2766 53.0838 10.2766H61.5619C62.0916 10.2766 62.5229 10.7078 62.5229 11.2375V73.8625C62.5229 74.3922 62.0916 74.8234 61.5619 74.8234H18.4369C17.9072 74.8234 17.476 74.3922 17.476 73.8625V11.2391C17.476 10.7094 17.9072 10.2781 18.4369 10.2781Z" fill="#9A9A9A"/>
<path d="M43.6607 15.5697H36.3389C36.0373 15.5697 35.792 15.815 35.792 16.1165C35.792 16.4181 36.0373 16.6634 36.3389 16.6634H43.6607C43.9623 16.6634 44.2076 16.4181 44.2076 16.1165C44.2076 15.815 43.9623 15.5697 43.6607 15.5697ZM55.1826 27.378H32.1904C31.8889 27.378 31.6436 27.6233 31.6436 27.9249C31.6436 28.2264 31.8889 28.4717 32.1904 28.4717H55.1811C55.4826 28.4717 55.7279 28.2264 55.7279 27.9249C55.7279 27.6233 55.4842 27.378 55.1826 27.378ZM32.1904 32.9702H53.1982C53.4998 32.9702 53.7451 32.7249 53.7451 32.4233C53.7451 32.1217 53.4998 31.8764 53.1982 31.8764H32.1904C31.8889 31.8764 31.6436 32.1217 31.6436 32.4233C31.6436 32.7249 31.8889 32.9702 32.1904 32.9702ZM55.1826 39.6796H32.1904C31.8889 39.6796 31.6436 39.9249 31.6436 40.2264C31.6436 40.528 31.8889 40.7733 32.1904 40.7733H55.1811C55.4826 40.7733 55.7279 40.528 55.7279 40.2264C55.7279 39.9249 55.4842 39.6796 55.1826 39.6796ZM32.1904 45.2733H53.1982C53.4998 45.2733 53.7451 45.028 53.7451 44.7264C53.7451 44.4249 53.4998 44.1796 53.1982 44.1796H32.1904C31.8889 44.1796 31.6436 44.4249 31.6436 44.7264C31.6436 45.028 31.8889 45.2733 32.1904 45.2733ZM55.7295 52.5296C55.7295 52.228 55.4842 51.9827 55.1826 51.9827H32.1904C31.8889 51.9827 31.6436 52.228 31.6436 52.5296C31.6436 52.8311 31.8889 53.0764 32.1904 53.0764H55.1811C55.4842 53.0764 55.7295 52.8311 55.7295 52.5296ZM32.1904 56.4811C31.8889 56.4811 31.6436 56.7264 31.6436 57.028C31.6436 57.3296 31.8889 57.5749 32.1904 57.5749H53.1982C53.4998 57.5749 53.7451 57.3296 53.7451 57.028C53.7451 56.7264 53.4998 56.4811 53.1982 56.4811H32.1904Z" fill="#9A9A9A"/>
<path d="M72.7459 48.867C72.6541 48.867 72.5639 48.8439 72.4834 48.7998L68.9146 46.8451C68.8516 46.8107 68.796 46.7642 68.7509 46.7082C68.7059 46.6523 68.6723 46.588 68.6521 46.5191C68.6319 46.4501 68.6256 46.3779 68.6333 46.3065C68.6411 46.2351 68.6629 46.1659 68.6975 46.1029C68.8428 45.8373 69.1756 45.7404 69.4396 45.8857L73.0084 47.8404C73.274 47.9857 73.3709 48.3185 73.2256 48.5826C73.1786 48.6688 73.1093 48.7407 73.0248 48.7908C72.9404 48.8408 72.844 48.8672 72.7459 48.867ZM69.4646 34.5279C69.2537 34.5279 69.0537 34.406 68.9631 34.2014C68.8412 33.9248 68.9678 33.6029 69.2428 33.481L72.9662 31.8435C73.2428 31.7217 73.5646 31.8467 73.6865 32.1232C73.8084 32.3998 73.6818 32.7217 73.4068 32.8435L69.6834 34.481C69.6131 34.5139 69.5381 34.5279 69.4646 34.5279ZM7.25214 48.867C7.05839 48.867 6.87089 48.7639 6.77245 48.5826C6.73791 48.5196 6.71612 48.4505 6.70834 48.3791C6.70056 48.3076 6.70694 48.2354 6.72711 48.1665C6.74728 48.0975 6.78085 48.0332 6.8259 47.9773C6.87095 47.9214 6.92659 47.8748 6.98964 47.8404L10.5584 45.8857C10.8225 45.7404 11.1553 45.8373 11.3006 46.1029C11.4459 46.367 11.349 46.6998 11.0834 46.8451L7.51464 48.7998C7.43026 48.8451 7.3412 48.867 7.25214 48.867ZM10.5334 34.5279C10.46 34.5279 10.385 34.5123 10.3131 34.481L6.58808 32.8435C6.31151 32.7217 6.18652 32.3998 6.30839 32.1232C6.43027 31.8467 6.75214 31.7217 7.0287 31.8435L10.7521 33.481C11.0287 33.6029 11.1537 33.9248 11.0318 34.2014C10.9443 34.406 10.7428 34.5279 10.5334 34.5279Z" fill="#0166FF"/>
</svg>
