<svg width="80" height="80" viewBox="0 0 80 80" fill="none" xmlns="http://www.w3.org/2000/svg">
<path d="M44.343 8.7082C45.468 8.7082 46.3836 7.79258 46.3836 6.66758C46.3836 5.54258 45.468 4.62695 44.343 4.62695H35.6523C34.5273 4.62695 33.6117 5.54258 33.6117 6.66758C33.6117 7.79258 34.5273 8.7082 35.6523 8.7082H44.343ZM45.2898 6.66758C45.2898 7.18945 44.8648 7.61445 44.343 7.61445H42.1352C42.7555 7.17383 43.1961 6.50039 43.3336 5.72227H44.343C44.8648 5.7207 45.2898 6.1457 45.2898 6.66758ZM30.543 73.7723C30.543 74.0738 30.7883 74.3191 31.0898 74.3191H48.907C49.2086 74.3191 49.4539 74.0738 49.4539 73.7723C49.4539 73.4707 49.2086 73.2254 48.907 73.2254H31.0898C30.7867 73.2254 30.543 73.4707 30.543 73.7723Z" fill="#9A9A9A"/>
<path d="M51.5922 1.95312H28.4047C24.0203 1.95312 20.4531 5.52031 20.4531 9.90469V14.6234C20.4531 14.925 20.6984 15.1703 21 15.1703C21.3016 15.1703 21.5469 14.925 21.5469 14.6234V9.90469C21.5469 6.12344 24.6234 3.04688 28.4047 3.04688H51.5922C55.3734 3.04688 58.45 6.12344 58.45 9.90469V70.0969C58.45 73.8781 55.3734 76.9547 51.5922 76.9547H28.4047C24.6234 76.9547 21.5469 73.8781 21.5469 70.0969V18.3359C21.5469 18.0344 21.3016 17.7891 21 17.7891C20.6984 17.7891 20.4531 18.0344 20.4531 18.3359V70.0953C20.4531 74.4797 24.0203 78.0469 28.4047 78.0469H51.5922C55.9766 78.0469 59.5437 74.4797 59.5437 70.0953V9.90469C59.5422 5.52031 55.975 1.95312 51.5922 1.95312Z" fill="#9A9A9A"/>
<path d="M52.3849 64.7229H28.125C26.775 64.7229 25.6797 63.6275 25.6797 62.2775V58.2275C25.6797 57.1666 26.5406 56.3057 27.6016 56.3057H49.1177C51.1552 56.3057 52.9427 57.6619 53.4927 59.6244L54.2365 62.2822C54.5786 63.5088 53.6583 64.7229 52.3849 64.7229Z" fill="#E1EAF8"/>
<path d="M28.9688 22.0166H51.0322C53.0285 22.0166 54.6504 23.6429 54.6504 25.6523V43.1494C54.6503 45.1588 53.0288 46.7842 51.0312 46.7842H40.1553C39.6736 46.7842 39.2114 46.9758 38.8701 47.3184L33.3545 52.8564C33.0877 53.1241 32.6273 52.9383 32.627 52.5518V48.6074C32.627 47.6029 31.816 46.7843 30.8105 46.7842H28.9688C26.9712 46.7842 25.3497 45.1588 25.3496 43.1494V25.6523C25.3496 23.6429 26.9712 22.0166 28.9688 22.0166Z" stroke="#9A9A9A" stroke-width="0.7"/>
<path fill-rule="evenodd" clip-rule="evenodd" d="M33.75 30.5945C33.75 29.1152 34.9492 27.916 36.4285 27.916C37.9078 27.916 39.107 29.1152 39.107 30.5945V32.0983C39.107 32.1103 39.107 32.1223 39.1071 32.1344C39.1074 32.2712 39.1077 32.4139 39.0734 32.5416C38.9822 32.8822 38.7161 33.1482 38.3756 33.2394C38.2479 33.2737 38.1052 33.2734 37.9684 33.2731C37.9563 33.2731 37.9442 33.2731 37.9322 33.2731H36.4285C34.9492 33.2731 33.75 32.0738 33.75 30.5945Z" stroke="#0166FF"/>
<path d="M42.0677 35.059L42.0316 35.0589C41.8948 35.0586 41.7521 35.0584 41.6244 35.0926C41.2839 35.1838 41.0178 35.4499 40.9266 35.7904C40.8923 35.9181 40.8926 36.0608 40.8929 36.1976L40.893 36.2337V37.7375C40.893 39.2168 42.0922 40.416 43.5715 40.416C45.0508 40.416 46.25 39.2168 46.25 37.7375C46.25 36.2582 45.0508 35.059 43.5715 35.059H42.0677Z" stroke="#0166FF"/>
<path fill-rule="evenodd" clip-rule="evenodd" d="M38.1868 35.068C38.307 35.0778 38.4385 35.1003 38.5683 35.1664C38.754 35.261 38.905 35.412 38.9996 35.5977C39.0658 35.7276 39.0883 35.8591 39.0981 35.9792C39.1071 36.0907 39.1071 36.2241 39.1071 36.3693V37.7374C39.1071 39.2168 37.9079 40.416 36.4286 40.416C34.9492 40.416 33.75 39.2168 33.75 37.7374C33.75 36.2581 34.9492 35.0589 36.4286 35.0589H37.7967C37.9419 35.0589 38.0753 35.0589 38.1868 35.068Z" stroke="#0166FF"/>
<path fill-rule="evenodd" clip-rule="evenodd" d="M40.8929 30.5946C40.8929 29.1153 42.0921 27.916 43.5714 27.916C45.0508 27.916 46.25 29.1153 46.25 30.5946C46.25 32.0739 45.0508 33.2731 43.5714 33.2731H41.9603C41.9551 33.2731 41.95 33.2731 41.9448 33.2731C41.8861 33.2732 41.8253 33.2733 41.7692 33.2669C41.3117 33.2154 40.9506 32.8543 40.8991 32.3968C40.8928 32.3407 40.8928 32.2799 40.8929 32.2213C40.8929 32.2161 40.8929 32.2109 40.8929 32.2057V30.5946Z" stroke="#0166FF"/>
<path d="M9.9606 23.3333C9.57965 23.3333 9.35108 23.1048 9.27489 22.7238C8.97013 21.4286 8.3606 20.2095 7.37013 19.219C6.37965 18.2286 5.23679 17.619 3.94156 17.3143C3.5606 17.3143 3.33203 17.0095 3.33203 16.7048C3.33203 16.4 3.5606 16.0952 3.94156 16.019C5.23679 15.7905 6.45584 15.1048 7.44632 14.1143C8.43679 13.1238 9.04632 11.9809 9.35108 10.6095C9.42727 10.2286 9.73203 10 10.0368 10C10.3416 10 10.6463 10.2286 10.7225 10.6095C11.0273 11.9048 11.6368 13.1238 12.6273 14.1143C13.6177 15.1048 14.7606 15.7143 16.132 16.019C16.513 16.0952 16.7416 16.4 16.7416 16.7048C16.7416 17.0095 16.513 17.3143 16.132 17.3905C13.4654 17.9238 11.332 20.0571 10.7987 22.7238C10.5701 23.1048 10.3416 23.3333 9.9606 23.3333ZM5.54156 16.7048C6.53203 17.0857 7.44632 17.6952 8.20822 18.4571C8.97013 19.219 9.57965 20.1333 9.9606 21.1238C10.7987 19.0667 12.3987 17.4667 14.3797 16.6286C13.3892 16.2476 12.4749 15.6381 11.713 14.8762C10.9511 14.1143 10.3416 13.2 9.9606 12.2095C9.57965 13.2 8.97013 14.1143 8.20822 14.8762C7.44632 15.7143 6.53203 16.3238 5.54156 16.7048Z" fill="#0166FF"/>
<path d="M69.1143 64.8956C66.8286 64.8956 65 63.067 65 60.7813C65 58.4956 66.8286 56.667 69.1143 56.667C71.4 56.667 73.2286 58.4956 73.2286 60.7813C73.2286 63.067 71.3238 64.8956 69.1143 64.8956ZM69.1143 57.886C67.5143 57.886 66.1429 59.1813 66.1429 60.8575C66.1429 62.4575 67.4381 63.8289 69.1143 63.8289C70.7143 63.8289 72.0857 62.5337 72.0857 60.8575C72.0857 59.1813 70.7143 57.886 69.1143 57.886Z" fill="#0166FF"/>
</svg>
