<svg width="80" height="80" viewBox="0 0 80 80" fill="none" xmlns="http://www.w3.org/2000/svg">
<path d="M39.1646 76.9526H11.7568C8.18653 76.9526 5.28028 74.0479 5.28028 70.476V65.0088C5.28028 50.0057 10.7225 35.5401 20.6006 24.2572C27.2256 22.6072 34.2084 22.6072 40.8334 24.2572C42.7462 26.4411 44.5031 28.7567 46.0912 31.1869C46.1407 31.2632 46.2086 31.326 46.2885 31.3693C46.3685 31.4127 46.458 31.4354 46.549 31.4354C46.6474 31.4351 46.7439 31.4084 46.8284 31.3579C46.9128 31.3075 46.9821 31.2352 47.029 31.1487C47.0759 31.0622 47.0985 30.9646 47.0946 30.8663C47.0907 30.768 47.0604 30.6726 47.0068 30.5901C45.5253 28.3229 43.8995 26.1533 42.1397 24.0947C42.2773 23.9842 42.3882 23.844 42.4642 23.6847C42.5402 23.5254 42.5794 23.351 42.5787 23.1744V21.4151C42.5787 20.9479 42.3053 20.5322 41.8928 20.3416L47.4397 14.2963C48.3553 13.2979 48.6365 11.9369 48.1912 10.6572C47.7459 9.37755 46.6803 8.48537 45.3412 8.27287L42.8959 7.8838L43.2912 7.0213C43.6115 6.3213 43.6037 5.52443 43.2693 4.83068C42.935 4.13693 42.3162 3.63537 41.5693 3.44943L40.1975 3.11037C33.9678 1.56818 27.385 1.57443 21.1584 3.12599L19.8678 3.44787C19.1225 3.6338 18.5037 4.13693 18.1709 4.82912C17.8381 5.5213 17.8303 6.31974 18.1506 7.01818L18.5475 7.88537L16.1006 8.27443C14.7615 8.48693 13.6959 9.37912 13.2506 10.6588C12.8053 11.9385 13.085 13.2994 14.0022 14.2979L19.549 20.3432C19.3443 20.4381 19.1709 20.5896 19.0494 20.7798C18.9279 20.97 18.8632 21.1909 18.8631 21.4166V23.176C18.8627 23.3529 18.9021 23.5275 18.9784 23.6871C19.0547 23.8467 19.1659 23.9871 19.3037 24.0979C9.54493 35.4944 4.18308 50.005 4.18653 65.0088V70.476C4.18653 74.6494 7.58184 78.0463 11.7568 78.0463H39.1646C39.4662 78.0463 39.7115 77.801 39.7115 77.4994C39.7115 77.1979 39.4662 76.9526 39.1646 76.9526ZM41.4162 21.326C41.4568 21.3369 41.485 21.3729 41.485 21.4151V23.1744C41.485 23.2119 41.4662 23.2338 41.449 23.2463C41.4382 23.2549 41.4254 23.2608 41.4118 23.2635C41.3983 23.2662 41.3842 23.2657 41.3709 23.2619C40.5975 23.0635 39.8193 22.8885 39.0381 22.7354C38.9033 21.89 38.4697 21.1211 37.8162 20.5682C39.024 20.7697 40.2256 21.0213 41.4162 21.326ZM14.2772 11.0166C14.5881 10.1229 15.3318 9.50099 16.2662 9.35255L19.0147 8.91505L22.1553 15.7713C22.2803 16.0463 22.6053 16.1666 22.8803 16.0416C22.9456 16.0118 23.0044 15.9693 23.0533 15.9167C23.1022 15.864 23.1402 15.8023 23.1652 15.7349C23.1901 15.6676 23.2016 15.5959 23.1988 15.5242C23.196 15.4524 23.1791 15.3818 23.149 15.3166L19.1397 6.56037C18.9553 6.1588 18.96 5.69943 19.1522 5.30099C19.3443 4.90255 19.699 4.61349 20.1287 4.50568L21.4193 4.1838C27.4725 2.67599 33.874 2.66974 39.9303 4.16818L41.3022 4.50724C41.7318 4.61349 42.0881 4.90255 42.2803 5.30099C42.4725 5.69943 42.4771 6.1588 42.2928 6.56037L37.2178 17.6416C37.1577 17.7735 37.1523 17.9237 37.2027 18.0595C37.253 18.1954 37.3551 18.3058 37.4865 18.3666C37.56 18.401 37.6381 18.4166 37.7147 18.4166C37.9225 18.4166 38.1209 18.2979 38.2115 18.0979L42.4178 8.91193L45.1646 9.34943C46.099 9.49787 46.8428 10.1197 47.1537 11.0135C47.4647 11.9072 47.2693 12.8557 46.6303 13.5541L40.6943 20.0244C34.1428 18.5088 27.2865 18.5088 20.735 20.0244L14.8021 13.5557C14.1631 12.8588 13.9662 11.9088 14.2772 11.0166Z" fill="#9A9A9A"/>
<path d="M74.2775 58.2978H70.4354C70.4775 58.1587 70.4994 58.0118 70.4994 57.8603V53.6243C70.4994 52.7806 69.8119 52.0931 68.9682 52.0931H48.9932C48.1494 52.0931 47.4619 52.7806 47.4619 53.6243V55.0415C47.1869 55.0212 46.9088 55.0087 46.6291 55.0087C40.2775 55.0087 35.1104 60.1759 35.1104 66.5275C35.1104 72.879 40.2775 78.0462 46.6291 78.0462H68.9697C69.8135 78.0462 70.501 77.3587 70.501 76.515V72.2775C70.501 71.8931 70.3572 71.5431 70.1244 71.2743C70.3676 70.9968 70.5014 70.6402 70.501 70.2712V66.0337C70.501 65.8822 70.4775 65.7353 70.4369 65.5962H74.2791C75.1229 65.5962 75.8104 64.9087 75.8104 64.065V59.8275C75.8088 58.9853 75.1213 58.2978 74.2775 58.2978ZM48.5557 53.6243C48.5557 53.3837 48.7525 53.1868 48.9932 53.1868H68.9697C69.2104 53.1868 69.4072 53.3837 69.4072 53.6243V57.8618C69.4072 58.1025 69.2119 58.2993 68.9697 58.2993H54.6791C53.0369 56.6931 50.9182 55.5728 48.5572 55.1743V53.6243H48.5557ZM36.2025 66.5275C36.2025 60.779 40.8791 56.1025 46.6275 56.1025C52.376 56.1025 57.0525 60.779 57.0525 66.5275C57.0525 72.2759 52.376 76.9525 46.6275 76.9525C40.8791 76.9525 36.2025 72.2759 36.2025 66.5275ZM58.1479 66.5275C58.1479 66.215 58.1322 65.904 58.1072 65.5978H68.9697C69.2104 65.5978 69.4072 65.7947 69.4072 66.0353V70.2728C69.4072 70.5134 69.2104 70.7103 68.9697 70.7103H57.3588C57.8801 69.3773 58.1477 67.9587 58.1479 66.5275ZM69.4057 76.515C69.4057 76.7556 69.2088 76.9525 68.9682 76.9525H51.5213C53.8047 75.8741 55.6734 74.0795 56.8432 71.8415H68.9682C69.2088 71.8415 69.4057 72.0384 69.4057 72.279V76.515ZM74.715 64.0665C74.715 64.3072 74.5182 64.504 74.2775 64.504H57.965C57.626 62.5978 56.8166 60.8525 55.6604 59.3931H74.2775C74.5182 59.3931 74.715 59.59 74.715 59.8306V64.0665Z" fill="#9A9A9A"/>
<path d="M67.2686 57.2506H61.5717C60.2342 57.2506 58.9295 56.8303 57.842 56.0506C57.0514 55.4818 57.4529 54.2334 58.4264 54.2334H67.267C67.3987 54.2334 67.5292 54.2593 67.6509 54.3098C67.7726 54.3602 67.8832 54.4341 67.9763 54.5272C68.0695 54.6204 68.1433 54.7309 68.1938 54.8526C68.2442 54.9743 68.2701 55.1048 68.2701 55.2365V56.249C68.2717 56.8021 67.8232 57.2506 67.2686 57.2506ZM8.20605 63.849V68.5787C8.20605 71.7162 10.7498 74.26 13.8873 74.26H24.6639C27.3467 74.26 28.2811 70.6959 25.9436 69.3787L12.0951 61.5771C10.3561 60.5959 8.20605 61.8537 8.20605 63.849Z" fill="#E1EAF8"/>
<path d="M47.2434 65.5065H45.9918C44.959 65.5065 44.0699 64.7143 44.0184 63.6831C43.9637 62.5815 44.8449 61.6659 45.9356 61.6659H47.5215C48.4262 61.6659 49.1715 62.3675 49.2402 63.255C49.2465 63.3331 49.3121 63.3909 49.3902 63.3909H51.1324C51.2184 63.3909 51.2887 63.3206 51.284 63.2362C51.2043 61.2737 49.6152 59.6956 47.6512 59.6268V57.9034C47.6512 57.819 47.584 57.7518 47.4996 57.7518H45.7606C45.6762 57.7518 45.609 57.819 45.609 57.9034V59.6378C43.5574 59.8065 41.9434 61.5409 41.9731 63.6409C42.0027 65.8206 43.8387 67.5471 46.0184 67.5471H47.2699C48.3027 67.5471 49.1918 68.3393 49.2434 69.3706C49.2981 70.4721 48.4168 71.3862 47.3262 71.3862H45.7402C44.8356 71.3862 44.0902 70.6846 44.0215 69.7971C44.0183 69.7597 44.0011 69.7249 43.9733 69.6996C43.9454 69.6744 43.9091 69.6607 43.8715 69.6612H42.1293C42.0434 69.6612 41.9731 69.7315 41.9777 69.8175C42.0574 71.78 43.6465 73.3581 45.6106 73.4268V75.1503C45.6106 75.2346 45.6777 75.3018 45.7621 75.3018H47.5012C47.5856 75.3018 47.6527 75.2346 47.6527 75.1503V73.4159C49.7043 73.2471 51.3184 71.5128 51.2887 69.4128C51.259 67.2331 49.4246 65.5065 47.2434 65.5065Z" fill="#0166FF"/>
<path d="M58 27C51.9251 27 47 31.9251 47 38C47 44.0749 51.9251 49 58 49C64.0749 49 69 44.0749 69 38C69 31.9251 64.0749 27 58 27Z" fill="#0166FF"/>
<path d="M62.2327 38C62.2327 38.3472 61.962 38.6286 61.6281 38.6286C61.2941 38.6286 61.0234 38.3472 61.0234 38C61.0234 37.6528 61.2941 37.3714 61.6281 37.3714C61.962 37.3714 62.2327 37.6528 62.2327 38Z" fill="white"/>
<path fill-rule="evenodd" clip-rule="evenodd" d="M56.7566 32.5H58.6388C59.75 32.5 60.6301 32.5 61.3189 32.5963C62.0278 32.6953 62.6016 32.9041 63.0542 33.3745C63.613 33.9555 63.7912 34.7337 63.8559 35.7435C64.2049 35.9031 64.4684 36.2408 64.4975 36.6686C64.5001 36.7064 64.5 36.7472 64.5 36.785C64.5 36.7884 64.5 36.7918 64.5 36.7952V39.2048C64.5 39.2082 64.5 39.2116 64.5 39.215C64.5 39.2528 64.5001 39.2936 64.4975 39.3314C64.4684 39.7592 64.2049 40.0969 63.8559 40.2565C63.7912 41.2663 63.613 42.0445 63.0542 42.6255C62.6016 43.0959 62.0278 43.3046 61.3189 43.4038C60.6301 43.5 59.75 43.5 58.6388 43.5H56.7566C55.6454 43.5 54.7652 43.5 54.0764 43.4038C53.3675 43.3046 52.7937 43.0959 52.3412 42.6255C51.8887 42.1551 51.6879 41.5586 51.5926 40.8217C51.5 40.1056 51.5 39.1906 51.5 38.0355V37.9645C51.5 36.8094 51.5 35.8944 51.5926 35.1783C51.6879 34.4414 51.8887 33.8449 52.3412 33.3745C52.7937 32.9041 53.3675 32.6953 54.0764 32.5963C54.7652 32.5 55.6454 32.5 56.7566 32.5ZM62.9387 40.3571H61.7675C60.4704 40.3571 59.3605 39.3341 59.3605 38C59.3605 36.6659 60.4704 35.6429 61.7675 35.6429H62.9387C62.8699 34.7997 62.7142 34.3546 62.4128 34.0412C62.1569 33.7752 61.8064 33.6157 61.1981 33.5307C60.5767 33.4439 59.7576 33.4429 58.6047 33.4429H56.7907C55.6377 33.4429 54.8186 33.4439 54.1973 33.5307C53.5889 33.6157 53.2384 33.7752 52.9825 34.0412C52.7266 34.3072 52.5733 34.6716 52.4915 35.304C52.4079 35.9499 52.407 36.8014 52.407 38C52.407 39.1986 52.4079 40.0501 52.4915 40.6961C52.5733 41.3284 52.7266 41.6928 52.9825 41.9588C53.2384 42.2248 53.5889 42.3843 54.1973 42.4693C54.8186 42.5561 55.6377 42.5571 56.7907 42.5571H58.6047C59.7576 42.5571 60.5767 42.5561 61.1981 42.4693C61.8064 42.3843 62.1569 42.2248 62.4128 41.9588C62.7142 41.6455 62.8699 41.2004 62.9387 40.3571ZM63.3956 36.5859C63.3833 36.5857 63.3672 36.5857 63.3411 36.5857H61.7675C60.9068 36.5857 60.2674 37.2512 60.2674 38C60.2674 38.7488 60.9068 39.4143 61.7675 39.4143H63.3411C63.3672 39.4143 63.3833 39.4143 63.3956 39.4142C63.4032 39.414 63.4072 39.414 63.409 39.4138L63.4104 39.4138C63.535 39.4059 63.5886 39.3185 63.5927 39.2659C63.5927 39.2659 63.5928 39.2619 63.5929 39.2563C63.593 39.2451 63.593 39.2302 63.593 39.2048V36.7952C63.593 36.7698 63.593 36.7549 63.5929 36.7437C63.5928 36.7381 63.5927 36.7341 63.5927 36.7341C63.5886 36.6815 63.535 36.5941 63.4104 36.5862C63.4104 36.5862 63.4074 36.586 63.3956 36.5859ZM54.9767 35.6429C55.2272 35.6429 55.4302 35.8539 55.4302 36.1143V39.8857C55.4302 40.1461 55.2272 40.3571 54.9767 40.3571C54.7263 40.3571 54.5233 40.1461 54.5233 39.8857V36.1143C54.5233 35.8539 54.7263 35.6429 54.9767 35.6429Z" fill="white"/>
</svg>
