<svg width="80" height="80" viewBox="0 0 80 80" fill="none" xmlns="http://www.w3.org/2000/svg">
<path d="M44.3445 8.70771C45.4695 8.70771 46.3852 7.79209 46.3852 6.66709C46.3852 5.54209 45.4695 4.62646 44.3445 4.62646H35.6539C34.5289 4.62646 33.6133 5.54209 33.6133 6.66709C33.6133 7.79209 34.5289 8.70771 35.6539 8.70771H44.3445ZM45.2914 6.66709C45.2914 7.18896 44.8664 7.61396 44.3445 7.61396H42.1367C42.757 7.17334 43.1977 6.4999 43.3352 5.72178H44.3445C44.8664 5.72021 45.2914 6.14521 45.2914 6.66709Z" fill="#9A9A9A"/>
<path d="M51.5922 1.95312H28.4047C24.0203 1.95312 20.4531 5.52031 20.4531 9.90469V14.6234C20.4531 14.925 20.6984 15.1703 21 15.1703C21.3016 15.1703 21.5469 14.925 21.5469 14.6234V9.90469C21.5469 6.12344 24.6234 3.04688 28.4047 3.04688H51.5922C55.3734 3.04688 58.45 6.12344 58.45 9.90469V70.0969C58.45 73.8781 55.3734 76.9547 51.5922 76.9547H28.4047C24.6234 76.9547 21.5469 73.8781 21.5469 70.0969V18.3359C21.5469 18.0344 21.3016 17.7891 21 17.7891C20.6984 17.7891 20.4531 18.0344 20.4531 18.3359V70.0953C20.4531 74.4797 24.0203 78.0469 28.4047 78.0469H51.5922C55.9766 78.0469 59.5437 74.4797 59.5437 70.0953V9.90469C59.5422 5.52031 55.975 1.95312 51.5922 1.95312Z" fill="#9A9A9A"/>
<path d="M40.7586 21.2428C44.4398 21.599 47.368 24.5272 47.7242 28.2084C47.7352 28.3272 47.8336 28.4194 47.9539 28.4194H52.1117C52.2445 28.4194 52.3523 28.3069 52.343 28.174C51.9508 21.9725 46.9914 17.0147 40.7914 16.6225C40.6586 16.6147 40.5461 16.7209 40.5461 16.8537V21.0115C40.5477 21.1334 40.6398 21.2319 40.7586 21.2428ZM47.9539 29.5147C47.8336 29.5147 47.7367 29.6069 47.7242 29.7256C47.3445 33.6569 44.032 36.7303 40.0008 36.7303C38.1305 36.7303 36.4148 36.0678 35.0742 34.9647C34.982 34.8881 34.8477 34.8928 34.7633 34.9772L31.8227 37.9178C31.7289 38.0115 31.732 38.1678 31.832 38.2553C34.0117 40.1725 36.8695 41.3365 40.0008 41.3365C46.5664 41.3365 51.9352 36.2209 52.3445 29.7584C52.3523 29.6256 52.2461 29.5131 52.1133 29.5131H47.9539V29.5147ZM33.9898 34.2053C34.0742 34.1209 34.0789 33.9865 34.0023 33.8944C32.9008 32.5537 32.2367 30.8397 32.2367 28.9678C32.2367 24.9365 35.3102 21.624 39.2414 21.2428C39.3602 21.2319 39.4523 21.1334 39.4523 21.0131V16.8553C39.4523 16.7225 39.3398 16.6147 39.207 16.624C32.7445 17.0319 27.6289 22.4022 27.6289 28.9678C27.6289 32.099 28.793 34.9569 30.7102 37.1365C30.7977 37.2365 30.9539 37.2397 31.0477 37.1459L33.9898 34.2053Z" fill="#0166FF"/>
<path d="M51.5979 49.1371H28.4009C28.1798 49.1371 28 48.8821 28 48.5686C28 48.255 28.1798 48 28.4009 48H51.5991C51.8202 48 52 48.255 52 48.5686C52 48.8821 51.8202 49.1371 51.5979 49.1371ZM51.5979 56.0686H28.4009C28.1798 56.0686 28 55.8135 28 55.5C28 55.1865 28.1798 54.9314 28.4009 54.9314H51.5991C51.8202 54.9314 52 55.1865 52 55.5C52 55.8135 51.8202 56.0686 51.5979 56.0686ZM51.5979 63H28.4009C28.1798 63 28 62.745 28 62.4314C28 62.1179 28.1798 61.8629 28.4009 61.8629H51.5991C51.8202 61.8629 52 62.1179 52 62.4314C52 62.745 51.8202 63 51.5979 63Z" fill="#9A9A9A"/>
<path d="M9.9606 23.3333C9.57965 23.3333 9.35108 23.1048 9.27489 22.7238C8.97013 21.4286 8.3606 20.2095 7.37013 19.219C6.37965 18.2286 5.23679 17.619 3.94156 17.3143C3.5606 17.3143 3.33203 17.0095 3.33203 16.7048C3.33203 16.4 3.5606 16.0952 3.94156 16.019C5.23679 15.7905 6.45584 15.1048 7.44632 14.1143C8.43679 13.1238 9.04632 11.9809 9.35108 10.6095C9.42727 10.2286 9.73203 10 10.0368 10C10.3416 10 10.6463 10.2286 10.7225 10.6095C11.0273 11.9048 11.6368 13.1238 12.6273 14.1143C13.6177 15.1048 14.7606 15.7143 16.132 16.019C16.513 16.0952 16.7416 16.4 16.7416 16.7048C16.7416 17.0095 16.513 17.3143 16.132 17.3905C13.4654 17.9238 11.332 20.0571 10.7987 22.7238C10.5701 23.1048 10.3416 23.3333 9.9606 23.3333ZM5.54156 16.7048C6.53203 17.0857 7.44632 17.6952 8.20822 18.4571C8.97013 19.219 9.57965 20.1333 9.9606 21.1238C10.7987 19.0667 12.3987 17.4667 14.3797 16.6286C13.3892 16.2476 12.4749 15.6381 11.713 14.8762C10.9511 14.1143 10.3416 13.2 9.9606 12.2095C9.57965 13.2 8.97013 14.1143 8.20822 14.8762C7.44632 15.7143 6.53203 16.3238 5.54156 16.7048Z" fill="#0166FF"/>
<path d="M69.1143 64.8951C66.8286 64.8951 65 63.0665 65 60.7808C65 58.4951 66.8286 56.6665 69.1143 56.6665C71.4 56.6665 73.2286 58.4951 73.2286 60.7808C73.2286 63.0665 71.3238 64.8951 69.1143 64.8951ZM69.1143 57.8856C67.5143 57.8856 66.1429 59.1808 66.1429 60.857C66.1429 62.457 67.4381 63.8284 69.1143 63.8284C70.7143 63.8284 72.0857 62.5332 72.0857 60.857C72.0857 59.1808 70.7143 57.8856 69.1143 57.8856Z" fill="#0166FF"/>
</svg>
