<svg xmlns="http://www.w3.org/2000/svg" width="80" height="80" fill="none" viewBox="0 0 80 80">
  <path fill="#E1EAF8" d="M40.103 8.053H28.62c-.94 0-1.776-.601-2.075-1.495L25.192 2.5h18.341L42.18 6.558a2.19 2.19 0 0 1-2.077 1.495Zm10.257 60.05v2.417c0 2.344-1.9 4.244-4.244 4.244h-18.76a2.735 2.735 0 0 0-2.734 2.734h21.494a6.978 6.978 0 0 0 6.978-6.978v-1.332l-2.734-1.086Z"/>
  <path fill="#9A9A9A" d="M46.114 78.047H22.606c-4.15 0-7.525-3.377-7.525-7.525V61.79a.547.547 0 0 1 1.094 0v8.732a6.439 6.439 0 0 0 6.431 6.43h23.508a6.439 6.439 0 0 0 6.431-6.43v-1.333a.548.548 0 0 1 1.094 0v1.333c0 4.148-3.375 7.525-7.525 7.525Zm6.43-68.569v23.546a.548.548 0 0 0 1.094 0V9.478c0-4.15-3.377-7.525-7.525-7.525H22.605c-4.15 0-7.525 3.377-7.525 7.525v48.06a.547.547 0 0 0 1.094 0V9.477a6.439 6.439 0 0 1 6.431-6.431h23.508a6.439 6.439 0 0 1 6.431 6.431Z"/>
  <path fill="#FD4E4E" d="M34.312 50.731a.56.56 0 0 1-.242-.056l-3.647-1.808a.547.547 0 0 1 .486-.98l3.645 1.807a.547.547 0 0 1-.242 1.037Zm-3.426 14.175a.549.549 0 0 1-.519-.723.547.547 0 0 1 .277-.314l3.654-1.79a.547.547 0 0 1 .481.98l-3.653 1.791a.538.538 0 0 1-.24.056Zm37.261-13.281a.547.547 0 0 0 .59.501l4.054-.331a.547.547 0 0 0-.089-1.09l-4.055.33a.546.546 0 0 0-.5.59ZM61.7 41.44a.547.547 0 0 0 .874-.058l2.208-3.418a.546.546 0 1 0-.917-.593l-2.209 3.418a.546.546 0 0 0 .043.65Zm-11.558.036c1.128-1.968 3.967-1.968 5.095 0l9.248 16.126C65.608 59.56 64.195 62 61.938 62H43.44c-2.257 0-3.67-2.44-2.547-4.398l9.249-16.126Zm1.668 14.373a.568.568 0 0 0-.394.16.522.522 0 0 0-.152.382l.06 1.436c.01.28.25.501.544.501h1.642a.56.56 0 0 0 .379-.145.51.51 0 0 0 .166-.356l.058-1.436a.533.533 0 0 0-.546-.542H51.81Zm-.41-10.004a.57.57 0 0 0-.394.16.52.52 0 0 0-.153.382l.323 7.845c.011.279.252.5.546.5h1.935a.56.56 0 0 0 .38-.145.511.511 0 0 0 .166-.355l.321-7.845a.533.533 0 0 0-.546-.542H51.4Z"/>
  <path fill="#E1EAF8" d="M47.973 13H21.027C19.908 13 19 13.968 19 15.162v17.677c0 1.193.908 2.161 2.027 2.161h26.945c1.12 0 2.028-.968 2.028-2.161V15.162C50 13.968 49.092 13 47.973 13Z"/>
  <path fill="#9A9A9A" d="M39.276 22.59c0 .541-.459.98-1.024.98s-1.023-.439-1.023-.98c0-.542.458-.981 1.023-.981s1.023.44 1.023.98Z"/>
  <path fill="#9A9A9A" fill-rule="evenodd" d="M38.927 19.257c-.777-.1-1.77-.1-3.024-.1h-2.806c-1.253 0-2.246 0-3.023.1-.8.103-1.447.32-1.958.81-.51.489-.737 1.11-.845 1.876-.104.745-.104 1.697-.104 2.898v.074c0 1.202 0 2.154.104 2.899.108.766.334 1.387.845 1.876.51.49 1.158.707 1.958.81.777.1 1.77.1 3.023.1h2.806c1.254 0 2.247 0 3.024-.1.8-.103 1.447-.32 1.958-.81.51-.49.737-1.11.844-1.876.105-.745.105-1.697.105-2.899v-.073c0-1.202 0-2.154-.105-2.899-.107-.767-.334-1.387-.844-1.876-.51-.49-1.158-.707-1.958-.81Zm-8.717.972c-.686.089-1.082.255-1.37.531-.29.277-.462.656-.554 1.314-.074.527-.091 1.187-.095 2.05l.346-.29a2.147 2.147 0 0 1 2.84.09l2.927 2.806a.88.88 0 0 0 1.093.09l.204-.137a2.644 2.644 0 0 1 3.182.184l1.766 1.523a3.4 3.4 0 0 0 .166-.707c.094-.672.095-1.558.095-2.805 0-1.246 0-2.132-.095-2.804-.092-.658-.265-1.037-.554-1.314-.289-.277-.684-.442-1.37-.53-.701-.091-1.626-.092-2.926-.092h-2.729c-1.3 0-2.225 0-2.926.091Z" clip-rule="evenodd"/>
  <path fill="#9A9A9A" d="M38.23 17.114c-.63-.08-1.433-.08-2.434-.08h-2.265c-1.001 0-1.804 0-2.435.08-.652.084-1.197.263-1.629.675a2.127 2.127 0 0 0-.53.82c.37-.168.787-.268 1.256-.328.796-.103 1.812-.103 3.095-.103h2.87c1.283 0 2.3 0 3.095.103.41.053.78.135 1.114.268a2.108 2.108 0 0 0-.508-.76c-.431-.412-.976-.59-1.629-.675Z"/>
</svg>
