<svg width="80" height="80" viewBox="0 0 80 80" fill="none" xmlns="http://www.w3.org/2000/svg">
<path d="M44.275 12.2672C44.2003 12.3361 44.1027 12.3751 44.001 12.3766H34.3864C34.045 12.3766 33.873 11.9866 34.109 11.7579L35.6877 10.2352C35.7611 10.1641 35.8589 10.1238 35.961 10.1226H45.6137C45.9584 10.1226 46.127 10.5159 45.887 10.7452L44.275 12.2672ZM44.275 19.7719C44.2004 19.8405 44.1024 19.8781 44.001 19.8772H34.3864C34.045 19.8772 33.873 19.4906 34.109 19.2619L35.6877 17.7359C35.7617 17.6663 35.8594 17.6274 35.961 17.6272H45.6137C45.9584 17.6272 46.127 18.0172 45.887 18.2459L44.275 19.7719ZM44.275 13.9819C44.2003 13.9136 44.1023 13.8762 44.001 13.8772H34.3864C34.045 13.8772 33.873 14.2639 34.109 14.4919L35.6877 16.0186C35.7624 16.0871 35.8597 16.1257 35.961 16.1272H45.6137C45.9584 16.1272 46.127 15.7372 45.887 15.5086L44.275 13.9819Z" fill="#9A9A9A"/>
<circle cx="40" cy="15" r="13.5" stroke="#9A9A9A"/>
<circle cx="56" cy="38" r="17.5" fill="#FAFBFF" stroke="#9A9A9A"/>
<path d="M55.9734 23.8999C48.9906 23.8999 43.1734 28.8937 41.8984 35.5046C47.4047 39.1796 51.25 45.1437 52.0766 52.0358C53.3448 52.3922 54.6561 52.5726 55.9734 52.5718C63.8906 52.5718 70.3094 46.153 70.3094 38.2358C70.3094 30.3187 63.8922 23.8999 55.9734 23.8999Z" fill="#0166FF"/>
<circle cx="30" cy="54" r="23.4" fill="#FAFBFF" stroke="#9A9A9A" stroke-width="1.2"/>
<mask id="path-6-inside-1_69744_106969" fill="white">
<path d="M12.3274 61.8978C12.0032 62.0427 11.6219 61.8976 11.4875 61.5689C9.67421 57.1341 9.51081 52.1875 11.0408 47.6321C12.6392 42.8733 15.9688 38.8895 20.3684 36.472C24.768 34.0544 29.916 33.3798 34.79 34.5821C39.664 35.7844 43.9076 38.7757 46.6782 42.962C49.4488 47.1483 50.5437 52.2235 49.7456 57.1798C48.9475 62.136 46.3146 66.6109 42.3699 69.7158C38.4251 72.8207 33.457 74.3286 28.4519 73.94C23.6609 73.568 19.1715 71.4844 15.7981 68.0821C15.5481 67.83 15.5636 67.4223 15.8236 67.1805C16.0837 66.9387 16.4898 66.9544 16.7404 67.206C19.8936 70.3722 24.0823 72.311 28.5515 72.6579C33.2347 73.0215 37.8834 71.6106 41.5746 68.7053C45.2657 65.8 47.7292 61.6129 48.4761 56.9753C49.2229 52.3377 48.1983 47.5889 45.6059 43.6717C43.0134 39.7545 39.0426 36.9556 34.482 35.8306C29.9214 34.7055 25.1044 35.3368 20.9877 37.5989C16.8709 39.8611 13.7554 43.5887 12.2598 48.0416C10.8326 52.2909 10.9801 56.9042 12.6622 61.044C12.7959 61.373 12.6516 61.753 12.3274 61.8978Z"/>
</mask>
<path d="M12.3274 61.8978C12.0032 62.0427 11.6219 61.8976 11.4875 61.5689C9.67421 57.1341 9.51081 52.1875 11.0408 47.6321C12.6392 42.8733 15.9688 38.8895 20.3684 36.472C24.768 34.0544 29.916 33.3798 34.79 34.5821C39.664 35.7844 43.9076 38.7757 46.6782 42.962C49.4488 47.1483 50.5437 52.2235 49.7456 57.1798C48.9475 62.136 46.3146 66.6109 42.3699 69.7158C38.4251 72.8207 33.457 74.3286 28.4519 73.94C23.6609 73.568 19.1715 71.4844 15.7981 68.0821C15.5481 67.83 15.5636 67.4223 15.8236 67.1805C16.0837 66.9387 16.4898 66.9544 16.7404 67.206C19.8936 70.3722 24.0823 72.311 28.5515 72.6579C33.2347 73.0215 37.8834 71.6106 41.5746 68.7053C45.2657 65.8 47.7292 61.6129 48.4761 56.9753C49.2229 52.3377 48.1983 47.5889 45.6059 43.6717C43.0134 39.7545 39.0426 36.9556 34.482 35.8306C29.9214 34.7055 25.1044 35.3368 20.9877 37.5989C16.8709 39.8611 13.7554 43.5887 12.2598 48.0416C10.8326 52.2909 10.9801 56.9042 12.6622 61.044C12.7959 61.373 12.6516 61.753 12.3274 61.8978Z" stroke="#9A9A9A" stroke-width="2.4" mask="url(#path-6-inside-1_69744_106969)"/>
<path d="M31.3419 67.5816C29.9091 68.4722 30.5513 70.6831 32.2372 70.6659C35.9091 70.6284 39.5685 69.2097 42.37 66.4081C46.445 62.3331 47.5966 56.4409 45.8216 51.3394C45.1372 49.3706 42.2731 49.5894 41.9247 51.6441C40.7716 58.4628 37.3481 63.8488 31.3419 67.5816Z" fill="#E1EAF8"/>
<path d="M30.0286 41L28.8105 49.1283L30.0286 53.2104L31.2468 49.1283L30.0286 41Z" fill="#9A9A9A"/>
<path d="M30.0286 67.0571L31.2468 58.9289L30.0286 54.8468L28.8105 58.9289L30.0286 67.0571Z" fill="#9A9A9A"/>
<path d="M43.0571 54.0288L34.9289 52.8107L30.8469 54.0288L34.9289 55.247L43.0571 54.0288Z" fill="#9A9A9A"/>
<path d="M17 54.0288L25.1282 55.247L29.2103 54.0288L25.1282 52.8107L17 54.0288Z" fill="#9A9A9A"/>
<path d="M39.186 44.7602L32.6069 49.6865L30.6047 53.4466L34.3401 51.3987L39.186 44.7602Z" fill="#9A9A9A"/>
<path d="M20.8712 63.2971L27.4503 58.3708L29.4525 54.6107L25.7171 56.6586L20.8712 63.2971Z" fill="#9A9A9A"/>
<path d="M39.2966 63.185L34.3704 56.6059L30.6103 54.6036L32.6582 58.3391L39.2966 63.185Z" fill="#9A9A9A"/>
<path d="M20.7605 44.8721L25.6868 51.4512L29.4468 53.4535L27.399 49.7181L20.7605 44.8721Z" fill="#9A9A9A"/>
<path d="M56.5017 29L51.2812 37.6558L56.5017 40.7399L61.7221 37.6558L56.5017 29ZM56.5017 46L51.2812 38.6454L56.5017 41.75L61.7221 38.6454L56.5017 46Z" fill="white"/>
</svg>
