<svg width="80" height="80" viewBox="0 0 80 80" fill="none" xmlns="http://www.w3.org/2000/svg">
<path d="M73.4201 58.6406H69.6607C69.6998 58.5078 69.7217 58.3672 69.7217 58.2219V54.0625C69.7217 53.2281 69.0435 52.55 68.2092 52.55H48.5998C47.7654 52.55 47.0873 53.2281 47.0873 54.0625V55.4437C46.8201 55.425 46.5514 55.4125 46.2795 55.4125C43.9404 55.4125 41.7639 56.1266 39.9576 57.3469V55.5547C39.9576 54.8281 39.367 54.2375 38.6404 54.2375H33.7889C33.0623 54.2375 32.4717 54.8281 32.4717 55.5547V60.4062C32.4717 61.1328 33.0623 61.7234 33.7889 61.7234H36.1326C35.6952 62.6042 35.3758 63.5388 35.1826 64.5031H33.7889C33.0623 64.5031 32.4717 65.0938 32.4717 65.8203V70.6719C32.4717 71.3984 33.0623 71.9891 33.7889 71.9891H34.1201C34.4217 71.9891 34.667 71.7438 34.667 71.4422C34.667 71.1406 34.4217 70.8953 34.1201 70.8953H33.7889C33.6654 70.8953 33.5654 70.7953 33.5654 70.6719V65.8203C33.5654 65.6969 33.6654 65.5969 33.7889 65.5969H35.0186C34.9811 65.9703 34.9623 66.3484 34.9623 66.7297C34.9623 71.2359 37.6107 75.1344 41.4311 76.9531H9.51074C7.6623 76.9531 6.15918 75.45 6.15918 73.6016V6.39844C6.15918 4.55 7.6623 3.04688 9.51074 3.04688H52.3857C54.2342 3.04688 55.7373 4.55 55.7373 6.39844V50.9094C55.7373 51.2109 55.9826 51.4563 56.2842 51.4563C56.5857 51.4563 56.831 51.2109 56.831 50.9094V6.39844C56.831 3.94688 54.8373 1.95312 52.3857 1.95312H9.51074C7.05918 1.95312 5.06543 3.94688 5.06543 6.39844V73.6031C5.06543 76.0547 7.05918 78.0484 9.51074 78.0484H68.2092C69.0435 78.0484 69.7217 77.3703 69.7217 76.5359V72.375C69.7217 71.9984 69.5826 71.6547 69.3545 71.3906C69.5826 71.125 69.7217 70.7812 69.7217 70.4062V66.2469C69.7217 66.1016 69.6998 65.9609 69.6607 65.8281H73.4201C74.2545 65.8281 74.9326 65.15 74.9326 64.3156V60.1562C74.9326 59.3203 74.2545 58.6406 73.4201 58.6406ZM48.1795 54.0625C48.1795 53.8312 48.367 53.6438 48.5982 53.6438H68.2076C68.4389 53.6438 68.6264 53.8312 68.6264 54.0625V58.2219C68.6264 58.4531 68.4389 58.6406 68.2076 58.6406H54.1826C52.5717 57.0656 50.4935 55.9672 48.1779 55.5734V54.0625H48.1795ZM33.7873 60.6281C33.6639 60.6281 33.5639 60.5281 33.5639 60.4047V55.5531C33.5639 55.4297 33.6639 55.3297 33.7873 55.3297H38.6389C38.7623 55.3297 38.8623 55.4297 38.8623 55.5531V58.1891C38.0467 58.898 37.336 59.7193 36.7514 60.6281H33.7873ZM36.0545 66.7297C36.0545 61.0922 40.6404 56.5063 46.2779 56.5063C51.9154 56.5063 56.5014 61.0922 56.5014 66.7297C56.5014 72.3672 51.9154 76.9531 46.2779 76.9531C40.6404 76.9531 36.0545 72.3672 36.0545 66.7297ZM68.6279 76.5344C68.6279 76.7656 68.4404 76.9531 68.2092 76.9531H51.1279C53.3514 75.8953 55.1748 74.1312 56.3123 71.9547H68.2092C68.4404 71.9547 68.6279 72.1422 68.6279 72.3734V76.5344ZM68.6279 66.2453V70.4047C68.6279 70.6359 68.4404 70.8234 68.2092 70.8234H56.8264C57.3359 69.5182 57.5971 68.1293 57.5967 66.7281C57.5967 66.4234 57.5811 66.1234 57.5576 65.825H68.2107C68.4404 65.8266 68.6279 66.0141 68.6279 66.2453ZM73.8389 64.3141C73.8389 64.5453 73.6514 64.7328 73.4201 64.7328H57.417C57.0842 62.8703 56.2936 61.1641 55.167 59.7344H73.4217C73.6529 59.7344 73.8404 59.9219 73.8404 60.1531V64.3141H73.8389Z" fill="#9A9A9A"/>
<path d="M51.8777 10.5406V7.27812C51.8777 6.675 51.3871 6.18437 50.784 6.18437H34.3746C33.7715 6.18437 33.2809 6.675 33.2809 7.27812V10.5406C33.2809 11.1437 33.7715 11.6344 34.3746 11.6344H50.784C51.3871 11.6344 51.8777 11.1437 51.8777 10.5406ZM50.784 7.27812V10.5422H47.2434C48.4309 9.88281 49.2762 8.68437 49.4527 7.27812H50.784ZM18.8996 35.0203C18.8996 34.2938 18.309 33.7031 17.5824 33.7031H12.7293C12.0027 33.7031 11.4121 34.2938 11.4121 35.0203V39.8719C11.4121 40.5984 12.0027 41.1891 12.7293 41.1891H17.5809C18.3074 41.1891 18.898 40.5984 18.898 39.8719V35.0203H18.8996ZM17.8059 39.8719C17.8059 39.9953 17.7059 40.0953 17.5824 40.0953H12.7293C12.6059 40.0953 12.5059 39.9953 12.5059 39.8719V35.0203C12.5059 34.8969 12.6059 34.7969 12.7293 34.7969H17.5809C17.7043 34.7969 17.8043 34.8969 17.8043 35.0203V39.8719H17.8059ZM29.4277 35.0203C29.4277 34.2938 28.8371 33.7031 28.1105 33.7031H23.259C22.5324 33.7031 21.9418 34.2938 21.9418 35.0203V39.8719C21.9418 40.5984 22.5324 41.1891 23.259 41.1891H28.1105C28.8371 41.1891 29.4277 40.5984 29.4277 39.8719V35.0203ZM28.334 39.8719C28.334 39.9953 28.234 40.0953 28.1105 40.0953H23.259C23.1355 40.0953 23.0355 39.9953 23.0355 39.8719V35.0203C23.0355 34.8969 23.1355 34.7969 23.259 34.7969H28.1105C28.234 34.7969 28.334 34.8969 28.334 35.0203V39.8719ZM39.9559 35.0203C39.9559 34.2938 39.3652 33.7031 38.6387 33.7031H33.7871C33.0605 33.7031 32.4699 34.2938 32.4699 35.0203V39.8719C32.4699 40.5984 33.0605 41.1891 33.7871 41.1891H38.6387C39.3652 41.1891 39.9559 40.5984 39.9559 39.8719V35.0203ZM38.8621 39.8719C38.8621 39.9953 38.7621 40.0953 38.6387 40.0953H33.7871C33.6637 40.0953 33.5637 39.9953 33.5637 39.8719V35.0203C33.5637 34.8969 33.6637 34.7969 33.7871 34.7969H38.6387C38.7621 34.7969 38.8621 34.8969 38.8621 35.0203V39.8719ZM50.4855 35.0203C50.4855 34.2938 49.8949 33.7031 49.1684 33.7031H44.3168C43.5902 33.7031 42.9996 34.2938 42.9996 35.0203V39.8719C42.9996 40.5984 43.5902 41.1891 44.3168 41.1891H49.1684C49.8949 41.1891 50.4855 40.5984 50.4855 39.8719V35.0203ZM49.3918 39.8719C49.3918 39.9953 49.2918 40.0953 49.1684 40.0953H44.3168C44.1934 40.0953 44.0934 39.9953 44.0934 39.8719V35.0203C44.0934 34.8969 44.1934 34.7969 44.3168 34.7969H49.1684C49.2918 34.7969 49.3918 34.8969 49.3918 35.0203V39.8719ZM18.8996 45.2859C18.8996 44.5594 18.309 43.9688 17.5824 43.9688H12.7293C12.0027 43.9688 11.4121 44.5594 11.4121 45.2859V50.1375C11.4121 50.8641 12.0027 51.4547 12.7293 51.4547H17.5809C18.3074 51.4547 18.898 50.8641 18.898 50.1375V45.2859H18.8996ZM17.8059 50.1391C17.8059 50.2625 17.7059 50.3625 17.5824 50.3625H12.7293C12.6059 50.3625 12.5059 50.2625 12.5059 50.1391V45.2875C12.5059 45.1641 12.6059 45.0641 12.7293 45.0641H17.5809C17.7043 45.0641 17.8043 45.1641 17.8043 45.2875V50.1391H17.8059ZM29.4277 45.2859C29.4277 44.5594 28.8371 43.9688 28.1105 43.9688H23.259C22.5324 43.9688 21.9418 44.5594 21.9418 45.2859V50.1375C21.9418 50.8641 22.5324 51.4547 23.259 51.4547H28.1105C28.8371 51.4547 29.4277 50.8641 29.4277 50.1375V45.2859ZM28.334 50.1391C28.334 50.2625 28.234 50.3625 28.1105 50.3625H23.259C23.1355 50.3625 23.0355 50.2625 23.0355 50.1391V45.2875C23.0355 45.1641 23.1355 45.0641 23.259 45.0641H28.1105C28.234 45.0641 28.334 45.1641 28.334 45.2875V50.1391ZM38.6387 43.9688H33.7871C33.0605 43.9688 32.4699 44.5594 32.4699 45.2859V50.1375C32.4699 50.8641 33.0605 51.4547 33.7871 51.4547H38.6387C39.3652 51.4547 39.9559 50.8641 39.9559 50.1375V45.2859C39.9559 44.5594 39.3652 43.9688 38.6387 43.9688ZM38.8621 50.1391C38.8621 50.2625 38.7621 50.3625 38.6387 50.3625H33.7871C33.6637 50.3625 33.5637 50.2625 33.5637 50.1391V45.2875C33.5637 45.1641 33.6637 45.0641 33.7871 45.0641H38.6387C38.7621 45.0641 38.8621 45.1641 38.8621 45.2875V50.1391ZM18.8996 55.5531C18.8996 54.8266 18.309 54.2359 17.5824 54.2359H12.7293C12.0027 54.2359 11.4121 54.8266 11.4121 55.5531V60.4047C11.4121 61.1313 12.0027 61.7219 12.7293 61.7219H17.5809C18.3074 61.7219 18.898 61.1313 18.898 60.4047V55.5531H18.8996ZM17.8059 60.4047C17.8059 60.5281 17.7059 60.6281 17.5824 60.6281H12.7293C12.6059 60.6281 12.5059 60.5281 12.5059 60.4047V55.5531C12.5059 55.4297 12.6059 55.3297 12.7293 55.3297H17.5809C17.7043 55.3297 17.8043 55.4297 17.8043 55.5531V60.4047H17.8059ZM29.4277 55.5531C29.4277 54.8266 28.8371 54.2359 28.1105 54.2359H23.259C22.5324 54.2359 21.9418 54.8266 21.9418 55.5531V60.4047C21.9418 61.1313 22.5324 61.7219 23.259 61.7219H28.1105C28.8371 61.7219 29.4277 61.1313 29.4277 60.4047V55.5531ZM28.334 60.4047C28.334 60.5281 28.234 60.6281 28.1105 60.6281H23.259C23.1355 60.6281 23.0355 60.5281 23.0355 60.4047V55.5531C23.0355 55.4297 23.1355 55.3297 23.259 55.3297H28.1105C28.234 55.3297 28.334 55.4297 28.334 55.5531V60.4047ZM17.5809 64.5016H12.7293C12.0027 64.5016 11.4121 65.0922 11.4121 65.8187V70.6703C11.4121 71.3969 12.0027 71.9875 12.7293 71.9875H17.5809C18.3074 71.9875 18.898 71.3969 18.898 70.6703V65.8187C18.8996 65.0922 18.3074 64.5016 17.5809 64.5016ZM17.8059 70.6719C17.8059 70.7953 17.7059 70.8953 17.5824 70.8953H12.7293C12.6059 70.8953 12.5059 70.7953 12.5059 70.6719V65.8203C12.5059 65.6969 12.6059 65.5969 12.7293 65.5969H17.5809C17.7043 65.5969 17.8043 65.6969 17.8043 65.8203V70.6719H17.8059ZM28.1105 64.5016H23.259C22.5324 64.5016 21.9418 65.0922 21.9418 65.8187V70.6703C21.9418 71.3969 22.5324 71.9875 23.259 71.9875H28.1105C28.8371 71.9875 29.4277 71.3969 29.4277 70.6703V65.8187C29.4277 65.0922 28.8371 64.5016 28.1105 64.5016ZM28.334 70.6719C28.334 70.7953 28.234 70.8953 28.1105 70.8953H23.259C23.1355 70.8953 23.0355 70.7953 23.0355 70.6719V65.8203C23.0355 65.6969 23.1355 65.5969 23.259 65.5969H28.1105C28.234 65.5969 28.334 65.6969 28.334 65.8203V70.6719ZM49.1684 43.9688H44.3168C43.5902 43.9688 42.9996 44.5594 42.9996 45.2859V50.1375C42.9996 50.8641 43.5902 51.4547 44.3168 51.4547H49.1684C49.8949 51.4547 50.4855 50.8641 50.4855 50.1375V45.2859C50.4855 44.5594 49.8949 43.9688 49.1684 43.9688ZM49.3918 50.1391C49.3918 50.2625 49.2918 50.3625 49.1684 50.3625H44.3168C44.1934 50.3625 44.0934 50.2625 44.0934 50.1391V45.2875C44.0934 45.1641 44.1934 45.0641 44.3168 45.0641H49.1684C49.2918 45.0641 49.3918 45.1641 49.3918 45.2875V50.1391Z" fill="#9A9A9A"/>
<path d="M46.8775 65.7266H45.6494C44.6354 65.7266 43.7619 64.95 43.7119 63.9375C43.6588 62.8547 44.5229 61.9578 45.5932 61.9578H47.1494C48.0385 61.9578 48.7682 62.6453 48.8369 63.5172C48.8432 63.5938 48.9088 63.6516 48.9838 63.6516H50.6947C50.7791 63.6516 50.8479 63.5828 50.8447 63.4984C50.7666 61.5719 49.2072 60.0219 47.2775 59.9562V58.2641C47.2775 58.2247 47.2619 58.1869 47.2341 58.1591C47.2062 58.1313 47.1685 58.1156 47.1291 58.1156H45.4213C45.3819 58.1156 45.3442 58.1313 45.3163 58.1591C45.2885 58.1869 45.2729 58.2247 45.2729 58.2641V59.9672C43.2588 60.1328 41.6744 61.8359 41.7041 63.8969C41.7338 66.0375 43.5354 67.7313 45.676 67.7313H46.9041C47.9182 67.7313 48.7916 68.5078 48.84 69.5203C48.8932 70.6031 48.0291 71.5 46.9588 71.5H45.4025C44.5135 71.5 43.7838 70.8125 43.715 69.9406C43.7117 69.9039 43.6948 69.8698 43.6676 69.845C43.6405 69.8201 43.605 69.8063 43.5682 69.8063H41.8572C41.7729 69.8063 41.7041 69.875 41.7072 69.9594C41.7854 71.8859 43.3447 73.4359 45.2744 73.5016V75.1937C45.2744 75.2766 45.3416 75.3422 45.4229 75.3422H47.1307C47.2135 75.3422 47.2791 75.275 47.2791 75.1937V73.4906C49.2916 73.325 50.8775 71.6219 50.8479 69.5609C50.8197 67.4203 49.0182 65.7266 46.8775 65.7266ZM51.0635 30.1531H10.8338C10.2354 30.1531 9.75098 29.6687 9.75098 29.0703V16.2687C9.75098 15.6703 10.2354 15.1859 10.8338 15.1859H51.0619C51.6604 15.1859 52.1447 15.6703 52.1447 16.2687V29.0703C52.1463 29.6672 51.6604 30.1531 51.0635 30.1531Z" fill="#0166FF"/>
<path d="M27.2002 12.2406H14.3033C13.133 12.2406 12.1846 11.2922 12.1846 10.1219V7.69687C12.1846 6.52656 13.133 5.57812 14.3033 5.57812H24.7268C26.533 5.57812 28.1408 6.72656 28.7268 8.43594L29.1127 9.56406C29.5627 10.8766 28.5877 12.2406 27.2002 12.2406Z" fill="#E1EAF8"/>
</svg>
