<svg width="24" height="24" viewBox="0 0 24 24" fill="none" xmlns="http://www.w3.org/2000/svg">
<path d="M10.2 16.3311C10.6039 16.3311 10.9313 16.0037 10.9313 15.5998C10.9313 15.1959 10.6039 14.8686 10.2 14.8686V15.5998V16.3311ZM6.6 14.8686C6.19614 14.8686 5.86875 15.1959 5.86875 15.5998C5.86875 16.0037 6.19614 16.3311 6.6 16.3311V15.5998V14.8686ZM13.8 16.3311C14.2039 16.3311 14.5312 16.0037 14.5312 15.5998C14.5312 15.1959 14.2039 14.8686 13.8 14.8686V15.5998V16.3311ZM12.45 14.8686C12.0461 14.8686 11.7188 15.1959 11.7188 15.5998C11.7188 16.0037 12.0461 16.3311 12.45 16.3311V15.5998V14.8686ZM3 9.46855C2.59614 9.46855 2.26875 9.79595 2.26875 10.1998C2.26875 10.6037 2.59614 10.9311 3 10.9311V10.1998V9.46855ZM21 10.9311C21.4039 10.9311 21.7313 10.6037 21.7313 10.1998C21.7313 9.79595 21.4039 9.46855 21 9.46855V10.1998V10.9311ZM10.2 4.7998V5.53105H13.8V4.7998V4.06855H10.2V4.7998ZM13.8 19.1998V18.4686H10.2V19.1998V19.9311H13.8V19.1998ZM10.2 19.1998V18.4686C8.48227 18.4686 7.26754 18.467 6.34726 18.3433C5.44802 18.2224 4.94018 17.997 4.57149 17.6283L4.05442 18.1454L3.53734 18.6625C4.22306 19.3482 5.09097 19.65 6.15238 19.7927C7.19277 19.9326 8.52362 19.9311 10.2 19.9311V19.1998ZM3 11.9998H2.26875C2.26875 13.6762 2.2672 15.007 2.40707 16.0474C2.54978 17.1088 2.85162 17.9767 3.53734 18.6625L4.05442 18.1454L4.57149 17.6283C4.20279 17.2596 3.97743 16.7518 3.85653 15.8525C3.7328 14.9323 3.73125 13.7175 3.73125 11.9998H3ZM21 11.9998H20.2687C20.2687 13.7175 20.2672 14.9323 20.1435 15.8525C20.0226 16.7518 19.7972 17.2596 19.4285 17.6283L19.9456 18.1454L20.4627 18.6625C21.1484 17.9767 21.4502 17.1088 21.5929 16.0474C21.7328 15.007 21.7313 13.6762 21.7313 11.9998H21ZM13.8 19.1998V19.9311C15.4764 19.9311 16.8072 19.9326 17.8476 19.7927C18.909 19.65 19.7769 19.3482 20.4627 18.6625L19.9456 18.1454L19.4285 17.6283C19.0598 17.997 18.552 18.2224 17.6527 18.3433C16.7325 18.467 15.5177 18.4686 13.8 18.4686V19.1998ZM13.8 4.7998V5.53105C15.5177 5.53105 16.7325 5.53261 17.6527 5.65634C18.552 5.77724 19.0598 6.0026 19.4285 6.37129L19.9456 5.85422L20.4627 5.33715C19.7769 4.65143 18.909 4.34958 17.8476 4.20688C16.8072 4.067 15.4764 4.06855 13.8 4.06855V4.7998ZM21 11.9998H21.7313C21.7313 10.3234 21.7328 8.99257 21.5929 7.95219C21.4502 6.89077 21.1484 6.02287 20.4627 5.33715L19.9456 5.85422L19.4285 6.37129C19.7972 6.73999 20.0226 7.24782 20.1435 8.14706C20.2672 9.06734 20.2687 10.2821 20.2687 11.9998H21ZM10.2 4.7998V4.06855C8.52362 4.06855 7.19277 4.067 6.15238 4.20688C5.09097 4.34958 4.22306 4.65143 3.53734 5.33715L4.05442 5.85422L4.57149 6.37129C4.94018 6.0026 5.44802 5.77724 6.34726 5.65634C7.26754 5.53261 8.48227 5.53105 10.2 5.53105V4.7998ZM3 11.9998H3.73125C3.73125 10.2821 3.7328 9.06734 3.85653 8.14706C3.97743 7.24782 4.20279 6.73999 4.57149 6.37129L4.05442 5.85422L3.53734 5.33715C2.85162 6.02287 2.54978 6.89077 2.40707 7.95219C2.2672 8.99257 2.26875 10.3234 2.26875 11.9998H3ZM10.2 15.5998V14.8686H6.6V15.5998V16.3311H10.2V15.5998ZM13.8 15.5998V14.8686H12.45V15.5998V16.3311H13.8V15.5998ZM3 10.1998V10.9311H21V10.1998V9.46855H3V10.1998Z" fill="#0166FF"/>
</svg>
