<svg width="375" height="311" viewBox="0 0 375 311" fill="none" xmlns="http://www.w3.org/2000/svg">
<g style="mix-blend-mode:overlay" opacity="0.1">
<path d="M418 -150H403.819L187.533 81.0638L187.739 81.183L187.804 81.1722L418 -119.838V-150Z" fill="url(#paint0_linear_75583_521522)"/>
<path d="M185.115 80.6193L185.256 80.5325L185.245 80.4675V80.4783L149.846 -150H125.365L185.104 80.5759L184.985 80.6518L99.5067 -150H71.6537L184.855 80.7385L184.757 80.8144L184.865 80.7494L184.887 80.7819L185.104 80.5867L185.115 80.6193Z" fill="url(#paint1_linear_75583_521522)"/>
<path d="M270.679 -150L186.828 80.6301L186.741 80.5759L244.962 -150H220.535L186.589 80.4675L186.6 80.4783L186.589 80.5325L186.73 80.6193V80.5976L186.817 80.6626L186.925 80.7602L186.947 80.7385L187.045 80.7927L186.947 80.7168L298.413 -150H270.679Z" fill="url(#paint2_linear_75583_521522)"/>
<path d="M418 32.752L188.79 81.0096L188.606 81.0854L418 56.8754V32.752Z" fill="url(#paint3_linear_75583_521522)"/>
<path d="M418 -48.8445V-81.7933L188.107 81.1397L188.183 81.1288L187.923 81.2698L188.432 81.1071L188.573 81.0963L188.693 81.0312H188.682L188.703 81.0204L418 -48.8445Z" fill="url(#paint4_linear_75583_521522)"/>
<path d="M418 -19.3869L188.899 80.9554L418 7.54446V-19.3869Z" fill="url(#paint5_linear_75583_521522)"/>
<path d="M-43 209.129L183.196 81.6926L182.936 81.7468L-43 180.159V209.129Z" fill="url(#paint6_linear_75583_521522)"/>
<path d="M183.89 81.2698L183.727 81.1614L183.315 81.0746L183.651 81.1071L-43 -77.4565V-45.1691L183.087 81.0204L-43 -16.3295V10.114L183.098 81.0204L183.12 81.0312L-43 34.8879V58.6426L183.163 81.0638L183.738 81.389L183.825 81.3348L183.185 81.0638L183.89 81.2698Z" fill="url(#paint7_linear_75583_521522)"/>
<path d="M363.508 -150H328.977L187.186 80.8686L187.316 80.9445L363.508 -150Z" fill="url(#paint8_linear_75583_521522)"/>
<path d="M184.063 81.5625L184.258 81.6709L-31.2582 311H8.87876L184.508 81.8119L184.714 81.9311L43.2803 311H73.6703L184.844 81.9962L184.985 82.0829L101.22 311H126.828L185.126 82.1588L185.256 82.2347L185.126 82.148L185.158 82.0396L185.288 82.148L151.082 311H174.566L185.679 81.4541L185.711 82.0179C185.787 82.0179 185.971 82.0179 186.134 82.0179L186.177 81.1505L197.756 311H221.251L186.578 82.2347C186.578 82.2347 186.578 82.2347 186.578 82.2455L186.741 82.1371L245.526 311H271.146L186.893 82.1263H187.023L298.728 311H329.161L187.207 82.1263H187.576L363.649 311H403.916L187.836 82.1154H188.454L417.967 280.903V243.086L188.888 82.1046H189.365L417.967 210.289V180.962L189.712 82.0938H189.939L417.967 154.084V128.942L190.666 82.0938H193.019L417.967 104.851V80.3699L188.064 81.3565L188.487 81.118L187.999 81.3348L188.042 81.3673H187.836L187.793 81.3348L187.608 81.3673L187.706 81.3999H187.641L187.663 81.4324L187.608 81.4758L187.467 81.4432L187.511 81.4107H187.467L187.543 81.3782H186.925H186.936H186.828L186.806 81.4107L186.719 81.3782H186.633L186.654 81.4107L186.589 81.3782L186.568 81.3023H186.6L186.611 81.324L186.676 81.2915H186.643L186.654 81.2481L186.6 81.1505L186.568 81.2264L186.589 81.2589H186.524V81.2155L186.459 81.0421V81.2481H186.427L186.416 81.324H186.481V81.3457L186.513 81.3131L186.492 81.3782L186.459 81.4216V81.389H186.394V81.4216L186.372 81.389H186.221C186.221 81.389 186.221 81.3565 186.221 81.3457H186.372L186.362 81.2372L186.253 81.2155C186.275 81.1288 186.286 81.0529 186.307 80.9879H186.318L186.275 80.706L186.437 81.0312H186.459V81.0529L186.524 81.1939L186.546 81.118L186.503 81.0421L186.568 81.0638L186.611 80.912L186.654 80.977L186.611 81.0854L186.709 81.118L186.73 81.0854L186.893 81.183L186.752 81.0312L186.817 80.8903L186.698 80.8361L186.665 80.9337L186.611 80.8795L186.633 80.8144L186.503 80.7602L186.459 80.7385L186.503 80.7819L186.47 80.9987L186.318 80.6843L186.351 80.8036L186.286 80.6951C186.286 80.6951 186.188 80.706 186.134 80.706L196.878 -150H173.514L185.635 80.6843C185.57 80.6843 185.516 80.6843 185.494 80.6734L185.451 80.9554C185.483 81.0421 185.494 81.1288 185.516 81.2155L185.407 81.2372V81.2915L185.548 81.3023C185.548 81.324 185.548 81.3565 185.538 81.4107H185.321V81.4324H185.386V81.5083H185.342L185.364 81.595V81.6709L185.288 81.5083L185.267 81.4541L185.31 81.4216H185.18L185.201 81.4541H185.212V81.4649L185.169 81.5733L185.093 81.4541H185.147L185.104 81.4432L185.126 81.4107L185.05 81.3782L184.974 81.4216H184.8L184.822 81.3999L184.432 81.4216L184.453 81.4432H184.41L184.453 81.4649L184.378 81.5408L184.54 81.5191L184.649 81.6059L184.703 81.5408L184.985 81.4758L184.909 81.6059L185.017 81.6384L185.061 81.5408L185.147 81.6492V81.6818L185.223 81.7576V81.7143H185.245V81.6926L185.267 81.5842L185.418 81.8878C185.418 81.8878 185.408 81.9203 185.397 81.942L185.332 81.8336V81.8661L185.397 81.9528C185.397 81.9745 185.386 81.9962 185.375 82.007L185.31 81.9745L185.288 82.1371L185.169 82.007L185.191 81.9203L185.071 81.8661V81.8878L184.941 81.801V81.7685L184.865 81.6709L184.833 81.7251L184.887 81.7685L184.822 81.736L184.757 81.8444L184.573 81.7143L184.627 81.6492L184.378 81.5408L184.356 81.5625L184.291 81.5191H184.312L184.204 81.4649H184.193L184.128 81.4432L184.15 81.4216L184.009 81.389L184.074 81.3673L184.02 81.3348L183.965 81.3782L183.868 81.3348L183.77 81.3782L183.803 81.3999L183.673 81.4216L183.705 81.3999L-42.9892 81.801V105.024L183.152 81.6492L183.001 81.7143L183.868 81.4432L183.662 81.595H183.586H183.651L-43 241.557V278.94L183.976 81.5625H184.063Z" fill="url(#paint9_linear_75583_521522)"/>
<path d="M-43 128.79V153.629L182.892 81.7576L-43 128.79Z" fill="url(#paint10_linear_75583_521522)"/>
<path d="M184.714 80.8361L40.9167 -150H6.10322L184.584 80.912L184.714 80.8361Z" fill="url(#paint11_linear_75583_521522)"/>
<path d="M-34.6517 -150H-43V-114.634L184.139 81.1614H184.15L184.28 81.0854L-34.6517 -150Z" fill="url(#paint12_linear_75583_521522)"/>
<path d="M187.63 81.3673L187.608 81.3457L187.598 81.3565L187.413 81.2915L187.522 81.2698L187.446 81.2155H187.392L187.424 81.1939L187.24 81.0312L187.11 81.2047L187.001 81.1722L187.121 80.977L187.218 81.0096L187.142 80.9445L187.175 80.8795L187.294 80.9662L187.251 81.0204L187.478 81.1288L187.5 81.1071L187.63 81.1939H187.619L187.684 81.2372L187.717 81.2264L187.739 81.2372L187.706 81.2589L187.793 81.3131L187.63 81.3673Z" fill="url(#paint13_linear_75583_521522)"/>
<path d="M184.15 81.3565L184.041 81.324L184.15 81.2481L184.269 81.2698L184.204 81.2047L184.258 81.1722L184.323 81.118L184.334 81.1397L184.616 81.0096L184.421 81.183H184.378L184.399 81.2047L184.312 81.2806L184.356 81.2915L184.312 81.3023L184.302 81.2915L184.15 81.3565Z" fill="url(#paint14_linear_75583_521522)"/>
<path d="M184.941 81.2372L184.833 81.2264L184.779 81.1505L184.724 81.1722L184.757 81.1288L184.659 80.9987L184.779 80.9445L184.844 81.0421L184.952 80.9228L184.93 80.8795L185.05 80.8252L185.158 80.7819L185.136 80.7277L185.256 80.5976L185.277 80.7277L185.364 80.6951L185.288 80.7819L185.31 80.9445L185.483 80.6734L185.321 80.9879V80.9987L185.256 81.1505L185.234 81.0746L185.277 80.9987L185.212 81.0204L185.191 80.912L185.115 81.0096L185.126 81.0421L185.039 81.1071L185.028 81.0746L184.887 81.118L184.952 81.2155L184.941 81.2372Z" fill="url(#paint15_linear_75583_521522)"/>
</g>
<defs>
<linearGradient id="paint0_linear_75583_521522" x1="187.5" y1="-150" x2="187.5" y2="311" gradientUnits="userSpaceOnUse">
<stop stop-color="white" stop-opacity="0"/>
<stop offset="1" stop-color="white"/>
</linearGradient>
<linearGradient id="paint1_linear_75583_521522" x1="187.5" y1="-150" x2="187.5" y2="311" gradientUnits="userSpaceOnUse">
<stop stop-color="white" stop-opacity="0"/>
<stop offset="1" stop-color="white"/>
</linearGradient>
<linearGradient id="paint2_linear_75583_521522" x1="187.5" y1="-150" x2="187.5" y2="311" gradientUnits="userSpaceOnUse">
<stop stop-color="white" stop-opacity="0"/>
<stop offset="1" stop-color="white"/>
</linearGradient>
<linearGradient id="paint3_linear_75583_521522" x1="187.5" y1="-150" x2="187.5" y2="311" gradientUnits="userSpaceOnUse">
<stop stop-color="white" stop-opacity="0"/>
<stop offset="1" stop-color="white"/>
</linearGradient>
<linearGradient id="paint4_linear_75583_521522" x1="187.5" y1="-150" x2="187.5" y2="311" gradientUnits="userSpaceOnUse">
<stop stop-color="white" stop-opacity="0"/>
<stop offset="1" stop-color="white"/>
</linearGradient>
<linearGradient id="paint5_linear_75583_521522" x1="187.5" y1="-150" x2="187.5" y2="311" gradientUnits="userSpaceOnUse">
<stop stop-color="white" stop-opacity="0"/>
<stop offset="1" stop-color="white"/>
</linearGradient>
<linearGradient id="paint6_linear_75583_521522" x1="187.5" y1="-150" x2="187.5" y2="311" gradientUnits="userSpaceOnUse">
<stop stop-color="white" stop-opacity="0"/>
<stop offset="1" stop-color="white"/>
</linearGradient>
<linearGradient id="paint7_linear_75583_521522" x1="187.5" y1="-150" x2="187.5" y2="311" gradientUnits="userSpaceOnUse">
<stop stop-color="white" stop-opacity="0"/>
<stop offset="1" stop-color="white"/>
</linearGradient>
<linearGradient id="paint8_linear_75583_521522" x1="187.5" y1="-150" x2="187.5" y2="311" gradientUnits="userSpaceOnUse">
<stop stop-color="white" stop-opacity="0"/>
<stop offset="1" stop-color="white"/>
</linearGradient>
<linearGradient id="paint9_linear_75583_521522" x1="187.5" y1="-150" x2="187.5" y2="311" gradientUnits="userSpaceOnUse">
<stop stop-color="white" stop-opacity="0"/>
<stop offset="1" stop-color="white"/>
</linearGradient>
<linearGradient id="paint10_linear_75583_521522" x1="187.5" y1="-150" x2="187.5" y2="311" gradientUnits="userSpaceOnUse">
<stop stop-color="white" stop-opacity="0"/>
<stop offset="1" stop-color="white"/>
</linearGradient>
<linearGradient id="paint11_linear_75583_521522" x1="187.5" y1="-150" x2="187.5" y2="311" gradientUnits="userSpaceOnUse">
<stop stop-color="white" stop-opacity="0"/>
<stop offset="1" stop-color="white"/>
</linearGradient>
<linearGradient id="paint12_linear_75583_521522" x1="187.5" y1="-150" x2="187.5" y2="311" gradientUnits="userSpaceOnUse">
<stop stop-color="white" stop-opacity="0"/>
<stop offset="1" stop-color="white"/>
</linearGradient>
<linearGradient id="paint13_linear_75583_521522" x1="187.5" y1="-150" x2="187.5" y2="311" gradientUnits="userSpaceOnUse">
<stop stop-color="white" stop-opacity="0"/>
<stop offset="1" stop-color="white"/>
</linearGradient>
<linearGradient id="paint14_linear_75583_521522" x1="187.5" y1="-150" x2="187.5" y2="311" gradientUnits="userSpaceOnUse">
<stop stop-color="white" stop-opacity="0"/>
<stop offset="1" stop-color="white"/>
</linearGradient>
<linearGradient id="paint15_linear_75583_521522" x1="187.5" y1="-150" x2="187.5" y2="311" gradientUnits="userSpaceOnUse">
<stop stop-color="white" stop-opacity="0"/>
<stop offset="1" stop-color="white"/>
</linearGradient>
</defs>
</svg>
