<svg width="150" height="150" viewBox="0 0 150 150" fill="none" xmlns="http://www.w3.org/2000/svg">
<g clip-path="url(#clip0_78570_478298)">
<rect width="150" height="150" fill="#E1EAF8"/>
<path d="M136.809 169.872C144.997 186.249 140.378 194.828 136.599 197.138C134.919 198.188 124.166 194.993 122.277 195.833C121.857 196.043 117.711 208.732 117.711 193.224C104.483 199.943 90.6171 192.128 74.87 192.128C59.1229 192.128 64.1619 191.708 58.9129 190.869C55.1336 190.239 51.5642 189.399 47.9949 188.349C36.237 184.99 25.319 205.622 15.6607 198.273C13.3512 196.594 11.2515 194.704 8.94196 192.814C5.37261 189.665 -3.07342 200.917 -6.22285 197.138C-7.27266 195.878 -10.5845 162.314 -4.07568 152.236C2.43314 142.157 13.3512 129.56 29.9382 123.051C34.5573 121.161 39.3864 119.901 44.6355 119.272C44.8454 119.272 45.2654 119.272 45.4753 119.272C45.8953 119.272 46.5251 119.272 46.9451 119.272C47.365 119.272 47.7849 119.272 48.2048 119.272C48.8347 119.272 49.4646 119.272 49.8845 119.272C51.1443 119.272 52.614 119.062 53.8738 119.062C90.4072 117.592 109.724 132.079 110.773 132.919C110.773 132.919 110.774 132.919 110.983 133.129C111.403 133.549 112.243 134.389 113.503 135.859C118.332 141.318 128.62 153.495 136.809 169.872Z" fill="#4340FF"/>
<path d="M60.8027 69.2986C60.8027 69.2986 68.9912 67.199 72.9805 62.5798C76.9698 57.9607 77.3897 45.9928 77.3897 45.9928C77.3897 45.9928 92.297 53.7614 96.2863 52.9216C100.276 52.0817 107.834 34.4449 102.795 26.8863C97.5461 19.3277 87.048 28.776 87.048 28.776C87.048 28.776 84.9484 17.8579 73.4005 20.3775C59.9629 23.3169 56.3935 36.9645 56.3935 36.9645C56.3935 36.9645 55.5537 22.0572 46.1054 28.566C36.6571 35.0748 40.0165 52.0817 40.0165 52.0817C40.0165 52.0817 32.4579 55.2312 33.9276 62.3699C35.3973 69.5086 45.4755 76.2274 45.4755 76.2274L60.3828 69.0887L60.8027 69.2986Z" fill="#0F1419"/>
<path d="M59.333 90.5049L57.4433 112.971C57.4433 112.971 61.0126 119.69 74.4502 121.999C84.5284 123.679 88.3077 121.789 88.3077 121.789L87.8878 110.241L87.4679 99.1133L63.5322 91.9746L59.5429 90.7148L59.333 90.5049Z" fill="#FFCEC7"/>
<path d="M63.5322 91.7676C63.5322 92.3975 63.5322 93.0273 63.9522 94.0772C68.1514 105.625 82.2188 109.194 87.8878 110.244L87.4679 99.1162L63.5322 91.9775V91.7676Z" fill="black"/>
<path d="M97.1262 48.5147C97.1262 48.5147 106.784 77.4894 100.696 92.8166C94.6067 107.934 80.1193 104.155 71.5108 100.165C62.9024 96.386 59.543 90.717 59.543 90.717C59.543 90.717 50.9346 92.6067 46.3154 84.6281C41.4863 76.6496 45.8955 68.461 50.7246 66.9913C55.5537 65.5216 60.8028 69.3009 60.8028 69.3009L57.2334 60.6925C57.2334 60.6925 79.9093 21.4296 97.1262 48.3047V48.5147Z" fill="#FFCEC7"/>
<path d="M58.913 81.4781C58.703 81.4781 58.493 81.4781 58.2831 81.2681L48.4149 73.0796C47.9949 72.6597 47.9949 72.0298 48.4149 71.6099C48.8348 71.1899 49.4647 71.1899 49.8846 71.6099L59.7528 79.7984C60.1727 80.2183 60.1727 80.8482 59.7528 81.2681C59.7528 81.4781 59.3329 81.688 58.913 81.688V81.4781Z" fill="black"/>
<path d="M76.7598 58.8017C76.5499 58.8017 76.3399 58.8017 76.1299 58.5917C75.71 58.1718 75.71 57.5419 76.1299 57.122C79.6993 53.3427 83.8985 54.3925 85.5782 55.6523C85.9982 55.8622 86.2081 56.7021 85.9982 57.122C85.7882 57.5419 84.9483 57.7519 84.5284 57.5419C84.5284 57.5419 80.9591 55.4423 77.8096 58.8017C77.8096 59.0116 77.3897 59.2216 76.9698 59.2216L76.7598 58.8017Z" fill="black"/>
<path d="M99.2259 59.6423C99.0159 59.6423 98.806 59.6423 98.596 59.4323C96.2864 57.3327 93.7669 58.3825 93.5569 58.5925C92.927 58.8025 92.5071 58.5925 92.0872 58.1726C91.8772 57.7526 92.0872 57.1228 92.5071 56.7028C92.5071 56.7028 96.4964 54.8132 99.8558 57.9626C100.276 58.3825 100.276 59.0124 99.8558 59.4323C99.8558 59.6423 99.4359 59.8523 99.0159 59.8523L99.2259 59.6423Z" fill="black"/>
<path d="M93.5567 80.6381C93.5567 80.6381 93.3467 80.6381 93.1368 80.6381C92.5069 80.4281 92.2969 79.7983 92.5069 79.1684C95.4463 71.8197 90.4073 69.0902 90.1973 68.8802C89.7774 68.6703 89.5674 68.0404 89.7774 67.4105C89.9873 66.9906 90.6172 66.7806 91.2471 66.9906C91.2471 66.9906 98.3858 70.5599 94.6065 79.7983C94.6065 80.2182 93.9766 80.4281 93.5567 80.4281V80.6381Z" fill="black"/>
<path d="M98.1762 70.3506C97.7562 70.3506 97.3363 69.9307 97.1263 69.5108L96.0765 64.2617C96.0765 63.6318 96.2865 63.2119 96.9164 63.002C97.5463 63.002 97.9662 63.2119 98.1762 63.8418L99.226 69.0908C99.226 69.7207 99.016 70.1407 98.3861 70.3506H98.1762Z" fill="black"/>
<path d="M81.379 69.2998C80.9591 69.2998 80.5391 68.8799 80.3292 68.46L79.2794 63.2109C79.2794 62.5811 79.4893 62.1611 80.1192 61.9512C80.7491 61.9512 81.169 62.1611 81.379 62.791L82.4288 68.0401C82.4288 68.6699 82.2188 69.0899 81.5889 69.2998H81.379Z" fill="black"/>
<path d="M87.0479 89.0362C86.628 89.0362 80.959 89.0362 78.8594 83.5772C78.8594 82.9473 78.8594 82.5273 79.4893 82.3174C80.1192 82.3174 80.5391 82.3174 80.749 82.9473C82.2188 86.9365 86.8379 86.9365 87.0479 87.1465C87.6778 87.1465 88.0977 87.5664 88.0977 88.1963C88.0977 88.8262 87.6778 89.2461 87.0479 89.2461V89.0362Z" fill="black"/>
<path d="M60.8027 69.298C60.8027 69.298 69.6211 67.8283 72.9805 60.4796C76.3399 53.3409 75.71 46.6221 75.71 46.6221C75.71 46.6221 80.1192 51.4513 87.8878 50.6114C95.6564 49.7716 97.756 41.793 97.756 41.793L90.6173 33.3945C90.6173 33.3945 61.4326 39.4834 60.8027 38.6436C60.1728 37.8037 49.4648 56.7003 49.4648 56.7003L60.8027 69.0881V69.298Z" fill="#0F1419"/>
<path d="M118.752 181.628C105.525 188.347 90.4073 192.126 74.6602 192.126C58.913 192.126 63.9521 191.707 58.7031 190.867C54.9238 190.237 51.3544 189.397 47.7851 188.347C36.0272 184.988 25.1092 179.529 15.4509 172.18C19.4402 147.195 23.8494 126.618 27.2088 124.309C28.0486 123.889 28.8885 123.259 29.7283 122.839C34.1375 120.529 39.8065 119.48 44.4257 119.06C44.6356 119.06 45.0556 119.06 45.2655 119.06C45.6854 119.06 46.3153 119.06 46.7353 119.06C47.1552 119.06 47.5751 119.06 47.995 119.06C48.6249 119.06 49.2548 119.06 49.6747 119.06C51.9843 119.06 53.664 119.06 53.664 119.06C53.664 117.59 54.7138 106.882 57.6533 107.092C60.8027 107.302 68.3613 112.551 76.3399 113.181C84.3184 113.811 88.7276 113.181 90.1974 113.181C91.6671 113.181 92.087 121.789 92.087 121.789C92.087 121.789 102.795 125.359 110.564 133.127C110.564 133.127 110.564 133.127 110.774 133.337C111.194 133.757 112.033 134.597 113.293 136.067C114.343 137.326 115.183 138.586 115.813 140.056C118.122 144.465 118.542 161.682 118.332 182.258L118.752 181.628Z" fill="#4340FF"/>
<path d="M71.0907 123.26C63.742 123.26 54.2937 119.901 53.6638 119.691C53.0339 119.691 52.824 118.851 53.0339 118.431C53.0339 117.801 53.8738 117.591 54.2937 117.801C54.2937 117.801 67.3114 122.631 74.2401 120.951C74.87 120.951 75.2899 121.161 75.4999 121.791C75.4999 122.421 75.2899 122.84 74.66 123.05C73.6102 123.26 72.3504 123.26 71.0907 123.26Z" fill="white"/>
<path d="M49.4648 81.2689C49.0448 81.2689 48.6249 81.2689 48.6249 80.639C48.4149 80.2191 48.6249 79.5892 49.0448 79.1693L54.7138 76.2298C55.1337 76.0199 55.7636 76.2298 56.1835 76.6498C56.3935 77.0697 56.1835 77.6996 55.7636 78.1195L50.0946 81.059H49.6747L49.4648 81.2689Z" fill="black"/>
<path d="M74.45 63.2109H85.9979C87.0477 63.2109 87.8876 64.0508 87.8876 65.1006V70.3496C87.8876 73.0792 85.578 75.3887 82.8485 75.3887H77.8094C75.0799 75.3887 72.7703 73.0792 72.7703 70.3496V65.1006C72.7703 64.0508 73.6102 63.2109 74.66 63.2109H74.45Z" fill="black"/>
<path d="M95.8662 63.4209H107.414C108.464 63.4209 109.304 64.2607 109.304 65.3106V70.5596C109.304 73.2891 106.994 75.5987 104.265 75.5987H99.2256C96.4961 75.5987 94.1865 73.2891 94.1865 70.5596V65.3106C94.1865 64.2607 95.0264 63.4209 96.0762 63.4209H95.8662Z" fill="black"/>
<path d="M87.8878 71.397C87.6779 71.397 87.2579 71.397 87.048 71.187C86.6281 70.7671 86.6281 70.1372 87.048 69.7173C87.048 69.7173 90.6173 66.1479 96.4963 67.6177C97.1261 67.6177 97.3361 68.2476 97.3361 68.8774C97.3361 69.5073 96.7062 69.7173 96.0763 69.7173C91.4572 68.6675 88.7277 71.187 88.5177 71.397C88.5177 71.397 88.0978 71.6069 87.6779 71.6069L87.8878 71.397Z" fill="black"/>
<path d="M54.084 66.7801C53.6641 66.7801 53.2441 66.3601 53.0342 65.9402C53.0342 65.3103 53.2441 64.8904 53.874 64.6805C66.6817 61.741 74.6603 64.6805 75.0802 64.6805C75.7101 64.6805 75.92 65.5203 75.7101 65.9402C75.7101 66.5701 74.8702 66.7801 74.4503 66.5701C74.4503 66.5701 66.6817 63.8406 54.5039 66.5701C54.5039 66.5701 54.5039 66.5701 54.294 66.5701L54.084 66.7801Z" fill="black"/>
</g>
<defs>
<clipPath id="clip0_78570_478298">
<rect width="150" height="150" fill="white"/>
</clipPath>
</defs>
</svg>
