<svg width="150" height="150" viewBox="0 0 150 150" fill="none" xmlns="http://www.w3.org/2000/svg">
<g clip-path="url(#clip0_78570_479053)">
<rect width="150" height="150" fill="#E6E6E6"/>
<path d="M166 96.6827C166 121.248 156.491 143.436 141.039 159.879C124.2 177.708 100.229 189 73.6826 189C47.1364 189 16.0336 174.142 -0.805397 151.36C-12.0974 136.106 -18.833 117.088 -18.833 96.6827C-18.833 45.5713 22.5711 4.36523 73.4844 4.36523C124.398 4.36523 165.802 45.7694 165.802 96.6827H166Z" fill="#E6E6E6"/>
<path d="M66.5508 43.1954C66.5508 43.1954 79.0315 25.7621 110.728 43.1954C142.624 60.4307 128.954 139.475 128.954 139.475L69.1262 131.749L66.3528 43.3935L66.5508 43.1954Z" fill="black"/>
<path d="M76.8525 89.3535L78.2393 112.136C78.2393 112.136 74.6734 118.871 61.9946 120.852C52.4855 122.239 49.1177 117.286 49.1177 117.286L50.1082 97.2778L72.8904 90.5422L76.6545 89.3535H76.8525Z" fill="#FFC0B2"/>
<path d="M76.8525 87.9658C76.8525 88.5601 76.6544 89.3525 76.2582 90.145C72.098 101.833 55.0608 107.578 49.7119 108.371L50.3062 97.0787L76.8525 87.9658Z" fill="black"/>
<path d="M42.184 45.571C42.184 45.571 32.4768 74.8907 38.0238 90.343C43.5708 105.795 57.2401 102.427 65.3624 98.6634C73.4848 94.8994 76.8526 89.3525 76.8526 89.3525C76.8526 89.3525 84.7769 91.5316 89.5314 83.6074C94.0878 75.6831 90.3238 67.3627 85.7673 65.5797C81.2109 63.9949 76.0601 67.7589 76.0601 67.7589L79.6261 59.2403C79.6261 59.2403 59.023 18.8267 42.184 45.571Z" fill="#FFC0B2"/>
<path d="M46.146 81.6279C45.7497 81.6279 45.3535 81.4298 45.1554 81.0336C42.7782 75.0904 46.3441 68.5529 46.5422 68.3548C46.7403 67.9586 47.3346 67.7605 47.929 67.9586C48.3252 68.1567 48.5232 68.751 48.3251 69.3453C48.3251 69.3453 44.9574 75.2885 46.9384 80.4393C47.1365 81.0336 46.9383 81.4298 46.344 81.6279C46.344 81.6279 46.146 81.6279 45.9479 81.6279H46.146Z" fill="black"/>
<path d="M78.2392 81.034C78.0411 81.034 77.843 81.034 77.6449 80.8359C77.2487 80.4397 77.0505 79.8454 77.6449 79.4492L84.3804 70.7325C84.7766 70.3363 85.371 70.1382 85.7672 70.7325C86.1634 71.1287 86.3615 71.723 85.7672 72.1193L79.0315 80.8359C79.0315 81.034 78.6354 81.2321 78.2392 81.2321V81.034Z" fill="black"/>
<path d="M85.965 78.2591L80.6163 77.8629C80.0219 77.8629 79.6257 77.2686 79.6257 76.8724C79.6257 76.278 80.2201 75.8818 80.6163 75.8818L85.767 76.278C86.3613 76.278 86.7575 76.8724 86.7575 77.2686C86.7575 77.8629 86.3613 78.2591 85.767 78.2591H85.965Z" fill="black"/>
<path d="M39.014 58.8463C38.6178 58.8463 38.2215 58.6482 38.0234 58.0539C38.0234 57.4596 38.0234 57.0634 38.8158 56.8653L43.5704 55.4785C44.1647 55.4785 44.5609 55.4785 44.759 56.271C44.759 56.8653 44.759 57.2615 43.9666 57.4596L39.212 58.8463C39.212 58.8463 39.2121 58.8463 39.014 58.8463Z" fill="black"/>
<path d="M59.2207 60.43C59.2207 60.43 59.2207 60.43 59.0226 60.43L52.287 58.6471C51.6927 58.6471 51.4946 58.0527 51.4946 57.4584C51.4946 56.8641 52.0889 56.666 52.6832 56.666L59.4189 58.449C60.0132 58.449 60.2112 59.0433 60.2112 59.6376C60.2112 60.0338 59.6169 60.43 59.2207 60.43Z" fill="black"/>
<path d="M40.005 70.5343C40.005 70.5343 40.0049 70.5343 39.8068 70.5343C39.2125 70.5343 39.0144 69.94 39.0144 69.3457L40.005 64.5911L38.6182 63.2044C38.222 62.8082 38.222 62.2139 38.6182 61.8177C39.0144 61.4215 39.6088 61.4215 40.005 61.8177L41.5898 63.6006C41.7879 63.7987 41.986 64.1949 41.7879 64.393L40.7973 69.5438C40.7973 69.94 40.203 70.3362 39.8068 70.3362L40.005 70.5343Z" fill="black"/>
<path d="M54.8627 70.7312C54.8627 70.7312 54.8626 70.7312 54.6645 70.7312C54.0702 70.7312 53.8722 70.1369 53.8722 69.5426L54.8627 64.788L52.8816 62.807C52.4854 62.4108 52.4854 61.8164 52.8816 61.4202C53.2778 61.024 53.8721 61.024 54.2683 61.4202L56.6456 63.7975C56.8437 63.9956 57.0419 64.3918 56.8438 64.788L55.8532 69.9388C55.8532 70.335 55.2589 70.7312 54.8627 70.7312Z" fill="black"/>
<path d="M48.9196 121.249C48.9196 121.249 46.5422 109.165 49.7119 108.372C52.8816 107.58 56.6456 109.759 64.1737 107.778C71.7017 105.995 75.4658 103.222 77.843 103.023C80.2203 102.825 79.4279 118.079 79.4279 118.079L61.004 125.806L48.9196 121.051V121.249Z" fill="#507849"/>
<path d="M86.956 66.3727C86.956 66.3727 83.3902 65.1841 80.6167 65.5803C77.8433 66.1746 75.8622 67.7595 75.8622 67.7595L72.4943 72.3159L74.2773 63.0049C74.2773 63.0049 71.9001 61.6182 68.3341 60.2314L69.5227 52.1091L66.1549 59.439C62.7871 58.2504 58.6269 56.8636 54.6648 56.4674C52.4856 56.2693 50.5045 56.0712 48.7216 56.0712L49.7121 47.3545L46.3443 56.0712C41.9859 56.0712 39.8068 56.8637 39.8068 56.8637L36.8352 65.9765C36.8352 65.9765 36.0428 41.6095 46.7405 34.8739C57.2401 28.1382 76.6546 28.1382 85.5694 39.6284C94.4842 51.1185 86.5599 66.3727 86.5599 66.3727H86.956Z" fill="black"/>
<path d="M53.6741 87.5693C53.0798 87.5693 52.6836 87.1731 52.6836 86.7769C52.6836 86.1826 53.0799 85.7864 53.4761 85.5883C53.4761 85.5883 56.2495 85.192 58.2305 81.428C58.4286 81.0318 59.023 80.8337 59.6173 81.0318C60.0135 81.2299 60.2117 81.8242 60.0135 82.4186C57.4382 87.1731 53.8722 87.7674 53.6741 87.7674V87.5693Z" fill="black"/>
<path d="M140.841 159.878C124.002 177.708 100.031 189 73.4847 189C46.9385 189 15.8358 174.142 -1.00317 151.36C7.31728 141.058 25.3449 122.238 49.1177 117.286C80.2203 110.748 124.398 117.88 140.643 159.878H140.841Z" fill="#507849"/>
<path d="M67.5418 115.701C66.9475 115.701 66.5513 115.304 66.5513 114.71C66.5513 114.116 66.9475 113.72 67.5418 113.72C68.1361 113.72 72.8907 113.72 77.8433 111.342C78.2396 111.144 78.8339 111.342 79.2301 111.739C79.4282 112.135 79.2301 112.729 78.8339 113.125C73.2869 115.701 67.938 115.701 67.5418 115.701Z" fill="white"/>
</g>
<defs>
<clipPath id="clip0_78570_479053">
<rect width="150" height="150" fill="white"/>
</clipPath>
</defs>
</svg>
