<svg width="150" height="150" viewBox="0 0 150 150" fill="none" xmlns="http://www.w3.org/2000/svg">
<g clip-path="url(#clip0_78570_478639)">
<rect width="150" height="150" fill="#EDDDD6"/>
<path d="M161 91.5611C161 108.093 156.356 123.511 148.369 136.699C133.137 161.59 105.831 178.122 74.439 178.122C43.0466 178.122 25.0286 166.605 9.05377 148.402C-4.13472 133.17 -12.1221 113.294 -12.1221 91.5611C-12.1221 43.6367 26.7003 5 74.439 5C122.178 5 161 43.8224 161 91.5611Z" fill="#EDDDD6"/>
<path d="M82.9838 67.5991C82.9838 67.5991 96.9153 60.912 98.4013 71.8715C100.259 84.5027 85.0271 85.2457 85.0271 85.2457L82.9838 67.5991Z" fill="#FFA28D"/>
<path d="M90.5996 78.7442H90.2281C89.8566 78.5584 89.6709 78.0012 89.8566 77.4439L94.3147 69.085C94.5004 68.7135 95.0577 68.5277 95.615 68.7135C95.9865 68.8992 96.1722 69.4565 95.9865 70.0138L91.5284 78.3727C91.5284 78.7442 90.9711 78.9299 90.7854 78.9299L90.5996 78.7442Z" fill="black"/>
<path d="M91.8998 76.3302C91.3425 76.3302 90.971 75.9587 90.971 75.4014C90.971 74.8442 91.3425 74.4727 91.8998 74.4727H95.9863C96.5436 74.4727 96.9151 74.8442 96.9151 75.2157C96.9151 75.7729 96.5436 76.1444 95.9863 76.1444H91.8998V76.3302Z" fill="black"/>
<path d="M148.369 136.701C155.955 156.352 135.923 180.15 127.564 186.465C127.007 186.837 126.45 187.394 125.893 187.766C111.59 198.539 93.7573 196.59 74.439 196.59C55.1207 196.59 51.7771 194.361 41.7464 190.275C41.1891 190.089 40.6319 189.717 40.0746 189.532C28.1864 184.331 9.23956 196.59 9.23956 148.403C12.7689 137.63 19.2703 127.413 30.787 120.912C60.3217 104.38 104.531 104.38 124.035 113.667C136.109 119.426 143.656 124.494 148.369 136.701Z" fill="#7772D3"/>
<path d="M88.7421 54.9681C88.7421 54.9681 98.0298 40.1079 96.1722 33.7922C94.3147 27.4766 85.9558 33.7922 85.9558 33.7922C85.9558 33.7922 84.0983 20.0465 73.8818 22.8328C60.3218 26.3621 46.7618 50.3243 46.7618 50.3243C46.7618 50.3243 39.889 48.6525 37.4742 54.5966C34.6879 61.6552 37.1027 69.6426 41.5608 76.5155C45.8331 83.5741 57.7213 77.8158 57.7213 77.8158L88.7421 55.1539V54.9681Z" fill="black"/>
<path d="M60.136 98.0639L60.6933 114.41C60.6933 114.41 66.6374 117.568 74.0676 117.382C84.0982 117.196 87.256 112.738 87.256 112.738L86.3273 91.5625L60.136 98.0639Z" fill="#FFA28D"/>
<path d="M60.136 97.6905C60.136 97.6905 66.4517 109.95 77.7826 107.721C86.8845 106.049 86.513 93.2324 86.513 93.2324L60.3218 97.6905H60.136Z" fill="black"/>
<path d="M88.742 54.9684C88.742 54.9684 93.7574 83.3886 88.742 94.3481C82.9837 106.794 68.4949 105.122 63.2938 101.407C56.2352 96.3914 53.2631 88.404 53.2631 88.404C53.2631 88.404 43.9755 90.633 40.6319 83.2029C37.1026 75.2155 42.6752 68.5284 47.319 67.9711C51.9628 67.4139 52.5201 68.1569 52.5201 68.1569L50.8483 59.6122C50.8483 59.6122 78.1541 26.9196 88.9278 54.7826L88.742 54.9684Z" fill="#FFA28D"/>
<path d="M52.5201 68.1567C52.5201 68.1567 58.65 68.3424 65.5228 62.9556C73.5102 56.64 72.21 46.052 72.21 46.052C72.21 46.052 86.8845 54.4109 90.4138 65.5561C94.1288 76.7013 93.9431 38.9934 77.7826 40.4794C61.622 41.7797 40.0746 52.3676 52.3343 68.3424L52.5201 68.1567Z" fill="black"/>
<path d="M51.4055 80.7887C51.2198 80.7887 51.0341 80.7887 50.8483 80.6029L43.4182 74.6588C43.0467 74.2873 42.8609 73.73 43.4182 73.3585C43.7897 72.987 44.3469 72.8013 44.7184 73.3585L52.1486 79.3027C52.5201 79.6742 52.7058 80.2314 52.1486 80.6029C52.1486 80.7887 51.7771 80.9744 51.4055 80.9744V80.7887Z" fill="black"/>
<path d="M44.7186 82.0883C44.5328 82.0883 44.1613 82.0882 43.9755 81.7167C43.604 81.3452 43.7898 80.788 43.9755 80.4165L48.0621 77.0729C48.4336 76.7014 48.9909 76.8871 49.3624 77.0729C49.7339 77.4444 49.5482 78.0017 49.3624 78.3732L45.2758 81.7167C45.2758 81.7167 44.9043 81.9025 44.7186 81.9025V82.0883Z" fill="black"/>
<path d="M66.8232 72.4301C66.2659 72.4301 65.8944 72.0586 65.8944 71.5013L65.5229 66.8575C65.5229 66.3002 65.8944 65.9287 66.2659 65.9287C66.8232 65.9287 67.1947 66.3002 67.1947 66.6717L67.5662 71.3156C67.5662 71.8728 67.1947 72.2443 66.8232 72.2443V72.4301Z" fill="black"/>
<path d="M84.6554 71.6859C84.0981 71.6859 83.7266 71.3144 83.7266 70.7572L83.3551 66.1133C83.3551 65.5561 83.7266 65.1846 84.0981 65.1846C84.6554 65.1846 85.0269 65.5561 85.0269 65.9276L85.3984 70.5714C85.3984 71.1287 85.0269 71.5002 84.6554 71.5002V71.6859Z" fill="black"/>
<path d="M78.1541 83.2031C77.5968 83.2031 77.2253 82.6459 77.4111 82.0886C78.5256 75.4015 76.1108 69.8289 76.1108 69.8289C75.925 69.2716 76.1108 68.9001 76.6681 68.5286C77.2253 68.3429 77.5968 68.5286 77.9683 69.0859C77.9683 69.2717 80.5689 75.2158 79.4544 82.4601C79.4544 82.8316 78.8971 83.2031 78.5256 83.2031H78.1541Z" fill="black"/>
<path d="M86.3272 62.2125C86.1414 62.2125 85.9557 62.2125 85.7699 62.0268C84.4696 61.098 82.2406 60.9122 81.4976 60.9122C80.9404 60.9122 80.5688 60.5407 80.5688 59.9835C80.5688 59.4262 80.9404 59.0547 81.4976 59.0547C81.4976 59.0547 85.0269 59.0547 87.0702 60.5407C87.4417 60.9122 87.4417 61.4695 87.0702 61.841C87.0702 62.0267 86.6987 62.2125 86.3272 62.2125Z" fill="black"/>
<path d="M65.3371 62.9559C65.1513 62.9559 64.7798 62.9559 64.5941 62.5844C64.2226 62.2129 64.4083 61.6556 64.5941 61.2841C66.6374 59.6124 69.9809 59.7981 70.1667 59.7981C70.7239 59.7981 71.0954 60.3554 71.0954 60.7269C71.0954 61.2842 70.7239 61.6557 70.1667 61.6557C70.1667 61.6557 67.3804 61.6557 65.8943 62.5844C65.8943 62.5844 65.5228 62.7702 65.3371 62.7702V62.9559Z" fill="black"/>
<path d="M50.2911 68.3432C50.2911 68.3432 53.6347 76.7021 54.5635 76.3306C55.4922 75.9591 53.2632 62.7706 50.1054 62.3991C46.9476 62.0276 50.1054 68.529 50.1054 68.529L50.2911 68.3432Z" fill="black"/>
<path d="M74.0675 118.124C65.5228 118.124 57.3497 114.409 57.3497 114.223C56.9782 114.038 56.6067 113.48 56.9782 112.923C57.1639 112.552 57.7212 112.18 58.2785 112.552C58.4642 112.552 81.4976 123.325 90.0423 107.536C90.228 107.165 90.7853 106.979 91.3425 107.165C91.714 107.35 91.8998 107.908 91.7141 108.465C87.6275 115.895 80.7546 118.124 74.2532 118.124H74.0675Z" fill="#FFBF69"/>
<path d="M74.8105 90.2627C72.0242 90.2627 70.5382 88.5909 70.1667 87.4764C69.9809 86.9191 70.1667 86.5476 70.724 86.1761C71.2812 85.9903 71.6527 86.1761 71.8385 86.7334C71.8385 86.9191 72.953 89.1482 76.4823 88.0336C77.0396 88.0336 77.4111 88.0336 77.5968 88.5909C77.5968 89.1482 77.5968 89.5197 77.0396 89.7054C76.2966 89.8912 75.5535 90.0769 74.8105 90.0769V90.2627Z" fill="black"/>
</g>
<defs>
<clipPath id="clip0_78570_478639">
<rect width="150" height="150" fill="white"/>
</clipPath>
</defs>
</svg>
