<svg width="150" height="150" viewBox="0 0 150 150" fill="none" xmlns="http://www.w3.org/2000/svg">
<g clip-path="url(#clip0_78570_478684)">
<rect width="150" height="150" fill="#EAEAEA"/>
<path d="M164.813 95.2226C164.813 104.371 163.506 113.145 160.893 121.36C156.972 133.869 150.251 145.257 141.476 154.778C141.476 154.965 141.103 155.152 140.916 155.339C140.73 155.525 140.356 155.899 140.17 156.085C124.3 172.141 102.27 182.223 78 182.223C53.7296 182.223 70.5322 182.036 66.7983 181.476C57.8369 180.356 49.2489 177.742 41.4077 174.008C40.6609 173.635 40.1009 173.448 39.3541 173.075C26.4721 166.727 15.4571 157.205 7.24249 145.63C6.49571 144.697 5.74893 143.577 5.18884 142.643C3.50858 140.03 2.01502 137.416 0.521458 134.802C-5.63949 122.854 -9 109.411 -9 95.2226C-9 47.0553 30.0193 8.22266 78 8.22266C125.981 8.22266 165 47.242 165 95.2226H164.813Z" fill="#EAEAEA"/>
<path d="M141.476 154.592C141.476 154.778 141.103 154.965 140.916 155.152C140.73 155.338 140.356 155.712 140.17 155.898C124.3 171.954 102.27 182.036 78 182.036C53.7296 182.036 70.5322 181.849 66.7983 181.289C57.8369 180.169 49.2489 177.555 41.4077 173.821C42.1545 142.27 41.7811 114.639 41.7811 114.265C42.1545 113.519 56.7167 109.785 76.133 109.225C106.751 108.291 132.515 125.467 141.663 154.405L141.476 154.592Z" fill="#35D487"/>
<path d="M66.6115 181.476C57.6502 180.356 49.0622 177.742 41.221 174.008C40.4742 173.635 39.9141 173.448 39.1673 173.075C26.2854 166.727 1 158 7.05574 145.631C23.8583 122.667 37.4871 115.946 41.5944 114.266C42.3411 113.893 42.9012 113.893 42.9012 113.893L66.7982 181.29L66.6115 181.476Z" fill="#35D487"/>
<path d="M78.1867 58.2575C78.1867 58.2575 98.3497 59.191 99.4699 39.9614C100.59 19.4249 81.7339 17.5579 73.706 25.7725C65.6781 33.9871 67.1716 42.5751 67.1716 42.5751C67.1716 42.5751 61.5708 37.5343 55.4098 43.6953C50.9291 48.176 53.1695 55.6437 53.1695 55.6437C53.1695 55.6437 42.7145 55.2704 43.8347 64.2317C44.7682 73.1931 51.3025 77.8605 51.3025 77.8605L78.3734 58.0708L78.1867 58.2575Z" fill="#FFA143"/>
<path d="M59.8906 93.7305L61.9442 115.014C61.9442 115.014 66.4249 120.801 78.9335 120.615C88.2682 120.615 91.4421 118.001 91.4421 118.001L89.015 107.359L86.7747 96.9043L63.8112 94.1039L59.8906 93.7305Z" fill="#FCA397"/>
<path d="M63.6245 94.2891C63.6245 94.8491 63.9979 95.5959 64.3713 96.3427C70.1588 106.611 83.4142 107.544 88.8284 107.544L86.588 97.0895L63.6245 94.2891Z" fill="black"/>
<path d="M86.7748 47.8026C86.7748 47.8026 100.59 73.5665 97.6031 88.8755C94.616 104.185 80.8005 102.878 72.3992 100.637C63.9979 98.397 59.8907 93.7296 59.8907 93.7296C59.8907 93.7296 52.4228 96.9034 46.822 90.1824C41.2211 83.4614 43.6482 75.0601 47.7555 72.8197C51.8628 70.5794 57.4636 73.3798 57.4636 73.3798L52.7962 65.912C52.7962 65.912 66.6117 25.2125 86.7748 47.6159V47.8026Z" fill="#FCA397"/>
<path d="M57.6502 85.1408C57.6502 85.1408 57.2768 85.1408 57.0901 85.1408L48.6888 80.2867C48.3154 80.1 48.1287 79.5399 48.3154 78.9798C48.5021 78.6064 49.0622 78.4198 49.6223 78.6064L58.0236 83.4605C58.397 83.6472 58.5837 84.2073 58.397 84.7674C58.397 85.1408 57.8369 85.1408 57.6502 85.1408Z" fill="black"/>
<path d="M50.7425 85.8885C50.3691 85.8885 49.9957 85.8885 49.9957 85.3284C49.809 84.9551 49.9957 84.395 50.3691 84.0216L54.6631 81.7813C55.0365 81.5946 55.5966 81.7812 55.97 82.1546C56.1567 82.528 55.97 83.0881 55.5966 83.4615L51.3026 85.7019H50.9292L50.7425 85.8885Z" fill="black"/>
<path d="M90.5087 57.8838C90.5087 57.8838 90.1353 57.8838 89.9486 57.8838C87.5215 56.2035 85.2812 57.8838 85.2812 57.8838C84.9078 58.2572 84.3477 58.0705 83.9743 57.6971C83.601 57.3237 83.7876 56.7636 84.161 56.3902C84.161 56.3902 87.5215 53.9632 90.8821 56.3902C91.2555 56.7636 91.4422 57.3237 91.0688 57.6971C91.0688 57.8838 90.5087 58.0705 90.322 58.0705L90.5087 57.8838Z" fill="black"/>
<path d="M87.5216 82.1548C86.9615 82.1548 86.7748 81.5947 86.7748 81.0347C88.2684 73.0068 83.7877 67.966 83.601 67.7793C83.2276 67.4059 83.2276 66.8458 83.601 66.4724C83.9744 66.099 84.5345 66.099 84.9079 66.4724C85.0946 66.6591 90.1354 72.4467 88.4551 81.2213C88.4551 81.5947 87.895 81.9681 87.5216 81.9681V82.1548Z" fill="black"/>
<path d="M90.5086 70.5786C89.9485 70.5786 89.5751 70.2052 89.5751 69.6451V64.6044C89.3884 64.0443 89.5751 63.6709 90.3219 63.6709C90.882 63.6709 91.2553 64.0443 91.2553 64.6044V69.6451C91.442 70.2052 91.2553 70.5786 90.5086 70.5786Z" fill="black"/>
<path d="M76.5064 71.8862C75.9463 71.8862 75.5729 71.5128 75.5729 70.9528V65.912C75.3862 65.3519 75.5729 64.9785 76.3197 64.9785C76.8798 64.9785 77.2531 65.3519 77.2531 65.912V70.9528C77.4398 71.5128 77.2531 71.8862 76.5064 71.8862Z" fill="black"/>
<path d="M89.5753 53.5898C89.5753 53.5898 86.7748 49.4825 81.5474 50.0426C76.1332 50.6027 73.5195 54.5233 73.5195 54.5233C73.5195 54.5233 76.6933 63.298 69.9723 68.7121C63.2512 74.1263 57.4637 73.3795 57.4637 73.3795L52.0495 72.0726L47.3821 64.7915L61.0109 46.8688L79.6804 34.5469L90.5088 42.5748L89.5753 53.4031V53.5898Z" fill="#FFA143"/>
<path d="M83.2274 87.7538C81.3605 87.7538 78.1867 87.1938 76.3197 83.8333C76.133 83.4599 76.3197 82.8998 76.6931 82.5264C77.0665 82.3397 77.6266 82.5264 78 82.8998C80.0536 86.447 84.3476 85.7002 84.3476 85.7002C84.9077 85.7002 85.2811 85.8869 85.4678 86.447C85.4678 87.0071 85.2811 87.3805 84.721 87.5672C84.721 87.5672 84.1609 87.5672 83.2274 87.5672V87.7538Z" fill="black"/>
<path d="M96.1094 78.233C91.0687 78.233 86.9614 73.939 86.9614 68.8982C86.9614 63.8575 91.0687 59.5635 96.1094 59.5635C101.15 59.5635 105.257 63.8575 105.257 68.8982C105.257 73.939 101.15 78.233 96.1094 78.233ZM96.1094 61.2437C92.1888 61.2437 88.8283 64.6042 88.8283 68.7115C88.8283 72.8188 92.0021 76.1793 96.1094 76.1793C100.217 76.1793 103.391 72.8188 103.391 68.7115C103.391 64.6042 100.217 61.2437 96.1094 61.2437Z" fill="white"/>
<path d="M74.4529 80.2877C69.2254 80.2877 65.1181 75.9937 65.1181 70.9529C65.1181 65.9122 69.4121 61.6182 74.4529 61.6182C79.4936 61.6182 83.7876 65.9122 83.7876 70.9529C83.7876 75.9937 79.4936 80.2877 74.4529 80.2877ZM74.4529 63.2984C70.3456 63.2984 66.9851 66.659 66.9851 70.7662C66.9851 74.8735 70.3456 78.2341 74.4529 78.2341C78.5602 78.2341 81.9207 74.8735 81.9207 70.7662C81.9207 66.659 78.5602 63.2984 74.4529 63.2984Z" fill="white"/>
<path d="M82.1074 70.7649C81.5473 70.7649 81.174 70.3915 81.174 69.8315C81.174 69.2714 81.5473 68.898 82.1074 68.898L88.6418 68.3379C89.2018 68.3379 89.5752 68.7113 89.5752 69.2714C89.5752 69.8315 89.2018 70.2048 88.6418 70.2048L82.1074 70.7649Z" fill="white"/>
<path d="M51.8627 73.0054C51.676 73.0054 51.4893 73.0054 51.3026 72.8187C50.9292 72.4453 50.9292 71.8853 51.3026 71.5119C56.3434 66.0977 66.0515 71.1385 66.6116 71.3252C66.985 71.5119 67.1717 72.072 66.985 72.6321C66.7983 73.0055 66.2382 73.1921 65.6782 73.0054C65.6782 73.0054 56.7168 68.5247 52.6095 72.8187C52.6095 73.0054 52.2361 73.1921 51.8627 73.1921V73.0054Z" fill="white"/>
<path d="M79.1202 120.801C73.146 120.801 66.0516 119.307 59.3305 114.266C58.9571 113.893 58.7704 113.333 59.1438 112.96C59.5172 112.586 60.0773 112.399 60.4507 112.773C76.8799 124.908 94.8026 115.387 94.9893 115.387C95.3627 115.2 95.9228 115.387 96.2962 115.76C96.4829 116.133 96.2962 116.693 95.9228 117.067C95.9228 117.067 88.8284 120.801 79.3069 120.801H79.1202Z" fill="white"/>
<path d="M69.7854 60.8714C69.7854 60.8714 69.412 60.8714 69.2253 60.8714C68.8519 60.6847 68.6652 59.9379 68.8519 59.5645C71.4657 55.4572 75.3863 55.8306 77.0665 56.5774C77.6266 56.7641 77.8133 57.3241 77.6266 57.8842C77.4399 58.4443 76.8798 58.631 76.3197 58.4443C76.3197 58.4443 72.5858 56.9508 70.3455 60.6847C70.3455 61.0581 69.7854 61.058 69.5987 61.058L69.7854 60.8714Z" fill="black"/>
</g>
<defs>
<clipPath id="clip0_78570_478684">
<rect width="150" height="150" fill="white"/>
</clipPath>
</defs>
</svg>
