<svg width="150" height="150" viewBox="0 0 150 150" fill="none" xmlns="http://www.w3.org/2000/svg">
<g clip-path="url(#clip0_78570_478730)">
<rect width="150" height="150" fill="#EAEAEA"/>
<path d="M98.8216 176.813C91.321 178.875 83.4453 180 75.3822 180C67.319 180 65.2563 179.625 60.3809 178.688C57.7557 178.313 55.318 177.75 52.8803 177C49.5051 176.063 46.3173 175.125 43.1295 173.812L49.3176 111.37L83.0703 103.307L96.5714 107.244L98.8216 176.625V176.813Z" fill="#1B9CF0"/>
<path d="M54.3804 47.9878C54.3804 47.9878 41.6294 32.2365 45.0046 29.9864C48.5674 27.9237 51.7552 31.1114 51.7552 31.1114C51.7552 31.1114 78.0073 26.9861 87.5706 29.6113C97.1339 32.2366 103.509 47.9878 103.509 47.9878C103.509 47.9878 108.385 47.6128 110.26 53.9883C112.323 60.5514 98.259 92.6165 89.2583 90.9288C80.2575 89.2412 54.3804 47.8003 54.3804 47.8003V47.9878Z" fill="black"/>
<path d="M89.0709 85.8662L89.4459 107.805C89.4459 107.805 85.6956 114.181 72.9446 115.494C63.3813 116.431 60.006 114.369 60.006 114.369L61.1311 103.305L62.2562 92.4292L85.3205 86.8038L89.2584 85.8662H89.0709Z" fill="#FCA397"/>
<path d="M85.133 86.8037C85.133 87.3663 84.9454 88.1163 84.5704 88.8664C79.8825 99.9298 66.5689 102.555 61.131 103.118L62.2561 92.2417L85.3204 86.6162L85.133 86.8037Z" fill="black"/>
<path d="M56.2554 42.7377C56.2554 42.7377 45.3796 70.3025 50.255 85.4912C55.1304 100.68 69.0065 97.6797 77.0696 94.492C85.3203 91.3042 89.0706 86.0538 89.0706 86.0538C89.0706 86.0538 96.9463 88.4915 101.822 80.9909C106.697 73.4902 103.322 65.4271 98.8214 63.5519C94.3211 61.8643 89.0706 65.2396 89.0706 65.2396L93.0085 57.1764C93.0085 57.1764 74.0694 17.6107 56.2554 42.7377Z" fill="#FCA397"/>
<path d="M56.2556 42.738C56.2556 42.738 64.6938 39.3627 68.4441 42.3629C72.0069 45.3632 76.3198 70.6777 89.0708 65.2398C101.822 59.8019 95.2588 43.488 95.2588 43.488C95.2588 43.488 63.1937 15.9233 56.2556 42.738Z" fill="black"/>
<path d="M61.1308 103.307C61.1308 103.307 57.193 140.247 52.8802 177.188C29.4408 171 -10 161.5 -1.31173 134.622C5.62633 127.309 16.6897 115.12 26.253 111.37C42.9419 104.619 61.1308 103.494 61.1308 103.494V103.307Z" fill="#1D46EB"/>
<path d="M70.1316 116.62C64.5061 116.62 60.0057 115.307 59.6307 115.307C59.0681 115.307 58.8806 114.557 59.0681 114.182C59.0681 113.62 59.8182 113.432 60.1932 113.62C60.1932 113.62 78.9448 118.87 88.6956 107.432C89.0706 107.057 89.6331 107.057 90.0081 107.432C90.3832 107.807 90.3832 108.369 90.0081 108.744C84.3827 115.307 76.5071 116.62 70.1316 116.62Z" fill="white"/>
<path d="M156.201 125.619C162.5 162 124.886 169.498 98.8216 176.623C97.134 177.186 95.2588 177.561 93.3837 177.936C90.7584 149.058 89.2583 98.6168 89.2583 98.6168C89.2583 98.6168 127.136 96.5542 156.201 125.619Z" fill="#1D46EB"/>
<path d="M90.0082 77.241C89.8207 77.241 89.6332 77.241 89.4457 77.0534C89.0707 76.6784 89.0707 76.1159 89.4457 75.7408L96.3838 68.6153C96.7588 68.2402 97.3213 68.2402 97.6964 68.6153C98.0714 68.9903 98.0714 69.5529 97.6964 69.9279L90.7583 77.0534C90.7583 77.241 90.3833 77.4285 90.0082 77.4285V77.241Z" fill="black"/>
<path d="M99.384 75.553C99.384 75.553 99.384 75.553 99.1965 75.553L93.196 74.0529C92.6334 74.0529 92.4459 73.4903 92.4459 72.9278C92.4459 72.3652 93.0085 72.1777 93.571 72.1777L99.5715 73.6779C100.134 73.6779 100.322 74.2404 100.322 74.8029C100.322 75.178 99.759 75.553 99.384 75.553Z" fill="black"/>
<path d="M54.5678 55.1148C54.3803 55.1148 54.1928 55.1149 54.0053 54.9273C53.6303 54.5523 53.4428 53.9897 54.0053 53.6147C54.0053 53.6147 55.8805 51.177 60.3808 51.7396C60.9434 51.7396 61.3184 52.3021 61.1309 52.8647C61.1309 53.4272 60.5683 53.8022 60.0058 53.6147C56.6305 53.0522 55.5054 54.5523 55.3179 54.7398C55.3179 54.9273 54.9429 55.1148 54.5678 55.1148Z" fill="black"/>
<path d="M75.1945 55.3027C75.007 55.3027 74.8195 55.3027 74.632 55.1152C72.1943 53.0525 69.3815 53.8026 69.3815 53.8026C68.819 53.8026 68.444 53.8025 68.2565 53.24C68.2565 52.6775 68.2564 52.3024 68.819 52.1149C68.819 52.1149 72.5693 51.1773 75.7571 53.8026C76.1321 54.1776 76.1321 54.7401 75.7571 55.1152C75.7571 55.3027 75.382 55.4902 75.007 55.4902L75.1945 55.3027Z" fill="black"/>
<path d="M55.5056 65.9898C54.943 65.9898 54.568 65.4273 54.568 65.0522L54.943 59.9893C54.943 59.4268 55.5056 59.0518 55.8806 59.0518C56.4432 59.0518 56.8182 59.6143 56.8182 59.9893L56.4431 65.0522C56.4431 65.6148 56.0681 65.9898 55.5056 65.9898Z" fill="black"/>
<path d="M70.5068 66.5513C69.9442 66.5513 69.5692 65.9888 69.5692 65.6138L69.9443 60.5509C69.9443 59.9883 70.5068 59.6133 70.8818 59.6133C71.4444 59.6133 71.8194 60.1758 71.8194 60.5509L71.4444 65.6138C71.4444 66.1763 71.0693 66.5513 70.5068 66.5513Z" fill="black"/>
<path d="M59.0683 78.1779C58.6933 78.1779 58.3182 77.9904 58.1307 77.6154C54.943 70.4898 59.6308 64.6768 60.0059 64.4893C60.3809 64.1143 60.9435 64.1143 61.3185 64.4893C61.6935 64.8643 61.6935 65.4269 61.3185 65.8019C61.3185 65.9894 57.1932 70.8648 59.8184 77.0528C60.0059 77.6153 59.8184 77.9904 59.2558 78.3654C59.2558 78.3654 59.0683 78.3654 58.8808 78.3654L59.0683 78.1779Z" fill="black"/>
<path d="M65.0688 82.6791C64.5063 82.6791 64.1312 82.3041 64.1312 81.7415C64.1312 81.179 64.5063 80.804 65.0688 80.804C65.0688 80.804 68.4441 80.804 69.5692 77.9912C69.7567 77.4287 70.3192 77.2412 70.8818 77.4287C71.4443 77.6162 71.6318 78.1788 71.4443 78.7413C69.7567 82.6791 65.4438 82.6791 65.2563 82.6791H65.0688Z" fill="black"/>
</g>
<defs>
<clipPath id="clip0_78570_478730">
<rect width="150" height="150" fill="white"/>
</clipPath>
</defs>
</svg>
