<svg width="150" height="150" viewBox="0 0 150 150" fill="none" xmlns="http://www.w3.org/2000/svg">
<g clip-path="url(#clip0_78570_478773)">
<rect width="150" height="150" fill="#EAEAEA"/>
<path d="M101.502 76.4744C100.224 70.4516 95.6612 66.4363 91.4635 67.3489L89.2734 67.7139C89.0909 67.7139 88.7258 67.7139 88.5433 67.7139C84.3456 68.6265 81.9729 74.2843 83.2505 80.1246C84.5281 86.1475 89.0909 90.1627 93.2886 89.2502L95.4787 88.8851C95.6612 88.8851 96.0263 88.8851 96.2088 88.8851C100.407 87.9726 102.779 82.3148 101.502 76.4744Z" fill="#46467F"/>
<path d="M150.779 136.703C153 153 152.325 149.945 150.5 152.5C145.207 160.165 133.623 159.699 126.14 165.174C125.593 165.539 125.228 165.904 124.68 166.269C115.372 172.84 104.787 177.403 93.471 179.775C87.8131 181.053 81.9728 181.6 75.9499 181.6C62.0791 181.6 49.1209 178.315 37.6227 172.475C31.0523 169.19 24.8469 164.992 19.3716 159.882C16.4514 157.144 6.55516 156.103 4.00001 153C2.90495 151.54 7.69093 147.106 7.69093 147.106C21.1967 130.862 33.0599 127.577 33.0599 127.577C32.6949 127.212 28.4971 122.284 33.0599 113.341C39.0828 101.661 57.6989 94.3601 57.6989 94.3601L90.5508 92.3525C90.5508 92.3525 104.422 93.2651 114.642 105.128C123.038 114.801 121.578 121.007 120.848 122.832C120.848 123.197 120.483 123.379 120.483 123.379C120.483 123.379 134.718 128.125 150.779 136.703Z" fill="#7772D3"/>
<path d="M120.665 123.196C113.912 127.576 102.962 132.869 87.4483 136.337C58.6116 142.725 32.8776 127.759 32.8776 127.759C32.5126 127.394 28.3148 122.466 32.8776 113.523C38.9004 101.842 57.5165 94.5418 57.5165 94.5418L90.3685 92.5342C90.3685 92.5342 104.239 93.4467 114.46 105.31C122.855 114.983 121.395 121.188 120.665 123.013V123.196Z" fill="#9393E5"/>
<path d="M62.0791 116.079C62.0791 116.079 49.1209 109.326 49.8509 105.311C50.5809 101.295 63.3567 98.7401 71.3872 100.2C79.4176 101.66 98.7638 102.025 98.7638 108.961C98.7638 115.896 90.0033 121.006 90.0033 121.006L71.5697 115.714L62.2616 116.079H62.0791Z" fill="#7772D3"/>
<path d="M61.7141 95.8193L62.0792 116.261C62.0792 116.261 65.9119 122.101 77.7751 122.831C86.7181 123.378 89.8208 121.188 89.8208 121.188L88.3607 110.785L86.9006 100.747L65.1818 96.5494L61.5316 95.8193H61.7141Z" fill="#FCA397"/>
<path d="M65.3643 96.5498C65.3643 97.0973 65.7293 97.8274 65.9118 98.5574C70.6571 108.596 83.2503 110.603 88.3606 110.968L86.9005 100.93L65.1818 96.7323L65.3643 96.5498Z" fill="black"/>
<path d="M90.5507 54.0242C90.5507 54.0242 101.866 79.3931 97.8512 93.629C94.0184 107.865 80.8777 105.857 73.0297 103.12C65.1817 100.382 61.5315 95.6366 61.5315 95.6366C61.5315 95.6366 54.2311 98.1918 49.3033 91.4389C44.3755 84.686 47.2957 76.838 51.4934 75.1954C55.6912 73.3703 60.619 76.2904 60.619 76.2904L56.7862 68.99C56.7862 68.99 72.8472 31.3928 90.3682 54.0242H90.5507Z" fill="#FCA397"/>
<path d="M89.6383 86.5123C89.6383 86.5123 89.6383 86.5123 89.4558 86.5123C88.9082 86.5123 88.7257 85.7822 88.9082 85.4172C90.3683 80.8544 86.9006 75.7441 86.9006 75.7441C86.5356 75.3791 86.7181 74.8316 87.0831 74.4665C87.4482 74.1015 87.9957 74.284 88.3607 74.6491C88.3607 74.8316 92.3759 80.4894 90.7334 85.9648C90.7334 86.3298 90.1858 86.6948 89.8208 86.6948L89.6383 86.5123Z" fill="black"/>
<path d="M59.7065 88.3369C59.524 88.3369 59.159 88.3369 58.9765 87.9719L52.0411 80.6714C51.6761 80.3064 51.6761 79.7589 52.0411 79.3939C52.4061 79.0289 52.9536 79.0289 53.3187 79.3939L60.2541 86.6943C60.6191 87.0593 60.6191 87.6068 60.2541 87.9719C60.2541 87.9719 59.8891 88.1544 59.7065 88.1544V88.3369Z" fill="black"/>
<path d="M52.4061 86.3287C52.0411 86.3287 51.676 85.9637 51.4935 85.5986C51.4935 85.0511 51.676 84.6861 52.2236 84.6861L56.9689 83.9561C57.5164 83.9561 57.8814 84.1386 57.8814 84.6861C57.8814 85.2336 57.6989 85.5986 57.1514 85.5986L52.4061 86.3287Z" fill="black"/>
<path d="M60.8015 76.2914C60.8015 76.2914 63.3566 77.934 65.3642 75.0138C67.1894 72.0937 63.1741 63.1507 63.1741 63.1507C63.1741 63.1507 71.0221 64.9757 75.9499 62.4206C80.8777 59.8654 83.2503 52.565 83.2503 52.565C83.2503 52.565 86.9005 60.048 97.6686 56.7628C108.437 53.4776 110.444 38.8767 98.9462 35.774C87.448 32.8538 81.2427 37.7816 81.2427 37.7816C81.2427 37.7816 79.7826 27.196 65.5468 32.4888C52.5885 37.2341 50.3984 53.4776 50.3984 53.4776C50.3984 53.4776 42.5504 53.8426 41.0903 62.2381C39.6302 70.6336 49.4858 76.839 49.4858 76.839C49.4858 76.839 55.1436 73.5537 60.984 76.1089L60.8015 76.2914Z" fill="black"/>
<path d="M78.1401 77.0215C77.7751 77.0215 77.2276 76.6565 77.2276 76.2915L76.6801 71.5462C76.6801 70.9987 77.0451 70.6337 77.4101 70.4512C77.9576 70.4512 78.3226 70.8162 78.5052 71.1812L79.0527 75.9265C79.0527 76.474 78.6877 76.839 78.3226 77.0215H78.1401Z" fill="black"/>
<path d="M92.1934 75.9259C91.8284 75.9259 91.2808 75.5608 91.2808 75.1958L90.5508 70.4505C90.5508 69.903 90.7333 69.538 91.2808 69.3555C91.8284 69.3555 92.1934 69.538 92.3759 70.0855L93.1059 74.8308C93.1059 75.3783 92.9234 75.7434 92.3759 75.9259H92.1934Z" fill="black"/>
<path d="M73.5773 67.8953H73.2123C72.8472 67.7128 72.6647 67.1653 72.8472 66.6178C74.6723 63.15 78.8701 64.0626 79.0526 64.0626C79.6001 64.0626 79.7826 64.6101 79.7826 65.1576C79.7826 65.7052 79.2351 65.8877 78.6876 65.8877C78.6876 65.8877 75.5849 65.3402 74.4898 67.3478C74.4898 67.7128 73.9423 67.8953 73.7598 67.8953H73.5773Z" fill="black"/>
<path d="M87.4482 64.9752C87.4482 64.9752 87.0832 64.9752 86.9006 64.9752C86.5356 64.6102 86.3531 64.0626 86.7181 63.6976C87.4482 62.6025 88.3607 62.055 89.4558 61.8725C91.6459 61.5075 93.836 63.5151 93.836 63.5151C94.2011 63.8801 94.2011 64.4276 93.836 64.7927C93.471 65.1577 92.9235 65.1577 92.5585 64.7927C92.1934 64.4276 90.7334 63.5151 89.4558 63.5151C88.9083 63.5151 88.3607 63.8801 87.9957 64.6101C87.9957 64.7927 87.4482 64.9752 87.2657 64.9752H87.4482Z" fill="black"/>
<path d="M76.315 139.441C49.3034 137.981 38.7178 131.776 38.3528 131.41C37.9877 131.228 37.8052 130.498 37.9877 130.133C38.1702 129.768 38.7178 129.585 39.2653 129.768C39.2653 129.768 49.8509 135.973 76.315 137.433C76.8625 137.433 77.2275 137.981 77.2275 138.346C77.2275 138.893 76.8625 139.258 76.315 139.258V139.441Z" fill="#46467F"/>
<path d="M77.045 170.285C76.4975 170.285 76.1324 169.92 76.1324 169.372L76.8625 147.471C76.8625 146.924 77.2275 146.559 77.775 146.559C78.3226 146.559 78.6876 146.924 78.6876 147.471L77.9576 169.372C77.9576 169.92 77.5925 170.285 77.045 170.285Z" fill="#46467F"/>
<path d="M112.817 163.532C112.452 163.532 112.27 163.532 112.087 163.167L101.136 144.733C100.954 144.368 101.136 143.82 101.501 143.455C101.866 143.273 102.414 143.455 102.779 143.82L113.73 162.254C113.912 162.619 113.73 163.167 113.365 163.532C113.365 163.532 113 163.532 112.817 163.532Z" fill="#46467F"/>
<path d="M112.817 128.671C112.452 128.671 112.087 128.671 112.087 128.123C111.904 127.758 112.087 127.211 112.452 126.846L119.935 122.83C120.3 122.648 120.847 122.83 121.213 123.195C121.395 123.56 121.213 124.108 120.847 124.473L113.365 128.488H113L112.817 128.671Z" fill="#46467F"/>
<path d="M66.4594 83.7737C67.1894 89.7966 64.4518 95.0894 60.0715 95.6369C55.8738 96.1844 51.676 91.8042 50.946 85.5988C50.2159 79.3935 52.9536 74.2832 57.3339 73.7356C61.5316 73.1881 65.7294 77.5684 66.4594 83.7737Z" fill="#46467F"/>
<path d="M57.3339 73.918L54.2312 74.4655L57.1514 96.3668L60.0715 95.8193L63.3567 92.3516L64.2693 80.1233L57.3339 73.918Z" fill="#46467F"/>
<path d="M63.5392 84.5052C64.2693 90.528 61.5316 95.8208 57.1514 96.3684C52.9536 96.9159 48.7559 92.5356 48.0258 86.3303C47.2958 80.1249 50.0334 75.0146 54.4137 74.4671C58.6114 73.9195 62.8092 78.2998 63.5392 84.5052Z" fill="white"/>
<path d="M52.2237 46.7246C52.2237 46.7246 48.9385 50.5573 48.0259 54.025C47.1134 57.4927 52.4062 79.2115 52.4062 79.2115L59.1591 77.7514L52.2237 46.7246Z" fill="white"/>
<path d="M83.6153 93.6291C80.5127 93.6291 78.14 91.2565 77.41 89.7964C77.2275 89.4314 77.41 88.8839 77.775 88.5189C78.14 88.3364 78.6876 88.5188 79.0526 88.8839C79.0526 88.8839 81.2427 92.5341 85.0754 91.6215C85.623 91.6215 85.988 91.6216 86.1705 92.3516C86.1705 92.8991 86.1705 93.2641 85.4405 93.4466C84.8929 93.4466 84.3454 93.6291 83.7979 93.6291H83.6153Z" fill="black"/>
</g>
<defs>
<clipPath id="clip0_78570_478773">
<rect width="150" height="150" fill="white"/>
</clipPath>
</defs>
</svg>
