<svg width="150" height="150" viewBox="0 0 150 150" fill="none" xmlns="http://www.w3.org/2000/svg">
<g clip-path="url(#clip0_78570_478846)">
<rect width="150" height="150" fill="#E1EAF8"/>
<path d="M41.5427 171.617C35.1182 169.187 29.2147 165.888 23.6584 162.068C16.8867 157.206 -2 158 5.94785 144.704C13.935 128.209 30.7774 100.428 51.7871 100.428C74.8803 100.428 52.6553 149.566 41.7164 171.444L41.5427 171.617Z" fill="#FCB35B"/>
<path d="M83.0411 53.3729C83.0411 53.3729 105.961 47.1221 123.15 68.1317C140.166 88.9677 129.575 114.839 102.488 114.145C75.4012 113.45 69.1504 85.6687 69.1504 85.6687L83.0411 53.3729Z" fill="black"/>
<path d="M114.643 163.804C110.823 166.235 106.655 168.492 102.488 170.402C92.7647 174.569 81.9994 177 70.5396 177C59.0798 177 50.5717 175.09 41.5428 171.617C35.1184 169.186 29.2148 165.887 23.6586 162.068C25.2213 138.974 27.6521 116.749 31.4721 111.714C37.202 104.595 43.8001 101.99 51.6136 100.428C55.7808 99.7331 60.1216 99.2122 64.9833 98.6913C71.9286 97.8232 80.4368 97.9968 88.0766 98.6913C95.5429 99.3859 102.141 100.775 105.614 102.338C109.26 103.9 112.559 134.113 114.643 163.804Z" fill="#FCB35B"/>
<path d="M53.35 84.1053C52.3082 88.4461 49.7036 91.5715 47.4464 91.2242C45.1892 90.7033 44.1473 86.7098 45.0155 82.3689C46.0573 78.0281 48.6618 74.9027 50.9191 75.25C53.1763 75.7709 54.2181 79.7644 53.35 84.1053Z" fill="#1D46EB"/>
<path d="M143.639 130.813C169.655 165.5 127.144 155.642 114.643 163.803C110.823 166.234 106.655 168.491 102.488 170.401L84.4303 98.8643C84.4303 98.8643 85.8194 98.8643 88.0767 98.8643C97.6265 99.3852 122.803 103.031 143.639 130.813Z" fill="#FCB35B"/>
<path d="M48.488 70.5624C48.488 70.5624 41.89 63.6171 43.6263 52.6782C44.6681 45.2119 47.9672 42.7811 47.9672 42.7811C47.9672 42.7811 42.7582 32.7103 57.6907 33.0576C72.6232 33.4049 84.9511 32.1894 91.7228 45.0383C95.7164 52.6782 94.1537 69.1734 94.1537 69.1734L48.6617 70.7361L48.488 70.5624Z" fill="black"/>
<path d="M81.6521 82.1963V100.428C81.6521 100.428 78.1793 105.637 67.5877 106.505C59.6005 107.026 57.1697 103.032 57.1697 103.032L59.2533 87.058L78.5267 82.8908L81.8256 82.1963H81.6521Z" fill="#FFC0B2"/>
<path d="M81.6521 81.1533C81.6521 81.6742 81.4784 82.1951 81.1312 82.8897C76.964 91.9186 62.5523 95.7385 58.0378 96.0858L59.2533 87.0569L81.8256 81.1533H81.6521Z" fill="black"/>
<path d="M55.2598 45.3862C55.2598 45.3862 45.5363 68.3058 49.1826 80.9811C52.8289 93.8299 64.4624 91.5727 71.4077 89.1418C78.353 86.5373 81.4784 82.3701 81.4784 82.3701C81.4784 82.3701 88.0765 84.4537 92.2437 78.3766C96.5846 72.2994 93.8064 65.3541 89.9865 63.7914C86.1666 62.2287 81.8257 65.0068 81.8257 65.0068L85.2984 58.4087C85.2984 58.4087 70.3659 24.8975 54.9125 45.5598L55.2598 45.3862Z" fill="#FFC0B2"/>
<path d="M82.1729 64.8337C82.1729 64.8337 72.4494 66.9173 65.3304 56.152C58.3851 45.3867 58.9059 40.8723 58.9059 40.8723L52.3079 52.3321C52.3079 52.3321 50.5715 44.5186 53.6969 39.4832C56.6487 34.4478 59.9478 35.4896 59.9478 35.4896L81.652 40.525L87.7292 57.7147L82.1729 64.8337Z" fill="black"/>
<path d="M56.4753 74.3831C56.128 74.3831 55.7807 74.2094 55.6071 73.8622C54.0444 69.0004 57.3434 63.9651 57.517 63.6178C57.8643 63.2705 58.3852 63.0969 58.7325 63.4442C59.0798 63.7914 59.2534 64.3123 58.9061 64.6596C58.9061 64.6596 55.7807 69.1741 57.1698 73.3413C57.1698 73.8622 57.1698 74.2094 56.6489 74.3831C56.6489 74.3831 56.4752 74.3831 56.3016 74.3831H56.4753Z" fill="black"/>
<path d="M83.2146 75.772C83.0409 75.772 82.8673 75.772 82.6937 75.5984C82.3464 75.2511 82.3464 74.7302 82.6937 74.3829L88.7708 67.7849C89.1181 67.4376 89.639 67.4376 89.9863 67.7849C90.3336 68.1321 90.3336 68.653 89.9863 69.0003L83.9091 75.5984C83.9091 75.772 83.5618 75.9456 83.2146 75.9456V75.772Z" fill="black"/>
<path d="M89.8129 73.862L85.472 73.3411C84.9511 73.3411 84.6038 72.8202 84.7775 72.2993C84.7775 71.7784 85.2983 71.4311 85.8192 71.6047L90.1601 72.1256C90.681 72.1256 91.0283 72.6465 90.8546 73.1674C90.8546 73.6883 90.5074 73.862 89.9865 73.862H89.8129Z" fill="black"/>
<path d="M51.7871 55.8029C51.4398 55.8029 51.0926 55.4557 50.9189 55.1084C50.9189 54.5875 51.0926 54.2402 51.6135 54.0666L55.6071 53.3721C56.128 53.3721 56.4752 53.5457 56.6488 54.0666C56.6488 54.5875 56.4753 54.9348 55.9544 55.1084L51.9607 55.8029H51.7871Z" fill="black"/>
<path d="M68.6295 58.2351C68.6295 58.2351 68.4558 58.2351 68.2822 58.2351L61.5105 54.936C61.1632 54.7624 60.816 54.2415 61.1633 53.7206C61.3369 53.3733 61.8577 53.0261 62.3786 53.3733L69.1504 56.6724C69.4976 56.846 69.8449 57.3669 69.4977 57.8878C69.4977 58.2351 68.9768 58.4087 68.6295 58.4087V58.2351Z" fill="black"/>
<path d="M51.9608 65.1812C51.9608 65.1812 51.9608 65.1812 51.7872 65.1812C51.2663 65.1812 51.0927 64.4866 51.2663 64.1394L52.3081 60.4931L51.2663 59.2776C50.919 58.9304 50.919 58.4095 51.2663 58.0622C51.6136 57.7149 52.1345 57.7149 52.4818 58.0622L53.6971 59.6249C53.8707 59.7985 53.8707 60.1458 53.6971 60.4931L52.4818 64.6603C52.4818 65.0075 51.9609 65.3548 51.6136 65.3548L51.9608 65.1812Z" fill="black"/>
<path d="M63.4205 66.049C63.4205 66.049 63.4204 66.049 63.2468 66.049C62.7259 66.049 62.5523 65.3544 62.7259 65.0072L63.7678 61.3609L62.3786 59.7981C62.0313 59.4509 62.0313 58.93 62.3786 58.5827C62.7259 58.2354 63.2468 58.2354 63.5941 58.5827L65.3304 60.6663C65.504 60.8399 65.6777 61.1872 65.5041 61.5345L64.2886 65.7017C64.2886 66.049 63.7677 66.3962 63.4205 66.3962V66.049Z" fill="black"/>
<path d="M59.7741 80.4601C59.2532 80.4601 58.7323 80.4601 58.2114 80.1128C57.8642 79.9392 57.6905 79.4183 57.8641 78.8974C58.0378 78.5501 58.5587 78.3765 59.0796 78.5501C60.8159 79.4183 64.115 76.6401 65.1568 75.5983C65.504 75.2511 66.0249 75.2511 66.3722 75.5983C66.7195 75.9456 66.7195 76.4665 66.3722 76.8138C66.0249 77.3347 62.7259 80.4601 59.9478 80.4601H59.7741Z" fill="black"/>
<path d="M57.517 99.5596L48.3145 101.122C48.3145 101.122 48.4881 113.277 65.6778 114.839C82.8675 116.402 94.3273 99.2123 94.3273 99.2123L76.2694 96.9551L57.3434 99.3859L57.517 99.5596Z" fill="#FFC0B2"/>
<path d="M90.5072 85.1485C90.8544 89.6629 89.1181 93.3092 86.8609 93.4829C84.6037 93.4829 82.3464 90.1838 82.1728 85.6694C81.8255 81.1549 83.5618 77.5086 85.819 77.335C88.0763 77.335 90.3335 80.634 90.5072 85.1485Z" fill="#1D46EB"/>
</g>
<defs>
<clipPath id="clip0_78570_478846">
<rect width="150" height="150" fill="white"/>
</clipPath>
</defs>
</svg>
