<svg width="150" height="150" viewBox="0 0 150 150" fill="none" xmlns="http://www.w3.org/2000/svg">
<g clip-path="url(#clip0_78570_478894)">
<rect width="150" height="150" fill="#E1EAF8"/>
<path d="M140.623 146.876C148 155.5 137.453 150.664 135.867 152.287C133.225 154.993 130.406 157.518 127.236 159.863C125.826 160.945 124.241 162.028 122.656 163.11C122.656 163.11 122.303 163.29 122.127 163.471L122.656 126.492C122.656 126.492 131.111 134.609 140.623 146.876Z" fill="#1B9CF0"/>
<path d="M115.258 167.619C114.729 167.98 114.201 168.16 113.672 168.521C107.683 171.407 101.518 173.752 94.824 175.195C89.3633 176.278 83.7264 176.999 77.9134 176.999C72.1004 176.999 72.9811 176.999 70.515 176.638C68.0489 176.458 65.4066 176.097 62.9405 175.556C61.5313 175.376 60.2982 175.015 58.889 174.654C55.0137 173.752 51.1383 172.489 47.6152 171.046L64.702 111.52C64.702 111.52 78.0896 109.536 93.2386 111.159C103.103 112.241 111.03 145.071 115.258 167.8V167.619Z" fill="#2752FF"/>
<path d="M93.2387 110.98L67.1681 112.603C67.1681 112.603 64.5259 140.382 63.1167 175.377C61.7075 175.196 60.4744 174.835 59.0651 174.475C51.6668 172.671 44.7969 169.965 38.2792 166.177C37.9269 165.997 37.5746 165.816 37.2223 165.636C35.1085 164.373 33.1708 163.111 31.2332 161.848C29.6478 160.585 27.8863 159.323 26.3009 158.06C26.1248 158.06 25.9486 157.699 25.7724 157.699C23.4825 155.715 21.3686 153.731 19.431 151.566C18.9025 151.025 18.374 150.303 17.6694 149.762C18.1979 138.218 19.6071 129.74 22.7779 126.853C36.6939 113.685 71.0435 109.176 71.0435 109.176H87.0733C87.0733 108.995 89.5394 109.717 93.4148 110.98H93.2387Z" fill="#1B9CF0"/>
<path d="M127.236 160.043C125.826 161.125 124.241 162.208 122.656 163.29C120.19 164.913 117.724 166.357 115.257 167.8C114.729 168.16 114.2 168.341 113.672 168.702C111.206 169.964 108.564 171.047 105.745 172.129V171.407C101.165 122.343 93.5907 111.881 93.2384 111.159C103.103 114.586 121.599 121.982 124.946 130.099C126.179 133.166 126.883 144.891 127.236 160.043Z" fill="#1B9CF0"/>
<path d="M76.8563 48.0256C76.8563 48.0256 59.9457 9.42347 40.569 29.0853C24.363 45.5002 49.5527 70.9343 63.9972 63.7189C78.4417 56.5036 76.8563 48.2059 76.8563 48.2059V48.0256Z" fill="black"/>
<path d="M102.574 79.5923C102.574 79.5923 109.621 71.475 107.331 59.2089C105.921 50.9113 102.222 48.2055 102.222 48.2055C102.222 48.2055 107.683 36.661 91.1246 37.5629C74.5663 38.4648 64.878 46.9429 64.878 46.9429C64.878 46.9429 57.3034 43.1548 53.9565 52.3544C50.6096 61.3736 54.3089 74.7219 54.3089 74.7219L102.574 79.7727V79.5923Z" fill="black"/>
<path d="M66.4635 94.0225L67.1681 114.767C67.1681 114.767 71.0434 120.539 82.8456 121.08C91.6532 121.441 94.2955 116.751 94.2955 116.751L91.4771 98.7124L69.9866 94.744L66.2874 94.0225H66.4635Z" fill="#FFC0B2"/>
<path d="M66.4634 92.7588C66.4634 93.2999 66.8157 94.0215 67.168 94.743C72.1002 104.844 88.1301 108.633 93.2385 108.813L91.6531 98.7115L66.4634 92.7588Z" fill="black"/>
<path d="M94.2955 51.2716C94.2955 51.2716 105.921 76.7057 102.222 91.3168C98.5231 105.928 85.664 103.944 77.9134 101.238C70.1627 98.7125 66.4635 93.8421 66.4635 93.8421C66.4635 93.8421 59.2413 96.5479 54.309 89.6933C49.3767 83.0191 52.1952 75.0823 56.2467 73.098C60.2982 71.1138 65.2304 74.1803 65.2304 74.1803L61.1789 66.7846C61.1789 66.7846 76.5041 28.3629 94.2955 51.0912V51.2716Z" fill="#FFC0B2"/>
<path d="M65.2302 74.3615C65.2302 74.3615 76.1517 76.5261 83.3739 64.0796C90.7723 51.6331 89.8915 46.5824 89.8915 46.5824L97.6422 59.2093C97.6422 59.2093 99.2276 50.3705 95.7045 44.7786C92.1815 39.1867 88.6585 40.4494 88.6585 40.4494L64.8779 46.9432L58.8888 66.605L65.2302 74.5419V74.3615Z" fill="black"/>
<path d="M93.9431 84.2823C93.9431 84.2823 93.9431 84.2823 93.7669 84.2823C93.2385 84.2823 93.0624 83.5608 93.2385 83.2C94.6477 78.5101 91.1247 73.4593 90.9485 73.4593C90.5962 73.0986 90.7724 72.5574 91.1247 72.1966C91.477 71.8359 92.0054 72.0163 92.3577 72.377C92.3577 72.5574 96.4092 78.1493 94.8239 83.7412C94.8239 84.102 94.2954 84.4627 93.9431 84.4627V84.2823Z" fill="black"/>
<path d="M64.3495 86.6279C64.1733 86.6279 63.8211 86.6279 63.6449 86.2672L56.5988 79.0518C56.2465 78.691 56.2465 78.1499 56.5988 77.7891C56.9511 77.4284 57.4796 77.4284 57.8319 77.7891L64.878 85.0045C65.2303 85.3652 65.2303 85.9064 64.878 86.2672C64.878 86.2672 64.5257 86.4475 64.3495 86.4475V86.6279Z" fill="black"/>
<path d="M57.1272 84.8239C56.7749 84.8239 56.2465 84.4631 56.2465 84.1024C56.2465 83.5612 56.4226 83.2005 56.9511 83.0201L61.7071 82.1182C62.2356 82.1182 62.5879 82.2985 62.7641 82.8397C62.7641 83.3808 62.5879 83.7416 62.0595 83.922L57.3033 84.8239H57.1272Z" fill="black"/>
<path d="M98.347 62.9971L93.9432 62.2756C93.4147 62.2756 93.0624 61.7344 93.2386 61.1933C93.2386 60.6521 93.767 60.2913 94.2954 60.4717L98.6992 61.1933C99.2277 61.1933 99.58 61.7344 99.4039 62.2756C99.4039 62.6363 98.8754 62.9971 98.5231 62.9971H98.347Z" fill="black"/>
<path d="M79.8509 66.2454C79.4986 66.2454 79.1463 66.2454 79.1463 65.7042C78.9701 65.3435 79.1462 64.8023 79.4985 64.4415L86.7208 60.4731C87.0731 60.2927 87.6016 60.4731 87.9539 60.8339C88.13 61.1946 87.9538 61.7358 87.6015 62.0966L80.3793 66.065H80.027L79.8509 66.2454Z" fill="black"/>
<path d="M98.523 73.6417C98.1707 73.6417 97.8184 73.4613 97.6423 73.1005L96.233 68.4106C96.233 68.0498 96.233 67.8694 96.233 67.5086L97.6423 65.7048C97.9946 65.3441 98.523 65.1637 98.8753 65.7048C99.2276 66.0656 99.4038 66.6067 98.8753 66.9675L97.8184 68.4106L99.0515 72.5594C99.0515 73.1005 99.0515 73.4613 98.523 73.6417C98.523 73.6417 98.3469 73.6417 98.1707 73.6417H98.523Z" fill="black"/>
<path d="M84.0785 75.0836C83.7262 75.0836 83.3739 74.9032 83.1978 74.5424L81.7886 69.8524C81.7886 69.4917 81.7886 69.3113 81.7886 68.9505L83.7262 66.6055C84.0785 66.2448 84.607 66.2448 84.9593 66.6055C85.3116 66.9663 85.3116 67.5075 84.9593 67.8682L83.3739 69.8524L84.607 74.0013C84.607 74.5424 84.607 74.9032 84.0785 75.0836C84.0785 75.0836 83.9024 75.0836 83.7262 75.0836H84.0785Z" fill="black"/>
<path d="M90.2438 91.1374C87.073 91.1374 83.55 87.7102 83.1977 87.169C82.8454 86.8082 82.8454 86.2671 83.1977 85.9063C83.55 85.5456 84.0785 85.5456 84.4308 85.9063C85.6638 87.169 89.363 90.2355 91.3007 88.9728C91.653 88.7925 92.1814 88.9728 92.5337 89.3336C92.7099 89.6944 92.5338 90.2355 92.1815 90.5963C91.653 90.9571 90.9484 91.1374 90.2438 91.1374Z" fill="black"/>
<path d="M31.0568 161.849C29.4714 160.586 27.7099 159.323 26.1246 158.061C25.9484 158.061 25.7722 157.7 25.5961 157.7C23.3061 155.716 21.1923 153.732 19.2547 151.567C17.1408 149.222 5.93763 154.525 3.99996 152C2.59075 150.196 9.21397 138.579 9.21397 138.579C20.3115 127.756 29.4714 121.804 29.4714 121.804L31.233 161.849H31.0568Z" fill="#1B9CF0"/>
<path d="M84.7831 122.163C84.2546 122.163 83.55 122.163 82.8454 122.163C74.9185 121.441 66.9917 115.849 66.6394 115.669C66.2871 115.308 66.111 114.767 66.4633 114.406C66.8156 114.046 67.3441 113.865 67.6964 114.226C67.6964 114.226 75.6232 119.637 83.0215 120.359C90.7722 121.081 93.5907 116.571 93.5907 116.391C93.7668 116.03 94.2953 115.849 94.8237 116.03C95.1761 116.21 95.3522 116.751 95.176 117.292C95.176 117.473 92.3576 122.163 84.7831 122.163Z" fill="white"/>
</g>
<defs>
<clipPath id="clip0_78570_478894">
<rect width="150" height="150" fill="white"/>
</clipPath>
</defs>
</svg>
