<svg width="150" height="150" viewBox="0 0 150 150" fill="none" xmlns="http://www.w3.org/2000/svg">
<g clip-path="url(#clip0_78570_478938)">
<rect width="150" height="150" fill="#EFE6E2"/>
<path d="M155.113 94.9424C155.113 110.753 150.478 125.705 142.581 138.079C140.864 140.829 138.976 143.235 137.088 145.812C136.916 146.156 136.573 146.328 136.401 146.672C134.856 148.39 133.311 150.109 131.766 151.656C129.191 154.233 126.444 156.64 123.354 158.874C123.354 158.874 123.354 158.874 123.182 159.046C122.495 159.561 121.98 159.905 121.294 160.42C120.607 160.936 119.749 161.452 119.062 161.967C119.062 161.967 118.718 162.139 118.547 162.311C116.315 163.686 114.083 165.061 111.852 166.264C111.337 166.607 110.822 166.779 110.306 167.123C107.903 168.326 105.328 169.357 102.581 170.388C99.1477 171.591 95.5425 172.622 91.9374 173.482C86.6155 174.513 81.122 175.2 75.4567 175.2C69.7915 175.2 73.225 175.2 72.0232 175.2C70.8215 175.2 69.4481 175.2 68.2464 174.856C68.2464 174.856 68.2464 174.856 68.0747 174.856C65.6713 174.685 63.2678 174.341 61.0361 173.825C59.6627 173.653 58.461 173.31 57.0876 172.966C53.3108 172.107 49.534 170.904 46.1005 169.529C43.0104 168.326 39.9202 166.951 37.0017 165.232C37.0017 165.232 37.0018 165.232 36.8301 165.232C36.4868 165.061 36.1434 164.889 35.8001 164.717C34.77 164.201 33.7399 163.514 32.7099 162.826C31.8515 162.311 30.8215 161.623 29.9632 160.936C28.4181 159.733 26.7013 158.53 25.1563 157.327C24.9846 157.327 24.8129 156.983 24.6413 156.983C22.4095 155.093 20.3494 153.202 18.461 151.14C17.946 150.624 17.4309 149.937 16.7442 149.421C15.5425 148.047 14.3408 146.672 13.1391 145.125C12.9674 144.781 12.6241 144.438 12.4524 144.266C11.079 142.547 9.87728 140.829 8.67556 138.938C0.435216 126.392 -4.19995 111.269 -4.19995 95.2861C-4.19995 50.9467 31.6799 15.2002 75.8 15.2002C119.92 15.2002 155.8 51.1186 155.8 95.2861L155.113 94.9424Z" fill="#EFE6E2"/>
<path d="M110.8 111.727C110.8 111.727 109.26 32.4198 81.3736 29.4952C53.4868 26.5706 50.2362 46.3545 50.2362 46.3545C50.2362 46.3545 43.2218 48.763 41.8531 59.4291C40.4844 70.0952 39.8 112.587 39.8 112.587L102.759 116.2L110.8 111.555V111.727Z" fill="black"/>
<path d="M139.63 140.747C144 152.5 137.585 153.037 136.562 154.595C136.392 154.941 136.051 155.114 135.88 155.461C134.346 157.192 132.813 149.923 131.279 151.481C128.722 154.078 125.996 156.502 122.928 158.753C121.564 159.792 120.031 160.83 118.497 161.869C118.497 161.869 118.156 162.042 117.985 162.215C115.77 163.601 113.554 164.986 111.339 166.197C110.828 166.544 110.316 166.717 109.805 167.063C107.419 168.275 104.863 169.314 102.136 170.353C98.7273 171.564 95.1484 172.603 91.5694 173.469C86.2862 174.508 80.8325 175.2 75.2085 175.2C69.5844 175.2 72.9929 175.2 71.7999 175.2C70.6069 175.2 69.2435 175.2 68.0505 174.854C68.0505 174.854 68.0505 174.854 67.8801 174.854C65.4941 174.681 63.1082 174.335 60.8926 173.815C59.5292 173.642 58.3362 173.296 56.9728 172.95C53.2234 172.084 49.4741 170.872 46.0655 169.487C42.9979 168.275 39.9302 166.89 37.0329 165.159C37.0329 165.159 37.0329 165.159 36.8625 165.159C36.5217 164.986 36.1808 164.812 35.8399 164.639C34.8174 164.12 33.7948 163.427 32.7723 162.735C27.4891 141.44 25.2735 122.05 31.9202 114.259C32.261 113.912 32.6018 113.393 33.1131 113.047C34.6469 111.662 36.3512 110.45 38.0555 109.238C40.9527 107.334 44.0204 105.775 47.2585 104.39C68.0506 95.5607 94.9779 97.1189 109.635 103.178C119.008 107.16 130.427 124.646 139.63 140.747Z" fill="#7772D3"/>
<path d="M61.8 83.2002V102.601C61.8 102.601 65.2211 108.267 76.6816 109.126C85.0632 109.813 87.8 105.52 87.8 105.52L85.7474 88.5227L65.2211 84.0587L61.8 83.3719V83.2002Z" fill="#FFC0B2"/>
<path d="M61.8 82.2002C61.8 82.7108 61.9713 83.3917 62.3137 84.0725C66.5945 93.7747 81.8343 97.6896 86.8 98.2002L85.6014 88.6683L61.8 82.2002Z" fill="black"/>
<path d="M123.582 151.051L122.666 158.845C121.933 159.353 121.383 159.692 120.649 160.2L121.749 150.881C123.216 139.021 116.8 124.45 116.8 124.28C116.8 123.772 116.8 123.264 117.35 123.264C117.9 123.094 118.266 123.264 118.45 123.772C118.633 124.45 125.049 139.021 123.582 151.22V151.051Z" fill="white"/>
<path d="M89.7306 44.3491C89.7306 44.3491 99.8245 68.9116 95.8896 82.5767C91.9547 96.2417 79.6367 93.8201 72.2801 91.0525C64.9235 88.2848 61.5018 83.6145 61.5018 83.6145C61.5018 83.6145 54.4875 85.8632 50.0393 79.2901C45.5911 72.7171 48.4995 65.2791 52.4344 63.7224C56.3694 61.9926 60.9886 65.1062 60.9886 65.1062L57.3958 58.0142C57.3958 58.0142 73.4777 22.2083 89.5595 44.5221L89.7306 44.3491Z" fill="#FFC0B2"/>
<path d="M88.5033 75.2002C88.5033 75.2002 88.3328 75.2002 88.1623 75.2002C87.6508 75.2002 87.4803 74.4928 87.6508 74.1391C89.1852 69.718 85.9459 64.5895 85.9459 64.5895C85.605 64.2358 85.946 63.7052 86.1164 63.3515C86.4574 62.9978 86.9689 63.3515 87.3098 63.5284C87.3098 63.7052 91.0606 69.3643 89.3557 74.6697C89.3557 75.0234 88.8442 75.2002 88.5033 75.2002Z" fill="black"/>
<path d="M60.0341 76.2002C59.8639 76.2002 59.5234 76.2002 59.3532 75.8507L53.0554 68.6856C52.7149 68.3361 52.7149 67.8118 53.0554 67.4623C53.3958 67.1128 53.9064 67.1128 54.2469 67.4623L60.5447 74.6274C60.8852 74.9769 60.8852 75.5012 60.5447 75.8507C60.5447 75.8507 60.2043 76.0254 60.0341 76.0254V76.2002Z" fill="black"/>
<path d="M53.6109 74.2002C53.2865 74.2002 52.8 73.8925 52.8 73.5848C52.8 73.1233 53.1244 72.8156 53.4487 72.6617L57.8271 72.2002C58.3136 72.2002 58.6379 72.5079 58.8 72.8156C58.8 73.2771 58.4757 73.5848 58.1514 73.7387L53.773 74.2002H53.6109Z" fill="black"/>
<path d="M93.7715 55.2002L89.4858 54.5335C88.9715 54.5335 88.8 54.1335 88.8 53.7335C88.8 53.3335 89.3143 53.2002 89.8286 53.2002L94.1143 53.8669C94.6286 53.8669 94.8 54.2669 94.8 54.6669C94.8 54.9335 94.2858 55.2002 93.9429 55.2002H93.7715Z" fill="black"/>
<path d="M75.8083 58.2002C75.4344 58.2002 75.0604 58.0107 74.8734 57.6318C74.6864 57.253 74.8734 56.6846 75.2473 56.3057L81.4178 53.2745C81.7918 53.0851 82.3527 53.2745 82.7267 53.6534C82.9137 54.0323 82.7267 54.6007 82.3528 54.9796L76.1823 58.0107C76.1823 58.0107 75.9953 58.0107 75.8083 58.0107V58.2002Z" fill="black"/>
<path d="M91.8572 65.2002C91.5143 65.2002 91.1715 65.0463 91 64.5848L89.8 60.5848C89.8 60.2771 89.8 60.1233 89.9714 59.8156L91.3429 58.431C91.6858 58.1233 92.2 58.1233 92.5429 58.431C92.8858 58.7387 92.8858 59.2002 92.5429 59.5079L91.5144 60.5848L92.5429 64.1233C92.5429 64.5848 92.5429 64.8925 92.0286 65.0463C92.0286 65.0463 92.0286 65.0463 91.8572 65.0463V65.2002Z" fill="black"/>
<path d="M77.5562 66.2002C77.2635 66.2002 76.9708 66.0352 76.8245 65.5404L75.8 61.2517C75.8 60.9218 75.8001 60.7569 75.9464 60.427L77.5562 58.4476C77.8489 58.1177 78.2879 58.1177 78.5805 58.4476C78.8732 58.7775 78.8732 59.2724 78.5805 59.6023L77.2635 61.2517L78.1415 65.0456C78.1415 65.5404 78.1415 65.8703 77.7025 66.0352C77.7025 66.0352 77.7025 66.0352 77.5562 66.0352V66.2002Z" fill="black"/>
<path d="M96.8 53.2349C96.8 53.2349 90.1652 51.8476 85.4017 52.021H80.8084C80.8084 52.1944 78.937 44.5644 78.937 44.5644V52.8881C78.937 52.8881 75.7046 53.4083 72.4723 55.1424C69.2399 56.8765 67.0283 58.9574 67.0283 58.9574L63.9661 52.5412L65.327 60.6915L61.5843 65.2002L55.8 59.8245L59.3727 48.5528C59.3727 48.5528 68.049 36.2407 68.7295 36.0672C69.41 36.0672 81.8291 35.2002 81.8291 35.2002C81.8291 35.2002 92.5469 39.5355 92.7171 39.8823C93.0573 40.2291 96.8 53.2349 96.8 53.2349Z" fill="black"/>
<path d="M77.8689 110.019C72.8828 110.019 66.693 108.567 60.1594 103.85C59.8156 103.487 59.6436 102.942 59.9875 102.579C60.3314 102.217 60.8471 102.035 61.191 102.398C76.1495 113.285 88.0133 106.027 88.5291 105.845C88.8729 105.664 89.3887 105.845 89.7326 106.208C89.9045 106.571 89.7326 107.116 89.3887 107.479C89.3887 107.479 84.7464 110.2 77.8689 110.2V110.019Z" fill="white"/>
<path d="M67.8001 174.858C65.3803 174.687 62.9605 174.344 60.7136 173.831C59.3309 173.66 58.1211 173.318 56.7383 172.975C52.9359 172.12 49.1334 170.921 45.6766 169.552C42.5655 168.354 39.4543 166.985 36.5161 165.274C36.5161 165.274 36.5161 165.274 36.3432 165.274C35.9975 165.102 35.6519 164.931 35.3062 164.76C34.2691 164.247 33.2321 163.562 32.1951 162.877C31.3309 162.364 30.2938 161.679 29.4296 160.995C27.8741 159.797 26.1457 158.599 24.5902 157.401C24.4173 157.401 24.2444 157.058 24.0716 157.058C21.8247 155.176 19.7507 153.293 17.8494 151.239C17.3309 150.726 16.8124 150.041 16.121 149.528C14.9112 148.159 13.1212 146.657 11.8001 144.393C7.48436 137 24.9358 120.946 31.5037 114.956C33.7507 112.902 35.8247 111.362 37.5531 109.992C42.3926 106.741 46.0223 105.371 46.8865 105.2L67.8001 175.2V174.858Z" fill="#7772D3"/>
<path d="M86.3875 82.2002C84.2695 82.2002 81.7985 80.2002 81.0925 79.7002C80.7395 79.5335 80.7395 79.0335 80.916 78.7002C80.916 78.3669 81.4455 78.2002 81.7985 78.2002H89.9175C90.2705 78.2002 90.6235 78.5335 90.8 78.8669C90.8 79.2002 90.8 79.5335 90.6235 79.7002C90.6235 79.7002 89.3881 80.8669 87.6231 81.8669C87.27 82.0335 86.917 82.0335 86.564 82.0335L86.3875 82.2002ZM84.6225 80.0335C85.505 80.5335 86.211 80.7002 86.564 80.5335C86.917 80.5335 87.0935 80.2002 87.4465 80.0335H84.6225Z" fill="black"/>
<path d="M61.8 83.2002C61.8 85.3669 59.9667 87.2002 57.8 87.2002C55.6334 87.2002 53.8 85.3669 53.8 83.2002C53.8 81.0335 55.6334 79.2002 57.8 79.2002C59.9667 79.2002 61.8 81.0335 61.8 83.2002Z" fill="white"/>
</g>
<defs>
<clipPath id="clip0_78570_478938">
<rect width="150" height="150" fill="white"/>
</clipPath>
</defs>
</svg>
