<svg width="150" height="150" viewBox="0 0 150 150" fill="none" xmlns="http://www.w3.org/2000/svg">
<g clip-path="url(#clip0_78570_478980)">
<rect width="150" height="150" fill="#EDDDD6"/>
<path d="M17.2012 142.799C-12.7333 112.864 -12.7333 64.3309 17.2012 34.3965C47.1356 4.46198 95.6691 4.46203 125.604 34.3965C155.538 64.331 155.538 112.864 125.604 142.799C95.669 172.733 47.1357 172.733 17.2012 142.799Z" fill="#EDDDD6"/>
<path d="M108.614 155.578C117.661 150.479 150.5 164 132.136 135.51C124.734 124.818 105.817 109.521 95.4545 106.067C82.2953 101.625 101.705 132.056 108.778 155.578H108.614Z" fill="#1D46EB"/>
<path d="M53.6744 57.378C49.7266 56.8845 45.7789 57.7069 42.6536 60.0098C39.8573 61.9837 37.2254 65.2734 36.2385 70.8661C33.9356 84.0252 38.7058 87.8085 31.1393 92.7432C23.5728 97.6778 19.296 94.717 14.5258 107.054C9.75566 119.39 17.1577 135.839 32.4552 132.55C47.7527 129.26 84.7628 119.061 84.7628 119.061L86.4077 64.2865L67.8204 59.3518L53.6744 57.5424V57.378Z" fill="black"/>
<path d="M29.4944 152.782C37.3899 157.881 46.1078 161.664 55.6482 163.638C60.7474 164.789 66.0111 165.283 71.4392 165.283C76.8674 165.283 76.045 165.283 78.3478 164.954C81.9666 164.625 85.5853 163.967 89.2041 163.144C96.1126 161.5 102.528 159.032 108.614 155.578C115.193 151.959 121.115 147.353 126.379 142.09C124.076 135.839 121.773 130.247 119.306 126.299C107.956 107.054 91.178 105.244 91.178 105.244C73.2486 99.9806 57.9511 98.9936 41.8311 106.889C34.5936 110.508 30.9748 130.905 29.6589 152.617L29.4944 152.782Z" fill="#1D46EB"/>
<path d="M37.5542 149.162L38.0477 157.551C43.6403 160.183 49.3974 162.322 55.648 163.473C60.7472 164.624 66.0109 165.118 71.439 165.118C76.8672 165.118 76.0447 165.118 78.3476 164.789C81.9664 164.46 85.5851 163.802 89.2039 162.98C96.1124 161.335 102.527 158.867 108.614 155.413C108.943 155.249 109.272 155.084 109.601 154.92C113.219 152.946 116.674 150.478 119.799 148.011C109.6 126.627 95.29 106.066 95.29 106.066L73.7418 101.625L46.2722 106.395L37.7187 149.327L37.5542 149.162Z" fill="#1B9CF0"/>
<path d="M95.2898 106.067C95.2898 106.067 103.843 134.031 109.6 155.085C113.384 152.947 117.002 150.48 120.292 147.683L102.034 111.331L95.2898 106.067Z" fill="#1D46EB"/>
<path d="M102.034 68.3989C102.034 68.3989 109.436 56.3912 108.778 51.292C107.298 38.6264 89.5329 29.9084 71.7681 35.83C54.0032 41.7517 50.3844 63.7932 53.1807 73.4981C60.2537 98.1715 81.9663 89.6181 81.9663 89.6181C81.9663 89.6181 115.522 83.3675 102.034 68.3989Z" fill="black"/>
<path d="M96.1123 94.7171V95.2106L95.1253 103.928L94.3029 110.673C94.3029 110.673 94.7963 112.317 86.9008 111.166C76.3735 109.686 73.2482 104.915 73.2482 104.915L73.9062 88.96L77.0315 89.7824L96.1123 94.7171Z" fill="#FCA397"/>
<path d="M95.9482 95.2113L94.9613 103.929C89.8622 102.942 80.6508 99.9815 77.361 91.5926C77.1965 90.9346 77.032 90.2767 76.8675 89.7832L95.7838 95.0469L95.9482 95.2113Z" fill="black"/>
<path d="M102.363 53.9242C102.363 53.9242 110.588 77.2817 106.146 89.6184C101.705 102.12 90.3555 99.3232 83.6114 96.3624C76.8674 93.4016 73.9066 88.9604 73.9066 88.9604C73.9066 88.9604 67.327 90.7698 63.3792 84.3547C59.4315 78.1041 62.5568 71.3601 66.5046 70.0441C70.2878 68.7282 74.5645 71.689 74.5645 71.689L71.6037 64.945C71.6037 64.945 88.3816 32.5406 102.528 54.0887L102.363 53.9242Z" fill="#FCA397"/>
<path d="M99.2378 82.7093C99.5668 82.7093 99.8957 82.5448 100.06 82.2159C101.87 77.4457 98.9088 72.182 98.7443 72.0175C98.5798 71.6885 98.0864 71.5241 97.5929 71.6886C97.2639 71.853 97.0995 72.3465 97.264 72.84C97.264 72.84 100.06 77.6102 98.4153 81.5579C98.2508 82.0514 98.4154 82.3804 98.9089 82.5448C98.9089 82.5448 99.0733 82.5448 99.2378 82.5448V82.7093Z" fill="black"/>
<path d="M72.5904 82.3804C72.7549 82.3804 72.9193 82.3804 73.0838 82.2159C73.4128 81.8869 73.4128 81.3934 73.0838 81.0645L67.4912 74.1559C67.1622 73.8269 66.6687 73.8269 66.3397 74.1559C66.0107 74.4849 66.0107 74.9784 66.3397 75.3073L71.9324 82.2159C71.9324 82.3804 72.2614 82.5449 72.5904 82.5449V82.3804Z" fill="black"/>
<path d="M66.3397 80.0774L70.6165 79.7484C71.11 79.7484 71.439 79.2549 71.439 78.926C71.439 78.4325 70.9455 78.1035 70.6165 78.1035L66.3397 78.4325C65.8463 78.4325 65.5173 78.926 65.5173 79.2549C65.5173 79.7484 65.8463 80.0774 66.3397 80.0774Z" fill="black"/>
<path d="M91.8359 89.1249C93.9742 89.1249 95.9481 87.48 95.9481 87.48C96.1126 87.3155 96.2771 86.9866 96.2771 86.6576C96.2771 86.3286 96.1126 86.1641 95.7837 85.9996L87.2302 82.3809C86.9012 82.3809 86.5722 82.3809 86.4077 82.3809C86.2432 82.5453 86.0787 82.8743 86.0787 83.2033C86.0787 83.2033 86.9012 86.6576 89.6975 88.3025C90.52 88.7959 91.178 88.9604 92.0004 88.9604L91.8359 89.1249ZM93.8098 86.9866C92.9873 87.48 91.6714 87.809 90.52 86.9866C89.533 86.3286 88.8751 85.3417 88.3816 84.6837L93.8098 86.9866Z" fill="black"/>
<path d="M86.4073 65.1089C86.7363 65.1089 86.9008 65.1089 87.0653 64.78C88.2167 62.9706 90.8485 63.6285 91.013 63.6285C91.5065 63.6285 91.8355 63.6285 92 63.1351C92 62.6416 92 62.3126 91.5066 62.1481C91.5066 62.1481 87.5588 60.9967 85.7494 63.9575C85.5849 64.2865 85.7493 64.78 86.0783 65.1089C86.0783 65.1089 86.4074 65.1089 86.5719 65.1089H86.4073Z" fill="black"/>
<path d="M104.008 63.9564C104.172 63.9564 104.501 63.9564 104.501 63.7919C104.83 63.4629 104.83 62.9694 104.501 62.6404C104.501 62.6404 102.692 60.8311 100.718 60.8311C99.7311 60.8311 98.9087 61.3245 98.0863 62.3115C97.7573 62.6404 97.9218 63.1339 98.0863 63.4629C98.4153 63.7919 98.9087 63.6274 99.2376 63.4629C99.7311 62.9694 100.06 62.6404 100.554 62.6404C101.87 62.6404 103.185 63.9564 103.185 63.9564C103.185 64.1208 103.514 64.2853 103.843 64.2853L104.008 63.9564Z" fill="black"/>
<path d="M102.199 73.4978C102.692 73.4978 103.021 73.0043 103.021 72.6754L102.692 68.7276L104.172 67.0827C104.501 66.7537 104.501 66.2603 104.172 65.9313C103.843 65.6023 103.35 65.6023 103.021 65.9313L101.212 67.7407C101.212 67.9052 101.047 68.0697 101.047 68.3986L101.376 72.6754C101.376 73.1688 101.705 73.4978 102.199 73.4978Z" fill="black"/>
<path d="M88.0521 73.4978C88.5456 73.4978 88.8746 73.1688 88.8746 72.6754V68.8921C88.7101 68.8921 90.8485 67.0827 90.8485 67.0827C91.1775 66.7537 91.1775 66.2603 90.8485 65.9313C90.5195 65.6023 90.026 65.6023 89.697 65.9313L87.2297 68.0697C87.0652 68.2342 86.9007 68.5631 86.9007 68.7276V73.0043C87.0652 73.4978 87.5587 73.8268 87.8877 73.8268L88.0521 73.4978Z" fill="black"/>
<path d="M63.0496 49.812C63.0496 49.812 66.175 22.8357 47.5877 25.303C27.849 27.9349 45.6138 59.6813 58.2795 58.3654C63.8721 57.7074 63.2142 49.9764 63.2142 49.9764L63.0496 49.812Z" fill="black"/>
<path d="M94.9612 112.81C95.6191 112.81 95.9481 112.81 95.9481 112.81C96.4415 112.81 96.7705 112.481 96.7705 111.988C96.7705 111.494 96.4415 111.165 95.9481 111.165C95.9481 111.165 84.4338 111.659 75.2224 106.231C74.8935 106.066 74.4 106.231 74.071 106.56C73.9065 106.888 74.071 107.382 74.4 107.711C82.46 112.481 91.8359 112.975 94.9612 112.975V112.81Z" fill="white"/>
<path d="M17.1576 142.749C16.5 168 50.2199 165.119 71.2746 165.119C92.3292 165.119 75.8803 165.119 78.1832 164.79C76.7027 156.895 75.2224 151.466 75.2224 151.466L55.8126 102.284C55.8126 102.284 36.4028 102.778 23.5727 122.516C20.7764 126.793 18.4736 134.031 17.1576 142.584V142.749Z" fill="#1D46EB"/>
<path d="M55.6477 163.637C60.7469 164.789 66.0106 165.282 71.4388 165.282C76.8669 165.282 76.0445 165.282 78.3474 164.953C81.9661 164.624 85.5848 163.966 89.2036 163.144C82.2951 134.029 73.2481 101.625 73.2481 101.625L55.9767 102.447L55.6477 163.637Z" fill="#1D46EB"/>
<path d="M53.674 58.2008C54.1674 58.2008 54.4964 57.8718 54.4964 57.3783C55.6478 45.6996 63.5433 41.4229 63.5433 41.4229C63.8723 41.2584 64.0367 40.7649 63.8722 40.2714C63.7077 39.9425 63.2143 39.778 62.7209 39.9425C62.3919 40.1069 54.0029 44.5482 52.687 57.2138C52.687 57.7073 53.016 58.0363 53.345 58.0363L53.674 58.2008Z" fill="white"/>
<path d="M90.6842 44.3832C90.6842 44.3832 93.4805 48.002 93.8094 53.7591L94.1384 59.5163L69.9585 66.5893L69.465 54.9106L90.5196 44.2188L90.6842 44.3832Z" fill="black"/>
<path d="M92.8226 48.3318C92.8226 48.3318 94.9609 50.1412 95.9479 52.6086C96.9348 55.0759 97.9217 60.0106 97.9217 60.0106L104.83 59.1881L104.008 47.0159L94.632 41.2588L88.8748 41.9167L89.6973 49.8122L92.6581 48.3318H92.8226Z" fill="black"/>
</g>
<defs>
<clipPath id="clip0_78570_478980">
<rect width="150" height="150" fill="white"/>
</clipPath>
</defs>
</svg>
